<?xml version="1.0" standalone="no"?>
<!DOCTYPE svg PUBLIC "-//W3C//DTD SVG 20010904//EN"
 "http://www.w3.org/TR/2001/REC-SVG-20010904/DTD/svg10.dtd">
<svg version="1.0" xmlns="http://www.w3.org/2000/svg"
 width="447.000000pt" height="232.000000pt" viewBox="0 0 447.000000 232.000000"
 preserveAspectRatio="xMidYMid meet">

<g transform="translate(0.000000,232.000000) scale(0.100000,-0.100000)"
fill="#000000" stroke="none">
<path d="M4013 2307 c0 -7 7 -19 16 -27 13 -13 14 -12 8 4 -4 10 -7 22 -7 27
0 5 -4 9 -8 9 -5 0 -9 -6 -9 -13z"/>
<path d="M4037 2254 c-4 -4 -7 -14 -7 -23 0 -11 3 -12 11 -4 6 6 10 16 7 23
-2 6 -7 8 -11 4z"/>
<path d="M2093 2204 c-6 -13 -7 -22 -3 -19 5 3 11 1 15 -5 3 -5 16 -15 28 -20
20 -10 20 -10 5 3 -10 8 -18 20 -18 28 0 30 -15 38 -27 13z"/>
<path d="M2307 2223 c-14 -13 -7 -71 10 -84 15 -13 15 -12 4 10 -7 13 -11 36
-9 52 5 31 5 32 -5 22z"/>
<path d="M3280 2226 c0 -2 7 -9 15 -16 9 -7 15 -8 15 -2 0 5 -7 12 -15 16 -8
3 -15 4 -15 2z"/>
<path d="M3615 2210 c-3 -5 -1 -10 4 -10 6 0 11 5 11 10 0 6 -2 10 -4 10 -3 0
-8 -4 -11 -10z"/>
<path d="M4050 2209 c0 -5 5 -7 10 -4 6 3 10 8 10 11 0 2 -4 4 -10 4 -5 0 -10
-5 -10 -11z"/>
<path d="M3577 2181 c-3 -15 -1 -18 11 -14 10 4 13 2 8 -5 -4 -7 -3 -12 3 -12
18 0 21 18 5 34 -20 20 -21 20 -27 -3z"/>
<path d="M4015 2183 c3 -7 -7 -25 -22 -39 -22 -21 -23 -24 -6 -15 12 6 31 11
43 11 20 0 21 -4 18 -92 -3 -79 -6 -93 -20 -96 -16 -3 -18 5 -18 70 0 67 -2
74 -20 74 -23 0 -27 -14 -5 -22 11 -5 15 -23 15 -71 0 -64 0 -64 28 -61 19 2
28 9 30 26 l3 23 20 -26 c26 -32 72 -34 93 -3 24 33 19 45 -5 14 -24 -31 -52
-33 -79 -6 -16 16 -20 33 -20 79 0 52 3 62 26 80 34 27 40 26 69 -4 19 -18 25
-35 25 -69 0 -25 5 -48 11 -52 8 -5 10 1 6 18 -9 33 9 91 34 114 20 18 22 18
52 1 l32 -17 -24 20 c-32 27 -48 25 -81 -10 -26 -27 -28 -28 -33 -10 -3 11
-17 25 -32 32 -23 10 -32 9 -55 -4 -24 -14 -29 -14 -34 -2 -3 8 -11 14 -17 14
-7 0 -18 8 -26 18 -8 9 -12 11 -8 5z"/>
<path d="M1510 2166 c0 -2 7 -6 15 -10 8 -3 15 -1 15 4 0 6 -7 10 -15 10 -8 0
-15 -2 -15 -4z"/>
<path d="M3365 2142 c4 -31 3 -33 -18 -27 -14 4 -17 3 -10 -2 18 -13 29 -73
14 -73 -8 0 -10 8 -6 20 3 11 2 20 -3 20 -9 0 -21 -31 -22 -52 0 -5 9 -8 20
-8 12 0 20 -7 20 -17 0 -15 2 -15 9 -4 12 18 12 129 0 155 -8 17 -8 14 -4 -12z"/>
<path d="M3421 2154 c0 -11 3 -14 6 -6 3 7 2 16 -1 19 -3 4 -6 -2 -5 -13z"/>
<path d="M3750 2160 c8 -5 20 -10 25 -10 6 0 3 5 -5 10 -8 5 -19 10 -25 10 -5
0 -3 -5 5 -10z"/>
<path d="M1568 2088 c4 -73 21 -85 24 -15 l1 42 6 -45 c5 -37 10 -46 29 -48
12 -2 22 1 22 7 0 6 -7 11 -16 11 -13 0 -15 7 -12 33 3 17 8 41 12 52 5 11 4
16 -1 10 -9 -11 -45 -17 -39 -6 3 4 -3 12 -12 18 -15 9 -17 4 -14 -59z"/>
<path d="M3511 2155 c-1 -6 5 -17 11 -23 9 -9 10 -15 2 -20 -19 -12 -26 -51
-19 -98 7 -48 29 -59 59 -28 34 33 9 154 -32 154 -6 0 -13 6 -15 13 -3 6 -6 7
-6 2z m49 -105 c0 -21 -4 -41 -9 -44 -5 -3 -8 16 -8 43 2 57 17 58 17 1z"/>
<path d="M3730 2141 c0 -6 4 -13 10 -16 6 -3 7 1 4 9 -7 18 -14 21 -14 7z"/>
<path d="M190 2091 c0 -47 2 -51 24 -51 29 0 36 16 27 61 -5 25 -13 35 -29 37
-20 3 -22 -1 -22 -47z m31 16 c-13 -13 -26 -3 -16 12 3 6 11 8 17 5 6 -4 6
-10 -1 -17z m9 -35 c0 -13 -12 -22 -22 -16 -10 6 -1 24 13 24 5 0 9 -4 9 -8z"/>
<path d="M271 2118 c-25 -68 -22 -97 5 -60 12 16 14 16 28 -3 19 -25 21 -8 5
48 -11 42 -26 48 -38 15z"/>
<path d="M330 2090 c0 -27 5 -50 10 -50 6 0 10 12 10 28 l1 27 17 -27 c24 -40
32 -35 32 22 0 30 -4 50 -11 50 -7 0 -9 -11 -5 -30 3 -16 3 -30 1 -30 -2 0
-11 14 -20 30 -23 44 -35 37 -35 -20z"/>
<path d="M419 2116 c-22 -48 15 -103 53 -80 9 6 5 10 -12 14 -20 5 -25 12 -25
35 0 23 5 31 23 33 30 5 28 22 -3 22 -17 0 -29 -8 -36 -24z"/>
<path d="M492 2128 c-35 -35 6 -110 47 -88 39 20 23 100 -19 100 -9 0 -21 -5
-28 -12z m48 -37 c0 -36 -19 -50 -35 -27 -17 23 -7 56 16 56 14 0 19 -7 19
-29z"/>
<path d="M599 2116 c-22 -48 7 -97 48 -82 15 6 14 9 -7 19 -33 17 -35 61 -2
65 30 5 28 22 -3 22 -17 0 -29 -8 -36 -24z"/>
<path d="M670 2085 c0 -52 1 -55 25 -55 14 0 25 5 25 10 0 6 -7 10 -15 10 -18
0 -20 26 -2 33 8 3 6 10 -8 21 -20 15 -20 15 3 16 12 0 22 5 22 10 0 6 -11 10
-25 10 -24 0 -25 -3 -25 -55z"/>
<path d="M730 2089 c0 -33 4 -48 11 -43 6 3 9 15 6 25 -8 30 9 22 23 -11 18
-43 30 -37 30 15 0 33 4 45 15 45 11 0 15 -12 15 -47 0 -25 3 -43 8 -39 8 9 9
14 11 56 2 45 21 36 21 -9 0 -47 17 -64 22 -24 l4 28 12 -27 c6 -16 14 -28 16
-28 9 0 3 85 -6 97 -5 6 -36 11 -73 11 -63 -1 -65 -1 -65 -27 l-1 -26 -17 28
c-24 39 -32 34 -32 -24z m180 16 c0 -8 -4 -15 -10 -15 -5 0 -10 7 -10 15 0 8
5 15 10 15 6 0 10 -7 10 -15z"/>
<path d="M963 2125 c-16 -29 -28 -106 -13 -82 6 9 16 17 22 17 6 0 17 -8 25
-17 13 -16 14 -15 8 11 -3 16 -12 43 -19 60 -12 29 -13 30 -23 11z"/>
<path d="M1020 2086 c0 -53 1 -56 25 -56 14 0 25 5 25 10 0 6 -9 10 -20 10
-17 0 -20 6 -17 41 2 22 0 42 -5 45 -4 3 -8 -20 -8 -50z"/>
<path d="M1113 2133 c-8 -3 -13 -24 -13 -54 0 -45 2 -49 24 -49 14 0 31 9 40
21 l14 21 11 -21 c13 -23 41 -27 59 -9 17 17 15 73 -2 87 -16 14 -56 -1 -56
-20 0 -6 -12 -1 -26 10 -28 22 -31 23 -51 14z m42 -48 c0 -20 -6 -31 -17 -33
-15 -3 -18 4 -18 33 0 29 3 36 18 33 11 -2 17 -13 17 -33z m85 20 c16 -19 3
-55 -21 -55 -14 0 -19 7 -19 28 0 43 17 54 40 27z"/>
<path d="M1303 2127 c-7 -12 -5 -86 4 -100 3 -4 16 -1 29 8 13 8 24 11 24 5 0
-5 5 -10 10 -10 6 0 10 9 10 20 0 27 14 25 28 -2 l12 -23 -2 25 c-1 14 1 30 5
37 13 20 -4 43 -32 43 -25 0 -27 -3 -25 -35 2 -21 -1 -33 -6 -30 -6 4 -10 19
-10 34 0 20 -6 30 -20 34 -11 3 -23 0 -27 -6z m24 -29 c-3 -8 -6 -5 -6 6 -1
11 2 17 5 13 3 -3 4 -12 1 -19z m74 -1 c-13 -13 -26 -3 -16 12 3 6 11 8 17 5
6 -4 6 -10 -1 -17z m-66 -47 c-5 -8 -11 -8 -17 -2 -6 6 -7 16 -3 22 5 8 11 8
17 2 6 -6 7 -16 3 -22z"/>
<path d="M1456 2128 c-3 -7 -9 -28 -15 -47 -14 -42 -14 -51 -1 -51 6 0 10 7
10 15 0 8 7 15 15 15 8 0 15 -5 15 -10 0 -18 51 -32 66 -19 20 16 17 36 -6 57
l-21 17 22 5 c19 5 20 7 7 18 -12 10 -18 8 -32 -7 -16 -18 -16 -20 4 -39 27
-25 19 -47 -11 -32 -10 6 -18 14 -17 18 3 10 -20 72 -27 72 -3 0 -7 -6 -9 -12z"/>
<path d="M1925 2130 c3 -5 8 -10 11 -10 2 0 4 5 4 10 0 6 -5 10 -11 10 -5 0
-7 -4 -4 -10z"/>
<path d="M3251 2121 c-25 -25 -27 -103 -2 -125 16 -15 19 -13 39 25 22 41 30
67 12 39 -7 -11 -10 -7 -10 18 0 17 -5 32 -11 32 -6 0 -9 7 -5 15 7 20 0 19
-23 -4z m19 -30 c0 -6 -4 -13 -10 -16 -5 -3 -10 1 -10 9 0 9 5 16 10 16 6 0
10 -4 10 -9z m3 -51 c-3 -11 -9 -20 -14 -20 -11 0 -11 3 -3 24 9 23 23 20 17
-4z"/>
<path d="M2920 2116 c0 -2 7 -7 16 -10 8 -3 12 -2 9 4 -6 10 -25 14 -25 6z"/>
<path d="M3006 2107 c3 -10 9 -15 12 -12 3 3 0 11 -7 18 -10 9 -11 8 -5 -6z"/>
<path d="M3073 2113 c9 -2 23 -2 30 0 6 3 -1 5 -18 5 -16 0 -22 -2 -12 -5z"/>
<path d="M3152 2095 c1 -14 6 -25 11 -25 5 0 6 9 2 19 -4 14 0 21 12 24 14 4
13 5 -4 6 -18 1 -22 -4 -21 -24z"/>
<path d="M3413 2053 l2 -68 34 -3 34 -3 -6 46 c-5 34 -3 47 7 51 22 8 -18 44
-49 44 -24 0 -25 -2 -22 -67z m42 38 c3 -5 1 -12 -4 -15 -5 -3 -11 1 -15 9 -6
16 9 21 19 6z m3 -73 c-2 -6 -10 -13 -16 -14 -7 -1 -8 0 -2 3 5 2 8 9 4 14 -3
5 0 9 6 9 7 0 10 -5 8 -12z"/>
<path d="M3610 2086 c-18 -56 0 -116 36 -116 40 0 55 95 22 138 -19 23 -46 13
-58 -22z m45 6 c24 -16 15 -102 -10 -102 -15 0 -18 12 -17 60 0 54 4 59 27 42z"/>
<path d="M3305 2099 c-4 -6 -5 -12 -2 -15 2 -3 7 2 10 11 7 17 1 20 -8 4z"/>
<path d="M4117 2103 c-11 -11 -8 -101 4 -109 15 -9 29 15 29 53 0 51 -14 75
-33 56z m23 -45 c0 -18 -5 -40 -10 -48 -7 -11 -10 -2 -10 33 0 26 5 47 10 47
6 0 10 -15 10 -32z"/>
<path d="M4257 2103 c-11 -11 -8 -101 4 -108 16 -10 20 -1 25 47 l3 43 -8 -38
c-12 -55 -21 -57 -21 -4 0 26 5 47 10 47 6 0 10 5 10 10 0 11 -13 13 -23 3z"/>
<path d="M2811 2068 c-1 -31 15 -46 32 -29 9 9 8 11 -5 6 -13 -5 -18 0 -21 22
l-4 28 -2 -27z"/>
<path d="M3182 2054 c2 -24 -1 -30 -21 -32 -18 -3 -21 -6 -11 -12 8 -5 22 -4
32 1 20 11 24 54 7 65 -7 4 -10 -4 -7 -22z"/>
<path d="M4332 2045 c0 -16 2 -22 5 -12 2 9 2 23 0 30 -3 6 -5 -1 -5 -18z"/>
<path d="M3831 2044 c0 -11 3 -14 6 -6 3 7 2 16 -1 19 -3 4 -6 -2 -5 -13z"/>
<path d="M3785 2010 c-3 -6 1 -7 9 -4 18 7 21 14 7 14 -6 0 -13 -4 -16 -10z"/>
<path d="M4320 1997 c0 -20 -33 -47 -58 -47 -11 0 -28 10 -36 22 -9 12 -16 18
-16 12 0 -18 35 -44 58 -44 25 0 62 33 62 55 0 8 -2 15 -5 15 -3 0 -5 -6 -5
-13z"/>
<path d="M535 1950 c-49 -11 -74 -29 -94 -68 -63 -124 -44 -321 38 -389 21
-18 23 -22 8 -23 -10 0 -20 7 -23 15 -4 8 -12 15 -18 15 -29 0 -114 -140 -121
-200 -2 -16 -9 -39 -15 -50 -6 -12 -9 -29 -6 -37 4 -9 2 -21 -3 -27 -5 -6 -12
-30 -16 -52 -6 -40 -5 -41 18 -37 21 4 26 0 32 -28 6 -27 9 -30 17 -15 7 12 5
22 -4 33 -11 14 -9 15 25 11 20 -2 37 -3 37 -1 0 1 -12 10 -27 18 l-28 16 30
-5 c17 -2 39 -7 50 -10 11 -4 4 1 -15 9 -74 33 -77 36 -35 30 l40 -5 -42 20
c-29 14 -41 25 -37 35 4 8 10 15 16 15 5 0 6 -4 3 -10 -3 -5 1 -10 9 -10 25 0
31 4 29 20 -1 11 2 10 12 -4 13 -17 15 -17 21 -3 3 10 10 17 16 17 5 0 6 -4 3
-10 -9 -14 9 -12 24 3 10 10 11 9 6 -4 -4 -11 1 -18 17 -23 39 -10 44 -6 18
15 -16 14 -19 19 -7 15 23 -7 22 3 -5 33 -13 14 -15 19 -5 12 33 -25 17 4 -20
38 -21 18 -29 27 -18 20 40 -26 74 -62 68 -72 -3 -6 -1 -7 5 -3 6 3 25 -8 44
-25 54 -50 76 -56 34 -8 -22 24 -44 47 -50 51 -6 4 -7 10 -3 14 4 5 26 -11 49
-34 22 -23 45 -42 50 -42 10 0 -44 62 -94 108 -16 14 -28 30 -28 36 0 6 4 5 9
-3 5 -7 13 -11 19 -7 5 3 29 -19 52 -49 40 -51 83 -96 66 -67 -4 6 -2 12 4 12
6 0 -1 21 -16 46 -15 26 -29 64 -31 86 -5 51 -29 88 -57 89 -19 0 -19 1 4 10
63 25 93 74 109 177 29 185 -49 327 -164 302z m55 -118 c16 -36 15 -205 -2
-240 -16 -32 -53 -41 -66 -15 -16 31 -24 122 -17 190 10 96 55 131 85 65z
m-34 -371 c-3 -5 -15 -7 -26 -4 -28 7 -25 13 6 13 14 0 23 -4 20 -9z m-11 -70
c3 -5 2 -12 -3 -15 -5 -3 -9 1 -9 9 0 17 3 19 12 6z m100 -79 c20 -35 34 -66
32 -69 -3 -2 -11 6 -17 19 -7 12 -26 37 -42 54 -16 17 -30 38 -31 45 -2 8 -6
20 -11 27 -7 11 -4 11 12 1 11 -7 36 -41 57 -77z m-95 -8 c0 -18 -8 -18 -26 1
-19 19 -8 41 12 24 8 -6 14 -18 14 -25z"/>
<path d="M818 1937 c-68 -34 -93 -95 -93 -222 0 -152 36 -226 120 -245 45 -10
79 1 117 37 84 81 79 337 -8 415 -11 9 -36 21 -56 26 -31 9 -44 7 -80 -11z
m78 -88 c4 -8 -1 -9 -17 -5 -21 6 -21 5 4 -9 15 -9 27 -19 28 -23 0 -4 3 -16
6 -27 10 -38 7 -150 -6 -187 -15 -44 -38 -55 -63 -30 -36 36 -37 242 -2 277
18 18 40 19 50 4z"/>
<path d="M1526 1947 c-5 -10 -5 -59 -1 -110 3 -51 7 -98 7 -104 1 -7 5 -13 9
-13 8 0 17 -40 27 -122 4 -32 5 -58 1 -58 -3 0 -18 29 -33 64 -15 36 -47 85
-71 110 -42 45 -43 47 -33 87 8 29 8 43 -1 52 -8 8 -11 1 -11 -28 0 -38 0 -38
-21 -19 -20 18 -20 18 -13 -11 3 -17 11 -34 15 -39 15 -16 10 -39 -6 -32 -23
9 -18 -12 7 -25 17 -9 23 -9 26 0 3 9 7 9 18 0 8 -6 11 -16 7 -23 -3 -6 -3 -8
1 -4 5 4 18 -3 31 -15 24 -23 39 -67 24 -67 -5 0 -9 -16 -9 -36 0 -19 -7 -42
-15 -50 -8 -9 -15 -25 -15 -37 -1 -43 -28 11 -36 70 -4 32 -12 57 -20 60 -8 3
-14 20 -14 42 0 26 -3 32 -9 21 -6 -8 -7 -18 -5 -22 3 -4 0 -8 -5 -8 -6 0 -11
8 -11 19 0 10 -9 21 -20 24 -11 3 -20 13 -20 24 0 14 -2 15 -9 4 -10 -15 -4
-66 9 -92 7 -12 4 -15 -13 -14 -24 2 -36 39 -30 88 2 15 -1 27 -6 27 -5 0 -13
-20 -17 -45 -8 -56 -24 -59 -24 -5 0 22 -4 40 -10 40 -5 0 -10 -13 -10 -30 0
-28 -14 -41 -22 -21 -5 14 -48 24 -48 11 0 -17 30 -84 40 -90 6 -3 18 -37 28
-76 17 -67 40 -114 54 -114 7 0 3 18 -12 55 -5 11 -16 47 -25 80 -9 33 -22 67
-29 75 -27 32 -30 43 -9 31 29 -15 53 -56 53 -88 0 -41 18 -95 40 -123 11 -14
18 -18 15 -10 -2 8 -6 31 -8 52 -3 27 -1 35 9 31 8 -3 14 -11 14 -18 0 -25 41
-66 61 -60 12 4 19 2 19 -7 0 -7 3 -23 6 -35 4 -15 2 -23 -6 -23 -7 0 -10 7
-6 15 6 17 -19 21 -30 4 -8 -14 43 -67 69 -71 25 -4 42 -30 33 -53 -6 -16 -8
-16 -25 4 -10 11 -21 21 -25 21 -11 0 -6 -28 7 -33 9 -4 9 -6 -1 -6 -7 -1 -44
32 -83 73 -51 52 -77 72 -90 69 -16 -5 -11 -13 31 -61 28 -31 47 -59 43 -63
-5 -3 -19 -9 -33 -12 -19 -5 -29 -1 -38 14 -7 11 -10 25 -6 30 7 12 -15 59
-27 59 -5 0 -6 -8 -3 -17 4 -12 -1 -9 -15 7 -18 23 -18 26 -3 32 9 4 13 7 7 8
-5 0 -2 5 7 10 13 8 15 17 8 39 -4 16 -6 32 -3 34 2 3 -2 18 -11 34 -17 32
-19 24 -7 -29 5 -21 5 -38 1 -38 -5 0 -15 -3 -24 -6 -9 -3 -16 -1 -16 6 0 6 5
8 10 5 6 -3 10 1 10 11 0 14 -2 15 -17 3 -10 -7 -19 -14 -21 -15 -2 -1 7 -11
19 -22 12 -12 19 -27 16 -36 -8 -20 30 -67 48 -59 10 3 15 -1 15 -12 0 -9 -4
-13 -10 -10 -6 3 -7 -1 -4 -9 3 -9 1 -16 -4 -16 -6 0 -13 9 -17 19 -7 23 -33
46 -42 38 -3 -4 5 -16 18 -27 17 -15 20 -23 11 -27 -10 -4 -10 -8 -1 -19 9
-11 7 -14 -15 -14 -14 0 -26 -5 -26 -11 0 -5 -5 -7 -11 -3 -6 3 -8 17 -5 30 7
28 3 29 -28 8 -23 -14 -25 -14 -40 7 -19 28 -10 42 10 15 7 -11 16 -17 20 -14
7 8 -36 48 -53 48 -19 0 -17 -7 18 -57 16 -25 28 -52 25 -60 -4 -9 -2 -11 7
-6 6 4 37 9 67 10 62 2 79 5 97 16 7 5 35 7 63 6 40 -2 47 -5 39 -16 -8 -9 -8
-13 0 -14 6 -1 16 -2 21 -3 6 0 15 -8 20 -16 7 -11 10 -12 10 -2 0 8 6 12 12
10 13 -5 22 1 60 36 15 13 17 20 8 26 -6 4 -11 10 -9 14 3 12 -41 86 -52 86
-6 0 -7 -5 -3 -12 5 -7 3 -8 -5 -3 -9 5 -10 10 -2 18 9 9 17 8 32 -1 19 -12
20 -11 14 7 -8 27 12 36 25 10 10 -17 18 -20 42 -15 28 5 36 1 75 -41 47 -51
58 -89 23 -80 -22 6 -25 0 -11 -22 5 -7 13 -11 18 -8 5 3 25 2 45 -2 45 -10
75 3 38 17 -14 5 -30 7 -36 5 -7 -2 -15 17 -21 46 -6 28 -6 51 -2 51 5 0 9 -4
9 -9 0 -5 13 -23 29 -39 l30 -29 3 26 c3 26 3 25 31 -14 l28 -40 -3 35 c-2 30
-50 108 -81 131 -5 3 1 24 13 46 20 40 42 103 35 103 -2 0 -15 -25 -29 -55
-22 -48 -46 -72 -46 -46 0 5 -14 13 -31 16 -23 5 -28 10 -18 16 7 4 18 4 25
-1 7 -7 24 8 52 48 53 72 47 67 112 107 30 19 49 35 42 35 -14 0 -50 -19 -70
-37 -18 -17 -32 -16 -32 1 0 7 17 26 38 42 20 15 39 32 40 36 2 4 9 8 15 9 16
1 83 79 68 79 -6 0 -11 -4 -11 -9 0 -14 -109 -105 -117 -98 -8 8 19 49 76 115
25 29 46 56 46 60 0 4 4 14 8 22 5 8 -1 4 -13 -10 -50 -56 -101 -110 -105
-110 -3 0 -5 7 -5 15 0 8 7 15 16 15 9 0 14 6 12 12 -3 7 -11 13 -19 13 -32 0
-21 20 13 23 22 2 39 9 42 19 6 14 4 14 -10 2 -14 -11 -18 -11 -21 -1 -3 6
-10 10 -16 6 -7 -3 -5 0 3 8 24 20 50 61 50 78 -1 12 -4 11 -15 -4 -8 -10 -12
-23 -9 -27 3 -5 -2 -6 -10 -3 -10 4 -16 1 -16 -7 0 -8 -16 -32 -36 -53 -31
-33 -34 -40 -20 -48 20 -11 21 -28 0 -28 -8 0 -12 5 -9 10 3 6 2 10 -3 10 -6
0 -12 -7 -16 -15 -3 -8 -12 -12 -19 -9 -11 4 -13 -1 -9 -22 8 -46 -22 -23 -35
27 l-13 44 3 -47 c3 -56 -9 -50 -19 10 -5 35 -4 42 10 42 20 0 21 16 1 24 -11
4 -15 21 -15 60 0 30 -5 58 -11 62 -9 5 -10 -21 -6 -95 2 -55 1 -101 -3 -101
-5 0 -14 14 -22 30 -12 28 -38 42 -38 20 0 -9 6 -18 53 -73 11 -13 16 -29 12
-42 -14 -46 -15 -93 -2 -142 12 -46 12 -56 -1 -84 -13 -26 -17 -29 -22 -14 -3
10 -3 39 0 65 3 27 3 58 -2 70 -4 12 -10 31 -12 43 -6 26 -10 44 -26 112 -7
28 -16 91 -19 140 -5 59 -10 84 -15 72z m259 -224 c24 10 26 -9 4 -37 -11 -14
-17 -30 -14 -36 3 -5 2 -10 -4 -10 -5 0 -13 -9 -16 -20 -7 -23 -41 -44 -55
-35 -10 6 25 106 41 116 5 3 6 14 2 25 -6 17 -5 17 10 5 9 -7 23 -11 32 -8z
m-85 -53 c4 0 0 -16 -8 -35 -18 -38 -32 -30 -32 19 0 22 4 27 16 22 9 -3 19
-6 24 -6z m-51 -97 c1 -13 -3 -23 -9 -23 -5 0 -10 19 -9 43 0 32 2 37 9 22 5
-11 9 -30 9 -42z m-272 10 c-3 -10 -5 -4 -5 12 0 17 2 24 5 18 2 -7 2 -21 0
-30z m-93 -53 l6 -35 -19 40 c-11 21 -17 43 -14 48 8 13 19 -11 27 -53z m130
-54 c-9 -84 -22 -48 -16 44 4 64 6 70 14 45 5 -16 6 -57 2 -89z m122 78 c4
-14 2 -30 -4 -36 -6 -6 -11 2 -14 26 -5 41 8 49 18 10z m-200 -31 c23 -22 35
-71 15 -59 -12 8 -51 84 -50 99 0 7 3 6 6 -2 3 -8 17 -25 29 -38z m394 42 c0
-14 -30 -62 -52 -82 -22 -21 -24 -21 -24 -3 0 10 4 16 8 14 4 -3 11 13 14 36
6 34 10 40 30 40 13 0 24 -2 24 -5z m-217 -112 c5 -26 3 -31 -8 -26 -9 3 -15
19 -15 41 0 42 14 33 23 -15z m-55 -30 c2 -12 -3 -20 -12 -20 -10 0 -15 9 -14
24 3 28 22 25 26 -4z m190 -30 c-5 -25 -28 -28 -28 -4 0 12 6 21 16 21 9 0 14
-7 12 -17z m-52 -41 c-10 -10 -39 25 -31 38 5 8 12 5 22 -10 8 -12 12 -24 9
-28z m-153 24 c4 -10 1 -13 -9 -9 -7 3 -14 9 -14 14 0 14 17 10 23 -5z m187
-35 c0 -11 5 -22 10 -24 6 -3 5 -4 -1 -3 -15 3 -32 46 -19 46 6 0 10 -9 10
-19z m92 -31 c9 -17 14 -30 11 -30 -8 0 -43 41 -43 52 0 17 16 7 32 -22z
m-372 -53 c0 -6 -9 -2 -20 8 -11 10 -20 23 -20 28 0 6 9 2 20 -8 11 -10 20
-23 20 -28z m-125 -26 c3 -5 1 -12 -5 -16 -5 -3 -10 1 -10 9 0 18 6 21 15 7z"/>
<path d="M245 1922 c-48 -26 -50 -30 -48 -66 3 -50 8 -53 42 -33 16 9 32 17
35 17 3 0 6 -81 6 -180 0 -137 3 -180 13 -181 6 0 22 -2 34 -3 46 -5 47 0 48
241 l0 228 -40 3 c-29 1 -54 -6 -90 -26z"/>
<path d="M1948 1908 c-10 -12 -18 -27 -18 -33 1 -12 40 33 40 46 0 13 -3 11
-22 -13z"/>
<path d="M2069 1913 c-13 -16 -12 -17 4 -4 9 7 17 15 17 17 0 8 -8 3 -21 -13z"/>
<path d="M1676 1875 c3 -27 6 -60 7 -71 1 -12 7 -26 13 -32 7 -7 11 2 11 32 0
22 2 48 4 56 2 8 -3 14 -11 15 -8 0 -18 11 -22 25 -5 15 -5 5 -2 -25z"/>
<path d="M727 1899 c7 -7 15 -10 18 -7 3 3 -2 9 -12 12 -14 6 -15 5 -6 -5z"/>
<path d="M3259 1874 c-9 -11 -10 -20 -3 -32 16 -24 28 -24 42 -1 10 16 10 24
1 35 -15 18 -23 18 -40 -2z"/>
<path d="M3429 1870 c0 -11 -1 -33 -1 -50 0 -47 1 -50 17 -50 11 0 15 12 15
44 0 24 3 51 6 60 4 12 0 16 -15 16 -14 0 -21 -7 -22 -20z"/>
<path d="M1298 1817 c-5 -27 0 -47 13 -47 12 0 12 57 0 64 -5 3 -11 -4 -13
-17z"/>
<path d="M1565 1830 c-3 -5 -1 -10 4 -10 6 0 11 5 11 10 0 6 -2 10 -4 10 -3 0
-8 -4 -11 -10z"/>
<path d="M3357 1803 c-4 -3 -7 -33 -7 -65 0 -45 3 -58 15 -58 12 0 15 14 15
65 0 60 -6 75 -23 58z"/>
<path d="M1986 1773 c-6 -14 -5 -15 5 -6 7 7 10 15 7 18 -3 3 -9 -2 -12 -12z"/>
<path d="M3130 1743 c0 -10 7 -27 15 -37 14 -19 15 -18 15 17 0 26 -4 37 -15
37 -8 0 -15 -8 -15 -17z"/>
<path d="M3625 1750 c-4 -6 -3 -16 3 -22 6 -6 12 -6 17 2 4 6 3 16 -3 22 -6 6
-12 6 -17 -2z"/>
<path d="M1961 1727 c-13 -21 -12 -21 5 -5 10 10 16 20 13 22 -3 3 -11 -5 -18
-17z"/>
<path d="M4211 1734 c0 -11 3 -14 6 -6 3 7 2 16 -1 19 -3 4 -6 -2 -5 -13z"/>
<path d="M1090 1685 c7 -8 16 -15 21 -15 5 0 6 7 3 15 -4 8 -13 15 -21 15 -13
0 -13 -3 -3 -15z"/>
<path d="M1912 1683 c-7 -2 -17 -14 -23 -26 -11 -21 -10 -20 15 2 14 14 26 26
26 28 0 3 0 3 -18 -4z"/>
<path d="M3500 1633 c0 -43 0 -43 35 -43 34 0 35 1 35 40 0 25 -5 40 -12 41
-7 0 -23 2 -35 3 -21 2 -23 -2 -23 -41z"/>
<path d="M1980 1645 c0 -8 2 -15 4 -15 2 0 6 7 10 15 3 8 1 15 -4 15 -6 0 -10
-7 -10 -15z"/>
<path d="M2157 1641 c-4 -17 -3 -21 5 -13 5 5 8 16 6 23 -3 8 -7 3 -11 -10z"/>
<path d="M2048 1638 c0 -7 -3 -24 -5 -38 -2 -14 -5 -49 -6 -79 -3 -50 -6 -56
-36 -72 -18 -9 -40 -24 -50 -33 -15 -14 -17 -13 -19 11 -1 15 -5 29 -8 32 -4
3 -5 -13 -2 -35 2 -31 0 -40 -9 -37 -7 3 -13 0 -13 -6 0 -20 36 -12 57 13 12
13 19 27 16 30 -4 3 2 6 13 6 24 0 114 84 142 133 12 20 18 37 14 37 -4 0 -16
-14 -26 -32 -24 -39 -48 -68 -58 -68 -4 0 -5 34 -1 75 3 41 3 75 -1 75 -3 0
-7 -6 -8 -12z"/>
<path d="M3242 1632 c-33 -3 -33 -4 -16 -23 17 -19 68 -26 78 -10 10 16 -29
36 -62 33z"/>
<path d="M3130 1610 c0 -5 5 -10 11 -10 5 0 7 5 4 10 -3 6 -8 10 -11 10 -2 0
-4 -4 -4 -10z"/>
<path d="M1900 1575 c-8 -9 -8 -15 -2 -15 12 0 26 19 19 26 -2 2 -10 -2 -17
-11z"/>
<path d="M1029 1558 c0 -13 -3 -32 -5 -43 -3 -11 -5 -27 -6 -35 0 -10 -12 -16
-41 -18 -23 -1 -61 -12 -85 -24 -32 -15 -46 -18 -55 -9 -21 21 -27 11 -23 -33
3 -25 2 -54 -1 -66 -5 -20 -7 -20 -24 -4 -25 22 -24 7 1 -34 11 -18 20 -39 20
-47 0 -7 5 -17 11 -20 6 -4 9 -1 8 6 -1 8 2 29 6 47 6 28 10 31 23 20 13 -11
15 -10 9 5 -9 24 0 21 29 -10 l24 -28 -26 50 -26 50 32 -35 32 -35 -28 50
c-19 35 -22 46 -10 36 15 -12 19 -12 26 -1 6 10 14 5 29 -21 22 -35 30 -24 10
14 -7 12 -8 19 -4 15 8 -8 34 20 35 37 0 6 -4 5 -8 -2 -6 -9 -11 -7 -20 7 -21
34 7 24 44 -16 20 -21 31 -28 28 -17 -5 16 -4 16 10 -1 16 -19 16 -19 16 5 0
14 -5 30 -10 35 -7 7 -4 10 11 9 12 -1 30 -11 40 -23 9 -12 21 -22 25 -22 4 0
3 5 -4 12 -16 16 -15 28 1 28 7 0 20 20 29 45 21 56 14 60 -8 5 -11 -28 -22
-40 -33 -38 -16 4 -17 15 -5 91 4 24 2 37 -5 37 -6 0 -11 -13 -11 -29 0 -16
-7 -34 -15 -41 -8 -7 -15 -21 -15 -32 0 -11 -5 -18 -12 -15 -14 4 -15 23 -4
80 4 24 3 37 -4 37 -5 0 -10 -10 -11 -22z"/>
<path d="M1995 1560 c-3 -6 1 -7 9 -4 18 7 21 14 7 14 -6 0 -13 -4 -16 -10z"/>
<path d="M2168 1518 c-40 -46 -35 -55 7 -15 19 19 35 37 35 41 0 14 -17 4 -42
-26z"/>
<path d="M1855 1529 c-11 -16 -1 -19 13 -3 7 8 8 14 3 14 -5 0 -13 -5 -16 -11z"/>
<path d="M1785 1460 c-10 -30 -20 -61 -23 -69 -3 -9 -1 -12 6 -8 13 9 45 103
39 120 -2 6 -12 -13 -22 -43z"/>
<path d="M1832 1475 c-6 -13 -7 -27 -3 -30 5 -2 11 8 14 23 7 35 3 38 -11 7z"/>
<path d="M3446 1487 c6 -18 41 -19 41 -1 0 8 -10 14 -23 14 -15 0 -22 -5 -18
-13z"/>
<path d="M1886 1465 c-9 -14 -13 -25 -8 -25 5 0 14 11 20 25 6 14 10 25 8 25
-2 0 -11 -11 -20 -25z"/>
<path d="M3390 1480 c-13 -9 -7 -14 13 -11 4 0 7 -9 7 -20 0 -20 -1 -21 -25
-5 -26 17 -65 22 -65 7 0 -5 -10 -12 -22 -15 -49 -13 -53 -22 -22 -50 24 -21
26 -27 14 -35 -9 -6 -19 -6 -26 -1 -14 12 -24 3 -17 -15 2 -8 11 -11 19 -8 9
3 14 -1 14 -13 0 -9 3 -14 8 -10 4 4 7 13 7 19 0 20 26 19 32 -2 5 -21 6 -21
22 -3 9 10 32 23 51 29 23 7 28 11 14 12 -19 1 -58 35 -61 54 -3 17 -13 20
-13 4 0 -9 -4 -17 -9 -17 -12 0 -9 33 4 42 17 13 23 9 29 -17 6 -24 7 -25 31
-9 17 11 25 25 25 45 0 31 -6 35 -30 19z m-40 -94 c0 -2 -7 -6 -15 -10 -8 -3
-15 -1 -15 4 0 6 7 10 15 10 8 0 15 -2 15 -4z m2 -38 c-9 -9 -15 -9 -24 0 -9
9 -7 12 12 12 19 0 21 -3 12 -12z"/>
<path d="M3634 1471 c11 -11 23 -21 28 -21 14 0 -1 19 -25 31 -22 12 -22 12
-3 -10z"/>
<path d="M626 1472 c-9 -14 2 -34 14 -27 4 3 13 -10 19 -27 12 -34 61 -111 67
-105 2 2 -5 22 -16 45 -11 22 -20 45 -20 49 0 4 -13 23 -29 42 -18 22 -30 30
-35 23z"/>
<path d="M3546 1468 c-10 -23 -4 -49 10 -40 6 4 7 18 4 32 -6 21 -8 22 -14 8z"/>
<path d="M3683 1451 c-6 -22 -18 -27 -28 -12 -3 6 -14 9 -25 8 -12 -1 -16 -5
-10 -11 6 -6 5 -16 -1 -27 -7 -15 -6 -17 6 -13 8 4 15 12 15 20 0 8 3 14 8 14
17 -1 30 -18 44 -60 l15 -45 8 44 c5 32 4 46 -6 52 -7 4 -11 11 -8 14 10 9 39
-6 39 -20 0 -7 7 -16 16 -19 25 -9 27 -7 13 11 -8 9 -13 18 -11 20 7 10 0 21
-15 26 -10 2 -26 8 -36 12 -14 6 -20 2 -24 -14z"/>
<path d="M3448 1438 c8 -9 11 -22 8 -27 -4 -5 -2 -12 4 -16 5 -3 10 -2 10 4 0
5 8 18 18 27 16 17 16 18 -2 11 -10 -4 -26 -2 -35 5 -14 12 -14 11 -3 -4z"/>
<path d="M3778 1433 c7 -12 17 -25 22 -28 7 -4 6 -13 0 -26 -6 -11 -15 -17
-19 -14 -5 2 -8 -7 -8 -20 0 -14 4 -25 9 -25 6 0 8 -6 5 -14 -3 -8 0 -17 8
-20 10 -3 12 0 8 12 -6 15 -3 14 15 -2 23 -20 24 -19 24 14 0 41 -2 46 -13 30
-9 -12 -10 -12 -5 3 7 21 -18 79 -42 99 -13 12 -14 10 -4 -9z"/>
<path d="M2036 1390 c-27 -28 -47 -53 -43 -56 3 -3 12 3 19 15 7 12 18 21 24
21 14 0 56 49 52 61 -2 5 -25 -14 -52 -41z"/>
<path d="M1074 1406 c7 -39 26 -58 22 -22 -1 15 -8 32 -15 39 -10 9 -11 6 -7
-17z"/>
<path d="M1830 1419 c0 -14 29 -17 40 -4 8 10 5 13 -15 11 -14 0 -25 -4 -25
-7z"/>
<path d="M1735 1397 c-11 -11 -14 -17 -7 -13 7 4 12 2 13 -6 0 -7 5 -2 10 11
12 31 9 33 -16 8z"/>
<path d="M2140 1370 c-17 -22 -29 -40 -25 -40 9 0 65 62 65 73 0 14 -8 7 -40
-33z"/>
<path d="M1830 1390 c0 -5 5 -10 10 -10 6 0 10 5 10 10 0 6 -4 10 -10 10 -5 0
-10 -4 -10 -10z"/>
<path d="M2097 1393 c-4 -3 -7 -11 -7 -17 0 -6 5 -5 12 2 6 6 9 14 7 17 -3 3
-9 2 -12 -2z"/>
<path d="M2200 1384 c0 -8 5 -12 10 -9 6 3 10 10 10 16 0 5 -4 9 -10 9 -5 0
-10 -7 -10 -16z"/>
<path d="M3401 1391 c-8 -5 -9 -11 -3 -15 5 -3 15 1 22 9 14 16 3 20 -19 6z"/>
<path d="M1000 1381 c0 -6 4 -13 10 -16 6 -3 7 1 4 9 -7 18 -14 21 -14 7z"/>
<path d="M2255 1379 c-5 -6 -29 -27 -51 -47 -49 -43 -115 -150 -70 -113 11 9
15 9 18 -1 3 -9 6 -9 12 0 4 7 2 12 -3 12 -6 0 -11 9 -11 20 0 11 4 20 9 20
10 0 121 104 121 114 0 9 -14 6 -25 -5z"/>
<path d="M3215 1365 c-14 -14 -25 -32 -25 -39 0 -8 30 -42 66 -76 96 -89 154
-121 154 -85 0 9 -6 12 -17 8 -10 -4 -14 -2 -10 4 5 7 0 9 -13 6 -15 -4 -20 0
-20 16 0 11 -4 21 -8 21 -5 0 -19 9 -32 20 -12 11 -26 18 -30 15 -4 -2 -15 4
-25 15 -12 13 -14 20 -6 20 8 0 4 12 -9 30 l-22 31 23 19 c12 11 17 20 11 20
-6 0 -23 -11 -37 -25z m25 -65 c0 -5 -4 -10 -10 -10 -5 0 -10 5 -10 10 0 6 5
10 10 10 6 0 10 -4 10 -10z"/>
<path d="M3731 1363 c0 -10 6 -33 13 -52 10 -29 14 -32 20 -16 3 10 3 21 -1
24 -4 3 -8 12 -9 19 -3 36 -5 42 -14 42 -5 0 -10 -8 -9 -17z"/>
<path d="M980 1361 c0 -5 5 -13 10 -16 6 -3 10 -2 10 4 0 5 -4 13 -10 16 -5 3
-10 2 -10 -4z"/>
<path d="M1306 1362 c-6 -10 45 -59 82 -80 22 -12 22 -11 13 7 -15 26 -88 83
-95 73z"/>
<path d="M1855 1360 c4 -6 11 -8 16 -5 14 9 11 15 -7 15 -8 0 -12 -5 -9 -10z"/>
<path d="M2152 1345 c-11 -14 -27 -25 -36 -25 -20 0 -95 -80 -96 -102 0 -30
28 -20 35 13 6 28 8 29 21 12 13 -17 13 -17 14 2 1 24 33 65 50 65 14 0 50 38
50 52 0 16 -19 8 -38 -17z"/>
<path d="M1065 1350 c-3 -5 -1 -10 4 -10 6 0 11 5 11 10 0 6 -2 10 -4 10 -3 0
-8 -4 -11 -10z"/>
<path d="M1766 1351 c-3 -5 3 -20 14 -33 11 -14 17 -28 14 -31 -9 -9 36 -68
47 -62 9 6 -29 87 -43 93 -5 2 -8 10 -8 17 0 17 -17 28 -24 16z"/>
<path d="M2060 1338 c-22 -34 -31 -58 -20 -58 6 0 10 7 10 15 0 8 4 15 8 15 5
0 14 11 20 25 14 31 2 33 -18 3z"/>
<path d="M1100 1335 c0 -8 4 -15 10 -15 5 0 7 7 4 15 -4 8 -8 15 -10 15 -2 0
-4 -7 -4 -15z"/>
<path d="M1901 1334 c0 -11 3 -14 6 -6 3 7 2 16 -1 19 -3 4 -6 -2 -5 -13z"/>
<path d="M3510 1340 c0 -5 5 -10 10 -10 6 0 10 5 10 10 0 6 -4 10 -10 10 -5 0
-10 -4 -10 -10z"/>
<path d="M1005 1330 c-3 -5 -1 -10 4 -10 6 0 11 5 11 10 0 6 -2 10 -4 10 -3 0
-8 -4 -11 -10z"/>
<path d="M1859 1320 c-5 -12 -5 -43 0 -69 3 -13 30 37 31 54 0 15 -2 17 -9 6
-7 -11 -10 -10 -13 5 -3 15 -5 16 -9 4z"/>
<path d="M1949 1303 c-8 -9 -14 -32 -14 -51 0 -21 -6 -37 -14 -40 -10 -3 -13
2 -9 20 3 16 0 25 -8 25 -7 0 -11 -4 -8 -8 2 -4 0 -19 -6 -34 -7 -17 -7 -32 0
-43 9 -16 9 -16 10 0 0 20 33 32 77 29 28 -2 32 0 28 18 -2 12 0 21 5 21 4 0
10 7 14 15 10 27 -12 16 -31 -15 -21 -36 -34 -34 -45 5 -6 23 -3 32 12 42 21
15 27 33 11 33 -5 0 -15 -8 -22 -17z"/>
<path d="M3660 1305 c0 -8 4 -15 10 -15 5 0 7 7 4 15 -4 8 -8 15 -10 15 -2 0
-4 -7 -4 -15z"/>
<path d="M990 1302 c0 -12 19 -26 26 -19 2 2 -2 10 -11 17 -9 8 -15 8 -15 2z"/>
<path d="M1551 1293 c7 -12 15 -20 18 -17 3 2 -3 12 -13 22 -17 16 -18 16 -5
-5z"/>
<path d="M3320 1270 c22 -31 30 -37 30 -22 0 11 -35 52 -44 52 -4 0 2 -13 14
-30z"/>
<path d="M3950 1290 c0 -5 5 -10 10 -10 6 0 10 5 10 10 0 6 -4 10 -10 10 -5 0
-10 -4 -10 -10z"/>
<path d="M3722 1270 c0 -14 2 -19 5 -12 2 6 2 18 0 25 -3 6 -5 1 -5 -13z"/>
<path d="M1280 1269 c0 -5 -4 -7 -10 -4 -5 3 -10 -1 -10 -11 0 -13 3 -14 13
-5 8 6 17 8 21 4 4 -4 4 0 0 10 -7 19 -14 22 -14 6z"/>
<path d="M3890 1271 c13 -10 13 -12 0 -22 -13 -9 -13 -10 0 -6 8 2 15 10 15
17 0 7 -7 15 -15 17 -13 4 -13 3 0 -6z"/>
<path d="M990 1261 c0 -5 5 -13 10 -16 6 -3 10 -2 10 4 0 5 -4 13 -10 16 -5 3
-10 2 -10 -4z"/>
<path d="M3952 1250 c0 -14 2 -19 5 -12 2 6 2 18 0 25 -3 6 -5 1 -5 -13z"/>
<path d="M895 1240 c3 -5 8 -10 11 -10 2 0 4 5 4 10 0 6 -5 10 -11 10 -5 0 -7
-4 -4 -10z"/>
<path d="M925 1239 c-4 -6 -5 -12 -2 -15 2 -3 7 2 10 11 7 17 1 20 -8 4z"/>
<path d="M975 1227 c0 -14 6 -23 16 -23 15 0 15 3 2 23 -9 13 -16 23 -17 23 0
0 -1 -10 -1 -23z"/>
<path d="M1147 1236 c-4 -10 -1 -13 8 -9 8 3 12 9 9 14 -7 12 -11 11 -17 -5z"/>
<path d="M3898 1221 c-16 -18 -15 -20 1 -18 9 0 17 9 17 19 0 10 -1 18 -1 18
0 0 -8 -9 -17 -19z"/>
<path d="M3366 1215 c4 -8 13 -15 21 -15 13 0 13 3 3 15 -7 8 -16 15 -21 15
-5 0 -6 -7 -3 -15z"/>
<path d="M3465 1219 c-4 -6 -14 -8 -23 -4 -9 3 -13 3 -10 -1 4 -4 3 -16 -3
-26 -9 -16 -7 -24 6 -37 16 -15 17 -14 10 17 -8 41 5 41 29 1 15 -26 16 -33 5
-40 -14 -9 -14 -9 24 -13 6 0 12 -5 12 -11 0 -5 5 -18 11 -28 9 -16 12 -16 22
-4 9 11 10 22 2 43 -6 15 -8 40 -5 54 3 15 2 20 -3 12 -6 -9 -14 -4 -30 18
-24 32 -37 37 -47 19z m25 -15 c0 -8 -4 -12 -10 -9 -5 3 -10 10 -10 16 0 5 5
9 10 9 6 0 10 -7 10 -16z m47 -106 c-3 -8 -6 -5 -6 6 -1 11 2 17 5 13 3 -3 4
-12 1 -19z"/>
<path d="M560 1201 c24 -20 40 -26 40 -16 0 2 -15 12 -32 20 l-33 16 25 -20z"/>
<path d="M2070 1195 c0 -21 -30 -31 -41 -14 -14 22 -10 -6 4 -35 8 -14 16 -23
19 -21 3 3 20 7 38 10 41 5 52 15 17 15 -33 0 -35 15 -4 24 22 6 22 7 3 21
-25 19 -36 19 -36 0z"/>
<path d="M3632 1197 c-8 -9 -4 -12 14 -12 27 0 32 10 10 18 -8 3 -19 0 -24 -6z"/>
<path d="M3687 1204 c-14 -14 -8 -44 8 -38 8 4 15 2 15 -4 0 -6 -5 -12 -12
-14 -9 -3 -9 -6 0 -12 8 -4 15 1 20 15 l9 23 5 -22 c4 -12 12 -22 18 -22 9 0
10 4 2 13 -6 7 -9 22 -6 33 3 13 1 21 -8 21 -7 0 -20 4 -29 7 -8 4 -18 3 -22
0z"/>
<path d="M2180 1196 c0 -2 7 -6 15 -10 8 -3 15 -1 15 4 0 6 -7 10 -15 10 -8 0
-15 -2 -15 -4z"/>
<path d="M3770 1190 c0 -5 5 -10 11 -10 5 0 7 5 4 10 -3 6 -8 10 -11 10 -2 0
-4 -4 -4 -10z"/>
<path d="M697 1173 c5 -12 2 -15 -10 -10 -9 3 -17 2 -17 -3 0 -6 9 -10 19 -10
11 0 21 -3 24 -7 2 -5 2 -2 0 5 -1 8 -3 20 -3 28 0 8 -4 14 -10 14 -5 0 -6 -8
-3 -17z"/>
<path d="M1350 1161 c0 -5 7 -12 16 -15 21 -8 24 -8 24 5 0 5 -4 7 -10 4 -5
-3 -10 -1 -10 4 0 6 -4 11 -10 11 -5 0 -10 -4 -10 -9z"/>
<path d="M1978 1163 c7 -3 16 -2 19 1 4 3 -2 6 -13 5 -11 0 -14 -3 -6 -6z"/>
<path d="M3640 1160 c0 -5 5 -10 10 -10 6 0 10 5 10 10 0 6 -4 10 -10 10 -5 0
-10 -4 -10 -10z"/>
<path d="M917 1147 c-3 -7 3 -13 14 -13 13 0 15 3 7 13 -6 7 -12 13 -13 13 -2
0 -5 -6 -8 -13z"/>
<path d="M1720 1140 c6 -11 13 -20 16 -20 2 0 0 9 -6 20 -6 11 -13 20 -16 20
-2 0 0 -9 6 -20z"/>
<path d="M1913 1148 c-13 -6 -23 -15 -23 -20 0 -7 55 15 69 28 9 8 -25 2 -46
-8z"/>
<path d="M1978 1127 c-27 -12 -48 -24 -48 -27 0 -3 12 -14 27 -24 14 -11 23
-14 19 -8 -9 15 -1 15 25 2 13 -7 19 -7 19 0 0 5 -7 10 -15 10 -21 0 -19 16 6
34 39 27 16 36 -33 13z"/>
<path d="M3660 1140 c-9 -6 -10 -10 -3 -10 6 0 15 5 18 10 8 12 4 12 -15 0z"/>
<path d="M705 1100 c3 -5 8 -10 11 -10 2 0 4 5 4 10 0 6 -5 10 -11 10 -5 0 -7
-4 -4 -10z"/>
<path d="M2063 1093 c-18 -9 -33 -20 -33 -24 0 -10 41 -49 52 -49 4 0 8 -7 8
-15 0 -9 6 -12 17 -8 14 6 14 8 -5 24 -12 9 -22 22 -22 28 0 6 -10 11 -22 11
-35 0 -8 19 48 35 40 11 43 13 19 13 -16 1 -45 -7 -62 -15z"/>
<path d="M297 1053 c4 -16 7 -36 7 -45 0 -9 5 -16 10 -15 6 1 12 -8 14 -21 2
-12 9 -21 15 -20 7 1 24 -6 39 -16 15 -10 33 -16 40 -13 8 3 2 9 -14 17 -15 7
-25 17 -22 21 3 5 0 9 -6 9 -6 0 -4 9 5 23 19 30 12 37 -37 37 -35 0 -38 2
-29 19 11 20 5 31 -16 31 -10 0 -11 -8 -6 -27z"/>
<path d="M690 1070 c0 -5 5 -10 11 -10 5 0 7 5 4 10 -3 6 -8 10 -11 10 -2 0
-4 -4 -4 -10z"/>
<path d="M840 1035 c7 -8 17 -15 22 -15 6 0 5 7 -2 15 -7 8 -17 15 -22 15 -6
0 -5 -7 2 -15z"/>
<path d="M701 1029 c-1 -9 6 -19 14 -23 9 -3 15 0 15 10 0 8 -4 13 -9 10 -5
-4 -12 0 -14 6 -4 8 -6 7 -6 -3z"/>
<path d="M900 1024 c0 -5 14 -17 31 -27 24 -13 35 -15 45 -6 11 9 15 8 20 -5
3 -9 11 -16 16 -16 7 0 6 5 -1 13 -6 8 -8 16 -5 19 3 4 -10 5 -28 4 -18 -2
-43 4 -55 12 -13 8 -23 10 -23 6z"/>
<path d="M428 1013 c7 -3 16 -2 19 1 4 3 -2 6 -13 5 -11 0 -14 -3 -6 -6z"/>
<path d="M777 978 c-14 -20 -18 -21 -26 -8 -7 10 -11 11 -11 3 0 -7 -6 -12
-12 -10 -7 1 -13 -7 -13 -18 0 -11 -7 -25 -15 -32 -13 -10 -10 -12 14 -13 28
0 29 -1 11 -14 -11 -8 -23 -12 -27 -10 -5 3 -8 0 -8 -6 0 -6 10 -8 27 -4 26 7
26 7 10 -17 -23 -32 -21 -95 3 -135 12 -18 43 -49 71 -69 27 -19 52 -43 55
-53 11 -35 37 -98 50 -123 7 -14 11 -29 7 -33 -3 -3 1 -6 10 -6 9 0 17 5 17
10 0 6 -3 10 -8 10 -9 0 -49 117 -50 145 0 14 7 20 24 21 22 2 25 -2 24 -30
-3 -49 -1 -66 9 -66 5 0 7 20 6 44 -2 31 1 46 11 50 7 3 13 2 12 -2 -3 -14 14
-42 25 -42 7 0 7 4 -1 12 -7 7 -12 16 -12 20 0 10 30 11 31 1 1 -5 2 -23 4
-41 1 -17 8 -39 16 -48 10 -12 10 -14 0 -12 -24 6 -36 -28 -22 -59 10 -20 15
-24 19 -13 3 7 0 16 -7 18 -6 2 -9 8 -5 13 3 5 12 3 20 -5 17 -18 3 -66 -21
-66 -8 0 -15 -4 -15 -10 0 -14 23 -13 38 2 9 9 13 4 18 -21 4 -20 10 -29 16
-23 6 6 6 17 -1 30 -8 16 -7 25 8 43 24 30 41 17 41 -33 0 -23 3 -38 7 -34 4
4 6 24 4 46 -1 21 3 48 9 60 11 20 11 20 37 -10 14 -17 28 -29 30 -26 3 3 -4
15 -16 27 -15 16 -19 30 -14 48 8 34 10 36 28 21 19 -16 19 -31 0 -24 -8 4
-15 1 -15 -5 0 -6 8 -11 18 -11 13 0 18 -10 20 -42 3 -42 22 -81 22 -45 0 23
11 21 42 -8 23 -21 26 -29 18 -51 -9 -23 -8 -25 10 -19 15 5 20 2 22 -12 0
-10 2 -23 2 -30 2 -17 12 -25 14 -11 1 7 4 37 6 67 3 29 7 55 9 58 3 2 12 -11
21 -29 13 -24 15 -46 10 -85 -4 -35 -3 -53 4 -53 6 0 12 15 14 33 4 32 8 29
23 -19 3 -9 8 -14 11 -11 3 3 -8 44 -24 92 -33 96 -33 96 22 12 20 -31 39 -57
42 -57 6 0 -33 67 -53 91 -7 8 -13 20 -13 25 0 5 7 1 14 -8 7 -10 29 -24 49
-33 26 -11 37 -22 42 -45 4 -16 10 -30 15 -30 4 0 7 -6 6 -12 0 -7 3 -15 8
-18 5 -3 10 5 11 17 1 14 -4 23 -13 23 -8 0 -12 6 -9 14 3 7 0 19 -6 25 -8 8
-7 11 5 11 19 0 24 -12 48 -105 13 -52 18 -62 19 -38 1 17 -3 42 -8 56 -14 37
-17 90 -5 94 11 4 34 -100 34 -153 0 -20 3 -25 11 -17 10 10 0 97 -17 156 -4
12 0 17 15 17 12 0 20 6 18 12 -2 14 27 15 56 3 10 -4 17 -3 17 4 0 6 -9 11
-20 11 -11 0 -20 5 -20 10 0 11 10 13 60 10 19 -1 31 2 27 7 -5 4 -13 8 -18 8
-5 0 -9 3 -9 8 0 4 0 12 0 17 0 20 31 9 42 -15 13 -28 58 -44 127 -43 32 1 39
3 27 10 -24 13 -20 31 4 18 11 -6 20 -7 20 -3 0 4 4 3 8 -3 5 -9 10 -8 20 2
10 11 8 15 -13 20 -14 3 -24 11 -22 17 5 16 38 17 44 1 3 -8 9 -11 14 -8 5 3
9 -2 9 -10 0 -20 -2 -20 75 5 l64 20 20 -20 c25 -25 43 -26 79 -7 62 32 107
47 110 38 4 -12 80 4 99 20 7 6 13 20 13 31 0 20 0 20 -18 -1 -21 -24 -66 -44
-76 -34 -4 3 15 20 41 36 62 40 66 66 19 138 -34 53 -158 188 -172 188 -5 0
14 -22 41 -50 27 -27 46 -52 44 -55 -3 -3 -14 4 -24 15 -10 11 -26 20 -37 20
-10 0 -18 5 -18 11 0 7 -12 9 -34 5 -25 -5 -35 -3 -40 9 -3 8 -12 15 -21 15
-9 0 -15 9 -16 23 0 12 -3 16 -6 10 -2 -7 -11 -13 -19 -13 -9 0 -12 5 -8 12 4
7 3 8 -4 4 -7 -4 -12 -13 -12 -20 0 -8 -7 -26 -14 -42 -17 -32 -12 -48 12 -35
21 11 69 -20 58 -37 -3 -6 3 -12 14 -14 26 -4 30 -22 6 -26 -10 -2 -24 6 -32
17 -19 26 -30 27 -30 1 0 -11 4 -20 8 -20 4 0 8 -7 8 -15 0 -17 16 -20 25 -5
8 13 25 3 25 -16 0 -8 -7 -14 -15 -14 -8 0 -15 -4 -15 -9 0 -4 -12 -6 -26 -3
-19 3 -25 1 -20 -7 4 -6 11 -9 16 -6 16 10 48 -17 43 -36 -5 -17 -6 -17 -22
-2 -15 15 -16 15 -19 0 -4 -18 -22 -24 -22 -7 0 6 -15 10 -32 9 -30 -1 -30 -2
-9 -8 39 -10 38 -31 -1 -31 -18 0 -40 -5 -48 -10 -12 -8 -10 -10 8 -10 14 0
21 -4 17 -11 -4 -6 -10 -8 -13 -4 -3 3 -11 -4 -17 -16 -10 -19 -12 -16 -13 21
-3 58 -12 68 -28 30 -8 -18 -11 -37 -7 -43 7 -12 -14 -1 -39 20 -10 9 -18 11
-22 4 -4 -5 4 -17 16 -25 12 -9 19 -19 15 -23 -4 -3 -21 3 -37 15 -16 12 -33
22 -39 22 -5 0 -12 7 -15 16 -8 22 -8 26 3 19 15 -9 5 81 -11 104 -17 25 -12
81 8 81 8 0 14 5 14 10 0 6 -12 10 -27 10 -14 0 -34 7 -44 16 -17 15 -17 17 7
41 22 22 29 24 50 14 29 -13 32 2 7 38 -13 19 -14 27 -4 43 8 12 8 17 2 13 -6
-3 -23 3 -38 15 -24 19 -28 19 -36 4 -7 -12 -11 -13 -17 -4 -4 6 -19 13 -34
13 -18 2 -25 6 -21 16 4 11 3 11 -9 2 -9 -8 -24 -10 -38 -5 -13 4 -27 7 -31 6
-5 -1 -6 2 -3 7 3 5 -1 15 -10 22 -8 7 -14 8 -13 3 4 -24 -3 -26 -16 -4 -8 14
-14 19 -15 13 0 -7 -6 -13 -14 -13 -8 0 -24 -12 -35 -26 -16 -21 -22 -23 -26
-12 -7 18 -102 18 -113 0 -11 -16 -54 -11 -47 6 2 7 0 10 -5 7 -6 -3 -10 -1
-10 6 0 8 -4 8 -15 -1 -13 -11 -14 -10 -9 6 4 10 3 16 -1 11 -7 -6 -11 -24
-14 -63 -1 -7 -7 -14 -14 -17 -10 -4 -13 2 -9 18 5 29 -14 42 -23 15 -10 -30
-22 -24 -29 15 -7 34 -28 47 -41 25 -5 -8 -11 -7 -21 1 -11 9 -14 9 -14 0 0
-7 -4 -10 -9 -7 -5 3 -24 8 -43 11 -25 4 -35 2 -35 -7 0 -9 14 -14 40 -13 27
0 41 -5 44 -15 4 -12 3 -13 -5 -1 -8 11 -11 9 -17 -8 -7 -22 -39 -29 -51 -9
-4 7 -3 8 4 4 7 -4 12 -5 12 -2 0 14 -57 34 -71 25 -12 -6 -22 -3 -34 11 -12
13 -31 20 -54 20 -27 0 -32 -3 -23 -12 17 -17 15 -28 -4 -28 -8 0 -13 4 -10 8
7 12 -40 36 -53 27 -6 -3 -11 -3 -10 2 1 4 1 19 0 32 -1 20 -3 21 -16 11 -10
-9 -15 -9 -15 -1 0 18 -16 13 -33 -11z m43 -17 c0 -18 -18 -21 -30 -6 -10 13
-9 15 9 15 11 0 21 -4 21 -9z m581 -100 c4 -92 -6 -146 -21 -120 -5 7 -5 21
-1 33 5 11 2 35 -7 57 -8 21 -12 45 -9 53 9 24 37 7 38 -23z m129 10 c0 -25
-11 -33 -26 -20 -10 8 -11 16 -3 30 12 22 29 16 29 -10z m-510 3 c0 -8 -5 -12
-10 -9 -6 4 -8 11 -5 16 9 14 15 11 15 -7z m550 -2 c0 -13 -12 -22 -22 -16
-10 6 -1 24 13 24 5 0 9 -4 9 -8z m-297 -18 c8 -8 -3 -34 -14 -34 -5 0 -9 9
-9 20 0 19 11 26 23 14z m486 -20 c6 4 11 0 11 -9 0 -9 -4 -14 -9 -10 -5 3
-12 1 -16 -5 -10 -16 -25 -11 -25 8 0 24 12 36 21 21 4 -6 12 -8 18 -5z m-205
-25 c-3 -5 -10 -7 -15 -3 -5 3 -7 10 -3 15 3 5 10 7 15 3 5 -3 7 -10 3 -15z
m-364 -20 c0 -5 -4 -9 -10 -9 -5 0 -10 7 -10 16 0 8 5 12 10 9 6 -3 10 -10 10
-16z m104 -14 c-4 -8 -10 -12 -15 -9 -11 6 -2 24 11 24 5 0 7 -7 4 -15z m256
-36 c0 -6 -4 -7 -10 -4 -5 3 -10 11 -10 16 0 6 5 7 10 4 6 -3 10 -11 10 -16z
m600 17 c0 -3 -4 -8 -10 -11 -5 -3 -10 -1 -10 4 0 6 5 11 10 11 6 0 10 -2 10
-4z m70 -6 c0 -5 -2 -10 -4 -10 -3 0 -8 5 -11 10 -3 6 -1 10 4 10 6 0 11 -4
11 -10z m-755 -9 c3 -5 1 -12 -5 -16 -5 -3 -10 1 -10 9 0 18 6 21 15 7z m-182
-23 c4 -12 4 -24 1 -27 -8 -9 -37 27 -30 38 11 17 23 13 29 -11z m462 2 c-10
-11 -20 -18 -23 -15 -7 6 18 35 31 35 5 0 2 -9 -8 -20z m515 -2 c0 -16 -3 -19
-11 -11 -6 6 -8 16 -5 22 11 17 16 13 16 -11z m-1080 4 c0 -4 -9 -13 -20 -20
-17 -10 -20 -10 -20 2 0 8 8 17 18 19 9 3 18 5 20 6 1 0 2 -2 2 -7z m246 -26
c28 7 31 -1 8 -23 -14 -14 -17 -14 -35 6 -12 13 -17 26 -12 34 5 9 8 7 11 -6
3 -13 10 -15 28 -11z m182 -12 c15 -4 46 -17 70 -30 23 -13 42 -21 42 -18 0 2
9 0 20 -6 15 -8 20 -8 20 2 0 7 11 0 24 -16 13 -17 21 -37 19 -46 -5 -17 43
-96 56 -93 4 1 7 -6 7 -15 1 -9 5 -25 9 -35 5 -13 3 -16 -8 -11 -10 3 -17 -1
-19 -13 -3 -16 -7 -14 -32 12 -15 16 -23 31 -17 33 21 7 1 19 -23 15 -15 -3
-23 -10 -20 -18 6 -14 -44 -58 -56 -50 -4 3 -10 -2 -14 -10 -3 -8 -13 -15 -23
-15 -17 1 -17 1 0 11 18 10 18 11 0 25 -10 7 -27 14 -37 14 -20 0 -20 0 0 16
18 15 18 15 -6 10 -14 -3 -32 -1 -40 4 -13 9 -13 10 0 10 12 0 13 2 1 9 -7 5
-11 13 -7 19 3 5 -3 12 -14 15 -11 3 -20 11 -20 17 0 7 7 10 15 7 8 -4 17 -2
20 3 4 6 -8 10 -26 10 -26 0 -30 3 -21 12 7 7 29 12 49 11 29 -1 33 1 18 7
-12 4 -27 16 -35 25 -14 16 -13 17 10 10 23 -7 24 -7 10 10 -14 17 -13 18 14
11 20 -5 32 -3 37 6 7 10 11 10 21 0 9 -9 9 -12 0 -12 -23 0 -12 -18 16 -23
15 -3 36 -8 47 -12 11 -3 5 2 -12 11 -18 10 -33 22 -33 28 0 15 -74 51 -130
65 -25 6 -54 13 -65 15 -11 3 4 4 33 2 31 -2 55 1 60 8 4 7 8 5 10 -6 2 -10
16 -21 30 -24z m-563 16 c3 -5 2 -10 -4 -10 -5 0 -13 5 -16 10 -3 6 -2 10 4
10 5 0 13 -4 16 -10z m-82 -45 c36 -7 52 -25 21 -25 -31 0 -104 23 -104 32 0
6 10 8 23 5 12 -3 39 -9 60 -12z m1310 -18 c-7 -11 -23 2 -23 19 0 12 2 12 14
2 8 -7 12 -16 9 -21z m-883 3 c0 -5 -4 -10 -10 -10 -5 0 -10 5 -10 10 0 6 5
10 10 10 6 0 10 -4 10 -10z m160 0 c0 -5 -5 -10 -11 -10 -5 0 -7 5 -4 10 3 6
8 10 11 10 2 0 4 -4 4 -10z m-473 -6 c-3 -3 -12 -4 -19 -1 -8 3 -5 6 6 6 11 1
17 -2 13 -5z m773 -25 c0 -6 -4 -7 -10 -4 -5 3 -10 11 -10 16 0 6 5 7 10 4 6
-3 10 -11 10 -16z m-797 -13 c8 2 13 -8 14 -30 1 -22 -4 -36 -13 -40 -8 -3
-14 1 -14 9 0 8 -5 15 -11 15 -8 0 -7 6 2 17 11 13 11 17 1 20 -6 3 -9 10 -5
16 5 8 8 8 10 0 3 -7 10 -10 16 -7z m1327 -26 c0 -13 -1 -13 -10 0 -5 8 -10
22 -10 30 0 13 1 13 10 0 5 -8 10 -22 10 -30z m-1252 9 c20 -20 19 -53 -1 -66
-6 -3 -8 6 -5 25 5 33 -18 54 -33 30 -4 -7 -11 -9 -14 -6 -7 7 15 37 27 38 4
0 16 -9 26 -21z m1202 -4 c0 -8 -4 -15 -10 -15 -5 0 -10 7 -10 15 0 8 5 15 10
15 6 0 10 -7 10 -15z m-917 -15 c-3 -11 -8 -20 -12 -20 -4 0 -7 9 -7 20 0 11
6 20 12 20 7 0 10 -8 7 -20z m-193 -5 c0 -8 -4 -15 -9 -15 -5 0 -11 7 -15 15
-3 9 0 15 9 15 8 0 15 -7 15 -15z m1020 -15 c-8 -5 -17 -7 -19 -4 -3 3 1 9 9
14 8 5 17 7 19 4 3 -3 -1 -9 -9 -14z m-1130 0 c0 -5 -4 -10 -10 -10 -5 0 -10
5 -10 10 0 6 5 10 10 10 6 0 10 -4 10 -10z m750 6 c0 -3 -4 -8 -10 -11 -5 -3
-10 -1 -10 4 0 6 5 11 10 11 6 0 10 -2 10 -4z m-623 -28 c-3 -8 -6 -5 -6 6 -1
11 2 17 5 13 3 -3 4 -12 1 -19z m56 -95 c20 -20 23 -6 4 22 -8 12 -11 30 -7
45 7 23 8 24 15 5 4 -11 11 -30 17 -41 12 -26 2 -64 -17 -64 -7 0 -23 13 -34
29 -17 24 -20 37 -14 77 l8 49 5 -52 c3 -30 13 -60 23 -70z m80 56 c16 -28 16
-34 4 -41 -9 -4 -18 -32 -22 -65 -5 -40 -10 -52 -15 -39 -3 11 -3 38 1 60 5
23 8 45 9 49 0 5 5 5 10 2 6 -3 10 1 10 10 0 12 -6 15 -20 10 -11 -4 -20 -2
-20 4 0 6 5 11 12 11 6 0 2 9 -10 20 -12 11 -26 20 -32 20 -5 0 -10 4 -10 10
0 20 66 -20 83 -51z m1057 44 c0 -9 -3 -13 -7 -10 -3 4 -12 2 -20 -4 -16 -14
-17 -3 0 16 16 19 27 19 27 -2z m-80 -3 c0 -5 8 -7 18 -4 14 5 15 4 2 -5 -8
-6 -24 -11 -35 -11 -11 0 -31 -7 -43 -16 -12 -8 -22 -11 -22 -6 0 10 58 52 73
52 4 0 7 -4 7 -10z m-905 -10 c3 -5 1 -10 -4 -10 -6 0 -11 5 -11 10 0 6 2 10
4 10 3 0 8 -4 11 -10z m-325 -31 c0 -18 -18 -9 -23 12 -4 16 -3 18 9 8 8 -6
14 -15 14 -20z m415 16 c29 -13 29 -13 5 -14 -14 0 -36 6 -50 14 -22 13 -23
14 -5 14 11 0 34 -6 50 -14z m-474 -22 c-8 -15 -10 -15 -11 -2 0 17 10 32 18
25 2 -3 -1 -13 -7 -23z m409 -3 c0 -17 50 -32 65 -20 9 8 15 8 20 0 6 -10 4
-11 -50 -15 -31 -2 -69 21 -59 36 7 12 24 11 24 -1z m30 0 c0 -5 -4 -10 -10
-10 -5 0 -10 5 -10 10 0 6 5 10 10 10 6 0 10 -4 10 -10z m850 0 c0 -5 -4 -10
-10 -10 -5 0 -10 5 -10 10 0 6 5 10 10 10 6 0 10 -4 10 -10z m-105 -10 c-3 -5
-11 -10 -16 -10 -6 0 -7 5 -4 10 3 6 11 10 16 10 6 0 7 -4 4 -10z m-1163 -22
c-7 -7 -12 -8 -12 -2 0 14 12 26 19 19 2 -3 -1 -11 -7 -17z m828 1 c0 -6 -4
-7 -10 -4 -5 3 -10 11 -10 16 0 6 5 7 10 4 6 -3 10 -11 10 -16z m-315 -29 c-3
-5 -1 -10 6 -10 7 0 10 -2 7 -5 -7 -8 -38 5 -38 16 0 5 7 9 16 9 8 0 12 -4 9
-10z m-75 -53 c0 -4 -6 -2 -14 5 -8 7 -12 17 -9 22 5 8 23 -12 23 -27z"/>
<path d="M1640 576 c19 -7 37 -12 39 -10 8 7 -6 14 -40 19 l-34 5 35 -14z"/>
<path d="M1760 509 c0 -5 5 -7 10 -4 6 3 10 8 10 11 0 2 -4 4 -10 4 -5 0 -10
-5 -10 -11z"/>
<path d="M1760 480 c0 -5 5 -10 10 -10 6 0 10 5 10 10 0 6 -4 10 -10 10 -5 0
-10 -4 -10 -10z"/>
<path d="M3490 989 c0 -5 5 -7 10 -4 6 3 10 8 10 11 0 2 -4 4 -10 4 -5 0 -10
-5 -10 -11z"/>
<path d="M857 984 c-10 -11 -8 -26 2 -19 5 3 12 1 16 -5 3 -5 12 -10 18 -10 8
0 8 3 -1 9 -8 4 -13 12 -12 17 2 11 -14 16 -23 8z"/>
<path d="M2140 969 c0 -5 5 -7 10 -4 6 3 10 8 10 11 0 2 -4 4 -10 4 -5 0 -10
-5 -10 -11z"/>
<path d="M1024 958 c-4 -7 -4 -10 1 -6 4 4 14 3 22 -3 10 -9 13 -8 13 5 0 19
-26 22 -36 4z"/>
<path d="M3320 943 c-66 -23 -134 -71 -174 -123 -90 -118 -128 -289 -93 -412
11 -38 16 -43 44 -45 25 -1 31 2 26 15 -3 10 3 6 12 -7 l18 -24 12 23 c8 15
15 19 19 11 4 -6 12 -8 18 -5 6 4 8 3 5 -3 -4 -6 0 -19 8 -29 12 -15 14 -15 9
-2 -9 25 34 35 51 11 8 -10 15 -24 15 -30 0 -7 4 -13 9 -13 4 0 6 11 3 25 -2
15 0 25 7 25 6 0 11 -4 11 -9 0 -14 33 -23 40 -10 5 8 10 8 14 1 4 -6 13 -9
21 -5 9 3 15 -1 15 -11 0 -9 5 -16 11 -16 5 0 8 4 5 9 -3 4 3 16 13 25 18 16
20 16 36 -6 10 -13 15 -16 12 -6 -4 11 1 18 16 22 32 8 33 8 45 -19 6 -14 17
-25 24 -25 9 0 9 3 -2 10 -12 8 -12 10 3 16 9 3 17 14 17 23 0 14 2 14 10 1 9
-13 10 -13 10 0 0 13 1 13 10 0 13 -20 12 -33 -2 -24 -7 4 -8 3 -4 -4 10 -17
26 -15 26 4 0 14 3 14 15 4 12 -10 15 -9 16 6 0 11 3 13 6 7 3 -10 10 -10 24
-2 11 5 33 8 49 5 35 -5 39 3 49 109 7 74 -6 182 -28 239 -7 16 -25 49 -41 73
-32 46 -36 58 -20 48 6 -3 10 -1 10 5 0 7 -6 10 -14 7 -8 -3 -22 3 -32 14 -9
10 -13 19 -8 19 8 0 -33 23 -117 66 -56 27 -159 31 -229 7z m55 -151 c-3 -3
-11 0 -18 7 -9 10 -8 11 6 5 10 -3 15 -9 12 -12z m-225 -33 c0 -6 -4 -7 -10
-4 -5 3 -10 11 -10 16 0 6 5 7 10 4 6 -3 10 -11 10 -16z m500 -53 c0 -3 -4 -8
-10 -11 -5 -3 -10 -1 -10 4 0 6 5 11 10 11 6 0 10 -2 10 -4z m-215 -46 c3 -5
1 -10 -4 -10 -6 0 -11 5 -11 10 0 6 2 10 4 10 3 0 8 -4 11 -10z m-334 -23
c-10 -9 -11 -8 -5 6 3 10 9 15 12 12 3 -3 0 -11 -7 -18z m104 13 c-3 -5 -12
-10 -18 -10 -7 0 -6 4 3 10 19 12 23 12 15 0z"/>
<path d="M4053 881 c8 -23 13 -28 15 -16 2 10 -3 25 -12 33 -14 15 -15 13 -3
-17z"/>
<path d="M3740 885 c-7 -9 -11 -17 -9 -20 3 -2 10 5 17 15 14 24 10 26 -8 5z"/>
<path d="M2220 883 c1 -18 18 -35 24 -24 4 6 4 16 1 21 -7 12 -25 13 -25 3z"/>
<path d="M3730 828 c0 -23 2 -22 22 1 16 18 15 20 -3 18 -11 -1 -19 -9 -19
-19z"/>
<path d="M2245 790 c3 -5 10 -10 16 -10 5 0 9 5 9 10 0 6 -7 10 -16 10 -8 0
-12 -4 -9 -10z"/>
<path d="M4050 765 c7 -9 15 -13 17 -11 7 7 -7 26 -19 26 -6 0 -6 -6 2 -15z"/>
<path d="M400 742 c0 -16 11 -20 72 -26 38 -3 60 0 67 8 7 8 3 11 -17 10 -15
-1 -29 -3 -32 -4 -14 -5 -67 3 -77 12 -9 7 -13 7 -13 0z"/>
<path d="M174 715 c3 -10 1 -24 -5 -31 -11 -14 -5 -34 12 -34 5 0 9 5 9 11 0
5 -4 7 -10 4 -5 -3 -10 -2 -10 4 0 5 9 13 20 16 26 8 25 17 -1 34 -20 12 -21
11 -15 -4z"/>
<path d="M270 720 c-20 -6 -14 -8 25 -8 37 -1 45 2 30 8 -24 10 -23 10 -55 0z"/>
<path d="M560 720 c0 -5 5 -10 10 -10 6 0 10 5 10 10 0 6 -4 10 -10 10 -5 0
-10 -4 -10 -10z"/>
<path d="M2080 715 c-7 -9 -11 -17 -9 -20 3 -2 10 5 17 15 14 24 10 26 -8 5z"/>
<path d="M3940 719 c0 -5 5 -7 10 -4 6 3 10 8 10 11 0 2 -4 4 -10 4 -5 0 -10
-5 -10 -11z"/>
<path d="M3988 714 c-34 -18 -35 -22 -3 -20 14 0 27 7 30 15 8 20 3 21 -27 5z"/>
<path d="M4195 720 c-11 -17 5 -32 21 -19 7 6 11 15 8 20 -7 12 -21 11 -29 -1z"/>
<path d="M2100 690 c-8 -5 -12 -11 -9 -14 2 -3 11 -1 19 4 8 5 12 11 9 14 -2
3 -11 1 -19 -4z"/>
<path d="M4031 676 c-10 -12 -10 -16 -2 -16 7 0 9 -4 6 -10 -3 -5 -13 -10 -21
-10 -11 0 -13 6 -9 20 3 11 2 20 -4 20 -17 0 -23 -20 -11 -35 10 -12 10 -18 1
-29 -9 -11 -9 -15 1 -18 10 -4 10 -8 -1 -21 -16 -20 -38 -22 -44 -4 -2 6 -8 9
-12 4 -5 -4 -3 -13 3 -19 15 -15 16 -28 2 -28 -5 0 -10 8 -10 18 -1 16 -1 16
-14 0 -7 -10 -17 -14 -21 -10 -5 4 -5 1 -1 -6 4 -7 12 -10 17 -7 10 7 39 -18
39 -34 0 -6 -5 -11 -12 -11 -6 0 -8 -3 -5 -6 4 -4 13 -2 20 4 8 7 16 9 20 6 3
-3 11 5 18 18 11 21 11 22 -5 9 -15 -12 -19 -12 -26 -1 -11 18 -1 42 15 36 7
-2 15 5 18 16 4 14 11 19 21 15 19 -7 21 4 4 21 -9 9 -9 15 0 24 9 9 12 8 12
-7 1 -14 5 -9 15 13 18 40 7 74 -14 48z"/>
<path d="M2046 633 c-21 -60 -21 -84 -1 -77 9 4 21 16 27 28 10 19 10 20 -6 7
-16 -14 -17 -12 -11 25 4 21 12 45 18 52 6 8 6 12 -1 12 -5 0 -17 -21 -26 -47z"/>
<path d="M210 653 c0 -10 13 -13 45 -12 52 3 46 18 -8 22 -26 2 -37 -1 -37
-10z"/>
<path d="M313 653 c9 -9 19 -14 23 -11 10 10 -6 28 -24 28 -15 0 -15 -1 1 -17z"/>
<path d="M375 660 c-3 -5 -1 -10 5 -10 6 0 9 -3 7 -7 -6 -10 107 -15 151 -8
17 3 32 11 32 17 0 5 -7 8 -15 4 -8 -3 -15 -2 -15 2 0 4 -16 7 -35 7 -24 0
-35 -5 -35 -15 0 -12 -2 -12 -9 -1 -5 8 -16 11 -30 6 -12 -4 -21 -2 -21 4 0
14 -27 14 -35 1z"/>
<path d="M3939 641 c15 -12 21 -23 16 -31 -5 -9 -4 -11 3 -6 7 4 11 18 10 31
-2 20 -8 25 -28 25 l-25 0 24 -19z"/>
<path d="M2102 641 c-11 -7 -11 -9 1 -14 9 -3 18 1 21 9 6 16 -2 18 -22 5z"/>
<path d="M355 599 c-4 -6 -5 -12 -2 -15 2 -3 7 2 10 11 7 17 1 20 -8 4z"/>
<path d="M200 580 c-6 -12 -8 -30 -4 -43 7 -19 9 -16 15 18 8 47 5 55 -11 25z"/>
<path d="M812 569 c-11 -18 -18 -38 -14 -44 4 -6 8 -3 10 8 5 24 14 21 37 -12
11 -17 20 -29 21 -28 2 1 -6 26 -15 55 l-18 53 -21 -32z"/>
<path d="M3894 578 c3 -13 5 -25 6 -28 0 -3 5 3 11 13 10 18 5 37 -12 37 -5 0
-7 -10 -5 -22z"/>
<path d="M987 553 c-4 -3 -7 -13 -7 -22 1 -13 3 -13 11 2 11 19 8 33 -4 20z"/>
<path d="M177 496 c-5 -15 -6 -31 -3 -34 8 -8 18 25 14 45 -3 13 -6 10 -11
-11z"/>
<path d="M523 506 c1 -11 9 -21 17 -23 10 -3 11 -2 4 4 -6 4 -14 15 -17 23 -5
11 -6 9 -4 -4z"/>
<path d="M350 501 c0 -10 19 -25 25 -20 1 2 -3 10 -11 17 -8 7 -14 8 -14 3z"/>
<path d="M936 502 c-3 -6 1 -17 10 -26 8 -9 12 -20 9 -26 -3 -5 0 -10 8 -10
11 0 15 11 15 36 0 26 -3 33 -9 23 -8 -12 -10 -12 -18 0 -5 8 -11 9 -15 3z"/>
<path d="M206 492 c-3 -4 4 -9 15 -9 23 -2 25 3 4 10 -8 4 -16 3 -19 -1z"/>
<path d="M3890 480 c0 -11 2 -20 4 -20 2 0 6 9 9 20 3 11 1 20 -4 20 -5 0 -9
-9 -9 -20z"/>
<path d="M270 456 c0 -6 11 -13 25 -14 14 -1 25 3 25 8 0 6 -3 10 -7 11 -5 0
-16 2 -25 4 -10 2 -18 -2 -18 -9z"/>
<path d="M330 453 c0 -8 5 -13 12 -11 18 6 21 25 3 25 -8 0 -15 -7 -15 -14z"/>
<path d="M376 461 c-4 -7 -5 -15 -2 -18 9 -9 19 4 14 18 -4 11 -6 11 -12 0z"/>
<path d="M413 463 c-15 -5 -17 -23 -4 -23 5 0 11 7 15 15 3 8 4 15 3 14 -1 0
-8 -3 -14 -6z"/>
<path d="M474 451 c0 -11 5 -17 13 -14 10 4 11 9 2 19 -15 18 -15 18 -15 -5z"/>
<path d="M2160 410 c-13 -8 -12 -10 3 -10 9 0 17 5 17 10 0 12 -1 12 -20 0z"/>
<path d="M180 399 c0 -13 9 -17 35 -17 40 0 47 13 10 20 -14 3 -25 1 -25 -6 0
-6 -5 -4 -10 4 -8 13 -10 13 -10 -1z"/>
<path d="M320 395 c14 -7 27 -11 30 -9 6 7 -22 24 -40 23 -9 0 -5 -6 10 -14z"/>
<path d="M381 398 c-1 -12 6 -18 19 -18 11 0 20 5 20 11 0 6 -6 9 -14 6 -8 -3
-17 -1 -20 6 -2 7 -5 4 -5 -5z"/>
<path d="M507 404 c-15 -15 -6 -24 23 -24 17 0 30 5 30 10 0 6 -4 10 -9 10 -5
0 -16 2 -23 5 -8 3 -17 2 -21 -1z"/>
<path d="M570 390 c0 -13 5 -18 15 -14 12 5 13 10 4 20 -15 19 -19 18 -19 -6z"/>
<path d="M460 390 c0 -5 5 -10 11 -10 5 0 7 5 4 10 -3 6 -8 10 -11 10 -2 0 -4
-4 -4 -10z"/>
<path d="M2093 377 c2 -7 14 -13 26 -13 16 -1 19 2 12 9 -15 15 -43 18 -38 4z"/>
<path d="M2040 368 c0 -4 7 -8 15 -8 8 0 15 4 15 8 0 5 -7 9 -15 9 -8 0 -15
-4 -15 -9z"/>
<path d="M3092 341 c4 -13 18 -16 19 -4 0 4 -5 9 -11 12 -7 2 -11 -2 -8 -8z"/>
<path d="M1887 333 c-4 -3 -7 -12 -7 -19 0 -19 113 -12 118 7 3 11 1 11 -7 -1
-9 -12 -13 -12 -19 -2 -8 12 -50 11 -72 -3 -6 -3 -7 0 -4 9 6 17 2 21 -9 9z"/>
<path d="M2034 315 c25 -19 36 -19 36 0 0 10 -10 15 -27 15 -27 -1 -27 -1 -9
-15z"/>
<path d="M1700 316 c0 -6 46 -29 65 -31 33 -5 73 -20 96 -36 24 -17 39 -16 39
2 0 9 -74 38 -124 48 -23 5 -49 12 -58 16 -10 4 -18 4 -18 1z"/>
<path d="M190 214 c0 -59 5 -66 37 -53 21 8 24 28 14 90 -1 4 -12 9 -26 11
-24 5 -25 3 -25 -48z"/>
<path d="M300 211 c0 -39 4 -50 19 -54 27 -7 39 4 41 38 4 60 2 65 -30 65 -29
0 -30 -1 -30 -49z m40 19 c0 -5 -4 -10 -10 -10 -5 0 -10 5 -10 10 0 6 5 10 10
10 6 0 10 -4 10 -10z m0 -40 c0 -5 -4 -10 -10 -10 -5 0 -10 5 -10 10 0 6 5 10
10 10 6 0 10 -4 10 -10z"/>
<path d="M404 246 c-3 -8 -4 -29 -2 -48 2 -25 8 -34 24 -36 24 -3 35 28 26 73
-5 28 -39 35 -48 11z m23 -53 c-3 -10 -5 -2 -5 17 0 19 2 27 5 18 2 -10 2 -26
0 -35z"/>
<path d="M480 245 c0 -12 5 -15 16 -11 14 5 15 4 4 -9 -10 -12 -10 -18 0 -30
11 -13 10 -14 -4 -9 -18 7 -23 -20 -6 -31 21 -13 40 16 37 59 -2 34 -6 42 -24
44 -16 2 -23 -2 -23 -13z"/>
<path d="M560 251 c0 -5 5 -11 11 -13 8 -3 8 -14 1 -41 -8 -29 -8 -37 1 -34
13 4 37 77 30 90 -6 10 -43 9 -43 -2z"/>
<path d="M630 229 c0 -24 4 -30 15 -25 9 3 15 0 15 -9 0 -8 -7 -15 -15 -15
-17 0 -20 -16 -6 -24 5 -4 16 -3 25 0 22 8 21 60 -1 73 -17 10 -17 10 0 11 9
0 17 5 17 10 0 6 -11 10 -25 10 -21 0 -25 -5 -25 -31z"/>
<path d="M714 248 c-10 -16 -6 -80 5 -91 26 -26 53 41 35 87 -7 19 -30 21 -40
4z m23 -55 c-3 -10 -5 -2 -5 17 0 19 2 27 5 18 2 -10 2 -26 0 -35z"/>
<path d="M790 226 c-10 -31 -9 -37 9 -55 17 -17 22 -18 28 -6 13 22 3 95 -12
95 -8 0 -19 -15 -25 -34z"/>
<path d="M866 248 c-21 -66 -7 -108 29 -94 24 9 17 100 -8 104 -9 2 -19 -2
-21 -10z"/>
<path d="M936 244 c-16 -42 -3 -94 25 -94 21 0 35 54 24 89 -8 25 -40 28 -49
5z"/>
<path d="M1017 254 c-10 -10 -8 -76 2 -93 8 -12 12 -13 26 -1 21 18 17 93 -5
98 -9 1 -19 0 -23 -4z m20 -61 c-3 -10 -5 -2 -5 17 0 19 2 27 5 18 2 -10 2
-26 0 -35z"/>
<path d="M3531 241 c-33 -33 -31 -76 5 -109 14 -12 22 -27 19 -32 -3 -6 -3
-10 2 -10 15 0 28 15 31 36 2 16 -4 23 -23 28 -22 6 -26 11 -23 38 2 24 9 34
26 38 30 7 33 24 5 28 -12 2 -31 -6 -42 -17z"/>
<path d="M3640 251 c-22 -6 -25 -13 -28 -60 -4 -65 3 -90 20 -73 7 7 20 12 30
12 10 0 18 5 18 10 0 6 -9 10 -20 10 -26 0 -26 20 0 27 22 6 22 28 0 28 -7 0
-15 6 -17 13 -3 7 4 12 16 12 12 0 21 4 21 9 0 15 -13 18 -40 12z"/>
<path d="M1507 215 c9 -19 21 -35 26 -35 5 0 7 3 5 8 -24 48 -32 62 -39 62 -5
0 -1 -16 8 -35z"/>
<path d="M3710 236 c0 -7 -3 -34 -6 -60 -5 -31 -3 -46 5 -46 6 0 11 9 11 19 0
11 3 28 7 38 6 14 9 10 13 -17 6 -44 34 -48 38 -5 6 52 22 53 22 2 0 -26 4
-47 10 -47 9 0 12 78 3 113 -7 28 -31 20 -38 -13 -4 -16 -11 -30 -16 -30 -5 0
-9 14 -9 30 0 23 -4 30 -20 30 -11 0 -20 -6 -20 -14z"/>
<path d="M3880 190 c0 -33 4 -60 10 -60 6 0 10 9 10 20 0 11 7 20 15 20 8 0
15 -9 15 -19 0 -20 13 -35 23 -25 3 3 2 18 -3 33 -4 16 -3 35 2 45 13 24 -7
46 -43 46 -29 0 -29 -1 -29 -60z m48 23 c-4 -22 -22 -20 -26 1 -2 10 3 16 13
16 10 0 15 -7 13 -17z"/>
<path d="M3982 188 c3 -63 3 -63 33 -63 35 1 41 19 7 23 -29 4 -24 24 9 33
l24 6 -28 12 c-31 12 -28 31 4 31 11 0 17 5 14 10 -3 6 -20 10 -36 10 l-30 0
3 -62z"/>
<path d="M4078 190 c-17 -65 -13 -83 13 -49 l16 21 20 -22 c29 -31 34 -13 15
53 -23 77 -43 76 -64 -3z m42 0 c0 -5 -4 -10 -10 -10 -5 0 -10 5 -10 10 0 6 5
10 10 10 6 0 10 -4 10 -10z"/>
<path d="M4180 185 c0 -37 4 -65 10 -65 6 0 10 28 10 65 0 37 -4 65 -10 65 -6
0 -10 -28 -10 -65z"/>
<path d="M4232 238 c-17 -17 -15 -26 15 -54 22 -20 24 -27 13 -34 -8 -5 -18
-6 -22 -4 -4 3 -8 -2 -8 -10 0 -24 47 -20 60 4 12 22 6 38 -22 58 -24 17 -23
32 2 32 11 0 20 5 20 10 0 14 -43 13 -58 -2z"/>
<path d="M3050 148 c0 -9 5 -20 10 -23 13 -8 13 5 0 25 -8 13 -10 13 -10 -2z"/>
<path d="M2090 15 c0 -8 4 -15 10 -15 5 0 7 7 4 15 -4 8 -8 15 -10 15 -2 0 -4
-7 -4 -15z"/>
</g>
</svg>
