<?xml version="1.0" standalone="no"?>
<!DOCTYPE svg PUBLIC "-//W3C//DTD SVG 20010904//EN"
 "http://www.w3.org/TR/2001/REC-SVG-20010904/DTD/svg10.dtd">
<svg version="1.0" xmlns="http://www.w3.org/2000/svg"
 width="447.000000pt" height="232.000000pt" viewBox="0 0 447.000000 232.000000"
 preserveAspectRatio="xMidYMid meet">

<g transform="translate(0.000000,232.000000) scale(0.100000,-0.100000)"
fill="#000000" stroke="none">
<path d="M2713 2203 c-3 -6 0 -20 6 -30 9 -16 10 -16 11 5 0 15 6 22 20 22 11
0 20 4 20 9 0 13 -52 8 -57 -6z"/>
<path d="M3008 2208 c18 -22 12 -83 -8 -83 -11 0 -15 11 -14 43 0 26 -3 39 -8
34 -5 -5 -8 -27 -6 -48 2 -29 8 -40 22 -42 10 -2 22 2 27 10 15 23 10 75 -8
89 -16 13 -17 12 -5 -3z"/>
<path d="M3082 2208 c-16 -16 -15 -83 2 -97 20 -17 43 -4 50 30 11 55 -22 97
-52 67z m40 -30 c6 -34 -2 -58 -18 -58 -16 0 -29 42 -20 65 8 23 33 18 38 -7z"/>
<path d="M3407 2213 c-14 -13 -6 -20 18 -15 20 3 25 0 25 -15 0 -10 -11 -35
-25 -55 -14 -20 -25 -39 -25 -42 0 -4 16 -6 35 -6 19 0 35 4 35 10 0 5 -6 7
-14 4 -24 -9 -26 11 -6 49 24 44 24 42 4 61 -16 17 -36 21 -47 9z"/>
<path d="M3545 2204 c-49 -49 -34 -148 19 -128 42 16 39 84 -4 84 -24 0 -26
13 -4 35 9 9 14 18 11 21 -2 3 -12 -3 -22 -12z m25 -69 c15 -18 6 -45 -15 -45
-18 0 -30 24 -21 45 7 19 20 19 36 0z"/>
<path d="M3673 2201 c-26 -22 -30 -36 -8 -27 12 4 15 -5 15 -49 0 -30 5 -55
10 -55 6 0 10 32 10 75 0 41 -1 75 -2 75 -2 -1 -13 -9 -25 -19z"/>
<path d="M3802 2213 c-18 -7 -42 -58 -42 -91 0 -64 64 -86 84 -29 12 34 -1 61
-33 65 -21 3 -22 5 -6 29 18 27 17 33 -3 26z m23 -103 c0 -16 -6 -26 -18 -28
-19 -4 -32 20 -23 44 9 25 41 13 41 -16z"/>
<path d="M3933 2201 c-27 -22 -29 -31 -8 -31 12 0 15 -13 15 -60 0 -33 4 -60
10 -60 6 0 10 35 10 85 0 47 -1 85 -2 85 -2 -1 -13 -9 -25 -19z"/>
<path d="M153 2203 c-8 -3 -13 -24 -13 -59 0 -45 3 -54 18 -54 31 0 56 25 47
46 -4 10 -7 29 -6 40 2 22 -21 35 -46 27z m30 -28 c1 -5 -6 -11 -15 -13 -11
-2 -18 3 -18 13 0 17 30 18 33 0z m5 -47 c-7 -19 -38 -22 -38 -4 0 10 9 16 21
16 12 0 19 -5 17 -12z"/>
<path d="M2849 2183 c-2 -16 -3 -38 -1 -49 3 -19 7 -21 30 -15 21 6 28 14 30
41 4 34 -9 50 -39 50 -11 0 -18 -10 -20 -27z m46 -18 c0 -20 -6 -31 -17 -33
-15 -3 -18 4 -18 33 0 29 3 36 18 33 11 -2 17 -13 17 -33z"/>
<path d="M3196 2170 l-26 -40 25 0 c16 0 25 -6 25 -15 0 -8 4 -15 9 -15 9 0 6
98 -2 107 -2 2 -16 -15 -31 -37z m20 -27 c-10 -10 -19 5 -10 18 6 11 8 11 12
0 2 -7 1 -15 -2 -18z"/>
<path d="M3293 2175 c-13 -28 -14 -39 -5 -60 13 -28 43 -33 62 -10 15 19 4 52
-21 60 -22 7 -24 16 -7 33 9 9 9 12 0 12 -7 0 -20 -16 -29 -35z m45 -47 c-2
-13 -10 -23 -18 -23 -8 0 -16 10 -18 23 -3 17 2 22 18 22 16 0 21 -5 18 -22z"/>
<path d="M4286 2201 c-4 -5 -9 -37 -12 -70 l-7 -61 42 0 c31 0 41 -4 41 -16 0
-14 -7 -16 -40 -11 -37 5 -41 3 -47 -21 -9 -36 20 -55 77 -49 96 11 125 122
39 156 -23 9 -23 10 9 10 30 1 32 3 32 36 l0 35 -64 0 c-36 0 -67 -4 -70 -9z
m124 -31 c0 -17 -7 -20 -40 -20 -29 0 -40 -4 -40 -15 0 -9 9 -15 25 -15 30 0
65 -32 65 -59 0 -11 -10 -32 -23 -47 -18 -21 -32 -26 -65 -26 -23 0 -47 4 -52
7 -22 13 -2 30 35 30 48 0 71 28 41 51 -11 8 -33 14 -49 14 -26 0 -29 3 -23
23 3 12 6 34 6 50 0 26 1 27 60 27 53 0 60 -2 60 -20z"/>
<path d="M236 2153 c-19 -55 -19 -53 -6 -53 6 0 10 7 10 15 0 8 9 15 20 15 11
0 23 -7 26 -15 4 -8 10 -15 14 -15 5 0 1 23 -8 50 -9 28 -21 50 -28 50 -7 0
-19 -21 -28 -47z m32 -12 c-15 -5 -19 4 -11 24 6 18 7 18 13 -1 4 -10 3 -21
-2 -23z"/>
<path d="M322 2151 c3 -58 18 -70 18 -14 l0 37 27 -41 c15 -23 30 -40 35 -37
12 7 10 104 -2 104 -5 0 -10 -16 -10 -36 l0 -37 -22 33 c-36 53 -50 51 -46 -9z"/>
<path d="M434 2175 c-13 -21 -15 -31 -6 -50 12 -26 53 -42 74 -29 9 6 4 10
-16 14 -60 11 -60 68 0 81 l29 7 -32 1 c-25 1 -37 -5 -49 -24z"/>
<path d="M524 2178 c-14 -33 -6 -66 18 -79 45 -24 93 34 68 81 -16 29 -74 28
-86 -2z m71 -28 c0 -30 -3 -35 -27 -38 -19 -2 -28 2 -33 17 -9 30 12 63 38 59
18 -2 22 -10 22 -38z"/>
<path d="M676 2184 c-9 -8 -16 -24 -16 -35 0 -25 35 -59 60 -59 30 0 24 18 -7
22 -23 2 -29 8 -31 35 -3 29 0 33 30 42 31 9 31 9 6 10 -15 1 -34 -6 -42 -15z"/>
<path d="M762 2148 c3 -49 5 -53 31 -56 15 -2 27 1 27 7 0 6 -11 11 -25 11
-32 0 -28 23 5 31 l25 6 -29 12 c-30 12 -27 25 9 34 13 3 8 5 -13 6 l-33 1 3
-52z"/>
<path d="M840 2148 c0 -28 3 -48 7 -45 3 4 6 21 5 39 l0 33 16 -24 c10 -14 25
-34 34 -45 17 -20 17 -20 19 24 1 25 1 49 0 53 -1 5 9 7 21 5 18 -2 22 -10 25
-47 3 -59 13 -65 13 -8 0 33 5 49 18 56 13 8 4 10 -38 11 l-56 0 4 -35 c2 -19
2 -35 -1 -35 -3 0 -14 16 -26 35 -29 49 -41 44 -41 -17z"/>
<path d="M1027 2153 c-3 -26 -1 -52 4 -57 5 -6 9 0 9 17 0 33 23 36 38 5 9
-20 10 -15 9 27 -2 46 -4 50 -28 53 -24 3 -27 0 -32 -45z m48 17 c0 -8 -8 -16
-17 -18 -13 -2 -18 3 -18 18 0 15 5 20 18 18 9 -2 17 -10 17 -18z"/>
<path d="M1126 2157 c-20 -53 -21 -80 -3 -55 19 24 44 26 62 3 l17 -20 -7 20
c-3 11 -12 37 -18 58 -15 48 -31 47 -51 -6z m30 -14 c-10 -10 -19 5 -10 18 6
11 8 11 12 0 2 -7 1 -15 -2 -18z"/>
<path d="M1210 2161 c0 -57 8 -71 42 -71 17 0 27 4 23 10 -3 6 -15 10 -26 10
-16 0 -19 7 -19 45 0 25 -4 45 -10 45 -5 0 -10 -18 -10 -39z"/>
<path d="M1329 2190 c-1 -5 -1 -17 -1 -25 0 -69 2 -75 27 -75 51 0 83 61 49
94 -17 18 -73 22 -75 6z m65 -22 c14 -23 -3 -52 -33 -56 -19 -3 -21 1 -21 38
0 37 2 41 21 38 12 -2 27 -11 33 -20z"/>
<path d="M1442 2188 c-16 -16 -15 -60 1 -82 33 -45 103 15 79 68 -13 28 -58
36 -80 14z m58 -12 c20 -25 8 -61 -22 -64 -31 -4 -46 25 -28 58 13 24 33 26
50 6z"/>
<path d="M1580 2146 c0 -52 2 -56 24 -56 30 0 51 24 41 47 -4 10 -8 27 -9 38
-1 14 -9 21 -28 23 -28 3 -28 2 -28 -52z m43 37 c9 -9 -13 -34 -24 -27 -14 8
-11 34 4 34 8 0 17 -3 20 -7z m7 -57 c0 -15 -24 -28 -34 -19 -13 14 -5 33 14
33 11 0 20 -6 20 -14z"/>
<path d="M1671 2143 c1 -32 4 -46 6 -30 5 34 30 35 39 2 3 -14 10 -25 15 -25
11 0 10 8 0 35 -5 11 -4 25 1 33 14 17 -8 42 -38 42 -23 0 -24 -3 -23 -57z
m45 36 c3 -6 0 -15 -7 -20 -22 -14 -29 -11 -29 11 0 21 24 27 36 9z"/>
<path d="M1765 2149 c-18 -52 -15 -76 4 -41 12 23 51 19 51 -4 0 -8 5 -14 11
-14 11 0 7 21 -17 78 -7 17 -17 32 -23 32 -5 0 -17 -23 -26 -51z m33 -8 c-15
-5 -19 4 -11 24 6 18 7 18 13 -1 4 -10 3 -21 -2 -23z"/>
<path d="M1853 2183 c-4 -11 3 -24 23 -40 23 -19 26 -25 15 -32 -8 -5 -21 -7
-29 -3 -10 3 -13 1 -8 -6 11 -18 44 -14 55 6 11 21 4 36 -21 45 -25 9 -22 35
5 40 19 4 18 4 -6 6 -17 1 -30 -5 -34 -16z"/>
<path d="M1937 2193 c-7 -12 -2 -91 6 -99 4 -4 7 18 7 49 0 54 -3 67 -13 50z"/>
<path d="M1971 2145 l2 -55 34 0 c20 0 32 4 28 10 -3 6 -15 10 -26 10 -16 0
-19 7 -19 45 0 25 -5 45 -10 45 -6 0 -10 -23 -9 -55z"/>
<path d="M2715 2130 c3 -5 18 -10 32 -10 32 0 28 5 -10 14 -19 4 -26 3 -22 -4z"/>
<path d="M195 2000 c-6 -10 -23 -176 -24 -246 -1 -20 5 -22 78 -25 60 -3 84
-9 100 -23 24 -22 28 -73 9 -99 -20 -26 -85 -35 -143 -20 -27 7 -53 13 -57 13
-10 0 -29 -103 -20 -112 4 -4 34 -14 65 -20 64 -14 141 -2 205 29 83 42 121
141 87 230 -9 24 -21 43 -26 43 -6 0 -7 -6 -3 -12 5 -9 2 -9 -9 1 -18 15 -23
26 -7 16 6 -3 10 -2 10 3 0 22 -70 43 -172 51 -5 1 -8 14 -8 31 l0 29 103 3
102 3 3 53 3 52 -48 0 c-26 1 -91 3 -144 6 -70 4 -99 2 -104 -6z m25 -14 c0
-3 -4 -8 -10 -11 -5 -3 -10 -1 -10 4 0 6 5 11 10 11 6 0 10 -2 10 -4z m90 -4
c0 -4 -9 -8 -20 -8 -11 0 -20 4 -20 8 0 4 9 8 20 8 11 0 20 -4 20 -8z m63 1
c-7 -2 -19 -2 -25 0 -7 3 -2 5 12 5 14 0 19 -2 13 -5z m-153 -27 c0 -3 -4 -8
-10 -11 -5 -3 -10 -1 -10 4 0 6 5 11 10 11 6 0 10 -2 10 -4z m0 -70 c0 -2 -7
-7 -16 -10 -8 -3 -12 -2 -9 4 6 10 25 14 25 6z m-5 -36 c-3 -5 -11 -10 -16
-10 -6 0 -7 5 -4 10 3 6 11 10 16 10 6 0 7 -4 4 -10z m197 -64 c7 4 8 2 4 -5
-9 -13 -26 -5 -25 12 0 9 2 8 6 -1 2 -6 10 -9 15 -6z"/>
<path d="M3550 1916 c0 -24 3 -26 46 -26 41 0 45 2 42 23 -2 18 -10 23 -45 25
-40 3 -43 1 -43 -22z"/>
<path d="M1833 1824 c-15 -7 -5 -34 12 -34 8 0 17 -5 20 -11 4 -5 -10 -3 -30
6 -58 23 -85 26 -85 8 0 -10 6 -14 20 -10 11 3 18 1 14 -4 -3 -5 8 -15 23 -21
15 -7 34 -20 41 -28 8 -8 11 -10 7 -3 -4 9 1 10 25 2 16 -6 30 -17 30 -25 0
-8 5 -14 11 -14 17 0 61 -38 51 -44 -5 -3 -30 12 -55 34 -45 40 -71 53 -47 25
16 -19 10 -19 -26 0 -16 8 -37 15 -46 15 -10 0 -18 4 -18 9 0 9 -48 26 -64 22
-5 -1 -6 5 -3 14 8 20 2 19 -44 -7 -21 -11 -36 -25 -33 -29 3 -5 -1 -6 -9 -3
-10 4 -16 -6 -20 -38 -6 -46 0 -66 10 -30 3 12 12 22 19 22 8 0 14 5 14 10 0
13 66 13 91 0 11 -6 44 -12 74 -12 30 -1 55 -5 55 -9 0 -4 15 -11 33 -14 17
-4 43 -15 57 -25 14 -10 36 -21 50 -25 14 -4 56 -23 94 -41 38 -19 76 -34 84
-34 8 0 29 -10 46 -23 48 -35 117 -70 124 -63 3 4 -3 9 -15 12 -12 3 -24 12
-27 20 -3 8 -12 14 -21 14 -8 0 -15 5 -15 10 0 6 -4 10 -10 10 -15 0 -97 55
-130 87 -17 16 -62 47 -100 69 -38 21 -70 43 -70 48 0 4 7 5 16 2 13 -5 14 -4
6 7 -7 8 -9 17 -6 20 4 3 -6 9 -20 13 -15 4 -25 12 -23 18 5 13 -28 38 -53 42
-8 1 -22 4 -30 7 -8 3 -20 3 -27 1z m67 -44 c-6 -11 -12 -20 -14 -20 -2 0 -2
9 1 20 3 11 9 20 15 20 5 0 4 -9 -2 -20z m-230 -40 c0 -5 -5 -10 -11 -10 -5 0
-7 5 -4 10 3 6 8 10 11 10 2 0 4 -4 4 -10z m456 -165 c10 -8 15 -14 9 -14 -5
0 -19 6 -29 14 -11 8 -15 15 -10 15 6 0 19 -7 30 -15z"/>
<path d="M3778 1823 c7 -3 16 -2 19 1 4 3 -2 6 -13 5 -11 0 -14 -3 -6 -6z"/>
<path d="M3755 1781 c-8 -15 3 -31 21 -31 9 0 14 7 12 17 -4 20 -24 28 -33 14z"/>
<path d="M3835 1770 c-3 -5 -1 -10 4 -10 6 0 11 5 11 10 0 6 -2 10 -4 10 -3 0
-8 -4 -11 -10z"/>
<path d="M2000 1746 c0 -2 7 -6 15 -10 8 -3 15 -1 15 4 0 6 -7 10 -15 10 -8 0
-15 -2 -15 -4z"/>
<path d="M3550 1723 c0 -21 5 -23 45 -23 38 0 45 3 45 19 0 15 -9 20 -45 23
-41 3 -45 1 -45 -19z"/>
<path d="M3500 1647 c0 -40 3 -47 20 -47 15 0 20 7 20 28 0 16 -9 37 -20 47
-20 18 -20 17 -20 -28z"/>
<path d="M2060 1676 c0 -2 7 -7 16 -10 8 -3 12 -2 9 4 -6 10 -25 14 -25 6z"/>
<path d="M2122 1655 c15 -16 29 -27 31 -24 3 2 -10 15 -27 28 l-31 24 27 -28z"/>
<path d="M3765 1610 l-70 -6 67 -2 c37 -1 70 3 73 8 3 6 5 9 3 8 -2 -1 -34 -4
-73 -8z"/>
<path d="M1612 1570 c0 -14 2 -19 5 -12 2 6 2 18 0 25 -3 6 -5 1 -5 -13z"/>
<path d="M4307 1315 c-4 -8 -18 -15 -32 -15 -32 0 -32 -18 1 -30 34 -13 31
-14 39 21 7 33 1 50 -8 24z"/>
<path d="M1336 1215 c-3 -8 -1 -15 4 -15 6 0 10 7 10 15 0 8 -2 15 -4 15 -2 0
-6 -7 -10 -15z"/>
<path d="M1382 1190 c0 -14 2 -19 5 -12 2 6 2 18 0 25 -3 6 -5 1 -5 -13z"/>
<path d="M1312 1170 c-13 -11 -25 -28 -27 -37 -2 -10 -4 -20 -4 -22 -1 -2 -9
3 -18 10 -15 12 -16 12 -11 -2 5 -13 1 -16 -22 -14 -15 1 -33 6 -40 10 -8 5
-11 4 -6 -3 4 -7 -6 -12 -26 -14 -27 -2 -33 -7 -32 -25 0 -13 -5 -23 -13 -23
-7 0 -22 -6 -33 -12 -14 -9 -25 -10 -37 -3 -23 13 -60 8 -67 -10 -2 -7 2 -16
10 -19 8 -3 13 -2 10 2 -3 4 4 14 15 20 18 12 19 11 11 -5 -5 -10 -7 -24 -5
-30 3 -7 -1 -13 -8 -13 -7 0 -9 -3 -5 -7 8 -9 -61 -43 -88 -43 -19 -1 -20 -1
-3 -11 16 -9 17 -22 11 -136 l-7 -126 37 28 c34 26 46 29 142 33 l105 5 18 36
c17 32 101 120 108 113 2 -1 16 4 31 12 15 7 46 19 69 26 30 9 42 19 46 36 2
13 0 21 -4 18 -5 -3 -9 -12 -9 -21 0 -13 -3 -13 -15 -3 -11 9 -15 9 -15 1 0
-8 -5 -9 -19 -1 -27 14 -31 13 -31 -10 0 -11 -4 -20 -10 -20 -5 0 -10 5 -10
10 0 6 -9 10 -20 10 -11 0 -20 -4 -20 -10 0 -5 5 -9 11 -7 6 1 14 -4 17 -12 3
-8 0 -11 -7 -7 -6 4 -11 1 -11 -6 0 -7 -7 0 -15 16 -18 34 -15 39 24 39 22 0
26 3 18 12 -6 7 -19 10 -27 8 -23 -6 -47 47 -27 62 7 5 17 23 21 38 3 15 11
25 16 22 6 -3 10 -1 10 4 0 6 -6 11 -14 11 -10 0 -13 8 -10 25 3 20 1 23 -13
19 -15 -5 -15 -4 -3 4 10 8 18 8 27 0 9 -7 13 -7 13 1 0 6 -5 11 -11 11 -6 0
-9 7 -5 15 7 19 6 19 -22 -5z m-162 -144 c0 -2 -7 -7 -16 -10 -8 -3 -12 -2 -9
4 6 10 25 14 25 6z m-113 -61 c0 -8 -4 -12 -9 -9 -5 3 -6 10 -3 15 9 13 12 11
12 -6z m250 -40 c0 -8 -4 -15 -9 -15 -10 0 -11 14 -1 23 9 10 10 9 10 -8z
m-297 1 c0 -3 -4 -8 -10 -11 -5 -3 -10 -1 -10 4 0 6 5 11 10 11 6 0 10 -2 10
-4z m420 -6 c0 -5 -5 -10 -11 -10 -5 0 -7 5 -4 10 3 6 8 10 11 10 2 0 4 -4 4
-10z m-140 -30 c0 -5 -2 -10 -4 -10 -3 0 -8 5 -11 10 -3 6 -1 10 4 10 6 0 11
-4 11 -10z"/>
<path d="M1260 1150 c0 -5 5 -10 10 -10 6 0 10 5 10 10 0 6 -4 10 -10 10 -5 0
-10 -4 -10 -10z"/>
<path d="M1873 1044 c-7 -7 -13 -18 -13 -24 0 -5 -5 -10 -11 -10 -5 0 -7 -4
-4 -10 13 -21 33 -9 38 23 6 38 5 39 -10 21z"/>
<path d="M4440 1045 c0 -8 5 -15 10 -15 6 0 10 7 10 15 0 8 -4 15 -10 15 -5 0
-10 -7 -10 -15z"/>
<path d="M1397 1014 c3 -8 0 -14 -6 -14 -6 0 -11 4 -11 9 0 5 -11 8 -24 7 -14
0 -22 -6 -19 -13 6 -16 23 -17 23 -2 0 6 7 4 15 -5 9 -8 22 -13 30 -10 8 4 15
1 15 -5 0 -6 5 -11 11 -11 6 0 9 8 7 18 -3 11 0 19 8 19 7 0 11 -4 8 -9 -3 -4
6 -8 20 -8 14 0 26 5 26 11 0 5 -4 8 -9 5 -5 -4 -11 -2 -13 2 -1 5 -22 11 -45
14 -33 5 -40 3 -36 -8z"/>
<path d="M1307 994 c3 -7 9 -14 14 -14 14 0 10 17 -5 23 -10 4 -13 1 -9 -9z"/>
<path d="M4440 1000 c10 -6 11 -10 3 -10 -15 0 -11 -42 4 -47 7 -3 11 11 10
31 -1 26 -6 36 -16 36 -14 0 -14 -1 -1 -10z"/>
<path d="M851 970 c-6 -20 -7 -30 0 -30 6 0 7 -4 4 -10 -3 -5 1 -10 9 -10 19
0 32 40 16 50 -7 4 -9 13 -6 19 4 6 3 11 -2 11 -6 0 -15 -13 -21 -30z"/>
<path d="M1570 932 c-28 -12 -31 -16 -16 -20 10 -2 28 5 39 17 25 24 24 25
-23 3z"/>
<path d="M720 930 c0 -5 7 -7 15 -4 8 4 15 8 15 10 0 2 -7 4 -15 4 -8 0 -15
-4 -15 -10z"/>
<path d="M1780 910 c-12 -12 -18 -25 -15 -30 4 -6 1 -10 -5 -10 -7 0 -10 7 -6
18 4 9 -7 2 -24 -17 -21 -23 -30 -29 -30 -17 0 9 -3 16 -7 17 -54 8 -71 6 -65
-9 4 -11 1 -14 -11 -9 -9 3 -19 2 -23 -4 -3 -5 -14 -7 -25 -4 -11 4 -19 2 -19
-4 0 -6 -5 -11 -11 -11 -6 0 -9 8 -6 19 3 14 0 17 -14 14 -10 -3 -25 2 -34 10
-20 20 -39 13 -97 -36 -37 -31 -45 -44 -46 -74 -1 -21 4 -41 11 -45 21 -13
119 -9 136 6 9 7 27 16 41 19 23 6 22 5 -2 -5 -16 -7 -28 -20 -28 -29 0 -16 3
-17 28 -3 15 7 33 14 40 14 7 0 23 11 36 25 23 24 24 25 29 5 3 -11 0 -20 -6
-20 -6 0 -8 -3 -5 -6 10 -9 74 23 89 44 8 10 18 19 24 18 5 0 19 13 30 31 11
18 28 35 38 38 12 5 16 13 12 26 -4 12 -1 21 9 25 9 3 13 10 10 15 -9 15 -33
10 -54 -11z m-110 -54 c0 -3 -4 -8 -10 -11 -5 -3 -10 -1 -10 4 0 6 5 11 10 11
6 0 10 -2 10 -4z m-155 -26 c-3 -5 -12 -10 -18 -10 -7 0 -6 4 3 10 19 12 23
12 15 0z"/>
<path d="M4434 900 c0 -9 5 -17 11 -17 6 0 11 8 11 17 0 9 -5 17 -11 17 -6 0
-11 -8 -11 -17z"/>
<path d="M1497 903 c-26 -7 -10 -23 24 -23 31 0 39 14 13 24 -9 3 -16 5 -17 5
-1 -1 -10 -3 -20 -6z"/>
<path d="M1686 897 c3 -10 9 -15 12 -12 3 3 0 11 -7 18 -10 9 -11 8 -5 -6z"/>
<path d="M482 870 c0 -14 2 -19 5 -12 2 6 2 18 0 25 -3 6 -5 1 -5 -13z"/>
<path d="M440 850 c0 -19 3 -21 12 -12 9 9 9 15 0 24 -9 9 -12 7 -12 -12z"/>
<path d="M643 854 c-3 -8 -1 -20 4 -25 7 -7 11 -2 11 15 0 29 -6 33 -15 10z"/>
<path d="M4437 835 c-2 -15 0 -24 6 -22 12 4 18 47 6 47 -3 0 -9 -11 -12 -25z"/>
<path d="M225 840 c-19 -8 -19 -9 3 -9 12 -1 22 4 22 9 0 6 -1 10 -2 9 -2 0
-12 -4 -23 -9z"/>
<path d="M156 827 c3 -10 9 -15 12 -12 3 3 0 11 -7 18 -10 9 -11 8 -5 -6z"/>
<path d="M827 780 c-3 -11 -1 -23 4 -26 5 -3 9 6 9 20 0 31 -6 34 -13 6z"/>
<path d="M4435 790 c3 -5 8 -10 11 -10 2 0 4 5 4 10 0 6 -5 10 -11 10 -5 0 -7
-4 -4 -10z"/>
<path d="M4438 752 c-4 -12 -2 -24 2 -27 13 -8 18 8 10 29 -6 19 -7 19 -12 -2z"/>
<path d="M210 731 c0 -6 4 -13 10 -16 6 -3 7 1 4 9 -7 18 -14 21 -14 7z"/>
<path d="M811 713 c-21 -20 -23 -28 -17 -75 4 -29 11 -60 16 -68 8 -13 11 -12
25 5 11 16 13 35 9 90 -4 39 -7 70 -8 71 0 0 -12 -10 -25 -23z"/>
<path d="M4430 701 c0 -6 5 -13 10 -16 6 -3 10 1 10 9 0 9 -4 16 -10 16 -5 0
-10 -4 -10 -9z"/>
<path d="M1607 673 c-20 -20 -5 -32 38 -30 30 1 45 6 45 15 0 9 -7 11 -20 7
-12 -4 -20 -2 -20 5 0 7 -6 5 -16 -4 -20 -20 -28 -20 -20 -1 6 16 3 19 -7 8z"/>
<path d="M1737 673 c-12 -11 -8 -30 7 -30 8 0 11 8 8 19 -5 20 -6 21 -15 11z"/>
<path d="M152 640 c0 -19 2 -27 5 -17 2 9 2 25 0 35 -3 9 -5 1 -5 -18z"/>
<path d="M521 653 c0 -12 -4 -30 -7 -40 -5 -14 -4 -15 5 -7 7 6 11 24 8 40 -3
21 -4 23 -6 7z"/>
<path d="M4438 663 c7 -3 16 -2 19 1 4 3 -2 6 -13 5 -11 0 -14 -3 -6 -6z"/>
<path d="M1705 640 c3 -5 8 -10 11 -10 2 0 4 5 4 10 0 6 -5 10 -11 10 -5 0 -7
-4 -4 -10z"/>
<path d="M172 600 c0 -19 2 -27 5 -17 2 9 2 25 0 35 -3 9 -5 1 -5 -18z"/>
<path d="M560 601 c0 -5 9 -7 20 -4 11 3 20 7 20 9 0 2 -9 4 -20 4 -11 0 -20
-4 -20 -9z"/>
<path d="M4438 603 c7 -3 16 -2 19 1 4 3 -2 6 -13 5 -11 0 -14 -3 -6 -6z"/>
<path d="M136 573 c-6 -14 -5 -15 5 -6 7 7 10 15 7 18 -3 3 -9 -2 -12 -12z"/>
<path d="M638 583 c6 -2 18 -2 25 0 6 3 1 5 -13 5 -14 0 -19 -2 -12 -5z"/>
<path d="M4436 548 c3 -5 10 -6 15 -3 13 9 11 12 -6 12 -8 0 -12 -4 -9 -9z"/>
<path d="M4430 471 c0 -5 7 -11 15 -15 8 -3 15 -1 15 3 0 5 -7 11 -15 15 -8 3
-15 1 -15 -3z"/>
<path d="M350 440 c0 -5 5 -10 11 -10 5 0 7 5 4 10 -3 6 -8 10 -11 10 -2 0 -4
-4 -4 -10z"/>
<path d="M4449 423 c-13 -16 -12 -17 4 -4 9 7 17 15 17 17 0 8 -8 3 -21 -13z"/>
<path d="M3534 293 c-7 -2 -9 -19 -7 -43 3 -22 2 -40 -1 -40 -3 0 -15 18 -26
40 -13 26 -27 40 -40 40 -18 0 -20 -7 -20 -70 0 -56 3 -70 15 -70 11 0 15 12
15 48 l0 47 27 -47 c16 -30 33 -48 45 -48 16 0 18 9 18 69 0 69 -5 82 -26 74z"/>
<path d="M3938 292 c-28 -3 -28 -5 -28 -73 0 -62 2 -69 20 -69 15 0 20 7 20
25 0 14 5 25 10 25 6 0 15 -11 20 -25 5 -14 16 -25 25 -25 17 0 20 27 6 49 -6
9 -5 21 2 33 22 35 -18 67 -75 60z m37 -42 c0 -7 -6 -15 -12 -17 -8 -3 -13 4
-13 17 0 13 5 20 13 18 6 -3 12 -11 12 -18z"/>
<path d="M3260 270 c-45 -45 -10 -120 55 -120 26 0 35 4 35 16 0 12 -6 15 -21
11 -22 -6 -59 23 -59 47 0 22 29 46 56 46 13 0 24 5 24 10 0 19 -69 11 -90
-10z"/>
<path d="M3380 220 c0 -56 3 -70 15 -70 12 0 15 14 15 70 0 56 -3 70 -15 70
-12 0 -15 -14 -15 -70z"/>
<path d="M3600 270 c-45 -45 -11 -120 55 -120 46 0 49 27 3 32 -29 3 -33 7
-36 35 -3 34 17 53 52 50 11 -1 21 4 23 11 8 21 -74 15 -97 -8z"/>
<path d="M3727 277 c-10 -6 -20 -28 -23 -48 -5 -29 -2 -41 15 -58 27 -27 82
-28 104 -3 24 27 23 98 -2 112 -27 14 -74 13 -94 -3z m75 -32 c9 -19 8 -29 -6
-50 -14 -21 -20 -24 -36 -15 -35 19 -21 90 17 90 7 0 18 -11 25 -25z"/>
<path d="M4040 221 c0 -76 6 -83 68 -73 42 6 43 32 2 32 -20 0 -30 5 -30 15 0
9 9 15 25 15 16 0 25 6 25 15 0 9 -9 15 -25 15 -33 0 -32 18 2 22 14 2 28 9
31 16 2 8 -11 12 -47 12 l-51 0 0 -69z"/>
<path d="M4182 263 c-30 -78 -35 -105 -21 -114 10 -6 17 -2 23 11 11 23 44 27
52 5 4 -8 15 -15 26 -15 12 0 18 5 15 13 -2 6 -13 38 -23 70 -14 47 -22 57
-40 57 -14 0 -25 -9 -32 -27z m38 -38 c0 -8 -4 -15 -10 -15 -5 0 -10 7 -10 15
0 8 5 15 10 15 6 0 10 -7 10 -15z"/>
<path d="M4300 216 c0 -65 2 -74 18 -72 13 2 17 13 18 47 2 62 -6 99 -22 99
-11 0 -14 -18 -14 -74z"/>
<path d="M4372 278 c-20 -20 -13 -46 18 -68 35 -25 31 -43 -7 -34 -21 6 -24 3
-21 -12 4 -25 43 -30 74 -10 33 22 31 53 -6 74 -36 21 -38 32 -5 32 16 0 25 6
25 15 0 19 -60 21 -78 3z"/>
<path d="M120 226 c0 -56 12 -72 45 -60 22 9 18 24 -5 24 -11 0 -20 7 -20 15
0 8 7 15 15 15 8 0 15 5 15 11 0 6 -7 9 -15 5 -9 -3 -15 0 -15 9 0 8 9 15 21
15 11 0 17 5 14 10 -3 6 -17 10 -31 10 -22 0 -24 -3 -24 -54z"/>
<path d="M258 253 c-2 -16 -1 -43 1 -60 3 -30 6 -32 30 -27 37 9 45 19 45 60
0 38 -15 54 -51 54 -16 0 -22 -7 -25 -27z m52 -34 c0 -19 -5 -29 -15 -29 -14
0 -19 41 -8 63 9 16 23 -5 23 -34z"/>
<path d="M394 267 c-3 -8 -4 -32 -2 -53 3 -34 6 -39 28 -39 23 0 25 3 25 50 0
44 -3 50 -23 53 -13 2 -24 -3 -28 -11z m36 -42 c0 -19 -4 -35 -10 -35 -5 0
-10 16 -10 35 0 19 5 35 10 35 6 0 10 -16 10 -35z"/>
<path d="M503 272 c-17 -11 -24 -59 -12 -88 6 -19 15 -25 32 -22 18 2 23 10
25 46 4 56 -15 83 -45 64z m27 -51 c0 -17 -4 -33 -10 -36 -6 -4 -10 8 -10 29
0 20 5 36 10 36 6 0 10 -13 10 -29z"/>
<path d="M592 237 c-15 -41 -15 -47 -1 -47 7 0 18 -8 25 -17 20 -28 27 -11 25
60 -1 49 -32 52 -49 4z m28 -17 c0 -5 -5 -10 -11 -10 -5 0 -7 5 -4 10 3 6 8
10 11 10 2 0 4 -4 4 -10z"/>
<path d="M684 234 c-8 -45 5 -69 37 -69 19 0 25 6 27 28 3 22 -1 30 -17 34
-22 6 -30 26 -8 21 7 -2 14 2 15 7 1 6 -9 11 -22 13 -22 3 -26 -2 -32 -34z
m40 -39 c3 -8 1 -15 -4 -15 -6 0 -10 7 -10 15 0 8 2 15 4 15 2 0 6 -7 10 -15z"/>
<path d="M789 253 c-13 -15 -12 -16 9 -11 27 7 28 -6 2 -39 -28 -36 -25 -43
15 -43 19 0 35 5 35 10 0 6 -7 10 -16 10 -13 0 -13 3 2 29 9 16 14 36 11 45
-8 21 -41 21 -58 -1z"/>
<path d="M885 247 c-4 -14 -5 -38 -3 -53 2 -23 9 -30 30 -32 22 -3 29 2 34 22
7 31 -1 46 -27 46 -11 0 -17 5 -14 10 4 6 12 9 19 8 6 -2 13 2 14 7 1 6 -9 11
-22 13 -20 3 -27 -2 -31 -21z m32 -59 c-3 -8 -6 -5 -6 6 -1 11 2 17 5 13 3 -3
4 -12 1 -19z"/>
<path d="M999 253 c-11 -13 -11 -17 -1 -20 6 -3 12 -20 12 -39 0 -24 5 -34 15
-34 12 0 15 13 15 55 0 58 -14 71 -41 38z"/>
<path d="M1086 254 c-3 -9 -6 -31 -6 -49 0 -43 30 -64 54 -39 9 8 16 19 16 24
0 22 -14 40 -32 40 -10 0 -17 4 -13 10 3 5 12 7 20 3 9 -3 15 1 15 11 0 21
-46 21 -54 0z m34 -59 c0 -8 -4 -15 -10 -15 -5 0 -7 7 -4 15 4 8 8 15 10 15 2
0 4 -7 4 -15z"/>
<path d="M1199 253 c-11 -13 -11 -17 -1 -20 7 -3 12 -22 12 -45 0 -64 24 -42
28 25 3 61 -11 75 -39 40z"/>
</g>
</svg>
