<?xml version="1.0" standalone="no"?>
<!DOCTYPE svg PUBLIC "-//W3C//DTD SVG 20010904//EN"
 "http://www.w3.org/TR/2001/REC-SVG-20010904/DTD/svg10.dtd">
<svg version="1.0" xmlns="http://www.w3.org/2000/svg"
 width="447.000000pt" height="232.000000pt" viewBox="0 0 447.000000 232.000000"
 preserveAspectRatio="xMidYMid meet">

<g transform="translate(0.000000,232.000000) scale(0.100000,-0.100000)"
fill="#000000" stroke="none">
<path d="M543 2110 c-49 -20 -36 -100 15 -100 l27 0 -25 13 c-34 17 -36 70 -2
75 12 2 22 8 22 13 0 11 -8 11 -37 -1z"/>
<path d="M608 2112 c-14 -3 -18 -14 -18 -48 0 -47 12 -60 47 -51 16 4 15 6 -4
12 -26 8 -31 25 -8 25 8 0 15 4 15 9 0 5 -7 11 -15 15 -22 8 -18 24 8 28 15 2
18 5 7 9 -8 3 -23 4 -32 1z"/>
<path d="M713 2103 c-3 -7 -2 -21 1 -30 3 -10 -4 -6 -17 10 -12 15 -26 27 -30
27 -4 0 -7 -22 -7 -50 0 -27 5 -50 10 -50 6 0 10 12 10 28 l1 27 17 -27 c24
-39 32 -35 32 17 0 33 4 45 15 45 11 0 15 -11 15 -39 0 -22 5 -43 10 -46 6 -4
10 9 10 32 0 22 5 44 12 51 9 9 9 12 -2 13 -56 5 -73 3 -77 -8z"/>
<path d="M80 2060 c0 -50 1 -51 28 -48 25 3 27 6 27 48 0 42 -2 45 -28 48 -26
3 -27 2 -27 -48z m40 25 c0 -8 -4 -15 -10 -15 -5 0 -10 7 -10 15 0 8 5 15 10
15 6 0 10 -7 10 -15z m0 -51 c0 -8 -4 -14 -10 -14 -5 0 -10 9 -10 21 0 11 5
17 10 14 6 -3 10 -13 10 -21z"/>
<path d="M170 2085 c-5 -14 -12 -38 -16 -53 -5 -25 -4 -25 9 -9 8 9 19 17 25
17 6 0 16 -8 21 -17 14 -25 14 0 -1 48 -13 45 -25 49 -38 14z m17 -27 c-3 -8
-6 -5 -6 6 -1 11 2 17 5 13 3 -3 4 -12 1 -19z"/>
<path d="M241 2058 c2 -51 2 -52 8 -14 l6 39 17 -36 c24 -51 38 -46 38 13 0
53 -16 69 -22 23 l-4 -28 -14 28 c-20 41 -30 33 -29 -25z"/>
<path d="M332 2098 c-7 -7 -12 -24 -12 -38 0 -33 17 -50 50 -49 l25 1 -24 7
c-46 13 -45 75 1 84 21 4 21 4 -2 6 -15 0 -31 -4 -38 -11z"/>
<path d="M400 2085 c-14 -37 3 -75 35 -75 34 0 53 39 37 75 -8 17 -20 25 -37
25 -18 0 -28 -7 -35 -25z m58 -15 c1 -14 -2 -32 -8 -40 -16 -25 -44 11 -36 45
9 34 40 30 44 -5z"/>
<path d="M810 2060 c0 -27 5 -50 10 -50 6 0 10 9 10 20 0 27 14 25 27 -2 9
-19 11 -15 11 30 1 51 0 52 -29 52 -28 0 -29 -1 -29 -50z m42 25 c0 -5 -5 -11
-11 -13 -6 -2 -11 4 -11 13 0 9 5 15 11 13 6 -2 11 -8 11 -13z"/>
<path d="M896 2063 c-20 -59 -20 -60 5 -37 20 18 21 18 35 0 7 -11 16 -18 18
-15 6 7 -24 99 -33 99 -5 0 -16 -21 -25 -47z m29 7 c3 -5 1 -10 -4 -10 -6 0
-11 5 -11 10 0 6 2 10 4 10 3 0 8 -4 11 -10z"/>
<path d="M970 2060 c0 -48 1 -50 28 -50 l27 0 -24 19 c-18 14 -23 25 -19 50 2
17 1 31 -4 31 -4 0 -8 -22 -8 -50z"/>
<path d="M1060 2059 c0 -49 1 -50 27 -47 16 2 32 12 39 25 l11 23 11 -25 c16
-34 58 -34 74 0 26 57 -44 107 -73 53 l-12 -22 -8 22 c-6 16 -17 22 -39 22
-29 0 -30 -1 -30 -51z m54 18 c8 -12 8 -22 0 -34 -16 -25 -38 -22 -42 5 -7 50
18 67 42 29z m91 -17 c0 -44 -31 -56 -41 -16 -8 35 2 58 23 54 13 -2 18 -13
18 -38z"/>
<path d="M1270 2060 c0 -46 2 -50 24 -50 29 0 34 13 28 63 -3 31 -8 37 -28 37
-22 0 -24 -4 -24 -50z m38 28 c-6 -18 -28 -21 -28 -4 0 9 7 16 16 16 9 0 14
-5 12 -12z m2 -53 c0 -8 -7 -15 -15 -15 -8 0 -15 7 -15 15 0 8 7 15 15 15 8 0
15 -7 15 -15z"/>
<path d="M1340 2060 c0 -32 4 -49 10 -45 6 3 10 13 10 21 0 21 16 17 27 -8 9
-19 10 -14 9 27 -1 47 -3 50 -29 53 -26 3 -27 2 -27 -48z m42 25 c0 -5 -5 -11
-11 -13 -6 -2 -11 4 -11 13 0 9 5 15 11 13 6 -2 11 -8 11 -13z"/>
<path d="M1431 2088 c-4 -13 -11 -36 -15 -53 -5 -24 -4 -26 4 -12 6 9 17 17
25 17 8 0 19 -8 24 -17 14 -25 14 0 -1 48 -13 44 -25 49 -37 17z m16 -30 c-3
-8 -6 -5 -6 6 -1 11 2 17 5 13 3 -3 4 -12 1 -19z"/>
<path d="M1496 2095 c-3 -9 3 -24 14 -35 25 -25 25 -37 3 -43 -13 -4 -12 -5 5
-6 32 -1 39 26 13 53 -26 27 -26 33 -3 39 13 4 12 5 -4 6 -12 0 -24 -6 -28
-14z"/>
<path d="M1561 2058 c0 -39 3 -48 9 -33 12 28 12 73 0 80 -6 4 -10 -14 -9 -47z"/>
<path d="M1592 2063 c3 -43 6 -48 28 -50 14 -1 18 0 8 3 -14 4 -18 16 -18 50
0 24 -5 44 -11 44 -6 0 -9 -19 -7 -47z"/>
<path d="M3850 2085 c-10 -12 -10 -22 -2 -39 7 -16 7 -27 0 -34 -14 -14 -6
-53 15 -66 33 -21 52 4 53 70 1 32 -3 65 -9 72 -13 17 -42 15 -57 -3z m45 -35
c-5 -8 -11 -8 -17 -2 -6 6 -7 16 -3 22 5 8 11 8 17 2 6 -6 7 -16 3 -22z m3
-63 c2 -10 -3 -17 -12 -17 -18 0 -29 16 -21 31 9 14 29 6 33 -14z"/>
<path d="M2870 2080 c0 -5 7 -7 15 -4 9 4 18 -2 24 -17 6 -14 10 -18 10 -8 1
8 -4 20 -11 27 -14 14 -38 16 -38 2z"/>
<path d="M3108 2083 c-2 -5 -1 -26 3 -48 l6 -40 2 48 c1 44 -3 57 -11 40z"/>
<path d="M3172 2078 c-17 -17 -15 -63 3 -78 13 -10 18 -11 28 -1 9 10 8 11 -5
6 -13 -5 -19 0 -24 19 -8 32 2 59 19 54 6 -3 15 -18 19 -34 6 -27 6 -27 5 6
-2 37 -23 50 -45 28z"/>
<path d="M3269 2082 c8 -6 11 -18 7 -30 -4 -11 -2 -23 4 -27 18 -11 11 -25
-12 -25 -18 0 -20 -2 -8 -10 23 -14 38 7 37 53 -2 33 -6 42 -22 45 -15 2 -17
1 -6 -6z"/>
<path d="M3353 2083 c14 -3 17 -11 13 -28 -3 -13 -2 -27 4 -30 18 -11 11 -35
-11 -35 -11 0 -18 -4 -15 -9 3 -5 15 -7 26 -4 19 5 25 17 20 38 -2 6 -3 24 -4
40 -1 25 -6 30 -26 32 -16 1 -18 0 -7 -4z"/>
<path d="M3446 2071 c-12 -13 -16 -32 -14 -58 3 -33 6 -38 28 -38 33 0 41 48
11 66 -15 10 -17 17 -10 31 13 23 7 23 -15 -1z m29 -51 c4 -6 1 -18 -6 -26
-11 -14 -13 -14 -21 0 -15 26 12 51 27 26z"/>
<path d="M3552 2055 c-26 -45 -27 -61 -6 -57 8 2 18 -7 23 -20 8 -22 8 -22 14
7 3 17 3 48 -1 70 l-8 40 -22 -40z m10 -37 c-7 -7 -12 -8 -12 -2 0 14 12 26
19 19 2 -3 -1 -11 -7 -17z"/>
<path d="M3632 2078 c-18 -18 -15 -94 4 -112 21 -21 30 -20 48 6 41 59 -5 153
-52 106z m46 -44 c2 -43 -10 -70 -27 -60 -12 8 -15 88 -4 100 15 15 28 -2 31
-40z"/>
<path d="M3768 2052 c-33 -50 -35 -62 -8 -62 12 0 24 -9 29 -22 8 -22 8 -22
13 3 3 13 3 46 -1 73 l-6 50 -27 -42z m22 -27 c0 -8 -7 -15 -15 -15 -9 0 -12
6 -9 15 4 8 10 15 15 15 5 0 9 -7 9 -15z"/>
<path d="M3021 2055 c0 -17 -7 -38 -13 -45 -7 -8 -5 -8 5 1 13 11 17 26 14 45
l-4 29 -2 -30z"/>
<path d="M4209 2028 c-3 -15 -5 -80 -2 -70 3 6 8 10 12 8 4 -3 5 11 3 30 -3
28 -10 44 -13 32z"/>
<path d="M1630 1940 c0 -5 5 -10 11 -10 5 0 7 5 4 10 -3 6 -8 10 -11 10 -2 0
-4 -4 -4 -10z"/>
<path d="M164 1912 l-30 -3 -12 -97 c-18 -146 -21 -137 43 -139 69 -2 115 -31
115 -71 -1 -55 -49 -85 -116 -73 -22 4 -46 11 -52 15 -7 4 -14 -4 -18 -21 -3
-15 -7 -33 -9 -39 -6 -21 12 -34 51 -39 21 -3 47 -8 56 -11 29 -9 96 15 133
47 55 49 73 135 41 197 -21 41 -49 59 -114 72 -48 11 -52 14 -52 40 0 17 7 33
18 39 9 6 11 11 5 11 -7 0 -13 7 -13 15 0 7 -8 18 -17 24 -10 5 -14 13 -10 17
4 4 21 -9 38 -29 28 -34 34 -37 85 -37 50 0 54 2 54 24 0 17 -7 25 -22 28 -37
6 -58 -2 -58 -23 0 -10 -4 -19 -10 -19 -5 0 -10 9 -10 21 0 14 -5 19 -15 16
-8 -4 -17 -1 -21 5 -4 7 -3 8 4 4 7 -4 12 -2 12 4 0 7 19 11 55 9 30 -1 57 0
61 3 7 7 -144 15 -192 10z m6 -27 c10 -12 10 -19 2 -27 -9 -9 -12 -8 -12 6 0
9 -4 14 -10 11 -5 -3 -10 1 -10 9 0 20 14 20 30 1z"/>
<path d="M512 1899 c-51 -33 -74 -89 -80 -195 -10 -188 59 -286 183 -263 82
15 131 120 123 263 -6 92 -23 150 -38 126 -14 -21 -12 -30 5 -30 8 0 15 -4 15
-10 0 -13 -73 -7 -77 6 -2 7 4 11 13 10 9 0 19 5 22 13 3 10 -1 12 -19 8 -31
-8 -52 9 -39 33 12 22 -11 35 -30 17 -10 -10 -10 -7 -1 11 9 17 18 21 34 16
27 -8 46 -24 28 -24 -25 0 -4 -25 22 -25 22 -1 24 2 15 18 -12 24 -67 47 -110
47 -18 0 -48 -10 -66 -21z m31 -44 c4 -8 1 -17 -5 -21 -7 -4 -8 -3 -4 4 9 16
-7 15 -22 0 -16 -16 -15 -1 1 17 16 18 24 18 30 0z m94 -76 c6 -33 42 -42 44
-11 0 14 2 14 8 -3 6 -15 3 -24 -13 -34 -30 -21 -35 -32 -34 -66 3 -89 -29
-154 -70 -141 -30 10 -43 53 -46 152 -3 91 7 130 43 165 15 15 18 14 39 -8 13
-14 26 -38 29 -54z m-163 7 c-26 -19 -29 -13 -13 24 13 28 15 29 23 10 7 -16
5 -24 -10 -34z m16 -31 c0 -8 -4 -15 -10 -15 -5 0 -10 7 -10 15 0 8 5 15 10
15 6 0 10 -7 10 -15z m-30 -19 c0 -3 -4 -8 -10 -11 -5 -3 -10 -1 -10 4 0 6 5
11 10 11 6 0 10 -2 10 -4z m270 -48 c0 -7 -11 -18 -25 -25 -31 -14 -32 -7 -2
18 27 22 27 22 27 7z"/>
<path d="M1033 1875 c-3 -9 -3 -18 -1 -21 3 -3 8 4 11 16 6 23 -1 27 -10 5z"/>
<path d="M1125 1864 c-11 -8 -28 -13 -37 -10 -10 2 -18 1 -18 -3 0 -3 -10 -11
-22 -16 -32 -15 -33 -32 -2 -38 20 -3 28 0 31 13 3 10 11 21 19 24 10 4 14 -4
14 -29 0 -38 10 -42 53 -26 22 8 24 7 20 -9 -5 -19 -4 -19 27 -4 l32 16 -39
18 c-21 9 -44 24 -51 32 -11 13 -9 17 13 22 14 4 25 11 25 16 0 15 -42 11 -65
-6z"/>
<path d="M1210 1849 c7 -11 14 -19 16 -16 7 7 -7 37 -17 37 -6 0 -5 -9 1 -21z"/>
<path d="M1336 1852 c-3 -5 1 -13 10 -16 23 -9 34 -7 34 5 0 5 -5 7 -11 3 -6
-3 -15 -1 -19 6 -5 8 -10 8 -14 2z"/>
<path d="M1530 1842 c0 -6 -6 -9 -14 -6 -8 3 -17 0 -21 -6 -6 -9 -9 -9 -15 0
-13 22 -43 3 -37 -23 5 -19 5 -20 -7 -5 -11 15 -13 15 -24 0 -7 -9 -10 -11 -6
-3 5 9 3 12 -4 7 -7 -4 -12 -14 -12 -22 0 -17 -17 -19 -23 -1 -2 6 -3 -5 -2
-26 1 -21 7 -43 14 -50 15 -15 14 -27 -5 -48 -15 -16 -14 -17 6 -12 13 3 25
14 27 25 5 16 15 22 35 19 4 0 5 5 2 13 -3 8 -1 17 5 21 6 3 11 19 11 35 0 16
5 32 11 36 17 10 29 -17 17 -39 -9 -17 -7 -18 14 -12 12 4 25 12 26 16 7 17
22 9 22 -12 0 -11 5 -17 10 -14 6 3 10 15 10 25 0 10 5 20 12 22 7 3 -1 18
-20 38 -18 18 -32 28 -32 22z m-95 -62 c3 -5 1 -10 -4 -10 -6 0 -11 5 -11 10
0 6 2 10 4 10 3 0 8 -4 11 -10z"/>
<path d="M3320 1815 c0 -24 5 -35 15 -35 10 0 15 11 15 35 0 24 -5 35 -15 35
-10 0 -15 -11 -15 -35z"/>
<path d="M1690 1806 c0 -2 7 -9 15 -16 12 -10 15 -10 15 4 0 9 -7 16 -15 16
-8 0 -15 -2 -15 -4z"/>
<path d="M3480 1730 c0 -29 4 -40 15 -40 10 0 15 10 15 34 0 21 -6 36 -15 40
-12 4 -15 -3 -15 -34z"/>
<path d="M1196 1745 c-10 -8 -22 -12 -26 -10 -4 3 -10 -4 -13 -14 -7 -30 44
-21 55 9 11 29 8 32 -16 15z"/>
<path d="M2005 1731 c-3 -11 -22 -34 -41 -51 -37 -32 -41 -66 -7 -53 29 11 57
54 59 90 1 38 -2 41 -11 14z"/>
<path d="M970 1715 c-11 -13 -10 -14 4 -9 9 3 16 10 16 15 0 13 -6 11 -20 -6z"/>
<path d="M1520 1720 c-9 -6 -10 -10 -3 -10 6 0 15 5 18 10 8 12 4 12 -15 0z"/>
<path d="M1630 1721 c0 -5 7 -11 15 -15 8 -3 15 -1 15 3 0 5 -7 11 -15 15 -8
3 -15 1 -15 -3z"/>
<path d="M3162 1708 c6 -18 28 -21 28 -4 0 9 -7 16 -16 16 -9 0 -14 -5 -12
-12z"/>
<path d="M3320 1705 c0 -8 7 -15 15 -15 8 0 15 7 15 15 0 8 -7 15 -15 15 -8 0
-15 -7 -15 -15z"/>
<path d="M3575 1710 c-3 -5 -1 -10 4 -10 6 0 11 5 11 10 0 6 -2 10 -4 10 -3 0
-8 -4 -11 -10z"/>
<path d="M1098 1692 c-5 -19 -11 -22 -30 -16 -19 6 -21 4 -12 -7 6 -8 12 -32
12 -53 1 -35 0 -37 -12 -21 -19 27 -31 1 -16 -36 11 -25 10 -32 -4 -48 -23
-26 -20 -31 19 -31 26 0 33 3 29 15 -10 26 4 65 21 59 9 -4 15 -11 14 -18 -1
-6 -1 -20 0 -30 1 -19 2 -19 14 -2 11 15 16 13 47 -29 29 -39 36 -43 42 -28 6
17 9 16 12 -7 3 -23 21 -13 24 13 2 15 8 25 13 22 5 -4 9 1 9 9 0 9 7 16 16
16 8 0 13 4 10 8 -3 5 4 16 16 26 15 13 17 20 9 26 -10 5 -9 11 3 22 13 14 12
16 -10 16 -14 0 -48 19 -81 47 -54 44 -58 46 -61 25 -2 -14 -9 -20 -18 -16
-14 6 -18 -7 -14 -54 1 -19 -1 -22 -10 -14 -13 13 -16 65 -5 85 7 12 6 12 -7
1 -14 -12 -17 -10 -20 15 -3 27 -3 27 -10 5z m99 -54 c-3 -8 -6 -5 -6 6 -1 11
2 17 5 13 3 -3 4 -12 1 -19z"/>
<path d="M1535 1699 c-4 -6 -5 -12 -3 -14 7 -7 48 7 48 16 0 13 -37 11 -45 -2z"/>
<path d="M1698 1703 c7 -3 16 -2 19 1 4 3 -2 6 -13 5 -11 0 -14 -3 -6 -6z"/>
<path d="M1620 1667 c0 -9 4 -18 9 -21 5 -4 8 1 7 9 -3 21 -16 31 -16 12z"/>
<path d="M1710 1670 c0 -5 5 -10 10 -10 6 0 10 5 10 10 0 6 -4 10 -10 10 -5 0
-10 -4 -10 -10z"/>
<path d="M1795 1670 c3 -5 8 -10 11 -10 2 0 4 5 4 10 0 6 -5 10 -11 10 -5 0
-7 -4 -4 -10z"/>
<path d="M1270 1660 c0 -5 5 -10 11 -10 5 0 7 5 4 10 -3 6 -8 10 -11 10 -2 0
-4 -4 -4 -10z"/>
<path d="M1565 1661 c-3 -5 -1 -12 5 -16 12 -7 30 2 30 16 0 12 -27 12 -35 0z"/>
<path d="M1429 1643 c-13 -16 -12 -17 4 -4 16 13 21 21 13 21 -2 0 -10 -8 -17
-17z"/>
<path d="M1479 1653 c-17 -4 -33 -53 -18 -53 5 0 9 6 9 14 0 8 9 18 20 21 11
3 20 11 20 16 0 9 -4 10 -31 2z"/>
<path d="M1820 1640 c0 -5 5 -10 11 -10 5 0 7 5 4 10 -3 6 -8 10 -11 10 -2 0
-4 -4 -4 -10z"/>
<path d="M2016 1643 c-4 -5 -13 -8 -19 -8 -7 0 -13 -9 -16 -20 -2 -11 -7 -22
-11 -25 -5 -3 -3 -22 3 -43 12 -38 27 -50 27 -21 0 8 4 13 9 9 14 -8 28 23 32
69 4 37 -8 55 -25 39z"/>
<path d="M1701 1624 c0 -11 3 -14 6 -6 3 7 2 16 -1 19 -3 4 -6 -2 -5 -13z"/>
<path d="M1390 1620 c-8 -5 -12 -11 -9 -14 2 -3 11 -1 19 4 8 5 12 11 9 14 -2
3 -11 1 -19 -4z"/>
<path d="M1507 1623 c-4 -3 -7 -12 -7 -20 0 -11 5 -11 20 -3 11 6 20 15 20 20
0 11 -23 13 -33 3z"/>
<path d="M1617 1610 c3 -11 9 -20 13 -20 5 0 6 9 3 20 -3 11 -9 20 -13 20 -5
0 -6 -9 -3 -20z"/>
<path d="M1666 1598 c-8 -32 -7 -68 2 -68 4 0 8 20 8 45 2 50 -1 56 -10 23z"/>
<path d="M1740 1612 c0 -5 12 -14 26 -21 22 -10 25 -9 22 6 -3 18 -48 32 -48
15z"/>
<path d="M1417 1603 c-4 -3 -7 -11 -7 -17 0 -6 5 -5 12 2 6 6 9 14 7 17 -3 3
-9 2 -12 -2z"/>
<path d="M3210 1603 c0 -6 -3 -18 -6 -27 -5 -13 3 -16 50 -16 43 0 56 3 56 15
0 11 -11 15 -38 15 -21 0 -43 5 -50 12 -8 8 -12 9 -12 1z"/>
<path d="M1541 1586 c-9 -11 -9 -16 0 -21 10 -7 28 10 29 28 0 12 -17 8 -29
-7z"/>
<path d="M3440 1574 c0 -9 5 -14 12 -12 18 6 21 28 4 28 -9 0 -16 -7 -16 -16z"/>
<path d="M1350 1550 c0 -17 -5 -40 -10 -50 -8 -16 -8 -18 5 -14 8 4 16 11 16
18 5 42 4 68 -3 72 -4 3 -8 -9 -8 -26z"/>
<path d="M1730 1565 c0 -16 16 -20 24 -6 3 5 -1 11 -9 15 -9 3 -15 0 -15 -9z"/>
<path d="M1453 1563 c-18 -7 -16 -30 2 -37 11 -4 15 1 15 19 0 14 -1 25 -2 24
-2 0 -9 -3 -15 -6z"/>
<path d="M1575 1559 c-10 -15 1 -23 20 -15 9 3 13 10 10 16 -8 13 -22 13 -30
-1z"/>
<path d="M1630 1554 c0 -8 5 -12 10 -9 6 4 8 11 5 16 -9 14 -15 11 -15 -7z"/>
<path d="M1700 1555 c0 -8 5 -15 10 -15 6 0 10 7 10 15 0 8 -4 15 -10 15 -5 0
-10 -7 -10 -15z"/>
<path d="M1877 1563 c-3 -5 -2 -15 2 -22 7 -10 10 -10 16 -1 4 6 3 16 -3 22
-5 5 -12 6 -15 1z"/>
<path d="M1387 1536 c-6 -16 2 -28 14 -20 12 7 11 34 0 34 -5 0 -11 -6 -14
-14z"/>
<path d="M1785 1540 c-3 -5 -1 -10 4 -10 6 0 11 5 11 10 0 6 -2 10 -4 10 -3 0
-8 -4 -11 -10z"/>
<path d="M1940 1541 c0 -5 5 -13 10 -16 6 -3 10 -2 10 4 0 5 -4 13 -10 16 -5
3 -10 2 -10 -4z"/>
<path d="M981 1514 c-11 -25 -7 -49 8 -40 7 5 13 66 7 66 -2 0 -8 -12 -15 -26z"/>
<path d="M1740 1514 c0 -8 5 -12 10 -9 6 3 10 10 10 16 0 5 -4 9 -10 9 -5 0
-10 -7 -10 -16z"/>
<path d="M1498 1509 c-22 -12 -24 -31 -3 -23 11 5 14 1 9 -12 -5 -18 -5 -18 6
-1 17 26 9 48 -12 36z"/>
<path d="M1626 1505 c-9 -26 -7 -32 5 -12 6 10 9 21 6 23 -2 3 -7 -2 -11 -11z"/>
<path d="M905 1481 c-3 -5 -1 -12 5 -16 5 -3 10 1 10 9 0 18 -6 21 -15 7z"/>
<path d="M1753 1458 c1 -20 5 -34 10 -31 10 6 9 35 -3 53 -6 10 -8 4 -7 -22z"/>
<path d="M1860 1480 c0 -6 7 -10 15 -10 8 0 15 2 15 4 0 2 -7 6 -15 10 -8 3
-15 1 -15 -4z"/>
<path d="M1980 1476 c0 -9 5 -16 10 -16 6 0 10 4 10 9 0 6 -4 13 -10 16 -5 3
-10 -1 -10 -9z"/>
<path d="M1446 1460 c-4 -15 -9 -20 -13 -12 -2 6 -9 10 -14 6 -11 -7 -12 -51
-1 -58 11 -6 45 59 40 75 -3 8 -8 3 -12 -11z"/>
<path d="M1900 1471 c0 -5 5 -13 10 -16 6 -3 10 -2 10 4 0 5 -4 13 -10 16 -5
3 -10 2 -10 -4z"/>
<path d="M1092 1442 c1 -15 -1 -33 -6 -40 -5 -8 0 -12 13 -12 11 0 22 -4 25
-9 4 -5 -3 -7 -14 -4 -12 3 -20 0 -20 -7 0 -7 6 -10 13 -7 10 4 13 -3 12 -24
-1 -18 2 -26 7 -21 5 5 9 28 10 51 0 34 3 40 14 30 25 -20 4 23 -23 49 -31 28
-34 28 -31 -6z"/>
<path d="M1550 1461 c0 -6 5 -13 10 -16 6 -3 10 1 10 9 0 9 -4 16 -10 16 -5 0
-10 -4 -10 -9z"/>
<path d="M1600 1456 c0 -9 5 -16 10 -16 6 0 10 4 10 9 0 6 -4 13 -10 16 -5 3
-10 -1 -10 -9z"/>
<path d="M1347 1453 c-13 -13 -7 -32 8 -27 8 4 15 12 15 20 0 15 -12 19 -23 7z"/>
<path d="M873 1433 c-3 -10 -8 -21 -10 -25 -2 -5 0 -8 5 -8 5 0 12 11 14 25 6
29 0 33 -9 8z"/>
<path d="M1301 1434 c0 -11 3 -14 6 -6 3 7 2 16 -1 19 -3 4 -6 -2 -5 -13z"/>
<path d="M1720 1431 c0 -8 -7 -11 -15 -7 -8 3 -15 1 -15 -4 0 -6 6 -10 14 -10
17 0 31 18 22 27 -3 4 -6 1 -6 -6z"/>
<path d="M1017 1423 c-12 -11 -8 -23 7 -23 8 0 17 -6 19 -12 3 -8 6 -6 6 5 1
9 -6 17 -15 17 -8 0 -12 5 -9 10 7 11 2 13 -8 3z"/>
<path d="M1858 1423 c6 -2 12 -14 12 -24 0 -11 5 -17 10 -14 6 3 10 15 10 26
0 13 -7 19 -22 18 -13 0 -17 -3 -10 -6z"/>
<path d="M1210 1408 c0 -6 -10 -23 -22 -36 -22 -24 -22 -24 -2 -14 12 6 24 9
26 6 3 -3 8 9 10 26 3 16 1 30 -4 30 -4 0 -8 -5 -8 -12z"/>
<path d="M1365 1410 c-3 -5 0 -19 8 -31 11 -14 17 -17 22 -9 4 7 2 16 -5 20
-7 4 -9 13 -6 19 4 6 3 11 -3 11 -5 0 -13 -4 -16 -10z"/>
<path d="M975 1401 c-3 -6 2 -14 11 -19 16 -9 15 -12 -5 -45 -18 -29 -19 -36
-6 -41 10 -4 13 -14 9 -38 -4 -23 -2 -28 4 -18 15 24 23 70 13 70 -5 0 -7 9
-4 20 3 11 9 20 15 20 5 0 3 10 -4 23 -7 12 -11 25 -10 30 3 10 -16 9 -23 -2z"/>
<path d="M1921 1394 c0 -11 3 -14 6 -6 3 7 2 16 -1 19 -3 4 -6 -2 -5 -13z"/>
<path d="M1432 1373 c-25 -27 -23 -53 3 -53 10 0 15 -7 13 -18 -4 -23 20 -69
38 -76 22 -8 17 28 -6 42 -25 16 -28 47 -2 37 14 -5 15 -4 5 6 -7 7 -13 24
-13 39 l1 25 21 -25 c15 -17 19 -19 15 -7 -4 10 -2 27 3 38 10 17 8 18 -15 9
-16 -6 -25 -6 -25 0 0 16 -13 10 -38 -17z m28 -9 c0 -8 -5 -12 -10 -9 -6 4 -8
11 -5 16 9 14 15 11 15 -7z"/>
<path d="M1606 1371 c12 -21 21 -28 28 -21 14 14 -5 44 -29 48 -16 4 -16 2 1
-27z"/>
<path d="M770 1375 c0 -7 11 -10 30 -7 35 5 33 12 -4 16 -15 2 -26 -2 -26 -9z"/>
<path d="M1292 1370 c0 -14 2 -19 5 -12 2 6 2 18 0 25 -3 6 -5 1 -5 -13z"/>
<path d="M1810 1376 c0 -19 19 -31 31 -19 5 5 0 14 -11 21 -17 10 -20 10 -20
-2z"/>
<path d="M1320 1360 c0 -24 15 -27 24 -4 9 22 8 24 -9 24 -8 0 -15 -9 -15 -20z"/>
<path d="M1550 1371 c0 -5 -3 -16 -6 -25 -4 -12 0 -16 15 -16 22 0 25 8 15 34
-7 17 -24 22 -24 7z"/>
<path d="M1945 1360 c-3 -5 -1 -10 4 -10 6 0 11 5 11 10 0 6 -2 10 -4 10 -3 0
-8 -4 -11 -10z"/>
<path d="M1212 1330 c0 -14 2 -19 5 -12 2 6 2 18 0 25 -3 6 -5 1 -5 -13z"/>
<path d="M1372 1326 c-18 -41 -16 -78 6 -75 9 1 20 0 25 -1 4 -1 13 -3 20 -4
7 -1 11 -15 10 -34 -1 -24 3 -32 12 -28 8 3 16 0 18 -7 2 -7 7 -9 11 -6 9 8
-43 120 -64 139 -9 8 -19 21 -21 29 -3 8 -9 4 -17 -13z"/>
<path d="M1870 1320 c-13 -8 -13 -10 2 -10 9 0 20 5 23 10 8 13 -5 13 -25 0z"/>
<path d="M1915 1320 c-3 -5 -1 -10 4 -10 6 0 11 5 11 10 0 6 -2 10 -4 10 -3 0
-8 -4 -11 -10z"/>
<path d="M1147 1300 c-10 -10 -14 -21 -9 -24 14 -9 2 -56 -15 -56 -10 0 -13 7
-8 23 6 22 6 22 -10 2 -8 -11 -13 -25 -10 -33 2 -7 1 -10 -4 -7 -5 3 -12 1
-16 -5 -3 -5 -1 -10 6 -10 6 0 9 -8 6 -20 -3 -11 -2 -20 2 -20 12 0 41 35 41
48 0 6 7 9 15 6 8 -4 15 -17 15 -29 0 -13 4 -26 9 -29 5 -3 7 -15 4 -26 -3
-12 0 -20 6 -20 7 0 10 -4 6 -10 -11 -18 -35 2 -35 30 0 32 -18 50 -30 30 -4
-7 -7 -31 -6 -54 2 -35 6 -41 24 -39 25 3 30 -12 7 -20 -24 -10 -58 26 -57 61
1 37 -3 40 -18 13 -7 -15 -5 -31 9 -64 11 -25 17 -48 14 -51 -11 -10 25 -7 51
5 20 9 29 9 41 -1 15 -12 14 -15 -5 -25 l-22 -12 26 -17 c15 -9 26 -12 26 -6
0 6 5 8 11 4 7 -4 10 -1 7 7 -3 8 -11 13 -18 11 -10 -2 -11 0 -2 11 7 8 8 17
4 22 -4 4 3 3 15 -4 12 -6 33 -12 47 -13 13 -1 22 -6 19 -11 -3 -5 -11 -6 -19
-3 -7 3 -16 1 -19 -5 -4 -5 1 -12 9 -15 22 -8 20 -21 -4 -29 -11 -4 -18 -10
-16 -14 2 -3 -28 -6 -67 -4 -69 2 -70 2 -29 -9 23 -6 42 -15 42 -19 0 -12 33
-12 45 0 6 5 37 2 74 -7 61 -15 63 -17 43 -30 -12 -8 -22 -18 -22 -23 0 -17
30 -9 42 11 15 23 46 27 54 6 4 -11 11 -12 36 -2 24 8 32 8 35 -1 5 -14 73
-18 73 -5 0 4 -9 15 -20 25 -23 19 -25 33 -8 43 6 4 8 3 5 -3 -4 -6 0 -16 8
-23 12 -10 15 -9 15 9 0 20 1 20 36 4 32 -16 37 -16 47 -3 7 8 21 17 32 19 11
1 29 8 40 14 11 6 41 10 66 8 26 -1 49 1 52 6 3 4 -14 8 -36 8 -40 0 -42 2
-45 32 -3 26 5 41 37 76 23 24 41 46 41 48 0 3 -18 3 -40 1 -58 -6 -90 4 -90
29 0 16 -2 18 -14 7 -8 -7 -12 -17 -9 -22 3 -4 -6 0 -21 9 -46 31 -25 -18 36
-82 33 -34 39 -46 34 -67 -7 -29 -26 -42 -74 -49 -40 -7 -102 17 -102 39 0 18
-23 44 -39 44 -6 0 -11 -4 -11 -9 0 -19 -41 3 -46 25 -3 13 -12 24 -20 24 -19
0 -18 35 1 54 9 9 32 23 51 32 27 13 32 19 23 30 -6 8 -16 11 -22 7 -15 -9
-76 -10 -71 -1 3 4 0 8 -5 8 -6 0 -11 16 -11 35 0 19 -3 34 -7 34 -29 -5 -43
5 -53 39 -17 51 -32 65 -24 22 4 -19 11 -39 15 -44 13 -14 11 -86 -1 -86 -6 0
-13 13 -16 30 -9 43 -27 25 -19 -19 11 -62 16 -73 32 -67 9 4 21 -1 29 -11 7
-10 13 -13 13 -8 0 6 -6 19 -14 29 -17 23 -4 46 27 46 16 0 19 -6 16 -42 -3
-38 -6 -43 -28 -43 -18 0 -25 -5 -23 -19 3 -36 -65 51 -89 114 -13 33 -26 60
-29 60 -11 0 -3 -70 9 -82 20 -20 14 -37 -10 -30 -22 5 -22 5 -6 -11 9 -10 22
-16 29 -15 6 2 13 -3 15 -10 1 -7 0 -8 -3 -2 -2 5 -9 7 -15 4 -6 -4 -5 -10 3
-15 8 -5 21 -2 33 9 18 16 18 16 7 -5 -15 -29 -14 -46 2 -40 6 2 18 -1 24 -8
10 -11 6 -16 -19 -24 -41 -14 -43 -14 -27 6 10 12 10 15 1 9 -18 -11 -69 46
-74 84 -3 16 -1 30 4 30 4 0 8 16 8 35 0 42 -14 46 -29 8 -9 -23 -10 -14 -8
49 2 65 0 75 -12 65 -11 -10 -13 -8 -7 11 9 26 7 27 -17 2z m253 -260 c0 -5
-5 -10 -11 -10 -5 0 -7 5 -4 10 3 6 8 10 11 10 2 0 4 -4 4 -10z m10 -35 c0 6
9 11 19 11 15 0 17 -3 9 -13 -6 -8 -13 -11 -16 -8 -3 3 -10 1 -16 -5 -8 -6
-12 -2 -13 13 -2 17 0 19 7 7 5 -8 10 -10 10 -5z m-70 -15 c0 -5 -5 -10 -11
-10 -5 0 -7 5 -4 10 3 6 8 10 11 10 2 0 4 -4 4 -10z m80 -29 c0 -5 -7 -12 -16
-15 -14 -5 -15 -4 -4 9 14 17 20 19 20 6z m-55 -31 c3 -5 -1 -10 -9 -10 -9 0
-16 5 -16 10 0 6 4 10 9 10 6 0 13 -4 16 -10z"/>
<path d="M1630 1306 c0 -7 -9 -16 -20 -19 -11 -3 -20 -10 -20 -16 0 -6 7 -8
17 -4 13 5 15 2 9 -18 -5 -13 -10 -39 -13 -57 -3 -18 -13 -38 -23 -44 -27 -17
-14 -55 21 -60 l29 -5 -20 22 c-20 21 -19 62 1 49 5 -3 9 2 9 11 0 9 5 13 11
10 6 -4 8 -13 5 -21 -3 -8 1 -14 10 -14 11 0 13 6 9 20 -4 14 -2 20 6 18 7 -2
13 2 14 7 0 6 4 15 8 21 4 7 0 17 -7 24 -14 11 -32 66 -28 83 1 4 -2 7 -8 7
-5 0 -10 -6 -10 -14z"/>
<path d="M1226 1293 c-6 -14 -5 -15 5 -6 7 7 10 15 7 18 -3 3 -9 -2 -12 -12z"/>
<path d="M1260 1283 c0 -21 3 -24 9 -14 5 8 7 20 4 28 -8 21 -13 15 -13 -14z"/>
<path d="M1895 1291 c-3 -5 -1 -12 5 -16 5 -3 10 1 10 9 0 18 -6 21 -15 7z"/>
<path d="M1520 1283 c8 -3 19 -11 23 -17 6 -7 7 -6 4 4 -2 8 -12 16 -23 17
-13 2 -15 1 -4 -4z"/>
<path d="M885 1270 c-3 -5 -1 -10 4 -10 6 0 11 5 11 10 0 6 -2 10 -4 10 -3 0
-8 -4 -11 -10z"/>
<path d="M1196 1245 c-3 -8 -1 -15 4 -15 6 0 10 7 10 15 0 8 -2 15 -4 15 -2 0
-6 -7 -10 -15z"/>
<path d="M1277 1240 c-3 -11 -1 -20 4 -20 5 0 9 9 9 20 0 11 -2 20 -4 20 -2 0
-6 -9 -9 -20z"/>
<path d="M1560 1251 c0 -5 7 -11 15 -15 8 -3 15 -1 15 3 0 5 -7 11 -15 15 -8
3 -15 1 -15 -3z"/>
<path d="M1506 1213 c-8 -19 17 -48 33 -39 17 11 13 29 -5 22 -12 -4 -15 -2
-11 9 4 8 2 17 -2 20 -5 3 -12 -3 -15 -12z"/>
<path d="M1904 1206 c-10 -25 0 -38 13 -17 8 13 9 22 3 26 -6 4 -13 -1 -16 -9z"/>
<path d="M595 1190 c3 -5 8 -10 11 -10 2 0 4 5 4 10 0 6 -5 10 -11 10 -5 0 -7
-4 -4 -10z"/>
<path d="M1566 1192 c-2 -4 -1 -14 5 -22 7 -12 9 -10 9 8 0 23 -5 28 -14 14z"/>
<path d="M1037 1133 c-10 -9 -9 -23 2 -23 5 0 11 7 15 15 5 15 -5 20 -17 8z"/>
<path d="M1541 1125 c0 -12 -6 -26 -13 -33 -6 -6 -9 -14 -6 -18 10 -9 30 35
25 54 -4 13 -5 13 -6 -3z"/>
<path d="M960 1120 c0 -5 5 -10 10 -10 6 0 10 5 10 10 0 6 -4 10 -10 10 -5 0
-10 -4 -10 -10z"/>
<path d="M979 1068 c-3 -21 -2 -39 2 -40 4 -2 9 -16 11 -32 4 -38 -19 -46 -25
-9 -3 18 -5 11 -5 -17 0 -63 -8 -81 -53 -114 -24 -19 -39 -38 -39 -51 0 -12
-11 -43 -25 -69 -37 -70 -30 -85 13 -29 21 26 47 55 58 63 18 14 18 14 5 -2
-14 -19 -5 -24 17 -10 7 5 10 15 7 23 -3 9 3 24 15 34 11 10 20 25 20 34 1 18
39 57 83 85 19 12 25 21 19 29 -5 7 -12 24 -16 40 -3 15 -11 27 -17 27 -16 0
-21 -25 -9 -54 8 -21 7 -32 -1 -42 -17 -21 -31 -17 -19 5 7 14 6 21 -3 24 -8
2 -12 25 -12 64 0 34 -3 59 -7 57 -3 -2 -8 2 -11 8 -2 7 -6 -4 -8 -24z"/>
<path d="M1034 1079 c-14 -18 -25 -49 -18 -49 13 0 35 32 32 47 -2 14 -5 14
-14 2z"/>
<path d="M930 1039 c0 -30 3 -39 9 -30 5 8 7 26 4 40 -7 42 -13 37 -13 -10z"/>
<path d="M1550 1071 c0 -5 5 -13 10 -16 6 -3 10 -2 10 4 0 5 -4 13 -10 16 -5
3 -10 2 -10 -4z"/>
<path d="M870 1056 c0 -2 7 -17 15 -32 l15 -29 0 26 c0 15 -7 29 -15 33 -8 3
-15 4 -15 2z"/>
<path d="M1495 1041 c-3 -5 -1 -12 4 -15 5 -3 11 1 15 9 6 16 -9 21 -19 6z"/>
<path d="M1533 1026 c1 -11 9 -21 17 -23 10 -3 11 -2 4 4 -6 4 -14 15 -17 23
-5 11 -6 9 -4 -4z"/>
<path d="M927 970 c-3 -11 -1 -20 4 -20 5 0 9 9 9 20 0 11 -2 20 -4 20 -2 0
-6 -9 -9 -20z"/>
<path d="M1115 970 c-3 -6 1 -7 9 -4 18 7 21 14 7 14 -6 0 -13 -4 -16 -10z"/>
<path d="M870 939 c0 -5 5 -7 10 -4 6 3 10 8 10 11 0 2 -4 4 -10 4 -5 0 -10
-5 -10 -11z"/>
<path d="M1120 940 c0 -5 5 -10 10 -10 6 0 10 5 10 10 0 6 -4 10 -10 10 -5 0
-10 -4 -10 -10z"/>
<path d="M926 923 c-4 -10 -18 -27 -33 -37 -24 -18 -26 -18 -20 -2 5 11 3 16
-5 14 -16 -6 -20 -20 -9 -36 11 -19 70 16 77 46 8 28 -2 41 -10 15z"/>
<path d="M1160 920 c0 -5 5 -10 11 -10 5 0 7 5 4 10 -3 6 -8 10 -11 10 -2 0
-4 -4 -4 -10z"/>
<path d="M3555 855 c7 -55 -7 -74 -29 -40 -10 15 -15 33 -12 41 8 20 -11 17
-23 -3 -9 -16 -12 -16 -21 -3 -5 8 -10 13 -11 10 -7 -38 -4 -58 13 -74 15 -14
17 -20 7 -26 -17 -11 -51 11 -44 29 3 8 0 11 -9 8 -10 -4 -13 -1 -9 9 8 22 -5
48 -20 37 -16 -12 -36 -11 -45 3 -4 6 -15 13 -24 17 -22 8 -24 -15 -3 -37 8
-8 12 -22 9 -30 -3 -9 -1 -16 5 -16 6 0 11 -7 11 -17 0 -14 -2 -14 -20 2 -20
19 -25 13 -21 -25 2 -13 1 -13 -8 0 -6 8 -11 27 -11 43 0 26 0 27 -19 8 -10
-10 -24 -20 -31 -23 -10 -3 -10 -9 -1 -25 16 -30 14 -46 -5 -39 -12 4 -10 -1
5 -23 30 -42 27 -54 -13 -49 -32 3 -33 3 -23 -19 11 -25 33 -32 24 -9 -4 10
-1 13 9 9 21 -8 17 -51 -6 -63 -11 -6 -20 -15 -20 -21 0 -6 7 -6 20 1 11 6 20
9 20 8 0 -2 -6 -20 -14 -41 -11 -33 -14 -36 -26 -22 -23 27 -30 16 -10 -17 10
-17 17 -35 14 -40 -8 -13 6 -68 17 -68 6 0 7 9 4 20 -9 29 2 25 19 -7 15 -28
16 -28 22 -5 8 27 24 30 17 2 -8 -29 25 -26 37 3 l9 22 0 -22 c1 -26 11 -29
29 -11 9 9 12 9 12 0 0 -18 27 -15 34 4 3 9 6 38 6 65 0 27 3 49 8 49 4 0 5
-27 4 -61 -3 -48 -1 -60 10 -57 12 5 15 22 17 111 1 20 5 37 11 37 5 0 8 -32
6 -75 -2 -42 1 -78 5 -81 5 -3 9 7 10 23 1 15 5 39 9 53 6 18 8 11 6 -27 -3
-44 0 -53 13 -53 10 0 22 5 29 12 7 7 12 8 12 2 0 -14 58 -16 66 -3 3 6 12 3
19 -8 18 -24 28 -12 51 65 10 34 21 62 26 62 4 0 5 6 2 13 -2 7 7 31 22 52 29
43 25 62 -14 80 -15 6 -22 19 -22 36 0 52 -13 92 -32 96 -10 3 -18 14 -18 24
0 10 -5 21 -11 25 -6 3 -9 19 -5 34 5 25 2 28 -17 26 -13 -1 -28 -6 -35 -10
-7 -4 -12 -3 -12 1 0 5 -7 18 -15 29 -15 18 -16 16 -10 -21z m-160 -46 c11
-16 1 -19 -13 -3 -7 8 -8 14 -3 14 5 0 13 -5 16 -11z m119 -5 c9 -24 7 -28 -9
-14 -17 14 -20 30 -6 30 5 0 12 -7 15 -16z m-104 -33 c0 -6 -4 -13 -10 -16 -5
-3 -10 1 -10 9 0 9 5 16 10 16 6 0 10 -4 10 -9z m107 -33 c-3 -8 -6 -5 -6 6
-1 11 2 17 5 13 3 -3 4 -12 1 -19z m76 -144 c-2 -7 5 -30 16 -53 26 -51 26
-76 0 -104 l-20 -22 11 29 c11 30 4 96 -11 96 -5 0 -9 10 -9 23 0 13 -4 27
-10 33 -6 6 -3 10 9 10 10 0 17 -6 14 -12z m-263 -74 c0 -5 -2 -10 -4 -10 -3
0 -8 5 -11 10 -3 6 -1 10 4 10 6 0 11 -4 11 -10z m245 -37 c-3 -26 -8 -49 -10
-52 -7 -6 -6 50 1 77 10 37 15 25 9 -25z m-225 -47 c-7 -7 -10 1 -9 25 0 32 1
33 10 10 6 -16 6 -28 -1 -35z m-40 -2 c0 -8 -4 -14 -10 -14 -5 0 -10 9 -10 21
0 11 5 17 10 14 6 -3 10 -13 10 -21z m93 -24 c-3 -11 -9 -20 -15 -20 -5 0 -4
9 2 20 6 11 12 20 14 20 2 0 2 -9 -1 -20z m238 -17 c-12 -20 -14 -14 -5 12 4
9 9 14 11 11 3 -2 0 -13 -6 -23z"/>
<path d="M1109 839 c-10 -20 -9 -21 17 -15 24 6 26 5 15 -8 -8 -9 -9 -16 -3
-16 5 0 15 7 22 15 9 10 9 15 1 15 -6 0 -11 7 -11 15 0 22 -28 18 -41 -6z"/>
<path d="M817 833 c-81 -86 -91 -100 -63 -90 10 4 18 -3 24 -21 l8 -26 30 33
c32 36 45 71 37 101 -7 25 -15 25 -36 3z m4 -56 c-6 -15 -15 -27 -21 -27 -14
0 -13 6 7 43 18 36 29 24 14 -16z"/>
<path d="M1275 829 c-12 -19 5 -23 22 -6 16 16 16 17 1 17 -9 0 -20 -5 -23
-11z"/>
<path d="M1650 815 c0 -8 4 -15 10 -15 5 0 7 7 4 15 -4 8 -8 15 -10 15 -2 0
-4 -7 -4 -15z"/>
<path d="M1690 820 c0 -5 5 -10 10 -10 6 0 10 5 10 10 0 6 -4 10 -10 10 -5 0
-10 -4 -10 -10z"/>
<path d="M1195 812 c-12 -2 -26 -12 -33 -22 -11 -18 -9 -20 12 -20 24 0 51 23
44 37 -1 4 -12 7 -23 5z"/>
<path d="M1029 790 c-13 -10 -19 -19 -13 -20 7 0 22 9 35 20 13 10 19 19 13
20 -7 0 -22 -9 -35 -20z"/>
<path d="M1785 790 c-10 -11 -22 -20 -27 -20 -16 0 -40 -29 -33 -40 4 -7 13
-7 26 0 10 6 19 7 19 3 0 -4 6 3 13 17 7 14 21 24 30 24 19 -2 19 -2 11 20 -8
21 -17 20 -39 -4z"/>
<path d="M980 790 c-8 -5 -12 -12 -9 -15 4 -3 12 1 19 10 14 17 11 19 -10 5z"/>
<path d="M1387 782 c-22 -24 -21 -32 1 -32 21 0 42 18 42 37 0 19 -24 16 -43
-5z"/>
<path d="M1056 756 c-41 -38 -41 -60 2 -50 37 9 63 34 60 58 -5 31 -20 29 -62
-8z"/>
<path d="M1256 775 c-18 -8 -30 -20 -31 -34 -1 -17 4 -21 30 -21 34 0 55 15
55 41 0 23 -20 28 -54 14z"/>
<path d="M1513 778 c2 -7 10 -13 17 -13 7 0 15 6 18 13 2 7 -5 12 -18 12 -13
0 -20 -5 -17 -12z"/>
<path d="M1630 761 c0 -14 18 -23 31 -15 8 4 7 9 -2 15 -18 11 -29 11 -29 0z"/>
<path d="M977 753 c-5 -7 -18 -13 -29 -13 -22 0 -108 -79 -108 -99 0 -16 14
-14 42 8 13 11 37 23 52 27 31 7 59 45 54 71 -2 13 -6 15 -11 6z m-47 -47 c0
-2 -7 -9 -15 -16 -13 -11 -14 -10 -9 4 5 14 24 23 24 12z"/>
<path d="M1463 743 c-24 -9 -13 -20 28 -27 49 -8 70 2 44 21 -19 13 -49 16
-72 6z"/>
<path d="M1605 731 c-3 -6 3 -15 14 -21 12 -6 22 -6 26 -1 3 6 -3 15 -14 21
-12 6 -22 6 -26 1z"/>
<path d="M756 721 c-3 -4 -7 -45 -10 -90 -4 -61 -2 -81 7 -78 7 2 13 21 14 42
1 21 5 45 8 53 3 8 0 21 -6 28 -6 8 -9 23 -6 34 5 21 2 26 -7 11z"/>
<path d="M1390 715 c-10 -12 -10 -15 4 -15 9 0 16 7 16 15 0 8 -2 15 -4 15 -2
0 -9 -7 -16 -15z"/>
<path d="M1110 692 c-14 -11 -34 -21 -44 -23 -22 -5 -34 -29 -14 -29 7 0 28 9
46 20 37 23 41 19 12 -12 -11 -12 -20 -27 -20 -34 0 -19 49 -23 70 -5 24 20
32 76 10 76 -8 0 -20 6 -25 13 -9 11 -15 10 -35 -6z"/>
<path d="M1265 685 c-17 -13 -17 -17 -5 -29 21 -19 103 1 108 27 3 14 -4 17
-40 17 -24 0 -52 -7 -63 -15z"/>
<path d="M1464 687 c-10 -27 0 -50 31 -67 17 -10 33 -16 37 -14 8 5 16 -18 22
-66 8 -57 23 -110 35 -124 6 -7 7 -16 3 -20 -4 -4 1 -14 12 -21 10 -8 19 -25
20 -39 0 -15 7 -26 15 -26 10 0 11 -4 3 -13 -8 -9 -4 -15 14 -24 27 -12 29
-10 14 18 -8 14 -7 19 3 19 8 0 19 -12 26 -26 12 -27 6 -49 -10 -39 -5 4 -9
-1 -9 -9 0 -25 -18 -19 -34 12 -12 21 -15 23 -16 8 0 -10 9 -27 20 -36 23 -20
60 -16 60 6 0 22 25 27 57 11 27 -14 28 -14 29 8 1 15 -6 26 -21 33 -21 10
-23 16 -18 54 l6 43 -21 -25 c-23 -27 -29 -21 -12 11 14 25 -2 24 -25 -1 -18
-19 -19 -20 -35 -2 -23 24 -34 86 -20 112 6 12 21 25 33 31 18 7 15 8 -14 4
-30 -4 -37 -2 -48 19 -8 13 -10 29 -7 35 11 17 -3 51 -18 45 -11 -4 -27 18
-39 56 -4 9 -6 6 -6 -7 -1 -25 -8 -28 -30 -14 -8 5 -11 16 -6 30 3 12 2 21 -4
21 -5 0 -16 3 -25 6 -9 4 -18 0 -22 -9z m140 -253 c3 -8 2 -12 -4 -9 -6 3 -10
10 -10 16 0 14 7 11 14 -7z"/>
<path d="M1705 690 c3 -5 10 -10 16 -10 5 0 9 5 9 10 0 6 -7 10 -16 10 -8 0
-12 -4 -9 -10z"/>
<path d="M1593 665 c-3 -9 -3 -18 0 -21 9 -9 27 6 27 22 0 19 -19 18 -27 -1z"/>
<path d="M912 629 c-9 -17 -27 -47 -39 -66 -24 -35 -30 -73 -14 -73 6 0 13 5
16 10 4 6 14 10 23 9 47 -4 61 12 90 100 14 42 9 51 -29 51 -23 0 -34 -7 -47
-31z"/>
<path d="M1732 644 c1 -9 9 -19 16 -22 9 -3 13 2 10 14 -1 9 -9 19 -16 22 -9
3 -13 -2 -10 -14z"/>
<path d="M1780 645 c7 -8 16 -12 21 -9 13 8 1 24 -18 24 -13 0 -13 -3 -3 -15z"/>
<path d="M3955 650 c3 -5 8 -10 11 -10 2 0 4 5 4 10 0 6 -5 10 -11 10 -5 0 -7
-4 -4 -10z"/>
<path d="M1638 633 c-9 -3 -16 -13 -15 -24 2 -29 53 -26 60 3 4 12 4 24 2 27
-3 2 -5 -1 -5 -9 0 -8 -4 -9 -12 -3 -7 5 -21 8 -30 6z"/>
<path d="M797 583 c-19 -22 -33 -73 -19 -73 10 0 52 64 52 81 0 14 -15 11 -33
-8z"/>
<path d="M1810 585 c0 -8 5 -15 10 -15 6 0 10 7 10 15 0 8 -4 15 -10 15 -5 0
-10 -7 -10 -15z"/>
<path d="M1175 548 c-8 -18 -22 -44 -31 -58 -9 -14 5 -3 30 25 49 53 55 65 31
65 -8 0 -21 -15 -30 -32z"/>
<path d="M1032 547 c-12 -13 -22 -36 -22 -53 0 -27 3 -29 34 -29 25 0 40 8 62
34 l28 34 -23 18 c-31 25 -53 24 -79 -4z"/>
<path d="M1532 550 c0 -14 2 -19 5 -12 2 6 2 18 0 25 -3 6 -5 1 -5 -13z"/>
<path d="M1665 560 c-3 -5 -1 -10 4 -10 6 0 11 5 11 10 0 6 -2 10 -4 10 -3 0
-8 -4 -11 -10z"/>
<path d="M1931 562 c-1 -13 25 -58 46 -80 7 -7 13 -19 14 -25 2 -24 -3 -62
-10 -67 -12 -9 -30 -73 -24 -83 4 -6 1 -7 -6 -2 -10 6 -11 3 -2 -14 7 -11 18
-21 26 -21 16 0 57 -54 48 -64 -3 -3 5 -6 18 -6 14 0 30 -5 37 -12 10 -10 77
-37 93 -38 3 0 6 6 6 14 0 8 -8 11 -20 8 -14 -3 -18 -1 -13 6 4 7 15 12 25 12
13 0 17 9 18 36 1 31 0 33 -12 17 -7 -10 -17 -15 -21 -10 -4 4 2 17 13 30 32
35 35 46 13 40 -13 -3 -20 0 -20 8 0 9 -3 10 -11 2 -7 -7 -17 -7 -33 0 l-22
10 23 23 c29 29 29 44 1 46 -42 2 -45 3 -63 18 -16 14 -17 13 -11 -8 6 -17 4
-21 -8 -16 -22 8 -20 30 4 47 12 8 20 18 18 23 -1 5 3 19 10 31 10 19 9 23 -9
28 -13 4 -27 0 -40 -11 -18 -16 -19 -16 -19 1 0 14 -3 15 -15 5 -17 -15 -19
-7 -5 21 12 21 1 26 -18 7 -9 -9 -14 -6 -21 13 -5 13 -10 18 -10 11z m110 -83
c-13 -11 -26 -17 -29 -14 -7 6 29 34 43 34 6 0 -1 -9 -14 -20z m55 -124 c-11
-8 -29 -15 -40 -15 -19 1 -19 2 4 15 35 20 62 19 36 0z m64 -76 c0 -17 -68
-41 -88 -30 -13 7 -9 11 21 16 20 4 40 11 43 16 7 12 24 11 24 -2z"/>
<path d="M1717 553 c-12 -11 -8 -23 8 -23 8 0 15 7 15 15 0 16 -12 20 -23 8z"/>
<path d="M2116 541 c-4 -7 -5 -15 -2 -18 9 -9 19 4 14 18 -4 11 -6 11 -12 0z"/>
<path d="M1803 528 c2 -7 10 -13 17 -13 7 0 15 6 18 13 2 7 -5 12 -18 12 -13
0 -20 -5 -17 -12z"/>
<path d="M1430 514 c0 -8 5 -12 10 -9 6 4 8 11 5 16 -9 14 -15 11 -15 -7z"/>
<path d="M1330 505 c0 -8 2 -15 4 -15 2 0 6 7 10 15 3 8 1 15 -4 15 -6 0 -10
-7 -10 -15z"/>
<path d="M794 486 c-7 -20 2 -46 16 -46 13 0 13 47 0 55 -6 3 -13 -1 -16 -9z"/>
<path d="M1536 491 c-10 -15 -10 -52 -2 -114 7 -57 7 -59 -13 -52 -13 4 -21 2
-21 -5 0 -6 4 -9 9 -6 5 3 9 -15 9 -40 1 -24 4 -49 7 -54 4 -6 -1 -17 -9 -25
-8 -9 -12 -23 -9 -32 4 -11 3 -14 -5 -9 -7 4 -12 21 -12 38 0 18 -10 42 -25
60 -26 31 -25 59 2 37 12 -11 13 -8 7 17 -3 16 -16 50 -27 76 -17 36 -24 44
-34 36 -8 -6 -15 -9 -17 -7 -1 2 -9 14 -17 26 -10 15 -19 19 -29 13 -12 -7
-11 -12 4 -29 10 -11 16 -26 13 -33 -4 -9 -8 -7 -12 7 -7 21 -55 62 -55 47 0
-4 11 -18 25 -30 27 -24 32 -42 12 -42 -7 0 -21 14 -31 31 -10 17 -20 28 -22
26 -8 -8 16 -58 31 -63 8 -4 15 -18 15 -32 0 -19 13 -38 43 -64 23 -21 48 -38
55 -38 6 0 12 -11 12 -25 0 -23 -3 -25 -32 -21 -50 6 -68 16 -61 33 5 13 2 13
-20 -2 -15 -9 -27 -21 -27 -25 0 -7 57 -24 73 -21 4 0 7 -4 7 -9 0 -6 9 -10
20 -10 11 0 29 -9 40 -20 12 -12 20 -15 20 -7 0 8 4 7 10 -3 9 -13 11 -13 20
0 9 13 10 13 10 0 0 -10 3 -11 8 -4 4 7 28 11 60 9 49 -3 52 -1 50 19 -2 11 1
22 7 23 5 2 10 -10 10 -27 -1 -23 2 -27 12 -18 8 6 11 18 8 25 -2 8 0 23 6 34
9 18 8 19 -17 13 -23 -6 -25 -4 -20 14 6 17 1 24 -28 36 -33 14 -34 16 -26 50
4 19 5 38 1 42 -3 4 4 4 17 1 18 -4 22 -2 18 10 -3 8 -6 17 -6 20 0 3 -8 -1
-17 -8 -15 -12 -16 -12 -10 4 4 11 -2 36 -13 60 -11 22 -18 49 -14 59 6 19 -1
25 -10 9z m-134 -163 c14 -18 28 -44 33 -58 5 -19 0 -16 -22 15 -28 37 -47 75
-39 75 2 0 15 -15 28 -32z m185 -143 c9 -25 -4 -29 -17 -6 -7 15 -7 21 0 21 6
0 13 -7 17 -15z"/>
<path d="M1907 494 c-13 -13 -7 -24 14 -24 11 0 19 5 17 12 -5 14 -22 21 -31
12z"/>
<path d="M1700 480 c0 -5 5 -10 10 -10 6 0 10 5 10 10 0 6 -4 10 -10 10 -5 0
-10 -4 -10 -10z"/>
<path d="M2120 470 c0 -5 5 -10 10 -10 6 0 10 5 10 10 0 6 -4 10 -10 10 -5 0
-10 -4 -10 -10z"/>
<path d="M1837 464 c-7 -7 14 -44 26 -44 12 0 4 43 -9 47 -5 2 -13 1 -17 -3z"/>
<path d="M883 449 c-24 -9 -40 -58 -22 -69 8 -5 8 -13 1 -26 -8 -14 -5 -22 13
-36 13 -10 28 -18 34 -18 6 0 11 -4 11 -10 0 -17 20 -11 56 16 38 29 42 39 17
48 -9 4 -25 -2 -38 -14 -23 -22 -40 -25 -50 -10 -4 6 -1 9 6 8 8 -2 21 12 30
31 28 54 -4 100 -58 80z"/>
<path d="M3722 431 c-7 -19 -10 -36 -8 -38 8 -8 27 38 24 55 -3 11 -8 5 -16
-17z"/>
<path d="M1767 425 c-4 -25 4 -40 17 -28 9 9 7 41 -3 47 -5 3 -11 -6 -14 -19z"/>
<path d="M1895 430 c3 -5 11 -10 16 -10 6 0 7 5 4 10 -3 6 -11 10 -16 10 -6 0
-7 -4 -4 -10z"/>
<path d="M1046 398 c-24 -34 -19 -44 9 -18 14 13 25 27 25 32 0 16 -19 8 -34
-14z"/>
<path d="M1483 402 c4 -25 27 -55 27 -34 0 7 -5 12 -11 12 -5 0 -8 4 -5 8 2 4
0 14 -5 22 -7 11 -8 10 -6 -8z"/>
<path d="M1810 399 c0 -11 5 -17 10 -14 6 3 10 13 10 21 0 8 -4 14 -10 14 -5
0 -10 -9 -10 -21z"/>
<path d="M2088 413 c6 -2 18 -2 25 0 6 3 1 5 -13 5 -14 0 -19 -2 -12 -5z"/>
<path d="M2234 392 c-10 -15 -8 -18 7 -18 12 0 19 7 19 18 0 10 -3 18 -8 18
-4 0 -12 -8 -18 -18z"/>
<path d="M1900 380 c0 -5 5 -10 11 -10 5 0 7 5 4 10 -3 6 -8 10 -11 10 -2 0
-4 -4 -4 -10z"/>
<path d="M1290 315 c7 -8 9 -15 5 -15 -5 0 2 -9 15 -20 28 -24 31 -25 24 -5
-4 8 -10 15 -15 15 -5 0 -9 6 -9 14 0 8 -7 17 -16 20 -14 5 -15 4 -4 -9z"/>
<path d="M1587 290 c3 -11 7 -20 9 -20 2 0 4 9 4 20 0 11 -4 20 -9 20 -5 0 -7
-9 -4 -20z"/>
<path d="M1890 278 c-14 -5 -34 -11 -45 -13 -11 -1 -24 -3 -30 -4 -5 -1 -3 -7
6 -14 9 -7 19 -24 23 -39 5 -24 12 -28 40 -28 47 0 64 22 31 40 -27 14 -34 50
-11 50 8 0 18 5 21 10 8 12 -3 12 -35 -2z"/>
<path d="M2210 250 c0 -5 5 -10 11 -10 5 0 7 5 4 10 -3 6 -8 10 -11 10 -2 0
-4 -4 -4 -10z"/>
<path d="M1370 230 c0 -5 5 -10 11 -10 5 0 7 5 4 10 -3 6 -8 10 -11 10 -2 0
-4 -4 -4 -10z"/>
<path d="M1260 206 c0 -2 7 -7 16 -10 8 -3 12 -2 9 4 -6 10 -25 14 -25 6z"/>
<path d="M1700 195 c-14 -8 -20 -14 -13 -15 6 0 19 -3 29 -7 12 -5 15 -3 9 6
-4 8 -2 17 6 22 23 15 -4 9 -31 -6z"/>
<path d="M4257 198 c-24 -13 -22 -55 3 -63 11 -3 20 -13 20 -21 0 -8 -9 -14
-20 -14 -11 0 -20 -4 -20 -10 0 -17 57 -12 64 6 11 28 6 41 -19 52 -31 14 -32
30 -3 41 16 6 18 9 7 13 -9 3 -23 2 -32 -4z"/>
<path d="M1209 183 c-13 -17 -13 -17 6 -3 11 8 22 16 24 17 2 2 0 3 -6 3 -6 0
-17 -8 -24 -17z"/>
<path d="M2928 193 c6 -2 18 -2 25 0 6 3 1 5 -13 5 -14 0 -19 -2 -12 -5z"/>
<path d="M2993 140 c0 -36 2 -50 4 -32 2 17 2 47 0 65 -2 17 -4 3 -4 -33z"/>
<path d="M3041 138 c1 -56 2 -59 9 -28 5 19 6 38 4 42 -2 3 -1 9 4 12 5 3 18
-15 30 -39 12 -25 26 -45 32 -45 6 0 10 26 10 60 0 33 -4 60 -10 60 -5 0 -10
-19 -11 -42 l0 -43 -22 43 c-31 62 -47 55 -46 -20z"/>
<path d="M3170 181 c-27 -51 -1 -96 61 -107 22 -4 29 -2 21 4 -10 7 -11 14 -1
35 18 40 -4 87 -42 87 -18 0 -32 -7 -39 -19z m64 -7 c18 -47 -13 -101 -42 -72
-16 16 -15 75 1 81 23 10 35 7 41 -9z"/>
<path d="M3292 149 c3 -59 25 -82 55 -63 21 13 38 77 27 102 -6 12 -10 3 -13
-33 -5 -42 -10 -50 -28 -53 -20 -3 -23 1 -24 35 -1 21 -1 44 0 51 1 6 -3 12
-9 12 -7 0 -10 -19 -8 -51z"/>
<path d="M3410 140 c0 -56 2 -60 23 -60 12 0 29 5 37 10 12 8 9 10 -12 10 -36
0 -40 36 -5 43 l22 4 -22 2 c-16 1 -23 7 -23 20 0 12 8 21 23 24 16 3 13 5
-10 6 l-33 1 0 -60z"/>
<path d="M3508 149 c-1 -28 0 -56 4 -62 4 -7 8 11 8 38 1 54 5 53 42 -15 25
-44 34 -32 28 37 l-4 58 -6 -45 -5 -45 -23 43 c-12 23 -26 42 -31 42 -5 0 -11
-23 -13 -51z"/>
<path d="M3633 193 c13 -3 17 -15 17 -54 0 -27 5 -49 10 -49 6 0 10 22 10 49
0 39 4 51 18 54 9 3 -3 5 -28 5 -25 0 -37 -2 -27 -5z"/>
<path d="M3730 158 c-6 -24 -13 -51 -16 -60 -3 -10 -1 -18 5 -18 6 0 11 6 11
14 0 24 29 26 50 4 24 -26 25 -22 4 48 -19 66 -39 70 -54 12z m40 -14 c0 -8
-7 -14 -15 -14 -15 0 -21 21 -9 33 10 9 24 -2 24 -19z"/>
<path d="M3870 140 c0 -33 4 -60 10 -60 6 0 10 11 10 25 0 32 17 32 32 0 6
-13 15 -22 19 -19 5 3 4 14 -2 25 -6 11 -8 28 -5 36 12 30 -4 53 -35 53 -29 0
-29 0 -29 -60z m55 30 c0 -8 -8 -16 -17 -18 -13 -2 -18 3 -18 18 0 15 5 20 18
18 9 -2 17 -10 17 -18z"/>
<path d="M3979 155 c-1 -25 -2 -51 -3 -57 -1 -8 13 -14 32 -16 18 -2 32 1 32
7 0 6 -9 11 -19 11 -20 0 -37 17 -28 26 3 3 14 6 26 7 28 2 27 15 -1 19 -31 4
-29 30 2 39 23 6 22 7 -7 8 -32 1 -33 0 -34 -44z"/>
<path d="M4095 188 c-15 -42 -35 -101 -35 -104 0 -2 7 -4 15 -4 8 0 15 7 15
15 0 21 30 19 46 -2 21 -30 24 -10 7 50 -15 54 -37 74 -48 45z m25 -33 c0 -14
-4 -25 -10 -25 -5 0 -10 11 -10 25 0 14 5 25 10 25 6 0 10 -11 10 -25z"/>
<path d="M4189 178 c-1 -13 -2 -38 -2 -57 -1 -20 3 -36 11 -38 9 -4 12 12 12
56 0 34 -4 61 -10 61 -5 0 -10 -10 -11 -22z"/>
<path d="M2886 174 c-8 -21 -7 -56 2 -71 11 -17 62 -28 62 -13 0 6 -4 9 -9 6
-30 -19 -61 37 -41 74 6 11 7 20 1 20 -5 0 -12 -7 -15 -16z"/>
<path d="M120 125 c0 -46 3 -55 18 -55 28 0 42 21 42 61 0 36 -12 49 -46 49
-10 0 -14 -14 -14 -55z m40 0 c0 -14 -4 -25 -10 -25 -5 0 -10 11 -10 25 0 14
5 25 10 25 6 0 10 -11 10 -25z"/>
<path d="M279 133 c0 -27 -3 -42 -6 -35 -7 17 -23 15 -23 -2 0 -19 14 -28 34
-20 12 4 16 20 16 55 0 27 -4 49 -10 49 -5 0 -10 -21 -11 -47z"/>
<path d="M366 172 c-9 -14 6 -92 18 -92 7 0 10 18 8 50 -4 46 -13 62 -26 42z"/>
<path d="M437 173 c-4 -3 -7 -23 -7 -43 0 -41 23 -71 41 -53 12 12 15 75 4 92
-7 12 -28 14 -38 4z m20 -60 c-3 -10 -5 -4 -5 12 0 17 2 24 5 18 2 -7 2 -21 0
-30z"/>
<path d="M517 174 c-11 -11 -8 -24 6 -24 6 0 12 -11 12 -25 0 -14 -6 -25 -12
-25 -18 0 -16 -19 3 -27 27 -10 43 18 35 62 -6 37 -27 56 -44 39z"/>
<path d="M597 173 c-12 -11 -7 -23 9 -23 10 0 14 -6 11 -15 -4 -8 -2 -17 4
-20 14 -9 1 -25 -16 -18 -8 3 -15 0 -15 -6 0 -18 28 -25 45 -11 14 12 16 65 2
88 -9 13 -30 16 -40 5z"/>
<path d="M682 168 c-17 -17 -15 -73 3 -88 19 -16 45 3 45 32 0 10 -7 21 -15
24 -8 4 -15 10 -15 16 0 5 5 6 10 3 6 -3 10 1 10 9 0 19 -21 21 -38 4z m28
-58 c0 -5 -4 -10 -10 -10 -5 0 -10 5 -10 10 0 6 5 10 10 10 6 0 10 -4 10 -10z"/>
<path d="M765 150 c-19 -36 -19 -50 -1 -50 8 0 17 -6 19 -12 10 -25 23 10 19
52 -5 48 -16 51 -37 10z"/>
<path d="M846 172 c-15 -25 -15 -72 0 -87 31 -30 58 26 38 79 -7 17 -29 22
-38 8z m21 -59 c-3 -10 -5 -4 -5 12 0 17 2 24 5 18 2 -7 2 -21 0 -30z"/>
<path d="M930 154 c-13 -34 -13 -43 4 -60 32 -32 43 -12 30 55 -8 38 -21 40
-34 5z"/>
<path d="M1014 168 c-15 -23 -13 -76 2 -89 23 -19 36 2 32 51 -3 44 -19 62
-34 38z"/>
<path d="M1236 155 c-3 -8 -1 -15 4 -15 6 0 10 5 10 11 0 5 5 7 12 3 7 -4 8
-3 4 4 -10 16 -23 15 -30 -3z"/>
</g>
</svg>
