<?xml version="1.0" standalone="no"?>
<!DOCTYPE svg PUBLIC "-//W3C//DTD SVG 20010904//EN"
 "http://www.w3.org/TR/2001/REC-SVG-20010904/DTD/svg10.dtd">
<svg version="1.0" xmlns="http://www.w3.org/2000/svg"
 width="447.000000pt" height="232.000000pt" viewBox="0 0 447.000000 232.000000"
 preserveAspectRatio="xMidYMid meet">

<g transform="translate(0.000000,232.000000) scale(0.100000,-0.100000)"
fill="#000000" stroke="none">
<path d="M67 2253 c-4 -3 -7 -28 -7 -55 0 -46 1 -48 29 -48 30 0 47 22 34 43
-4 7 -6 20 -4 31 4 26 -34 48 -52 29z m35 -28 c0 -5 -5 -11 -11 -13 -6 -2 -11
4 -11 13 0 9 5 15 11 13 6 -2 11 -8 11 -13z m5 -48 c-6 -20 -27 -19 -27 2 0
14 5 19 15 14 9 -3 14 -10 12 -16z"/>
<path d="M160 2225 c-5 -14 -12 -38 -16 -53 -5 -25 -4 -25 9 -9 20 24 43 21
52 -5 4 -15 8 -18 12 -10 6 17 -25 102 -38 102 -5 0 -14 -11 -19 -25z m30 -26
c0 -5 -4 -9 -10 -9 -5 0 -10 7 -10 16 0 8 5 12 10 9 6 -3 10 -10 10 -16z"/>
<path d="M238 2208 c-3 -24 -1 -47 3 -52 5 -6 9 7 9 28 l0 39 23 -33 c35 -52
47 -50 47 9 0 28 -4 51 -10 51 -5 0 -10 -17 -10 -37 l-1 -38 -20 38 c-11 20
-23 37 -28 37 -5 0 -11 -19 -13 -42z"/>
<path d="M347 2232 c-10 -10 -17 -28 -17 -39 0 -36 58 -70 75 -44 3 5 -7 11
-22 13 -50 5 -41 71 10 81 19 4 19 4 -4 6 -14 0 -33 -7 -42 -17z"/>
<path d="M432 2238 c-7 -7 -12 -26 -12 -43 0 -17 5 -36 12 -43 29 -29 78 0 78
47 0 32 -16 51 -45 51 -12 0 -26 -5 -33 -12z m56 -41 c3 -33 1 -37 -21 -37
-28 0 -38 24 -26 59 14 36 43 23 47 -22z"/>
<path d="M567 2232 c-21 -23 -22 -56 -1 -76 17 -18 64 -22 64 -5 0 5 -4 7 -10
4 -18 -11 -50 15 -50 40 0 25 26 46 48 38 6 -3 12 0 12 6 0 18 -46 12 -63 -7z"/>
<path d="M650 2195 c0 -55 0 -55 31 -55 18 0 28 4 24 10 -4 6 -14 9 -22 8 -26
-5 -28 23 -2 29 l23 6 -22 8 c-28 10 -29 29 -2 29 11 0 20 5 20 10 0 6 -11 10
-25 10 -24 0 -25 -3 -25 -55z"/>
<path d="M727 2244 c-11 -11 -8 -104 3 -104 6 0 10 17 10 38 l0 37 19 -31 c11
-18 24 -35 29 -38 12 -7 20 56 11 81 -6 13 -8 8 -9 -17 -1 -33 -2 -34 -15 -15
-35 49 -41 56 -48 49z"/>
<path d="M820 2239 c0 -5 5 -9 10 -9 6 0 10 -20 10 -45 0 -25 5 -45 10 -45 6
0 10 20 10 45 0 38 3 45 20 45 17 0 20 -7 20 -45 0 -25 5 -45 10 -45 6 0 10 9
10 20 0 11 4 20 9 20 5 0 13 -9 16 -20 3 -11 11 -20 16 -20 11 0 11 11 0 29
-6 9 -6 22 1 34 7 13 6 23 -1 30 -13 13 -141 18 -141 6z m128 -27 c2 -7 -3
-12 -12 -12 -9 0 -16 7 -16 16 0 17 22 14 28 -4z"/>
<path d="M995 2204 c-17 -42 -19 -64 -5 -64 6 0 10 7 10 15 0 21 27 19 39 -2
17 -32 23 -5 9 38 -18 55 -33 59 -53 13z m35 -8 c0 -3 -4 -8 -10 -11 -5 -3
-10 -1 -10 4 0 6 5 11 10 11 6 0 10 -2 10 -4z"/>
<path d="M1078 2234 c-10 -9 -10 -66 -2 -88 7 -17 54 -22 54 -6 0 6 -9 10 -19
10 -16 0 -20 8 -23 46 -2 25 -6 42 -10 38z"/>
<path d="M1180 2185 c0 -52 1 -55 26 -55 14 0 35 10 47 24 l21 24 11 -22 c12
-24 50 -33 71 -16 7 7 14 27 14 45 0 18 -7 38 -14 45 -22 17 -59 8 -72 -18
l-11 -23 -17 26 c-11 17 -25 25 -46 25 -30 0 -30 -1 -30 -55z m64 23 c13 -21
-2 -51 -28 -56 -13 -3 -16 5 -16 38 0 33 3 41 16 38 9 -2 22 -11 28 -20z m92
14 c29 -19 18 -72 -15 -72 -22 0 -31 27 -20 58 9 23 17 26 35 14z"/>
<path d="M1427 2233 c-4 -3 -7 -28 -7 -55 0 -44 2 -48 24 -48 31 0 53 25 37
43 -7 9 -7 17 0 24 7 7 5 15 -6 27 -17 17 -37 21 -48 9z m34 -26 c-1 -12 -15
-9 -19 4 -3 6 1 10 8 8 6 -3 11 -8 11 -12z m5 -38 c8 -14 -11 -33 -25 -25 -11
7 -4 36 9 36 5 0 12 -5 16 -11z"/>
<path d="M1507 2233 c-11 -10 -8 -103 3 -103 6 0 10 9 10 20 0 11 5 20 11 20
6 0 13 -9 16 -20 6 -24 48 -28 57 -5 7 20 32 19 40 -1 4 -9 9 -15 12 -12 9 10
-18 98 -31 98 -7 0 -20 -21 -30 -46 -14 -38 -19 -44 -27 -30 -5 9 -6 26 -3 37
11 33 -34 66 -58 42z m43 -28 c0 -8 -7 -15 -15 -15 -8 0 -15 7 -15 15 0 8 7
15 15 15 8 0 15 -7 15 -15z m80 -15 c0 -5 -5 -10 -11 -10 -5 0 -7 5 -4 10 3 6
8 10 11 10 2 0 4 -4 4 -10z"/>
<path d="M1698 2233 c-24 -6 -23 -40 2 -55 27 -17 25 -38 -2 -38 -16 0 -19 -3
-11 -11 8 -8 17 -8 32 0 29 16 26 35 -6 59 l-28 21 24 9 c26 9 17 21 -11 15z"/>
<path d="M1759 2228 c-7 -33 -7 -98 1 -98 5 0 10 22 10 50 0 28 -2 50 -5 50
-3 0 -5 -1 -6 -2z"/>
<path d="M1790 2175 c0 -52 1 -55 25 -55 14 0 25 5 25 10 0 6 -7 10 -15 10
-11 0 -15 12 -15 45 0 25 -4 45 -10 45 -5 0 -10 -25 -10 -55z"/>
<path d="M4152 2198 c-18 -9 -22 -18 -20 -42 2 -22 8 -31 21 -30 15 2 17 -8
17 -72 l0 -74 35 0 c32 0 35 2 35 30 0 35 11 39 25 8 14 -32 56 -53 89 -44 54
14 82 106 55 185 -25 72 -112 70 -155 -4 -8 -15 -10 -12 -6 18 l4 37 -38 -1
c-22 0 -49 -5 -62 -11z m78 -104 c0 -102 -1 -105 -22 -102 -20 3 -21 8 -19 81
2 77 2 78 -21 75 -31 -4 -36 25 -6 40 13 6 33 11 46 11 21 1 22 -2 22 -105z
m149 87 c37 -37 39 -116 5 -168 -19 -29 -73 -31 -98 -4 -20 22 -32 88 -22 126
15 59 77 84 115 46z"/>
<path d="M4321 2156 c-17 -20 -18 -101 -1 -121 13 -16 15 -15 27 1 7 10 13 36
13 59 0 23 -6 49 -13 59 -12 16 -14 16 -26 2z m29 -51 c0 -41 -9 -67 -21 -59
-10 6 -12 87 -3 97 13 13 24 -5 24 -38z"/>
<path d="M2804 2156 c-12 -32 0 -61 29 -64 23 -3 27 0 26 20 -1 17 -3 18 -6 6
-2 -10 -13 -18 -24 -18 -14 0 -19 7 -19 29 0 16 6 32 13 34 9 4 9 6 -1 6 -7 1
-15 -5 -18 -13z"/>
<path d="M3057 2164 c-4 -4 -7 -12 -7 -18 0 -6 4 -5 9 3 13 20 31 4 31 -29 0
-33 -18 -49 -31 -29 -6 9 -9 10 -9 2 0 -19 20 -26 36 -12 20 16 15 83 -6 87
-9 1 -19 0 -23 -4z"/>
<path d="M3152 2157 c-14 -16 -19 -68 -8 -85 12 -19 34 -14 47 11 12 22 12 22
-9 3 -19 -16 -22 -17 -28 -3 -8 22 -1 72 11 71 6 -1 16 -12 22 -25 7 -13 13
-18 13 -11 0 18 -19 52 -29 52 -5 0 -13 -6 -19 -13z"/>
<path d="M3462 2162 c-23 -15 -20 -64 5 -77 21 -11 21 -13 6 -28 -9 -9 -13
-20 -9 -24 4 -5 19 5 32 20 30 35 33 92 5 107 -23 12 -23 12 -39 2z m35 -28
c8 -22 -15 -44 -26 -25 -10 16 -4 41 10 41 5 0 12 -7 16 -16z"/>
<path d="M2931 2148 c0 -9 -4 -24 -8 -34 -9 -25 17 -13 36 17 15 22 15 23 -1
11 -14 -11 -17 -10 -21 5 -4 15 -5 15 -6 1z"/>
<path d="M3277 2113 c7 -71 11 -75 12 -10 1 31 -3 57 -8 57 -5 0 -6 -21 -4
-47z"/>
<path d="M3368 2150 c24 -10 29 -25 12 -35 -8 -5 -7 -11 1 -21 15 -18 3 -48
-16 -40 -8 3 -15 1 -15 -4 0 -16 36 -11 51 6 10 13 10 20 0 36 -9 15 -9 23 -1
33 16 20 4 35 -28 34 -26 0 -26 -1 -4 -9z"/>
<path d="M3585 2140 c-16 -18 -16 -20 -2 -20 14 0 17 -10 17 -50 0 -27 5 -50
10 -50 6 0 10 30 10 70 0 39 -4 70 -8 70 -5 0 -17 -9 -27 -20z"/>
<path d="M3692 2137 c-21 -23 -27 -41 -24 -85 3 -30 45 -50 67 -32 23 19 16
72 -12 86 -21 10 -21 12 -7 32 20 29 3 28 -24 -1z m36 -75 c2 -14 -2 -22 -12
-22 -19 0 -29 17 -22 36 8 22 30 12 34 -14z"/>
<path d="M3794 2145 c-4 -8 -4 -25 -1 -37 4 -12 1 -28 -5 -35 -15 -18 -2 -61
22 -68 10 -3 28 -1 39 5 17 9 20 19 18 78 l-2 67 -33 3 c-22 2 -34 -2 -38 -13z
m46 -26 c0 -18 -2 -19 -15 -9 -8 7 -15 16 -15 21 0 5 7 9 15 9 9 0 15 -9 15
-21z m6 -78 c-11 -18 -36 -13 -36 7 0 10 3 22 7 26 10 10 37 -20 29 -33z"/>
<path d="M3910 2119 c0 -32 3 -40 18 -38 37 3 43 -1 40 -28 -2 -22 -9 -29 -30
-31 -36 -4 -36 -20 -1 -28 49 -13 84 63 47 100 -8 9 -22 16 -31 16 -22 0 -10
25 15 28 38 6 24 22 -18 22 l-40 0 0 -41z"/>
<path d="M2960 2101 c0 -5 5 -13 10 -16 6 -3 10 -2 10 4 0 5 -4 13 -10 16 -5
3 -10 2 -10 -4z"/>
<path d="M121 2020 l-64 -30 6 -41 c3 -22 8 -43 11 -47 4 -3 23 2 42 12 20 9
39 14 43 11 3 -4 6 -88 6 -188 l0 -182 55 0 55 0 3 248 2 247 -47 0 c-31 -1
-70 -11 -112 -30z"/>
<path d="M437 2028 c-58 -34 -89 -106 -95 -221 -4 -80 -2 -99 18 -145 24 -56
75 -108 116 -118 41 -10 110 2 143 26 46 32 71 90 81 184 13 124 -8 202 -69
261 -27 25 -41 30 -94 32 -50 3 -69 -1 -100 -19z m125 -99 c27 -36 34 -175 12
-241 -18 -54 -53 -74 -81 -45 -24 24 -41 123 -32 187 4 30 8 62 8 71 1 22 40
61 58 57 9 -2 24 -15 35 -29z"/>
<path d="M1830 2030 c0 -5 5 -10 11 -10 5 0 7 5 4 10 -3 6 -8 10 -11 10 -2 0
-4 -4 -4 -10z"/>
<path d="M1616 2016 c3 -9 11 -16 16 -16 13 0 5 23 -10 28 -7 2 -10 -2 -6 -12z"/>
<path d="M1963 2010 c14 -11 29 -20 34 -20 11 1 -37 40 -49 40 -6 0 1 -9 15
-20z"/>
<path d="M1500 2006 c0 -8 -16 -20 -35 -27 -19 -7 -35 -16 -35 -19 0 -3 -14
-7 -31 -8 -29 -2 -94 -41 -84 -50 2 -3 10 0 17 5 7 6 24 13 38 15 14 3 33 9
43 13 12 5 17 3 17 -9 0 -9 -8 -16 -20 -16 -13 0 -18 -5 -13 -16 4 -11 9 -12
16 -5 6 6 20 11 32 11 16 0 17 2 5 10 -12 8 -9 10 13 10 26 0 27 1 13 16 -24
23 -19 28 9 10 19 -13 30 -14 45 -6 29 16 24 23 -10 15 -19 -4 -30 -3 -30 4 0
6 10 11 23 12 12 0 16 3 10 6 -29 11 -11 25 27 21 28 -2 40 0 40 9 0 9 -15 13
-45 13 -32 0 -45 -4 -45 -14z"/>
<path d="M1755 2000 c3 -5 12 -10 20 -10 7 0 15 -7 19 -15 3 -8 17 -20 32 -25
15 -6 24 -13 21 -16 -3 -4 -21 3 -40 15 -37 23 -52 27 -42 11 3 -5 3 -15 -1
-21 -4 -8 -9 -7 -14 2 -7 10 -11 10 -24 0 -8 -7 -20 -10 -26 -6 -6 4 -17 -1
-24 -11 -8 -10 -26 -17 -44 -17 -17 0 -29 -4 -26 -9 3 -4 -2 -8 -10 -8 -8 0
-18 5 -21 10 -3 6 -24 10 -46 10 -30 0 -47 -7 -66 -26 -18 -18 -28 -22 -33
-14 -4 7 -12 10 -18 6 -6 -3 -13 -2 -17 4 -3 5 -11 10 -16 10 -6 0 -7 -6 -3
-12 6 -10 4 -10 -8 0 -16 13 -105 11 -128 -3 -18 -11 -11 -23 10 -18 11 3 20
1 20 -5 0 -5 -12 -13 -27 -17 -14 -3 -36 -13 -47 -21 -20 -14 -20 -14 -1 -14
17 -1 17 -3 -5 -14 -23 -13 -50 -44 -75 -86 -7 -11 -2 -10 19 3 36 24 43 17
11 -13 -14 -13 -25 -29 -25 -35 0 -7 -9 -24 -20 -38 -12 -15 -16 -27 -9 -29 6
-2 1 -16 -13 -33 -13 -16 -32 -47 -43 -69 -11 -23 -28 -42 -37 -44 -19 -4 -54
-30 -94 -70 -105 -107 -143 -150 -171 -195 -54 -87 -84 -147 -73 -147 5 0 10
5 10 11 0 13 29 43 36 37 2 -3 -8 -22 -22 -44 -41 -59 -66 -141 -70 -224 -2
-41 -8 -94 -14 -118 -6 -24 -7 -49 -3 -55 5 -7 10 4 14 28 5 31 6 24 8 -35 l1
-75 19 31 c11 18 24 35 30 38 6 4 11 12 11 17 0 6 -5 7 -10 4 -17 -11 -11 17
8 32 15 13 15 14 -8 8 -23 -6 -23 -5 -7 8 19 16 24 32 6 21 -8 -4 -9 0 -4 15
11 37 -7 46 -22 11 -7 -18 -16 -31 -19 -28 -3 3 2 23 10 43 9 21 16 49 16 64
l-1 26 -14 -30 c-14 -30 -14 -30 -8 15 4 24 15 53 25 64 20 22 23 36 8 36 -5
0 -10 5 -10 11 0 5 5 7 10 4 6 -3 10 3 10 14 0 11 6 26 13 33 8 7 17 26 21 41
4 16 18 39 33 53 20 19 24 30 20 54 -5 22 -3 30 8 30 8 0 15 6 15 13 0 12 32
46 57 61 9 5 8 -3 -2 -27 -8 -20 -10 -39 -5 -47 9 -14 -3 -44 -27 -68 -7 -7
-13 -19 -13 -27 0 -7 -3 -20 -6 -29 -3 -9 -1 -16 5 -16 6 0 11 6 11 14 0 7 9
16 21 19 15 4 19 11 14 25 -3 11 -1 23 5 27 5 3 10 14 10 23 0 12 8 17 30 17
17 0 30 -3 30 -7 0 -5 6 -8 14 -8 9 0 12 7 9 18 -3 14 -15 19 -45 20 -23 1
-43 4 -45 5 -2 2 8 17 22 33 24 28 25 28 25 6 0 -13 4 -21 9 -18 16 10 61 -13
61 -30 0 -13 3 -14 15 -4 19 16 19 30 0 30 -8 0 -19 9 -25 20 -6 11 -16 17
-25 14 -9 -4 -15 0 -15 9 0 8 -9 17 -21 20 -18 5 -19 8 -7 26 7 12 18 21 25
21 16 0 17 -12 1 -29 -11 -11 -7 -12 22 -9 26 4 39 0 53 -16 16 -18 18 -19 13
-3 -4 14 0 20 15 24 15 4 17 8 8 14 -8 4 -10 11 -6 15 3 4 13 1 21 -5 21 -17
31 4 13 29 -8 11 -16 18 -19 15 -3 -3 -13 4 -23 15 -16 17 -16 20 -2 20 9 0
19 -4 22 -10 10 -15 35 -12 35 5 0 9 -9 15 -25 15 -16 0 -25 6 -25 15 0 13 4
14 21 4 15 -8 19 -8 15 0 -4 6 -2 11 3 11 6 0 11 -4 11 -8 0 -12 50 -33 61
-27 10 7 12 -5 9 -47 -1 -16 3 -28 8 -28 5 0 9 -13 9 -30 0 -16 -4 -27 -9 -24
-4 3 -8 12 -8 20 0 8 -10 14 -22 14 -21 0 -21 0 -2 15 10 8 17 15 14 15 -47
10 -50 9 -50 -14 0 -14 -4 -28 -10 -31 -5 -3 -10 -16 -10 -27 0 -11 -8 -27
-17 -34 -17 -13 -17 -13 0 -14 10 0 20 6 23 14 3 8 12 12 19 10 15 -6 30 30
20 46 -3 5 0 7 9 4 18 -7 28 -31 16 -39 -18 -11 -10 -27 11 -22 19 5 20 2 15
-71 -3 -42 -6 -119 -8 -170 l-2 -94 49 -17 c28 -9 65 -16 82 -14 34 3 135 -36
147 -56 11 -17 23 -13 29 8 3 13 0 18 -8 15 -23 -9 -28 17 -6 37 19 18 22 19
45 3 18 -11 35 -14 57 -9 27 6 31 5 26 -10 -4 -9 -7 -23 -7 -31 0 -8 -10 -14
-25 -14 -14 0 -25 5 -25 11 0 5 -4 7 -10 4 -5 -3 -10 -1 -10 6 0 6 -9 0 -21
-14 -15 -21 -18 -31 -10 -46 15 -27 56 -35 86 -15 14 9 32 13 45 9 13 -4 20
-2 18 5 -5 22 20 22 32 -1 8 -14 8 -19 1 -15 -6 4 -11 2 -11 -4 0 -7 -12 -9
-32 -5 -29 6 -35 3 -52 -25 -13 -23 -24 -30 -37 -27 -21 6 -24 -8 -9 -47 8
-23 12 -25 37 -15 15 6 31 15 35 22 5 8 9 6 14 -7 4 -11 2 -21 -7 -27 -11 -7
-9 -9 6 -9 11 0 41 -11 68 -25 26 -14 47 -24 47 -22 0 3 9 40 20 85 11 44 17
88 13 98 -4 12 -3 15 5 10 8 -5 10 41 7 176 -5 172 -7 223 -20 358 -3 30 -5
63 -6 73 0 9 -4 17 -10 17 -5 0 -9 11 -9 25 0 29 1 29 85 14 45 -9 78 -9 125
-1 34 6 65 14 68 16 3 3 0 28 -5 56 -8 38 -7 56 3 75 13 25 20 62 29 145 5 46
17 66 45 75 10 3 23 18 29 33 5 15 10 21 10 15 1 -20 31 -15 31 5 -1 19 -30
63 -30 43 0 -9 -4 -8 -15 3 -8 8 -15 23 -15 33 0 20 -18 43 -34 43 -5 0 -1 -7
10 -15 18 -14 17 -14 -8 -4 -16 7 -28 18 -28 26 0 7 -4 13 -9 13 -5 0 -17 3
-27 7 -12 5 -15 3 -9 -6 7 -13 -6 -11 -52 6 -7 3 -13 1 -13 -5 0 -14 -34 -4
-57 17 -21 20 -78 38 -68 21z m-15 -80 c0 -5 -4 -10 -10 -10 -5 0 -10 5 -10
10 0 6 5 10 10 10 6 0 10 -4 10 -10z m-176 -28 c2 -4 -4 -8 -15 -8 -10 0 -19
4 -19 8 0 4 6 8 14 8 8 0 17 -4 20 -8z m407 -19 c12 -12 18 -76 8 -89 -5 -6
-10 -19 -12 -30 -7 -33 -24 -69 -41 -83 -9 -7 -16 -22 -16 -32 0 -20 -16 -35
-22 -18 -12 36 -145 -67 -185 -144 l-15 -29 -23 33 c-12 19 -20 40 -18 46 3 7
0 13 -6 13 -6 0 -11 7 -11 16 0 8 -5 12 -10 9 -7 -4 -8 3 -4 22 4 15 8 30 10
32 2 2 -1 10 -7 18 -6 7 -9 22 -6 33 3 11 0 20 -6 20 -8 0 -8 3 -2 8 12 8 13
32 2 50 -5 7 -2 14 7 18 13 5 12 9 -7 25 -14 12 -16 17 -6 13 10 -3 28 5 43
19 18 17 23 26 14 29 -7 3 10 8 37 11 39 6 52 4 61 -8 10 -14 12 -14 18 0 3 9
2 13 -4 10 -6 -3 -10 -2 -10 4 0 5 10 11 23 13 39 7 179 0 188 -9z m-611 -24
c13 -9 12 -10 -3 -5 -10 3 -32 -1 -48 -10 -17 -8 -36 -13 -42 -10 -7 2 -4 5 7
5 12 1 16 6 12 16 -4 11 2 15 27 15 18 0 39 -5 47 -11z m223 -1 c-13 -6 -23
-15 -23 -20 0 -4 -8 -8 -17 -9 -11 0 -13 -3 -5 -6 18 -7 15 -21 -6 -27 -13 -5
-18 -16 -17 -44 1 -23 5 -36 13 -34 14 2 16 -24 3 -32 -5 -3 -7 -14 -5 -24 8
-34 -10 -46 -50 -32 -20 6 -36 15 -36 20 0 4 -10 11 -22 15 -14 4 -18 8 -10
12 6 2 12 11 12 19 0 8 9 14 19 14 11 0 27 10 36 22 14 21 14 24 -2 35 -9 7
-11 13 -5 13 7 0 12 4 12 10 0 5 -9 6 -21 2 -27 -10 -26 -26 3 -33 l23 -5 -22
-12 c-13 -7 -23 -9 -23 -3 0 5 -11 12 -25 15 -17 4 -25 12 -23 24 5 26 30 42
58 35 22 -6 24 -5 11 10 -7 9 -17 15 -21 12 -5 -3 -11 -1 -14 4 -4 6 7 8 24 6
21 -3 28 -1 24 7 -5 7 -2 9 7 6 8 -3 34 -2 59 2 63 10 68 10 43 -2z m-284 -43
c-9 -8 -79 -35 -79 -30 0 3 15 11 33 19 32 15 54 20 46 11z m-90 -49 c-2 -2
-15 -9 -29 -15 -24 -11 -24 -11 -6 3 16 13 49 24 35 12z m61 -21 c-7 -9 -15
-13 -17 -11 -7 7 7 26 19 26 6 0 6 -6 -2 -15z m107 9 c-3 -3 -12 -4 -19 -1 -8
3 -5 6 6 6 11 1 17 -2 13 -5z m-49 -72 c3 -9 -2 -13 -14 -10 -9 1 -19 9 -22
16 -3 9 2 13 14 10 9 -1 19 -9 22 -16z m632 -68 c0 -14 -4 -23 -9 -19 -6 3
-11 -12 -13 -32 l-3 -38 -14 27 c-7 14 -19 24 -25 22 -6 -2 -17 5 -24 16 -7
11 -8 20 -3 20 5 0 11 -6 14 -12 3 -8 12 -3 26 15 28 34 51 35 51 1z m-710
-44 c0 -13 -11 -13 -30 0 -12 8 -11 10 8 10 12 0 22 -4 22 -10z m235 -16 c-7
-8 -20 -14 -27 -14 -9 1 -7 5 4 14 10 7 15 16 11 20 -4 4 0 4 10 1 14 -6 14
-9 2 -21z m-325 -24 c0 -5 -7 -10 -16 -10 -8 0 -12 5 -9 10 3 6 10 10 16 10 5
0 9 -4 9 -10z m334 -6 c23 -9 20 -24 -4 -24 -11 0 -20 7 -20 15 0 17 2 18 24
9z m-112 -88 c4 -6 5 -12 4 -14 -6 -6 -56 21 -56 30 0 12 43 -1 52 -16z m148
-51 c0 -9 -6 -12 -15 -9 -8 4 -15 10 -15 15 0 5 7 9 15 9 8 0 15 -7 15 -15z
m94 -17 c-3 -4 -9 -8 -15 -8 -5 0 -9 4 -9 8 0 5 7 9 15 9 8 0 12 -4 9 -9z
m-666 -21 c17 -18 19 -26 10 -35 -18 -18 -28 -15 -28 8 0 11 -4 20 -10 20 -5
0 -10 7 -10 15 0 21 13 19 38 -8z m512 -17 c0 -5 -2 -10 -4 -10 -3 0 -8 5 -11
10 -3 6 -1 10 4 10 6 0 11 -4 11 -10z m220 -44 c0 -2 -8 -10 -17 -17 -16 -13
-17 -12 -4 4 13 16 21 21 21 13z m-205 -16 c-3 -5 -11 -10 -16 -10 -6 0 -7 5
-4 10 3 6 11 10 16 10 6 0 7 -4 4 -10z m118 -24 c3 -8 -1 -20 -8 -26 -12 -10
-16 -9 -21 4 -5 13 -9 14 -20 5 -11 -9 -14 -7 -14 10 0 17 6 21 29 21 16 0 31
-6 34 -14z m44 -2 c-3 -3 -12 -4 -19 -1 -8 3 -5 6 6 6 11 1 17 -2 13 -5z
m-165 -36 c-6 -6 -22 -13 -34 -15 -22 -3 -22 -2 2 12 30 17 48 19 32 3z m21
-13 c-3 -9 -8 -14 -10 -11 -3 3 -2 9 2 15 9 16 15 13 8 -4z m127 -2 c-1 -23
-18 -33 -41 -24 -17 7 -19 10 -6 10 9 1 17 6 17 11 0 6 7 10 15 10 8 0 15 -3
15 -7z m-85 -23 c-3 -5 3 -10 13 -10 12 0 22 -9 27 -22 4 -14 8 -18 12 -10 2
6 11 12 18 12 7 0 16 6 18 13 3 7 6 6 6 -5 1 -9 -8 -20 -19 -23 -22 -7 -26
-20 -9 -31 6 -3 9 -14 6 -24 -3 -13 0 -17 10 -13 8 3 21 -4 30 -16 8 -13 21
-20 29 -17 12 4 12 2 4 -15 -16 -29 -38 -34 -60 -14 -18 17 -20 17 -20 1 0
-13 -4 -15 -18 -7 -9 5 -28 7 -42 4 -17 -3 -45 8 -87 33 -66 39 -77 54 -42 54
15 0 19 -5 15 -15 -3 -8 -3 -15 -1 -15 4 0 35 67 35 76 0 11 -23 2 -42 -16
-12 -11 -27 -20 -32 -20 -6 0 -4 6 5 13 8 7 18 20 22 30 11 29 35 31 57 6 10
-13 19 -19 20 -14 0 14 33 55 43 55 5 0 5 -4 2 -10z m-295 -14 c0 -7 -9 -16
-20 -19 -13 -3 -20 0 -20 10 0 9 6 13 15 9 8 -3 15 -1 15 4 0 6 2 10 5 10 3 0
5 -6 5 -14z m445 -26 c-3 -5 -11 -10 -16 -10 -6 0 -7 5 -4 10 3 6 11 10 16 10
6 0 7 -4 4 -10z m-318 -17 c3 -7 -3 -9 -16 -6 -12 3 -21 10 -21 15 0 13 32 6
37 -9z m269 -18 c1 -14 -2 -22 -7 -19 -11 6 -12 44 -1 44 4 0 8 -11 8 -25z
m-400 -12 c-10 -10 -19 5 -10 18 6 11 8 11 12 0 2 -7 1 -15 -2 -18z m449 -19
c-10 -19 -15 -23 -15 -11 0 9 -4 17 -10 17 -5 0 -10 5 -10 11 0 6 7 9 15 6 8
-4 17 -2 21 4 14 23 13 0 -1 -27z m-392 9 c4 -3 1 -13 -6 -21 -9 -12 -9 -16 1
-19 6 -3 12 -13 12 -23 0 -13 -5 -17 -20 -13 -15 4 -20 14 -20 37 0 41 15 58
33 39z m77 -8 c0 -8 -4 -15 -10 -15 -5 0 -7 7 -4 15 4 8 8 15 10 15 2 0 4 -7
4 -15z m33 -59 c3 -9 15 -12 31 -9 21 4 26 1 26 -15 0 -17 -5 -20 -27 -16 -15
3 -30 0 -35 -8 -6 -11 -10 -10 -17 1 -5 7 -14 10 -20 7 -7 -5 -11 1 -11 13 0
12 7 21 15 21 8 0 15 5 15 10 0 15 17 12 23 -4z m147 -70 c0 -20 -4 -22 -32
-19 -56 7 -63 12 -43 27 10 7 31 13 47 14 23 1 28 -4 28 -22z m99 8 c11 -4 10
-9 -5 -25 -25 -28 -58 -21 -62 14 -3 26 -1 27 25 22 15 -4 34 -9 42 -11z
m-278 -21 c33 3 36 -27 4 -41 -21 -10 -25 -9 -25 4 0 10 -6 14 -14 11 -8 -3
-17 1 -20 9 -11 28 -7 35 13 24 11 -5 30 -9 42 -7z m50 -26 c-10 -9 -11 -8 -5
6 3 10 9 15 12 12 3 -3 0 -11 -7 -18z m239 -37 c0 -5 -2 -10 -4 -10 -3 0 -8 5
-11 10 -3 6 -1 10 4 10 6 0 11 -4 11 -10z m-50 -6 c0 -7 -27 -34 -34 -34 -3 0
-6 9 -6 20 0 13 7 20 20 20 11 0 20 -3 20 -6z m-40 -153 c-7 -24 -5 -29 6 -24
10 4 12 0 8 -11 -7 -20 -15 -20 -39 -2 -18 13 -18 14 1 39 25 35 35 34 24 -2z
m50 -1 c0 -5 -2 -10 -4 -10 -3 0 -8 5 -11 10 -3 6 -1 10 4 10 6 0 11 -4 11
-10z m-100 -40 c0 -5 -5 -10 -11 -10 -5 0 -7 5 -4 10 3 6 8 10 11 10 2 0 4 -4
4 -10z m80 -40 c0 -5 -5 -10 -11 -10 -5 0 -7 5 -4 10 3 6 8 10 11 10 2 0 4 -4
4 -10z"/>
<path d="M1811 1836 c-8 -9 -11 -19 -7 -23 9 -9 29 13 24 27 -2 8 -8 7 -17 -4z"/>
<path d="M1656 1795 c10 -8 23 -15 28 -15 6 0 1 7 -10 15 -10 8 -23 15 -28 15
-6 0 -1 -7 10 -15z"/>
<path d="M1410 1779 c0 -5 5 -7 10 -4 6 3 10 8 10 11 0 2 -4 4 -10 4 -5 0 -10
-5 -10 -11z"/>
<path d="M1437 1676 c-6 -15 1 -26 15 -26 4 0 8 9 8 20 0 23 -15 27 -23 6z"/>
<path d="M1485 1650 c3 -5 10 -10 16 -10 5 0 9 5 9 10 0 6 -7 10 -16 10 -8 0
-12 -4 -9 -10z"/>
<path d="M1516 1115 c-3 -8 -12 -15 -20 -15 -8 0 -16 -13 -18 -30 -4 -25 -2
-30 11 -24 9 4 26 6 38 6 12 -1 25 3 28 8 9 15 25 12 25 -5 0 -8 5 -15 10 -15
18 0 11 45 -10 63 -25 21 -32 21 -28 0 2 -10 -4 -19 -14 -21 -20 -4 -25 24 -6
30 8 3 9 6 1 11 -6 4 -13 0 -17 -8z"/>
<path d="M1855 2001 c-7 -12 2 -31 15 -31 9 0 8 26 -2 35 -3 4 -9 2 -13 -4z"/>
<path d="M1896 1988 c3 -4 9 -8 15 -8 5 0 9 4 9 8 0 5 -7 9 -15 9 -8 0 -12 -4
-9 -9z"/>
<path d="M1573 1973 c5 -4 13 -9 18 -9 5 -1 11 -2 14 -3 3 0 1 -9 -4 -19 -8
-15 -5 -18 16 -20 21 -2 23 1 14 12 -9 11 -9 15 1 19 20 7 4 18 -34 24 -18 3
-29 1 -25 -4z"/>
<path d="M1665 1960 c-3 -5 -2 -10 4 -10 5 0 13 5 16 10 3 6 2 10 -4 10 -5 0
-13 -4 -16 -10z"/>
<path d="M3307 1934 c-4 -4 -7 -76 -7 -161 0 -145 1 -153 19 -153 28 0 32 22
34 177 1 131 0 138 -19 141 -11 2 -23 0 -27 -4z"/>
<path d="M3580 1910 c0 -13 7 -20 20 -20 13 0 20 7 20 20 0 13 -7 20 -20 20
-13 0 -20 -7 -20 -20z"/>
<path d="M3758 1923 c7 -3 16 -2 19 1 4 3 -2 6 -13 5 -11 0 -14 -3 -6 -6z"/>
<path d="M3440 1820 c0 -13 7 -20 20 -20 13 0 20 7 20 20 0 13 -7 20 -20 20
-13 0 -20 -7 -20 -20z"/>
<path d="M3778 1823 c6 -2 18 -2 25 0 6 3 1 5 -13 5 -14 0 -19 -2 -12 -5z"/>
<path d="M3770 1770 c0 -23 25 -27 33 -6 7 16 -1 26 -20 26 -7 0 -13 -9 -13
-20z"/>
<path d="M3840 1770 c0 -5 5 -10 10 -10 6 0 10 5 10 10 0 6 -4 10 -10 10 -5 0
-10 -4 -10 -10z"/>
<path d="M3820 1736 c-6 -8 -21 -17 -33 -19 -21 -4 -21 -4 -1 -6 11 0 29 8 39
19 10 11 16 20 13 20 -3 0 -11 -6 -18 -14z"/>
<path d="M3530 1680 c0 -13 7 -20 20 -20 13 0 20 7 20 20 0 13 -7 20 -20 20
-13 0 -20 -7 -20 -20z"/>
<path d="M3620 1655 l0 -45 109 0 c61 0 112 3 114 8 3 4 -26 6 -64 4 l-69 -4
0 41 0 41 -45 0 -45 0 0 -45z"/>
<path d="M1070 1370 c0 -14 38 -32 45 -21 3 6 -3 15 -14 20 -24 14 -31 14 -31
1z"/>
<path d="M4078 1358 c-41 -24 -50 -48 -18 -48 11 0 20 5 20 10 0 6 8 10 18 10
21 0 56 33 45 43 -11 11 -26 8 -65 -15z"/>
<path d="M1995 1340 c-28 -7 -112 -76 -103 -85 8 -8 104 43 127 69 26 27 24
28 -24 16z"/>
<path d="M3982 1342 c-26 -8 -31 -25 -8 -30 8 -2 20 6 26 17 6 12 9 21 8 20
-2 -1 -13 -4 -26 -7z"/>
<path d="M3803 1300 c-13 -5 -23 -14 -23 -20 0 -12 22 -7 75 15 l30 13 -30 1
c-16 0 -40 -4 -52 -9z"/>
<path d="M4075 1280 c4 -6 -7 -15 -24 -21 -34 -12 -37 -18 -18 -41 16 -21 57
-6 57 21 0 11 3 26 6 35 4 11 1 16 -11 16 -9 0 -13 -5 -10 -10z"/>
<path d="M4147 1261 c3 -12 11 -17 19 -14 19 7 18 19 -2 27 -22 9 -23 8 -17
-13z"/>
<path d="M3803 1253 c-10 -3 -10 -9 0 -24 18 -28 45 -25 43 6 -1 24 -15 30
-43 18z"/>
<path d="M4118 1233 c-25 -6 -23 -33 2 -33 13 0 20 7 20 20 0 11 -1 19 -2 19
-2 -1 -11 -3 -20 -6z"/>
<path d="M3705 1210 c-3 -5 -38 -19 -76 -31 -75 -23 -90 -38 -18 -19 24 7 63
12 86 12 46 -1 78 22 52 39 -19 12 -36 11 -44 -1z"/>
<path d="M3930 1212 c0 -7 14 -26 31 -43 29 -28 30 -32 15 -47 -10 -11 -16
-12 -16 -4 0 7 -11 12 -24 12 -37 0 -56 10 -56 31 0 10 -9 23 -20 29 -14 7
-20 7 -20 0 0 -19 5 -25 20 -22 10 2 9 -2 -4 -13 -11 -8 -26 -15 -34 -15 -7 0
-10 -5 -6 -12 5 -7 2 -9 -9 -5 -8 3 -21 -1 -29 -10 -11 -14 -10 -16 12 -10 14
3 35 8 46 12 14 4 23 2 26 -7 4 -9 -4 -14 -24 -15 -42 -1 -51 -14 -37 -49 7
-16 12 -40 11 -54 -1 -35 27 -120 40 -120 6 0 8 3 5 6 -4 4 20 19 53 35 44 21
60 34 60 48 0 11 6 40 14 63 8 24 17 57 19 73 3 17 8 42 12 57 6 22 3 27 -17
34 -12 4 -29 8 -36 8 -7 1 -17 8 -22 16 -7 10 -10 11 -10 2z m-20 -122 c0 -5
-5 -10 -11 -10 -5 0 -7 5 -4 10 3 6 8 10 11 10 2 0 4 -4 4 -10z m-80 -14 c0
-3 -4 -8 -10 -11 -5 -3 -10 -1 -10 4 0 6 5 11 10 11 6 0 10 -2 10 -4z"/>
<path d="M1066 1194 c-10 -26 -7 -37 8 -31 8 3 17 1 20 -6 3 -9 7 -8 14 2 5 7
15 10 21 7 7 -5 11 1 11 15 0 17 -4 20 -22 16 -12 -4 -27 -2 -34 4 -8 6 -14 5
-18 -7z"/>
<path d="M1010 1163 c0 -18 2 -33 4 -33 9 0 13 39 5 51 -6 10 -9 4 -9 -18z"/>
<path d="M4355 1102 c-5 -4 -11 -33 -12 -64 -1 -44 2 -58 13 -58 11 0 14 16
14 65 0 36 -1 65 -2 65 -2 0 -7 -4 -13 -8z"/>
<path d="M727 1044 c-22 -42 -35 -164 -17 -164 9 0 11 -11 7 -37 -5 -26 -3
-33 3 -23 6 9 7 46 4 86 -5 55 -3 77 10 103 10 18 16 40 14 49 -3 13 -8 9 -21
-14z"/>
<path d="M835 1040 c3 -5 8 -10 11 -10 2 0 4 5 4 10 0 6 -5 10 -11 10 -5 0 -7
-4 -4 -10z"/>
<path d="M4191 988 c0 -28 2 -30 9 -13 12 28 12 45 0 45 -5 0 -10 -15 -9 -32z"/>
<path d="M4215 990 c-9 -41 1 -51 15 -15 7 18 7 32 1 38 -5 5 -12 -3 -16 -23z"/>
<path d="M788 968 c-16 -18 -28 -39 -27 -48 0 -10 4 -7 11 8 14 27 28 29 28 3
0 -11 5 -23 10 -26 6 -4 10 8 10 29 0 19 3 41 6 50 10 26 -9 18 -38 -16z"/>
<path d="M4161 984 c0 -11 3 -14 6 -6 3 7 2 16 -1 19 -3 4 -6 -2 -5 -13z"/>
<path d="M4130 980 c0 -5 5 -10 11 -10 5 0 7 5 4 10 -3 6 -8 10 -11 10 -2 0
-4 -4 -4 -10z"/>
<path d="M4100 961 c0 -7 -8 -11 -17 -9 -19 3 -43 -9 -43 -21 0 -10 69 -1 76
11 4 5 1 15 -5 21 -8 8 -11 8 -11 -2z"/>
<path d="M4344 945 c1 -33 26 -33 26 0 0 15 -6 25 -14 25 -9 0 -13 -10 -12
-25z"/>
<path d="M4070 890 c0 -5 7 -10 16 -10 8 0 12 5 9 10 -3 6 -10 10 -16 10 -5 0
-9 -4 -9 -10z"/>
<path d="M4190 885 c0 -9 -10 -15 -26 -15 -22 0 -25 -4 -22 -27 3 -27 5 -28
49 -25 31 2 51 -1 61 -11 13 -14 15 -12 14 13 -1 25 -3 27 -25 18 -33 -12 -43
2 -26 35 13 25 12 27 -6 27 -10 0 -19 -7 -19 -15z"/>
<path d="M4342 835 c-1 -39 2 -65 8 -65 9 0 14 30 13 85 -1 36 -3 45 -10 45
-5 0 -9 -29 -11 -65z"/>
<path d="M4272 876 c7 -8 17 -12 22 -9 4 3 2 9 -5 14 -22 13 -31 11 -17 -5z"/>
<path d="M4006 872 c-2 -4 -22 -9 -43 -10 -21 -2 -60 -13 -88 -26 -27 -13 -61
-28 -75 -34 -24 -10 -23 -11 12 -11 43 -1 57 -13 83 -70 14 -33 23 -41 37 -37
16 4 17 2 6 -12 -11 -13 -10 -15 9 -10 16 4 20 2 16 -10 -5 -11 -3 -13 7 -7 9
6 12 4 8 -6 -7 -17 18 -43 27 -29 3 6 11 10 17 10 7 0 6 -6 -2 -15 -10 -12
-10 -15 0 -15 7 0 19 -8 26 -17 12 -17 14 -17 28 2 15 19 15 19 9 -4 -4 -17
-3 -22 5 -17 7 4 15 0 18 -8 3 -9 10 -13 15 -10 5 3 6 10 3 16 -5 7 -2 8 7 2
21 -13 59 -16 59 -5 0 5 -5 45 -11 88 -7 43 -11 86 -11 97 1 10 -8 20 -19 23
-13 4 -18 11 -15 20 4 8 3 20 -1 26 -4 7 -8 18 -8 26 0 8 -10 15 -23 16 -18 1
-21 -2 -16 -19 6 -20 6 -20 -8 -2 -13 16 -16 17 -21 3 -7 -19 26 -29 44 -13 9
8 10 7 5 -8 -4 -11 3 -34 16 -57 17 -30 19 -42 10 -51 -9 -9 -12 -9 -12 1 0 7
-4 9 -10 6 -15 -9 -60 25 -60 46 0 11 -6 18 -12 17 -9 -2 -13 10 -12 38 0 31
-3 41 -13 37 -7 -3 -13 0 -13 5 0 6 8 12 18 14 12 2 13 6 5 11 -6 4 -14 4 -17
-1z m-96 -77 c0 -8 -7 -15 -15 -15 -26 0 -18 20 13 29 1 1 2 -6 2 -14z m110
-149 c0 -2 -8 -10 -17 -17 -16 -13 -17 -12 -4 4 13 16 21 21 21 13z"/>
<path d="M680 802 c0 -18 5 -32 10 -32 6 0 8 11 4 28 -10 39 -14 40 -14 4z"/>
<path d="M135 810 c-3 -5 -1 -10 4 -10 6 0 11 5 11 10 0 6 -2 10 -4 10 -3 0
-8 -4 -11 -10z"/>
<path d="M742 790 c0 -14 2 -19 5 -12 2 6 2 18 0 25 -3 6 -5 1 -5 -13z"/>
<path d="M3700 795 c-37 -14 -22 -19 29 -9 17 4 31 10 31 15 0 12 -18 10 -60
-6z"/>
<path d="M57 743 c-4 -3 -7 -18 -6 -32 1 -26 1 -25 10 3 9 31 7 41 -4 29z"/>
<path d="M4347 730 c-3 -11 -1 -23 4 -26 5 -3 9 6 9 20 0 31 -6 34 -13 6z"/>
<path d="M712 695 c0 -16 2 -22 5 -12 2 9 2 23 0 30 -3 6 -5 -1 -5 -18z"/>
<path d="M401 694 c0 -11 3 -14 6 -6 3 7 2 16 -1 19 -3 4 -6 -2 -5 -13z"/>
<path d="M1820 700 c0 -5 -7 -7 -15 -4 -8 4 -15 1 -15 -5 0 -7 25 -11 70 -11
45 0 70 4 70 11 0 6 -6 9 -14 6 -8 -3 -17 -1 -20 6 -5 9 -7 9 -12 0 -3 -8 -15
-9 -35 -3 -17 5 -29 5 -29 0z"/>
<path d="M4344 645 c4 -24 16 -30 16 -7 0 12 -4 22 -9 22 -5 0 -8 -7 -7 -15z"/>
<path d="M4345 520 c3 -5 8 -10 11 -10 2 0 4 5 4 10 0 6 -5 10 -11 10 -5 0 -7
-4 -4 -10z"/>
<path d="M74 357 c-3 -8 -4 -32 -2 -53 3 -36 6 -39 36 -42 30 -3 32 -1 32 27
0 24 -4 31 -19 31 -14 0 -18 -6 -15 -22 l5 -23 -12 22 c-16 31 -6 53 22 46 16
-4 20 -2 17 8 -6 20 -57 24 -64 6z"/>
<path d="M210 315 c0 -41 3 -55 13 -52 6 2 11 10 10 16 -4 17 8 13 23 -6 18
-26 27 -10 12 21 -9 22 -9 32 1 48 17 28 6 35 -20 12 -13 -12 -19 -14 -17 -5
2 7 -3 16 -9 18 -10 3 -13 -11 -13 -52z"/>
<path d="M339 358 c-1 -7 -3 -25 -4 -40 -7 -57 47 -78 61 -23 11 42 -3 75 -31
75 -14 0 -26 -6 -26 -12z m28 -60 c-2 -13 -4 -5 -4 17 -1 22 1 32 4 23 2 -10
2 -28 0 -40z"/>
<path d="M434 357 c-3 -8 -4 -32 -2 -53 3 -34 6 -39 28 -39 23 0 25 3 25 50 0
44 -3 50 -23 53 -13 2 -24 -3 -28 -11z m36 -37 c0 -16 -4 -30 -10 -30 -5 0
-10 14 -10 30 0 17 5 30 10 30 6 0 10 -13 10 -30z"/>
<path d="M540 355 c-9 -11 -10 -15 0 -15 7 0 10 -13 8 -37 -2 -29 1 -38 12
-38 8 0 15 8 14 18 0 9 -1 33 -2 52 -2 38 -12 44 -32 20z"/>
<path d="M627 363 c-12 -11 -8 -25 6 -20 9 3 13 -5 13 -28 0 -27 -3 -31 -19
-27 -14 3 -18 1 -15 -9 3 -8 18 -14 34 -14 27 0 29 3 30 40 0 22 -1 46 -4 53
-4 13 -34 17 -45 5z"/>
<path d="M717 363 c-13 -12 -7 -54 8 -59 8 -4 15 -10 15 -15 0 -4 -7 -6 -15
-3 -8 4 -15 1 -15 -5 0 -18 29 -25 45 -11 15 13 20 56 9 84 -6 16 -35 22 -47
9z m28 -22 c3 -5 1 -12 -5 -16 -5 -3 -10 1 -10 9 0 18 6 21 15 7z"/>
<path d="M821 356 c-8 -10 -9 -16 -1 -21 5 -3 10 -22 10 -41 0 -19 5 -34 10
-34 6 0 11 3 11 8 10 56 5 102 -10 102 -5 0 -14 -6 -20 -14z"/>
<path d="M904 357 c-3 -8 -4 -32 -2 -53 3 -34 6 -39 28 -39 20 0 26 6 28 28 3
22 -1 30 -17 34 -12 3 -21 10 -21 15 0 5 10 6 21 3 15 -5 20 -3 17 6 -6 20
-47 24 -54 6z m31 -56 c3 -5 1 -12 -5 -16 -5 -3 -10 1 -10 9 0 18 6 21 15 7z"/>
<path d="M1003 358 c-16 -22 -10 -90 9 -102 26 -16 42 7 39 56 -3 51 -27 74
-48 46z"/>
<path d="M1089 361 c-6 -46 -4 -54 13 -59 21 -5 25 -24 4 -20 -20 4 -22 -14
-3 -26 12 -8 21 -6 33 6 20 20 12 64 -14 71 -16 4 -16 5 1 6 27 2 20 29 -8 29
-14 0 -25 -3 -26 -7z"/>
<path d="M3435 327 c-11 -73 -5 -92 33 -95 51 -5 82 20 82 68 0 46 -26 70 -77
70 -30 0 -32 -3 -38 -43z m80 -7 c10 -33 -4 -60 -31 -60 -26 0 -27 2 -18 49 7
36 39 43 49 11z"/>
<path d="M3586 362 c-2 -4 -6 -34 -7 -67 l-3 -60 42 -3 c33 -2 42 0 42 12 0
11 -9 16 -26 16 -31 0 -28 23 4 28 30 5 28 22 -3 22 -16 0 -25 6 -25 15 0 9
10 15 26 15 37 0 25 24 -14 27 -17 2 -33 -1 -36 -5z"/>
<path d="M3690 350 c0 -5 9 -10 20 -10 26 0 25 -8 -5 -52 -14 -20 -25 -42 -25
-47 0 -6 22 -11 50 -11 28 0 50 5 50 10 0 6 -11 10 -25 10 -14 0 -25 5 -25 11
0 5 11 27 25 47 14 20 25 40 25 44 0 5 -20 8 -45 8 -25 0 -45 -4 -45 -10z"/>
<path d="M3852 293 c3 -69 19 -91 28 -39 4 23 7 26 16 15 6 -8 14 -22 17 -32
8 -21 34 -17 28 4 -2 8 -4 37 -5 64 l-1 50 -43 3 -43 3 3 -68z m53 29 c0 -18
-20 -15 -23 4 -3 10 1 15 10 12 7 -3 13 -10 13 -16z"/>
<path d="M3970 289 l0 -70 43 3 c45 3 54 21 12 26 -33 4 -33 32 1 32 31 0 28
23 -4 28 -30 5 -28 22 3 22 16 0 25 6 25 15 0 11 -11 15 -40 15 l-40 0 0 -71z"/>
<path d="M4102 333 c-16 -43 -32 -95 -32 -104 0 -15 30 -10 36 6 4 8 14 15 24
15 10 0 20 -7 24 -15 5 -15 36 -21 36 -7 0 4 -8 34 -18 67 -14 46 -23 61 -39
63 -14 2 -23 -5 -31 -25z m38 -38 c0 -8 -4 -15 -10 -15 -5 0 -10 7 -10 15 0 8
5 15 10 15 6 0 10 -7 10 -15z"/>
<path d="M4217 354 c-4 -4 -7 -36 -7 -71 0 -57 2 -63 20 -63 19 0 21 5 18 67
-3 61 -14 84 -31 67z"/>
<path d="M4286 344 c-9 -8 -16 -21 -16 -28 0 -16 32 -46 48 -46 7 0 12 -4 12
-10 0 -5 -13 -10 -30 -10 -37 0 -41 -25 -5 -34 59 -15 90 47 40 80 -30 20 -32
34 -5 34 11 0 20 7 20 15 0 20 -44 20 -64 -1z"/>
<path d="M1952 78 c-9 -4 44 -6 118 -6 138 1 130 5 -18 10 -46 2 -91 0 -100
-4z"/>
<path d="M3388 63 c17 -2 47 -2 65 0 17 2 3 4 -33 4 -36 0 -50 -2 -32 -4z"/>
<path d="M3973 53 c37 -2 96 -2 130 0 34 2 4 3 -68 3 -71 0 -99 -1 -62 -3z"/>
<path d="M4213 53 c20 -2 54 -2 75 0 20 2 3 4 -38 4 -41 0 -58 -2 -37 -4z"/>
</g>
</svg>
