<?xml version="1.0" standalone="no"?>
<!DOCTYPE svg PUBLIC "-//W3C//DTD SVG 20010904//EN"
 "http://www.w3.org/TR/2001/REC-SVG-20010904/DTD/svg10.dtd">
<svg version="1.0" xmlns="http://www.w3.org/2000/svg"
 width="447.000000pt" height="232.000000pt" viewBox="0 0 447.000000 232.000000"
 preserveAspectRatio="xMidYMid meet">

<g transform="translate(0.000000,232.000000) scale(0.100000,-0.100000)"
fill="#000000" stroke="none">
<path d="M261 2125 l2 -60 7 50 c4 28 3 54 -1 60 -5 5 -8 -16 -8 -50z"/>
<path d="M483 2162 c11 -12 17 -31 15 -49 -2 -22 -8 -28 -28 -28 -20 0 -26 6
-28 28 -2 16 3 35 10 44 11 14 11 15 -2 11 -22 -7 -20 -78 3 -92 26 -17 51 4
55 47 3 29 -1 38 -20 48 -23 12 -23 12 -5 -9z"/>
<path d="M572 2168 c-34 -43 -19 -99 26 -97 23 2 24 2 4 6 -45 9 -51 71 -9 91
16 8 18 11 6 11 -9 1 -21 -5 -27 -11z"/>
<path d="M653 2173 c-8 -3 -13 -24 -13 -54 0 -47 1 -49 28 -48 23 2 24 2 5 6
-27 5 -32 43 -6 43 15 0 14 2 -3 15 -19 15 -19 15 0 30 19 15 14 19 -11 8z"/>
<path d="M808 2167 c6 -7 12 -30 15 -52 l4 -40 1 42 c1 28 8 45 20 52 14 9 11
10 -17 11 -26 0 -31 -3 -23 -13z"/>
<path d="M1137 2173 c-4 -3 -7 -28 -7 -55 0 -44 2 -48 24 -48 50 0 75 60 38
93 -19 18 -44 22 -55 10z m44 -13 c36 -20 18 -80 -23 -80 -14 0 -18 8 -18 38
0 52 7 59 41 42z"/>
<path d="M1242 2168 c-6 -6 -12 -17 -12 -22 0 -6 5 -3 11 7 24 41 71 -4 50
-49 -14 -32 -37 -30 -55 4 -17 31 -20 25 -6 -12 14 -37 57 -36 71 2 19 47 -27
102 -59 70z"/>
<path d="M1434 2169 c-4 -7 2 -9 17 -7 16 2 25 -3 27 -14 4 -21 -33 -26 -41
-5 -3 6 -5 -8 -5 -33 0 -31 2 -38 6 -22 8 28 23 28 38 0 10 -19 11 -15 10 23
-1 24 -5 50 -9 57 -10 15 -33 16 -43 1z"/>
<path d="M1613 2173 c-20 -7 -15 -41 7 -53 26 -14 25 -29 -2 -40 -23 -9 -23
-9 -2 -9 32 -1 40 30 13 52 -19 16 -21 21 -11 38 7 10 11 19 10 18 -2 0 -9 -3
-15 -6z"/>
<path d="M4201 2163 c7 -12 15 -20 18 -17 3 2 -3 12 -13 22 -17 16 -18 16 -5
-5z"/>
<path d="M136 2157 c3 -10 9 -15 12 -12 3 3 0 11 -7 18 -10 9 -11 8 -5 -6z"/>
<path d="M182 2124 c-16 -59 -10 -69 7 -12 11 35 15 39 23 25 5 -9 6 -22 3
-27 -3 -6 -2 -10 4 -10 5 0 11 -6 14 -12 2 -7 2 1 -1 17 -5 35 -19 65 -30 65
-4 0 -13 -21 -20 -46z"/>
<path d="M320 2133 l-1 -38 -15 28 c-21 38 -30 27 -10 -11 26 -50 36 -48 36 7
0 28 -2 51 -5 51 -3 0 -5 -17 -5 -37z"/>
<path d="M356 2154 c-17 -45 1 -84 39 -84 18 0 17 2 -5 13 -28 14 -38 51 -20
73 8 8 8 14 2 14 -5 0 -13 -7 -16 -16z"/>
<path d="M710 2160 c0 -5 4 -10 9 -10 5 0 12 -8 15 -17 4 -10 15 -29 25 -42
l18 -24 0 49 c0 27 -2 37 -4 22 -6 -36 -15 -35 -31 2 -13 29 -32 41 -32 20z"/>
<path d="M916 2157 c3 -10 9 -15 12 -12 3 3 0 11 -7 18 -10 9 -11 8 -5 -6z"/>
<path d="M970 2164 c0 -3 7 -12 15 -20 16 -17 18 -14 9 10 -6 15 -24 23 -24
10z"/>
<path d="M1042 2123 c-2 -52 -1 -53 26 -52 22 1 23 2 5 6 -18 4 -23 12 -26 51
l-3 47 -2 -52z"/>
<path d="M1395 2160 c4 -6 1 -17 -5 -25 -9 -11 -9 -15 -1 -15 6 0 11 -9 11
-20 0 -34 -28 -23 -33 13 -4 31 -4 31 -5 -6 -2 -34 0 -38 21 -35 19 3 22 9 23
51 1 26 -2 47 -8 47 -5 0 -6 -5 -3 -10z"/>
<path d="M1520 2125 c-7 -25 -10 -48 -7 -51 3 -3 9 10 12 30 4 20 12 39 18 43
6 4 8 -3 6 -18 -3 -15 2 -31 13 -41 10 -10 18 -17 18 -15 0 15 -34 97 -40 97
-4 0 -13 -20 -20 -45z"/>
<path d="M1673 2120 c0 -30 2 -43 4 -27 2 15 2 39 0 55 -2 15 -4 2 -4 -28z"/>
<path d="M1702 2123 c-2 -52 -1 -53 26 -52 22 1 23 2 5 6 -18 4 -23 12 -26 51
l-3 47 -2 -52z"/>
<path d="M3328 2159 c-13 -7 -18 -23 -18 -53 0 -74 53 -91 66 -21 6 35 -7 85
-23 85 -5 0 -16 -5 -25 -11z m27 -55 c0 -29 -4 -40 -17 -42 -15 -3 -18 4 -18
36 0 21 3 42 7 46 15 15 28 -3 28 -40z"/>
<path d="M3416 2154 c-9 -8 -16 -20 -16 -25 0 -20 21 -49 36 -49 11 0 12 -4 4
-19 -16 -31 -11 -38 10 -12 22 26 27 90 8 109 -16 16 -23 15 -42 -4z m42 -32
c2 -14 -2 -22 -12 -22 -19 0 -29 17 -22 36 8 22 30 12 34 -14z"/>
<path d="M3532 2115 l-33 -50 27 -5 c15 -3 30 -14 34 -25 6 -18 7 -17 11 5 2
14 2 48 -1 75 l-5 50 -33 -50z m18 -31 c-18 -21 -24 -10 -9 18 8 14 14 18 17
10 2 -7 -2 -19 -8 -28z"/>
<path d="M3635 2140 c-9 -10 -20 -39 -22 -64 -5 -41 -3 -46 21 -57 23 -11 28
-10 41 7 8 10 15 26 15 35 0 19 -34 52 -43 42 -4 -3 -7 0 -7 8 0 8 5 20 12 27
6 6 9 14 6 17 -2 3 -13 -4 -23 -15z m30 -81 c0 -15 -7 -25 -17 -27 -13 -3 -18
3 -18 21 0 13 3 27 7 31 13 12 28 -1 28 -25z"/>
<path d="M3740 2128 c-26 -43 -26 -90 1 -114 28 -25 53 -8 57 39 3 32 0 37
-22 43 -31 7 -31 8 -10 39 10 16 12 25 5 25 -6 0 -20 -15 -31 -32z m43 -60 c5
-16 -10 -48 -23 -48 -12 0 -23 37 -15 50 9 14 32 13 38 -2z"/>
<path d="M3847 2154 c-14 -14 -7 -25 13 -19 34 11 37 -23 7 -77 -15 -26 -27
-53 -27 -58 0 -6 18 -10 40 -10 30 0 40 4 40 16 0 8 -5 12 -10 9 -6 -4 -18 -4
-26 -1 -12 5 -11 12 6 47 28 54 24 93 -10 97 -14 2 -29 0 -33 -4z"/>
<path d="M102 2107 c-2 -34 0 -38 21 -35 16 2 22 10 22 27 0 13 -6 25 -13 27
-7 1 -8 0 -2 -3 15 -7 12 -43 -4 -43 -9 0 -16 13 -19 33 -4 31 -4 31 -5 -6z"/>
<path d="M960 2128 c0 -9 -2 -22 -3 -30 -2 -7 -2 -10 0 -5 8 13 35 7 50 -10
14 -17 14 -17 9 0 -3 10 -6 23 -6 29 0 6 -7 8 -15 4 -8 -3 -19 2 -24 12 -10
16 -10 16 -11 0z"/>
<path d="M4110 2130 c-9 -6 -10 -10 -3 -10 6 0 15 5 18 10 8 12 4 12 -15 0z"/>
<path d="M4221 2118 c-4 -11 -5 -33 -3 -47 6 -29 9 -23 14 32 4 42 1 47 -11
15z"/>
<path d="M4285 2129 c-4 -6 -5 -12 -2 -15 2 -3 7 2 10 11 7 17 1 20 -8 4z"/>
<path d="M711 2114 c0 -11 3 -14 6 -6 3 7 2 16 -1 19 -3 4 -6 -2 -5 -13z"/>
<path d="M874 2116 c-3 -8 -4 -23 -1 -33 4 -14 5 -13 6 5 1 26 25 29 41 5 11
-17 11 -17 6 0 -3 10 -6 23 -6 28 0 15 -40 10 -46 -5z"/>
<path d="M3220 2111 c0 -25 6 -27 13 -6 4 8 2 17 -3 20 -6 4 -10 -3 -10 -14z"/>
<path d="M4161 2114 c0 -11 3 -14 6 -6 3 7 2 16 -1 19 -3 4 -6 -2 -5 -13z"/>
<path d="M3081 2105 c0 -12 -5 -26 -11 -33 -5 -7 -3 -6 6 2 9 7 14 22 11 32
-4 17 -5 17 -6 -1z"/>
<path d="M3258 2090 c3 -22 0 -30 -11 -30 -8 0 -18 5 -20 10 -3 6 -4 5 -3 -2
2 -7 11 -13 22 -13 21 0 33 40 17 56 -6 6 -8 -2 -5 -21z"/>
<path d="M4372 2080 c0 -19 2 -27 5 -17 2 9 2 25 0 35 -3 9 -5 1 -5 -18z"/>
<path d="M3041 2084 c0 -11 3 -14 6 -6 3 7 2 16 -1 19 -3 4 -6 -2 -5 -13z"/>
<path d="M3140 2080 c-6 -11 -7 -20 -2 -20 6 0 12 9 15 20 3 11 3 20 1 20 -2
0 -8 -9 -14 -20z"/>
<path d="M4177 2043 c-4 -3 -7 -11 -7 -17 0 -6 5 -5 12 2 6 6 9 14 7 17 -3 3
-9 2 -12 -2z"/>
<path d="M1040 2040 c-4 -18 -8 -131 -4 -115 3 11 10 31 15 46 6 16 6 34 0 50
-5 13 -10 22 -11 19z"/>
<path d="M1105 2030 c-3 -5 -1 -10 4 -10 6 0 11 5 11 10 0 6 -2 10 -4 10 -3 0
-8 -4 -11 -10z"/>
<path d="M1561 2024 c0 -11 3 -14 6 -6 3 7 2 16 -1 19 -3 4 -6 -2 -5 -13z"/>
<path d="M4226 2013 c-6 -14 -5 -15 5 -6 7 7 10 15 7 18 -3 3 -9 -2 -12 -12z"/>
<path d="M1088 1993 c7 -3 16 -2 19 1 4 3 -2 6 -13 5 -11 0 -14 -3 -6 -6z"/>
<path d="M1135 1990 c-3 -5 -1 -10 4 -10 6 0 11 5 11 10 0 6 -2 10 -4 10 -3 0
-8 -4 -11 -10z"/>
<path d="M1160 1988 c0 -4 7 -8 15 -8 8 0 15 4 15 8 0 5 -7 9 -15 9 -8 0 -15
-4 -15 -9z"/>
<path d="M1201 1984 c0 -11 3 -14 6 -6 3 7 2 16 -1 19 -3 4 -6 -2 -5 -13z"/>
<path d="M4257 1979 c12 -12 25 -20 28 -17 3 3 -7 13 -22 23 l-28 17 22 -23z"/>
<path d="M1000 1955 c0 -46 15 -46 16 0 0 19 -3 35 -8 35 -4 0 -8 -16 -8 -35z"/>
<path d="M1500 1964 c0 -14 4 -23 9 -20 5 3 7 15 4 26 -7 28 -13 25 -13 -6z"/>
<path d="M190 1960 c0 -6 12 -8 27 -5 16 2 30 -1 35 -8 5 -7 8 -8 8 -1 0 6 14
9 33 7 24 -3 29 -2 17 6 -19 14 -120 14 -120 1z"/>
<path d="M533 1945 c-31 -25 -72 -109 -59 -122 3 -3 6 1 6 10 0 10 7 17 16 17
13 0 14 3 5 14 -9 11 -6 20 13 42 21 24 25 26 26 11 0 -10 -4 -15 -10 -12 -5
3 -10 -1 -10 -10 0 -9 4 -14 9 -11 11 7 24 -56 15 -78 -3 -9 -1 -16 5 -16 6 0
11 7 11 15 0 46 51 98 74 75 16 -16 25 -12 19 9 -3 11 -11 22 -18 25 -8 3 -19
14 -25 26 -11 20 -10 21 9 10 16 -8 21 -8 21 0 0 7 6 10 13 7 6 -2 11 -11 9
-21 -2 -9 2 -16 8 -16 6 0 10 10 8 23 -3 19 -10 22 -58 25 -46 2 -60 -2 -87
-23z m73 -20 l26 -24 -28 2 c-27 2 -47 23 -37 40 6 11 10 9 39 -18z"/>
<path d="M150 1953 c-36 -13 -49 -34 -39 -61 5 -15 12 -33 15 -41 4 -11 7 -11
22 2 9 8 30 19 45 23 21 5 25 9 16 15 -8 5 -17 3 -21 -4 -6 -9 -8 -9 -8 1 0 6
-4 12 -10 12 -5 0 -10 -7 -10 -15 0 -8 -8 -15 -17 -14 -11 0 -13 3 -5 6 6 2
12 9 12 15 0 6 -6 8 -14 5 -17 -7 -30 19 -14 29 5 4 14 0 19 -7 7 -11 9 -10 9
4 0 9 7 17 15 17 8 0 15 5 15 10 0 11 -7 11 -30 3z"/>
<path d="M342 1934 c10 -10 20 -16 22 -13 3 3 -5 11 -17 18 -21 13 -21 12 -5
-5z"/>
<path d="M697 1939 c7 -7 15 -10 18 -7 3 3 -2 9 -12 12 -14 6 -15 5 -6 -5z"/>
<path d="M1570 1940 c0 -5 5 -10 11 -10 5 0 7 5 4 10 -3 6 -8 10 -11 10 -2 0
-4 -4 -4 -10z"/>
<path d="M190 1930 c0 -6 7 -10 15 -10 8 0 15 2 15 4 0 2 -7 6 -15 10 -8 3
-15 1 -15 -4z"/>
<path d="M310 1930 c0 -5 5 -10 11 -10 5 0 7 5 4 10 -3 6 -8 10 -11 10 -2 0
-4 -4 -4 -10z"/>
<path d="M730 1900 c6 -11 13 -20 16 -20 2 0 0 9 -6 20 -6 11 -13 20 -16 20
-2 0 0 -9 6 -20z"/>
<path d="M250 1902 c0 -7 -6 -10 -12 -7 -7 4 -4 -1 6 -9 11 -9 28 -14 38 -10
11 3 20 -1 24 -10 9 -23 19 -19 20 8 1 18 -3 24 -22 24 -13 0 -24 -5 -24 -11
0 -6 -7 -2 -15 9 -9 12 -14 14 -15 6z"/>
<path d="M370 1901 c0 -5 5 -13 10 -16 6 -3 10 -2 10 4 0 5 -4 13 -10 16 -5 3
-10 2 -10 -4z"/>
<path d="M678 1903 c-10 -2 -18 -9 -18 -14 0 -13 43 -5 48 9 4 12 0 13 -30 5z"/>
<path d="M996 1903 c-11 -11 -6 -24 5 -17 6 3 15 0 20 -7 7 -11 9 -11 9 2 0
17 -24 32 -34 22z"/>
<path d="M340 1890 c0 -5 5 -10 10 -10 6 0 10 5 10 10 0 6 -4 10 -10 10 -5 0
-10 -4 -10 -10z"/>
<path d="M1522 1880 c0 -14 2 -19 5 -12 2 6 2 18 0 25 -3 6 -5 1 -5 -13z"/>
<path d="M1050 1880 c0 -5 5 -10 10 -10 6 0 10 5 10 10 0 6 -4 10 -10 10 -5 0
-10 -4 -10 -10z"/>
<path d="M3366 1872 c-15 -18 -15 -20 4 -37 19 -17 21 -17 40 0 19 17 19 19 4
37 -10 10 -20 18 -24 18 -4 0 -14 -8 -24 -18z"/>
<path d="M2071 1876 c2 -2 15 -9 29 -16 23 -12 24 -12 11 3 -7 10 -20 17 -29
17 -8 0 -13 -2 -11 -4z"/>
<path d="M370 1860 c0 -5 5 -10 10 -10 6 0 10 -3 10 -8 0 -13 -76 -8 -96 8
-15 11 -16 11 -6 0 36 -40 -2 -120 -114 -238 -73 -79 -84 -95 -84 -126 l0 -36
160 0 160 0 0 50 0 49 -82 3 -83 3 53 55 c69 72 102 139 101 208 -1 38 -5 52
-15 52 -8 0 -14 -4 -14 -10z m-10 -60 c0 -5 -2 -10 -4 -10 -3 0 -8 5 -11 10
-3 6 -1 10 4 10 6 0 11 -4 11 -10z"/>
<path d="M660 1855 c0 -9 6 -18 14 -21 8 -3 12 -12 9 -21 -5 -13 -3 -14 17 -3
12 6 33 10 46 7 16 -3 24 0 24 9 0 10 -13 14 -40 14 -27 0 -43 5 -46 15 -8 20
-24 19 -24 0z"/>
<path d="M3224 1833 c4 -26 36 -29 36 -4 0 14 -6 21 -19 21 -13 0 -18 -6 -17
-17z"/>
<path d="M520 1824 c0 -8 5 -12 10 -9 6 3 10 10 10 16 0 5 -4 9 -10 9 -5 0
-10 -7 -10 -16z"/>
<path d="M1032 1821 c-16 -10 -26 -81 -12 -81 9 0 15 30 11 54 -1 4 4 14 10
22 13 16 10 18 -9 5z"/>
<path d="M455 1766 c-9 -59 -1 -146 20 -206 64 -183 273 -140 301 61 6 47 -9
95 -27 84 -5 -4 -9 -2 -9 4 0 5 -3 16 -6 25 -4 11 -1 16 10 16 9 0 16 4 16 8
0 12 -34 11 -42 -1 -4 -6 -3 -18 2 -27 6 -12 4 -16 -11 -17 -20 -2 -27 25 -10
43 6 5 4 14 -5 22 -12 11 -14 3 -14 -55 -1 -135 -24 -192 -73 -179 -33 8 -48
54 -53 155 -3 69 -5 76 -24 75 -11 -1 -20 5 -20 12 0 8 -6 14 -14 14 -10 0
-12 -7 -9 -22 4 -16 2 -20 -5 -13 -5 6 -12 19 -14 30 -3 12 -8 0 -13 -29z
m315 -96 c0 -5 -4 -10 -10 -10 -5 0 -10 5 -10 10 0 6 5 10 10 10 6 0 10 -4 10
-10z"/>
<path d="M717 1793 c-12 -12 -7 -22 8 -17 8 4 15 10 15 15 0 11 -14 12 -23 2z"/>
<path d="M1686 1771 c-19 -7 -19 -8 2 -13 12 -4 22 -2 22 4 0 5 5 6 10 3 6 -3
10 -1 10 4 0 12 -16 13 -44 2z"/>
<path d="M3226 1744 c-6 -15 17 -64 29 -64 3 0 5 18 5 40 0 42 -22 57 -34 24z"/>
<path d="M3657 1744 c-8 -8 1 -24 14 -24 5 0 9 7 9 15 0 15 -12 20 -23 9z"/>
<path d="M1650 1729 c0 -5 5 -7 10 -4 6 3 10 8 10 11 0 2 -4 4 -10 4 -5 0 -10
-5 -10 -11z"/>
<path d="M2210 1720 c0 -5 5 -10 10 -10 6 0 10 5 10 10 0 6 -4 10 -10 10 -5 0
-10 -4 -10 -10z"/>
<path d="M1005 1680 c-4 -23 -5 -43 -2 -46 2 -3 7 14 11 37 4 23 5 44 2 46 -2
2 -7 -14 -11 -37z"/>
<path d="M3388 1643 c-2 -23 -9 -29 -37 -33 -33 -5 -33 -5 -13 -23 27 -25 125
-21 130 6 2 12 -3 17 -17 17 -12 0 -22 6 -22 13 -1 6 -2 19 -3 27 0 8 -9 16
-18 18 -12 2 -17 -5 -20 -25z"/>
<path d="M2258 1635 c-3 -14 -1 -28 3 -31 5 -3 9 9 9 25 0 38 -6 40 -12 6z"/>
<path d="M2188 1618 c5 -22 4 -22 -15 -5 -22 19 -83 23 -83 6 0 -7 12 -10 30
-7 17 3 35 -1 40 -7 7 -9 -8 -11 -58 -11 -54 1 -68 4 -74 19 -4 9 -14 17 -22
17 -19 0 -26 -33 -9 -48 7 -7 13 -21 13 -32 0 -10 14 -30 30 -43 17 -14 30
-35 30 -46 0 -16 6 -21 26 -21 14 0 23 -4 20 -9 -4 -5 -2 -20 3 -33 10 -23 10
-22 10 5 1 20 5 26 14 20 24 -15 37 -11 37 13 0 13 5 24 10 24 6 0 10 -5 10
-11 0 -5 5 -7 10 -4 6 4 8 10 5 15 -3 4 -1 10 5 12 6 2 12 12 14 23 2 11 7 27
11 36 3 10 2 20 -4 24 -7 4 -11 -4 -11 -19 0 -18 -4 -24 -15 -20 -9 4 -14 17
-13 33 3 49 -2 91 -11 91 -5 0 -7 -10 -3 -22z"/>
<path d="M1870 1542 c0 -7 -3 -11 -7 -10 -17 3 -43 -15 -43 -30 0 -13 4 -11
16 6 8 12 19 20 24 17 10 -6 25 14 16 22 -3 4 -6 1 -6 -5z"/>
<path d="M1866 1474 c-4 -9 -4 -19 -1 -22 2 -3 7 3 11 12 4 9 4 19 1 22 -2 3
-7 -3 -11 -12z"/>
<path d="M3978 1453 c-7 -15 -17 -31 -22 -34 -5 -4 -5 -12 -1 -19 5 -8 13 -6
29 8 11 11 26 21 33 23 8 3 5 12 -8 27 l-19 24 -12 -29z"/>
<path d="M1705 1452 c-3 -7 -3 -17 0 -21 2 -4 0 -21 -5 -37 -4 -16 -9 -21 -9
-11 -1 9 -8 17 -16 17 -13 0 -14 4 -5 21 7 11 9 23 6 27 -3 3 -6 -1 -6 -9 0
-12 -2 -12 -9 0 -13 20 -43 5 -68 -34 -17 -28 -20 -40 -12 -58 l10 -22 -5 22
c-4 25 8 40 19 23 9 -14 25 -2 25 18 0 15 -2 15 -11 2 -8 -12 -10 -12 -7 5 2
11 12 21 22 23 15 3 18 0 13 -17 -3 -12 -1 -21 4 -21 4 0 6 -7 3 -15 -4 -8
-10 -12 -15 -9 -5 3 -9 -9 -9 -25 0 -27 -4 -31 -26 -31 -17 0 -23 -4 -18 -12
5 -8 2 -9 -9 -5 -9 3 -19 1 -23 -5 -4 -6 -3 -8 3 -5 7 4 10 -2 9 -16 -1 -19
-6 -22 -41 -21 -42 0 -89 -22 -79 -37 3 -5 18 0 34 11 l29 20 -6 -27 c-9 -48
-8 -58 4 -56 12 3 10 -27 -3 -50 -5 -8 -2 -8 9 2 9 7 17 22 17 33 0 11 4 16
11 12 6 -4 8 -20 5 -39 -5 -23 -2 -34 7 -38 9 -3 19 13 31 54 9 32 22 58 28
56 7 -1 13 15 15 36 2 23 0 36 -6 33 -14 -9 -22 9 -14 30 6 16 7 16 20 -2 12
-16 13 -15 13 17 1 30 2 32 14 17 7 -10 21 -18 30 -18 12 0 15 -6 11 -27 l-5
-28 14 30 c15 30 15 30 16 5 1 -23 2 -23 10 -5 7 17 9 17 9 3 1 -10 6 -18 11
-18 6 0 10 -15 10 -32 0 -39 13 -63 29 -54 6 4 11 1 11 -8 0 -9 6 -13 14 -10
8 3 12 14 9 27 -4 18 -3 19 6 7 14 -19 14 0 1 35 -7 17 -7 32 0 43 7 13 10 10
10 -18 l1 -35 19 40 c11 22 17 29 13 15 -3 -14 -7 -34 -9 -45 -1 -11 -5 -40
-8 -65 l-6 -45 20 43 c11 24 17 48 14 53 -12 21 22 2 37 -19 9 -13 19 -19 23
-14 3 5 0 12 -8 15 -7 3 -16 17 -18 31 -3 14 -1 23 3 20 5 -3 9 6 9 20 0 13 6
31 13 38 8 7 16 37 20 67 5 44 4 51 -8 41 -7 -6 -13 -19 -13 -28 1 -17 -18
-72 -25 -72 -6 0 11 98 19 112 4 7 3 8 -4 4 -7 -4 -12 -13 -12 -20 0 -8 -7
-19 -15 -26 -12 -10 -15 -9 -16 6 0 15 -2 14 -10 -6 -8 -18 -12 -21 -18 -11
-7 11 -9 11 -14 0 -2 -8 -4 -2 -3 13 0 16 4 28 8 28 4 0 6 9 5 20 -1 11 -3 20
-5 20 -8 0 -47 -55 -44 -62 1 -5 -3 -8 -8 -8 -7 0 -7 -6 0 -19 13 -25 14 -53
1 -33 -6 10 -12 4 -21 -19 -12 -28 -15 -30 -21 -13 -12 29 -10 54 2 52 7 -2
14 13 16 32 3 19 9 37 14 38 5 2 9 8 9 13 0 6 -4 7 -10 4 -5 -3 -10 0 -10 8 0
22 -28 28 -40 9 -10 -15 -11 -15 -7 4 5 24 -19 29 -28 6z m46 -35 c-10 -9 -11
-8 -5 6 3 10 9 15 12 12 3 -3 0 -11 -7 -18z m-15 -37 c1 -17 -2 -27 -7 -24 -5
3 -9 19 -9 36 0 39 13 28 16 -12z m128 -66 c3 -8 2 -12 -4 -9 -6 3 -10 1 -10
-6 0 -7 -2 -10 -5 -7 -5 5 4 38 10 38 2 0 6 -7 9 -16z m36 -25 c0 -6 -4 -7
-10 -4 -5 3 -10 11 -10 16 0 6 5 7 10 4 6 -3 10 -11 10 -16z m-92 -84 c-8 -7
-9 -6 -4 2 4 7 2 21 -3 31 -6 11 -7 22 -3 26 3 4 10 -5 14 -21 5 -17 3 -31 -4
-38z m-211 4 c-3 -23 -11 -45 -18 -49 -6 -4 -8 -13 -5 -19 4 -6 2 -11 -3 -11
-16 0 -13 66 3 80 8 6 12 18 9 26 -3 8 0 14 7 14 9 0 11 -12 7 -41z m-57 -1
c0 -16 -3 -19 -11 -11 -6 6 -8 16 -5 22 11 17 16 13 16 -11z"/>
<path d="M2061 1404 c-13 -13 -20 -24 -15 -24 13 0 16 -43 4 -50 -6 -4 -6 -18
-1 -35 5 -17 10 -22 10 -12 1 9 6 17 11 17 6 0 8 20 5 50 -3 35 -1 49 7 47 7
-1 14 6 16 16 5 23 -8 20 -37 -9z"/>
<path d="M1980 1360 c0 -5 5 -10 10 -10 6 0 10 5 10 10 0 6 -4 10 -10 10 -5 0
-10 -4 -10 -10z"/>
<path d="M2161 1344 c0 -11 3 -14 6 -6 3 7 2 16 -1 19 -3 4 -6 -2 -5 -13z"/>
<path d="M2127 1335 c-4 -8 -2 -17 3 -20 6 -4 10 3 10 14 0 25 -6 27 -13 6z"/>
<path d="M1055 1329 c-10 -15 3 -25 16 -12 7 7 7 13 1 17 -6 3 -14 1 -17 -5z"/>
<path d="M1972 1320 c0 -14 2 -19 5 -12 2 6 2 18 0 25 -3 6 -5 1 -5 -13z"/>
<path d="M1075 1300 c-3 -5 -1 -10 4 -10 6 0 11 5 11 10 0 6 -2 10 -4 10 -3 0
-8 -4 -11 -10z"/>
<path d="M1996 1294 c-4 -9 -4 -19 -1 -22 2 -3 7 3 11 12 4 9 4 19 1 22 -2 3
-7 -3 -11 -12z"/>
<path d="M1130 1266 c7 -7 13 -7 20 0 6 6 3 10 -10 10 -13 0 -16 -4 -10 -10z"/>
<path d="M1961 1264 c0 -11 3 -14 6 -6 3 7 2 16 -1 19 -3 4 -6 -2 -5 -13z"/>
<path d="M2090 1245 c0 -19 5 -35 11 -35 6 0 8 7 5 16 -4 9 -2 22 4 29 8 9 6
14 -5 19 -12 4 -15 -2 -15 -29z"/>
<path d="M1090 1251 c0 -7 -4 -9 -10 -6 -6 4 -7 -1 -3 -11 6 -15 7 -15 15 1 6
9 7 19 4 22 -3 4 -6 1 -6 -6z"/>
<path d="M2040 1249 c0 -5 -4 -8 -9 -4 -5 3 -12 1 -16 -5 -3 -5 3 -10 14 -10
12 0 21 7 21 15 0 8 -2 15 -5 15 -3 0 -5 -5 -5 -11z"/>
<path d="M1655 1223 c-3 -15 -10 -44 -15 -64 -15 -54 -12 -58 11 -15 11 21 18
40 15 43 -2 3 -1 16 4 29 6 14 6 26 0 29 -5 3 -12 -7 -15 -22z"/>
<path d="M1680 1204 c0 -8 5 -12 10 -9 6 4 8 11 5 16 -9 14 -15 11 -15 -7z"/>
<path d="M1736 1203 c-6 -14 -5 -15 5 -6 7 7 10 15 7 18 -3 3 -9 -2 -12 -12z"/>
<path d="M1475 1196 c-11 -8 -25 -12 -31 -9 -15 6 -45 -37 -36 -51 3 -6 7 -17
8 -24 2 -8 6 -17 10 -20 4 -4 4 1 1 10 -3 9 1 22 9 28 8 7 14 19 14 27 0 13
-3 13 -15 3 -9 -8 -15 -9 -15 -2 0 21 22 24 42 5 21 -18 21 -18 15 1 -5 12 -1
23 10 32 24 18 12 18 -12 0z"/>
<path d="M3634 1199 c-11 -18 13 -34 31 -19 10 8 15 9 15 2 0 -6 6 -10 13 -8
47 14 50 17 39 28 -8 8 -15 8 -24 0 -9 -7 -19 -7 -28 -2 -20 13 -37 12 -46 -1z"/>
<path d="M3758 1180 c-3 -17 -1 -33 3 -35 11 -7 21 47 11 57 -6 6 -11 -2 -14
-22z"/>
<path d="M3589 1179 c-20 -8 -25 -15 -23 -39 1 -17 7 -37 14 -45 6 -8 9 -22 6
-33 -3 -10 1 -27 9 -38 20 -27 19 -32 -10 -26 -28 5 -35 -17 -11 -38 8 -6 12
-18 9 -26 -3 -10 0 -12 10 -8 8 3 18 1 22 -5 14 -24 88 -1 79 24 -3 8 -10 15
-15 15 -6 0 -19 8 -30 19 -20 18 -20 18 6 35 14 9 25 12 25 7 0 -5 -6 -11 -12
-14 -16 -5 -10 -12 19 -21 20 -6 21 -4 18 36 -2 24 -5 57 -5 73 l-2 30 -10
-27 c-9 -26 -28 -39 -28 -19 0 16 -32 22 -48 9 -14 -11 -15 -10 -7 7 9 21 20
96 14 94 -2 0 -16 -5 -30 -10z"/>
<path d="M1701 1164 c0 -11 3 -14 6 -6 3 7 2 16 -1 19 -3 4 -6 -2 -5 -13z"/>
<path d="M1967 1133 c-10 -10 -8 -23 4 -23 5 0 8 4 5 9 -4 5 0 12 6 14 7 3 8
6 2 6 -6 1 -14 -2 -17 -6z"/>
<path d="M1938 1124 c-5 -4 -8 -23 -8 -43 0 -25 3 -32 11 -24 6 6 9 25 7 43
-2 17 -6 28 -10 24z"/>
<path d="M1868 1087 c-3 -19 -2 -25 4 -19 6 6 8 18 6 28 -3 14 -5 12 -10 -9z"/>
<path d="M1838 1077 c-3 -19 -2 -25 4 -19 6 6 8 18 6 28 -3 14 -5 12 -10 -9z"/>
<path d="M1435 1071 c-3 -5 -1 -12 5 -16 5 -3 10 1 10 9 0 18 -6 21 -15 7z"/>
<path d="M1057 1033 c-6 -11 -20 -65 -22 -88 -1 -11 4 -29 11 -40 13 -18 19
-14 15 8 -2 13 22 3 26 -10 2 -6 -5 -14 -16 -18 -22 -7 -28 -29 -12 -39 13 -8
2 -42 -20 -62 -10 -9 -19 -23 -19 -31 0 -16 -17 -17 -23 0 -5 12 -11 -17 -8
-40 1 -7 -3 -13 -9 -13 -5 0 -10 -4 -10 -8 0 -13 60 -10 61 2 1 6 1 22 0 36
-1 21 0 22 9 8 10 -17 50 -14 50 4 0 5 -5 6 -11 2 -7 -4 -10 -1 -7 6 2 7 14
15 27 17 16 2 20 -1 15 -9 -6 -10 -4 -10 8 0 13 10 17 10 21 0 4 -10 6 -10 6
0 1 6 2 15 2 20 3 12 40 35 46 28 4 -3 0 -7 -8 -7 -8 -1 4 -5 26 -9 38 -7 64
-2 38 7 -7 2 -9 11 -6 20 4 11 2 14 -5 9 -7 -4 -12 -2 -12 6 0 9 -3 9 -10 -2
-10 -16 -11 -16 -14 30 -1 8 -9 14 -18 14 -11 -1 -15 4 -11 15 5 13 3 14 -8 4
-21 -20 -31 -15 -18 9 9 17 9 24 -5 33 -9 7 -16 18 -16 25 0 7 -7 10 -15 6
-14 -5 -21 21 -16 62 2 13 -35 17 -42 5z m53 -113 c0 -5 -2 -10 -4 -10 -3 0
-8 5 -11 10 -3 6 -1 10 4 10 6 0 11 -4 11 -10z m-53 -162 c-3 -8 -6 -5 -6 6
-1 11 2 17 5 13 3 -3 4 -12 1 -19z"/>
<path d="M970 992 c0 -7 -6 -12 -14 -12 -20 0 -27 -13 -16 -29 6 -10 12 -7 25
13 10 15 15 29 11 33 -3 3 -6 1 -6 -5z"/>
<path d="M3785 989 c-4 -5 5 -21 19 -36 30 -33 31 -33 10 -59 -10 -12 -17 -15
-20 -7 -4 8 -15 9 -36 2 -17 -4 -35 -6 -41 -2 -6 4 -7 1 -2 -7 6 -10 4 -12
-11 -6 -10 4 -21 8 -24 9 -3 1 -6 -2 -7 -8 -1 -5 5 -9 13 -7 8 2 14 -4 14 -13
0 -10 5 -13 13 -9 10 6 10 4 0 -7 -7 -7 -13 -31 -13 -53 0 -27 3 -36 9 -27 7
11 13 9 31 -9 12 -12 24 -20 26 -17 3 2 0 26 -6 52 -11 48 -6 72 10 45 5 -8
15 -24 24 -35 14 -20 15 -19 21 7 6 25 45 46 64 34 5 -3 16 3 26 14 10 12 13
20 7 20 -7 0 -11 3 -11 8 4 23 -4 32 -26 32 -22 0 -25 4 -25 33 0 27 -5 35
-30 44 -17 6 -32 7 -35 2z"/>
<path d="M1501 958 c-5 -13 -6 -27 -2 -33 3 -5 8 1 10 15 l4 25 8 -25 c7 -23
7 -23 8 8 1 37 -16 43 -28 10z"/>
<path d="M1760 965 c0 -8 2 -15 4 -15 2 0 6 7 10 15 3 8 1 15 -4 15 -6 0 -10
-7 -10 -15z"/>
<path d="M1650 927 c0 -28 -3 -35 -15 -31 -10 4 -15 0 -15 -12 0 -15 -2 -16
-9 -5 -7 11 -10 10 -14 -5 -3 -11 -7 -32 -7 -49 -4 -69 4 -80 34 -49 10 9 16
11 16 4 0 -6 6 -10 13 -7 6 2 11 10 10 16 -3 13 19 10 30 -4 4 -6 10 -5 16 4
5 8 11 9 15 3 4 -7 19 -6 44 5 38 16 52 29 52 51 0 22 -18 13 -24 -13 -5 -18
-13 -25 -30 -25 -14 0 -27 -6 -29 -12 -3 -7 -5 16 -5 52 l1 65 6 -50 c6 -49 7
-49 12 -14 2 20 0 52 -5 70 l-9 34 -13 -40 c-7 -22 -13 -52 -13 -67 -1 -16 -6
-28 -12 -28 -7 0 -9 11 -5 30 3 17 1 30 -4 30 -6 0 -10 -7 -10 -17 0 -33 -10
-5 -15 42 -6 58 -15 72 -15 22z"/>
<path d="M1540 915 c0 -19 2 -35 4 -35 2 0 6 16 8 35 2 19 0 35 -4 35 -4 0 -8
-16 -8 -35z"/>
<path d="M1680 929 c0 -11 4 -18 10 -14 5 3 7 12 3 20 -7 21 -13 19 -13 -6z"/>
<path d="M901 924 c0 -11 3 -14 6 -6 3 7 2 16 -1 19 -3 4 -6 -2 -5 -13z"/>
<path d="M1562 910 c0 -14 2 -19 5 -12 2 6 2 18 0 25 -3 6 -5 1 -5 -13z"/>
<path d="M1771 884 c0 -11 3 -14 6 -6 3 7 2 16 -1 19 -3 4 -6 -2 -5 -13z"/>
<path d="M1032 870 c0 -14 2 -19 5 -12 2 6 2 18 0 25 -3 6 -5 1 -5 -13z"/>
<path d="M1546 855 c5 -13 9 -14 15 -4 5 8 9 4 12 -14 l4 -27 -1 27 c-1 18 -7
29 -18 31 -13 3 -16 -1 -12 -13z"/>
<path d="M1963 813 c-23 -9 -14 -20 12 -15 16 3 25 0 25 -9 0 -7 6 -20 14 -28
17 -19 22 -50 11 -74 -10 -23 -4 -28 37 -31 57 -5 59 -6 52 -17 -3 -6 -17 -8
-30 -5 -20 5 -26 1 -34 -19 -13 -34 -12 -45 1 -22 5 9 14 17 20 17 5 0 4 -10
-3 -21 -10 -17 -10 -23 0 -26 6 -3 12 -17 12 -31 0 -15 5 -34 10 -42 7 -11 10
-7 10 18 0 34 15 44 23 15 3 -10 5 -4 6 14 0 17 -3 35 -9 38 -5 3 -10 11 -10
17 0 6 12 -2 26 -18 l27 -28 9 24 c11 30 -6 108 -30 139 -56 73 -58 74 -75 56
-22 -22 -22 -7 0 17 17 19 16 19 -8 13 -17 -4 -30 -1 -38 9 -13 16 -34 19 -58
9z m144 -129 c-3 -3 -12 -4 -19 -1 -8 3 -5 6 6 6 11 1 17 -2 13 -5z"/>
<path d="M1446 795 c-3 -8 -1 -15 4 -15 6 0 10 7 10 15 0 8 -2 15 -4 15 -2 0
-6 -7 -10 -15z"/>
<path d="M3655 790 c3 -5 10 -10 16 -10 5 0 9 5 9 10 0 6 -7 10 -16 10 -8 0
-12 -4 -9 -10z"/>
<path d="M1410 779 c0 -5 5 -7 10 -4 6 3 10 8 10 11 0 2 -4 4 -10 4 -5 0 -10
-5 -10 -11z"/>
<path d="M1306 757 c3 -10 9 -15 12 -12 3 3 0 11 -7 18 -10 9 -11 8 -5 -6z"/>
<path d="M1743 763 c-18 -7 -16 -23 3 -23 14 0 14 -3 4 -15 -10 -13 -9 -15 10
-15 29 0 20 -25 -9 -26 -13 -1 -27 -7 -31 -14 -4 -7 -16 -9 -29 -5 -15 5 -21
2 -21 -9 0 -21 -36 -21 -44 0 -9 23 0 29 19 14 13 -11 14 -10 10 2 -4 11 2 18
22 23 l28 8 -25 7 c-14 3 -26 3 -28 -2 -2 -4 -8 -8 -13 -8 -6 0 -7 5 -4 10 3
6 1 10 -5 10 -7 0 -9 -7 -6 -16 4 -11 -1 -18 -14 -21 -11 -3 -17 -10 -13 -16
4 -6 12 -33 18 -60 10 -47 12 -49 28 -33 9 10 17 13 17 8 0 -5 -7 -15 -15 -22
-8 -7 -15 -18 -15 -24 0 -6 4 -4 10 4 5 8 12 11 17 7 4 -4 2 -17 -5 -27 -7
-11 -12 -32 -12 -47 -1 -25 -2 -26 -14 -10 -14 17 -27 23 -25 10 1 -5 1 -25 0
-47 -1 -30 -4 -37 -16 -32 -12 4 -14 0 -9 -19 4 -14 2 -25 -4 -25 -6 0 -13 24
-17 53 -4 28 -11 68 -15 87 -5 19 -12 48 -15 64 -3 15 -8 26 -11 24 -2 -3 0
-29 6 -58 7 -36 7 -57 0 -64 -7 -7 -10 2 -10 28 0 40 -15 76 -36 89 -8 4 -14
15 -14 23 0 11 -4 12 -19 5 -16 -9 -18 -8 -15 7 3 10 -8 31 -26 51 -28 30 -35
72 -10 56 5 -3 10 -4 10 0 0 3 -10 9 -22 14 -16 6 -27 4 -36 -8 -7 -9 -10 -10
-6 -2 4 9 2 12 -7 9 -8 -3 -13 -16 -11 -30 1 -14 -2 -36 -7 -49 -5 -13 -10
-18 -10 -10 -1 24 -30 -20 -31 -46 0 -12 8 -27 18 -32 16 -10 16 -10 0 -11
-10 0 -18 -4 -18 -10 0 -5 -4 -10 -8 -10 -4 0 -8 10 -7 23 0 12 -3 22 -7 22
-3 0 -18 11 -32 24 -14 14 -26 20 -26 15 0 -5 -6 -2 -13 6 -7 9 -19 15 -27 15
-8 0 -18 4 -22 10 -5 6 -8 6 -8 -2 0 -7 -6 -13 -14 -13 -8 0 -16 -5 -18 -11
-2 -7 -18 -12 -36 -13 -17 -1 -41 -9 -52 -19 -11 -9 -20 -12 -20 -6 0 14 -24
-11 -33 -34 -4 -9 -16 -21 -28 -26 -20 -7 -20 -8 -5 -14 20 -8 66 1 66 13 0 5
9 12 20 15 11 4 18 11 15 16 -4 5 -2 9 4 9 22 0 22 -24 0 -42 l-24 -19 33 4
c38 4 38 4 11 -22 -28 -25 -12 -33 54 -25 65 8 82 16 74 38 -5 13 -12 14 -32
6 -34 -13 -33 -14 -28 14 4 18 13 26 40 31 23 4 38 2 43 -5 5 -9 9 -9 14 -1
12 18 28 12 21 -8 -4 -12 0 -23 9 -28 12 -7 10 -10 -10 -20 -20 -9 -24 -8 -24
4 0 8 5 11 10 8 6 -3 10 -2 10 4 0 5 -8 9 -19 8 -12 -1 -17 -7 -14 -18 3 -9
-3 -19 -11 -22 -9 -4 -16 -14 -16 -23 0 -14 -3 -14 -15 -4 -13 11 -14 10 -9
-4 7 -20 13 -20 38 -1 16 12 22 12 28 2 5 -8 8 -7 8 6 0 12 8 17 27 17 26 0
26 -1 7 -15 -18 -14 -18 -14 9 -15 15 0 27 -4 27 -10 0 -14 36 -7 57 12 29 25
63 40 63 28 0 -6 -11 -16 -25 -22 -40 -18 -29 -26 28 -22 59 4 99 -10 90 -34
-5 -11 -1 -14 14 -10 14 4 27 -3 44 -23 13 -16 26 -25 29 -21 3 4 16 13 29 20
18 10 26 11 31 2 4 -7 13 -2 24 14 20 32 33 33 39 4 4 -20 4 -19 6 5 1 30 13
33 54 13 15 -9 27 -10 27 -5 0 6 5 7 12 3 7 -5 8 -3 4 5 -5 8 0 14 13 18 12 3
21 7 21 9 0 2 -16 19 -35 38 -19 19 -31 37 -27 40 4 2 18 -7 31 -20 15 -16 30
-22 42 -19 21 7 25 -5 7 -23 -9 -9 -9 -12 0 -12 7 0 15 -1 19 -2 5 -2 8 6 8
16 0 11 7 22 15 24 13 4 13 3 2 -10 -9 -12 -10 -18 -2 -23 7 -5 9 -21 5 -46
-5 -27 -3 -39 5 -39 7 0 9 8 5 19 -3 11 0 21 8 24 11 4 12 16 7 51 -8 51 -4
61 17 45 7 -7 13 -7 13 -2 0 5 -12 15 -26 22 -20 9 -25 17 -22 36 3 15 0 26
-10 30 -8 3 -12 8 -9 12 12 11 38 -20 32 -38 -3 -9 -1 -20 5 -24 5 -3 10 -1
10 4 0 6 4 11 9 11 13 0 34 -57 25 -71 -4 -7 -3 -10 4 -5 7 4 10 -1 9 -14 -1
-11 -4 -20 -7 -20 -6 0 -3 -43 6 -87 6 -32 24 -29 24 4 0 21 3 24 12 15 20
-20 30 -14 18 11 -11 21 -10 21 4 3 9 -11 16 -26 16 -33 0 -7 5 -13 10 -13 6
0 10 9 10 20 0 11 6 20 14 20 16 0 10 39 -8 53 -7 6 -4 7 7 3 25 -8 21 9 -7
27 -23 15 -24 15 -30 -8 -6 -22 -9 -23 -25 -13 -13 8 -20 26 -23 55 -3 46 7
77 23 68 20 -13 7 17 -21 47 -16 17 -30 35 -30 39 0 5 -12 9 -27 10 -16 0 -22
3 -15 6 6 2 12 11 12 19 0 9 -4 12 -10 9 -10 -6 -58 21 -76 44 -8 11 -18 12
-40 4 -32 -11 -57 -7 -48 8 3 5 0 9 -6 9 -7 0 -10 7 -6 15 6 15 1 17 -21 8z
m68 -81 c-6 -12 -11 -23 -11 -26 0 -12 28 -6 33 7 6 15 43 -5 40 -22 -2 -6 2
-11 7 -11 6 0 10 -10 10 -22 -1 -21 -2 -22 -14 -5 -8 10 -20 15 -30 11 -20 -8
-21 -24 -1 -24 8 0 15 -5 15 -11 0 -5 -6 -7 -12 -3 -10 6 -10 5 0 -8 10 -12 9
-18 -3 -28 -12 -10 -16 -7 -26 16 -6 16 -16 38 -22 49 -17 32 -17 65 1 86 20
23 27 18 13 -9z m74 -2 c19 -3 18 -10 -2 -10 -11 0 -27 7 -34 17 -13 15 -12
15 6 6 11 -6 25 -12 30 -13z m35 -30 c0 -5 -2 -10 -4 -10 -3 0 -8 5 -11 10 -3
6 -1 10 4 10 6 0 11 -4 11 -10z m-190 -4 c0 -11 -19 -15 -25 -6 -3 5 1 10 9
10 9 0 16 -2 16 -4z m-40 -20 c0 -3 -4 -8 -10 -11 -5 -3 -10 -1 -10 4 0 6 5
11 10 11 6 0 10 -2 10 -4z m-346 -15 c3 -5 -3 -11 -14 -14 -20 -5 -26 3 -13
16 9 10 21 9 27 -2z m611 -1 c4 -6 11 -8 16 -5 5 4 9 -1 9 -9 0 -9 -3 -16 -7
-16 -11 1 -43 26 -43 34 0 10 18 7 25 -4z m-527 -43 c17 -1 19 -4 10 -20 -8
-16 -7 -17 11 -8 14 8 22 8 27 -1 4 -6 3 -8 -3 -5 -6 4 -13 1 -16 -7 -3 -8 2
-16 15 -19 11 -3 17 -10 14 -16 -4 -6 -13 -8 -21 -4 -8 3 -15 1 -15 -4 0 -4
-9 -14 -19 -20 -16 -10 -18 -9 -14 8 3 10 10 19 15 19 5 0 7 4 4 9 -4 5 -27 2
-53 -6 -27 -8 -59 -17 -73 -20 l-25 -4 24 14 c15 9 20 17 12 21 -20 13 -11 25
24 32 50 9 53 24 5 24 -26 0 -39 4 -35 10 4 6 15 8 26 5 10 -4 27 -2 36 4 12
6 20 6 24 0 3 -6 15 -11 27 -12z m283 -2 c8 6 11 4 7 -6 -3 -8 3 -23 13 -33
14 -15 19 -16 19 -5 0 12 2 12 9 -1 6 -8 8 -17 5 -21 -7 -12 -47 -1 -57 16 -4
8 -12 13 -17 10 -5 -3 -8 8 -8 25 1 18 4 26 8 19 5 -6 13 -8 21 -4z m40 -8
c-10 -9 -11 -8 -5 6 3 10 9 15 12 12 3 -3 0 -11 -7 -18z m-641 3 c0 -5 -4 -10
-10 -10 -5 0 -10 5 -10 10 0 6 5 10 10 10 6 0 10 -4 10 -10z m773 3 c9 -15
-12 -50 -32 -56 -27 -7 -27 4 -1 26 12 10 18 22 15 27 -3 6 -2 10 4 10 5 0 12
-3 14 -7z m-903 -13 c0 -5 -2 -10 -4 -10 -3 0 -8 5 -11 10 -3 6 -1 10 4 10 6
0 11 -4 11 -10z m108 -45 c-3 -3 -9 2 -12 12 -6 14 -5 15 5 6 7 -7 10 -15 7
-18z m815 -9 c3 -8 -1 -17 -9 -20 -9 -4 -14 1 -14 14 0 23 15 27 23 6z m-58
-16 c3 -5 1 -10 -4 -10 -6 0 -11 5 -11 10 0 6 2 10 4 10 3 0 8 -4 11 -10z
m-149 -35 c-3 -8 2 -18 11 -23 11 -7 12 -11 4 -16 -7 -4 -18 -2 -26 4 -12 10
-15 9 -15 -4 0 -9 -4 -16 -10 -16 -16 0 -12 17 13 44 25 29 32 32 23 11z m84
-4 c14 -28 13 -31 -15 -31 -29 0 -45 28 -24 41 21 13 27 11 39 -10z m-450 -1
c0 -5 -7 -10 -15 -10 -8 0 -15 5 -15 10 0 6 7 10 15 10 8 0 15 -4 15 -10z
m197 -22 c-3 -8 -6 -5 -6 6 -1 11 2 17 5 13 3 -3 4 -12 1 -19z m83 -48 c0 -5
-4 -10 -10 -10 -5 0 -10 5 -10 10 0 6 5 10 10 10 6 0 10 -4 10 -10z"/>
<path d="M1755 440 c-3 -5 -1 -10 4 -10 6 0 11 5 11 10 0 6 -2 10 -4 10 -3 0
-8 -4 -11 -10z"/>
<path d="M1960 747 c0 -14 -7 -27 -15 -31 -8 -3 -15 -10 -15 -15 0 -5 11 -5
28 1 21 8 28 17 27 36 0 33 -25 42 -25 9z"/>
<path d="M1625 740 c-4 -6 6 -10 22 -10 22 0 25 2 13 10 -19 12 -27 12 -35 0z"/>
<path d="M1688 743 c7 -3 16 -2 19 1 4 3 -2 6 -13 5 -11 0 -14 -3 -6 -6z"/>
<path d="M3693 695 c-8 -23 3 -29 26 -13 21 15 18 28 -6 28 -7 0 -16 -7 -20
-15z"/>
<path d="M866 672 c-2 -4 -1 -14 5 -22 7 -12 9 -10 9 8 0 23 -5 28 -14 14z"/>
<path d="M3748 663 c7 -3 16 -2 19 1 4 3 -2 6 -13 5 -11 0 -14 -3 -6 -6z"/>
<path d="M3950 645 c0 -8 2 -15 4 -15 2 0 6 7 10 15 3 8 1 15 -4 15 -6 0 -10
-7 -10 -15z"/>
<path d="M1530 595 c0 -8 5 -15 10 -15 6 0 10 7 10 15 0 8 -4 15 -10 15 -5 0
-10 -7 -10 -15z"/>
<path d="M1591 565 c1 -19 18 -51 18 -35 0 8 -4 22 -9 30 -5 8 -9 11 -9 5z"/>
<path d="M918 475 c-27 -13 -48 -20 -48 -16 0 4 -19 7 -42 7 -28 -1 -43 -6
-43 -14 0 -7 -7 -17 -15 -22 -11 -7 -8 -10 15 -10 17 0 40 7 52 15 12 9 23 11
25 5 2 -6 17 -5 42 2 34 11 40 10 52 -7 10 -14 17 -16 25 -8 8 8 5 15 -11 26
-13 9 -17 17 -11 22 6 3 11 0 11 -7 0 -10 3 -9 9 2 10 14 6 30 -7 29 -4 0 -28
-11 -54 -24z"/>
<path d="M730 450 c0 -5 5 -10 10 -10 6 0 10 5 10 10 0 6 -4 10 -10 10 -5 0
-10 -4 -10 -10z"/>
<path d="M2135 430 c-3 -5 -1 -10 4 -10 6 0 11 5 11 10 0 6 -2 10 -4 10 -3 0
-8 -4 -11 -10z"/>
<path d="M1850 401 c0 -6 5 -13 10 -16 6 -3 10 1 10 9 0 9 -4 16 -10 16 -5 0
-10 -4 -10 -9z"/>
<path d="M2116 395 c4 -8 10 -15 15 -15 5 0 9 7 9 15 0 8 -7 15 -15 15 -9 0
-12 -6 -9 -15z"/>
<path d="M928 393 c7 -3 16 -2 19 1 4 3 -2 6 -13 5 -11 0 -14 -3 -6 -6z"/>
<path d="M1825 360 c3 -5 8 -10 11 -10 2 0 4 5 4 10 0 6 -5 10 -11 10 -5 0 -7
-4 -4 -10z"/>
<path d="M1870 345 c0 -8 9 -19 19 -25 25 -13 42 -13 19 1 -10 5 -18 17 -18
24 0 8 -4 15 -10 15 -5 0 -10 -7 -10 -15z"/>
<path d="M1775 340 c-3 -5 -1 -10 4 -10 6 0 11 5 11 10 0 6 -2 10 -4 10 -3 0
-8 -4 -11 -10z"/>
<path d="M3297 273 c-2 -5 3 -35 12 -68 22 -81 42 -84 65 -8 19 63 20 72 9 76
-5 1 -15 -20 -24 -48 l-17 -50 -12 48 c-12 46 -24 65 -33 50z"/>
<path d="M3420 210 c0 -53 3 -71 13 -67 16 5 15 129 -1 135 -9 3 -12 -18 -12
-68z"/>
<path d="M3477 274 c-4 -4 -7 -36 -7 -71 0 -50 3 -63 15 -63 12 0 15 9 11 40
-7 55 6 57 28 4 12 -30 24 -44 34 -42 9 2 15 6 14 11 -1 4 -2 35 -2 69 0 66
-16 71 -22 8 l-3 -35 -20 39 c-20 40 -35 52 -48 40z"/>
<path d="M3600 265 c0 -8 7 -15 15 -15 12 0 15 -13 15 -55 0 -30 5 -55 10 -55
6 0 10 24 10 54 0 46 3 54 21 59 33 9 12 27 -32 27 -28 0 -39 -4 -39 -15z"/>
<path d="M3716 273 c-3 -4 -6 -35 -6 -70 l0 -63 35 0 c39 0 48 17 13 22 -34 5
-37 38 -4 38 14 0 26 5 26 10 0 6 -11 10 -25 10 -16 0 -25 6 -25 15 0 9 9 15
25 15 35 0 31 25 -4 27 -16 1 -31 -1 -35 -4z"/>
<path d="M3856 272 c-10 -9 -7 -132 3 -132 5 0 11 10 13 23 2 12 10 22 18 22
8 0 16 -10 18 -22 2 -13 10 -23 18 -23 17 0 17 1 4 34 -6 16 -6 35 0 50 6 18
5 28 -6 37 -16 13 -59 20 -68 11z m51 -28 c8 -20 -13 -42 -27 -28 -12 12 -3
44 11 44 5 0 12 -7 16 -16z"/>
<path d="M3966 272 c-3 -5 -5 -37 -5 -71 l1 -61 39 0 c21 0 39 5 39 10 0 6
-11 10 -25 10 -18 0 -25 5 -25 20 0 13 7 20 20 20 11 0 20 5 20 10 0 6 -9 10
-20 10 -28 0 -25 28 3 32 12 2 22 8 22 13 0 13 -61 19 -69 7z"/>
<path d="M4195 274 c-12 -5 -7 -134 6 -134 5 0 9 32 9 70 0 39 -1 70 -2 69 -2
0 -7 -2 -13 -5z"/>
<path d="M4258 269 c-25 -14 -22 -44 7 -67 14 -11 25 -25 25 -31 0 -6 -11 -11
-25 -11 -27 0 -34 -14 -11 -23 26 -10 56 5 63 31 5 20 0 30 -20 47 -32 25 -34
35 -6 35 12 0 19 5 17 13 -6 16 -29 19 -50 6z"/>
<path d="M4075 218 c-8 -28 -15 -58 -15 -65 0 -18 17 -17 24 2 3 8 15 15 26
15 11 0 20 -7 20 -15 0 -8 7 -15 15 -15 19 0 19 1 -1 72 -22 78 -47 80 -69 6z
m45 -8 c0 -12 -5 -17 -14 -14 -8 3 -12 13 -9 25 6 23 23 15 23 -11z"/>
<path d="M860 245 c-17 -21 -9 -99 12 -103 20 -4 40 30 32 52 -3 9 -12 16 -20
16 -8 0 -14 5 -14 10 0 6 7 10 15 10 19 0 20 16 1 23 -8 3 -20 0 -26 -8z m17
-77 c-3 -8 -6 -5 -6 6 -1 11 2 17 5 13 3 -3 4 -12 1 -19z"/>
<path d="M942 248 c-31 -31 1 -124 34 -97 20 17 17 47 -6 61 -26 17 -26 31 1
23 15 -5 20 -3 17 6 -6 19 -31 22 -46 7z m28 -70 c0 -16 -3 -19 -11 -11 -6 6
-8 16 -5 22 11 17 16 13 16 -11z"/>
<path d="M1033 253 c-7 -2 -13 -11 -13 -20 0 -10 6 -12 22 -8 l21 7 -21 -35
c-12 -19 -22 -39 -22 -46 0 -14 46 -15 55 -1 3 6 -1 10 -9 10 -19 0 -20 1 -2
36 11 19 12 33 5 46 -10 19 -15 20 -36 11z"/>
<path d="M90 231 c-23 -44 2 -110 37 -97 8 3 17 6 19 6 12 0 1 49 -12 54 -13
5 -15 2 -11 -14 3 -11 1 -22 -3 -25 -12 -8 -22 31 -15 56 5 16 9 18 21 8 19
-16 30 -4 14 16 -17 21 -37 19 -50 -4z"/>
<path d="M220 195 c0 -52 1 -55 25 -55 14 0 25 5 25 10 0 6 -7 10 -15 10 -21
0 -19 30 3 30 16 1 16 1 0 14 -22 16 -23 26 -3 26 8 0 15 5 15 10 0 6 -11 10
-25 10 -24 0 -25 -3 -25 -55z"/>
<path d="M334 237 c-3 -8 -4 -32 -2 -53 2 -31 7 -39 23 -39 17 0 20 7 20 50 0
39 -4 50 -18 53 -9 2 -20 -3 -23 -11z m23 -59 c-2 -13 -4 -5 -4 17 -1 22 1 32
4 23 2 -10 2 -28 0 -40z"/>
<path d="M416 234 c-4 -12 -1 -14 14 -9 25 8 25 1 -1 -42 -12 -19 -20 -36 -18
-38 11 -10 53 -8 56 3 3 6 -2 12 -11 12 -13 0 -13 3 1 28 9 16 14 36 10 45 -8
21 -43 22 -51 1z"/>
<path d="M507 243 c-10 -9 -8 -76 2 -92 5 -8 16 -11 25 -8 21 8 22 67 1 67 -8
0 -15 5 -15 10 0 6 7 10 15 10 8 0 15 5 15 10 0 11 -33 14 -43 3z m20 -75 c-3
-8 -6 -5 -6 6 -1 11 2 17 5 13 3 -3 4 -12 1 -19z"/>
<path d="M586 235 c-9 -23 -7 -68 3 -83 5 -8 17 -12 27 -10 16 3 19 12 19 53
0 43 -3 50 -21 53 -13 2 -24 -4 -28 -13z m34 -41 c0 -21 -4 -33 -10 -29 -17
10 -11 65 7 65 2 0 3 -16 3 -36z"/>
<path d="M675 239 c-11 -17 4 -59 21 -59 8 0 13 -4 9 -10 -3 -5 -12 -7 -20 -3
-8 3 -15 0 -15 -6 0 -18 29 -25 45 -11 15 13 20 56 9 84 -7 18 -39 22 -49 5z
m30 -19 c3 -5 1 -10 -4 -10 -6 0 -11 5 -11 10 0 6 2 10 4 10 3 0 8 -4 11 -10z"/>
<path d="M770 231 c-15 -29 -12 -49 9 -70 18 -18 20 -19 25 -3 3 9 5 34 4 55
-1 41 -20 50 -38 18z"/>
</g>
</svg>
