<?xml version="1.0" standalone="no"?>
<!DOCTYPE svg PUBLIC "-//W3C//DTD SVG 20010904//EN"
 "http://www.w3.org/TR/2001/REC-SVG-20010904/DTD/svg10.dtd">
<svg version="1.0" xmlns="http://www.w3.org/2000/svg"
 width="447.000000pt" height="232.000000pt" viewBox="0 0 447.000000 232.000000"
 preserveAspectRatio="xMidYMid meet">

<g transform="translate(0.000000,232.000000) scale(0.100000,-0.100000)"
fill="#000000" stroke="none">
<path d="M3983 2095 c-19 -14 -21 -19 -11 -40 10 -22 16 -24 45 -19 18 3 33 2
33 -3 0 -5 -20 -29 -45 -53 -27 -27 -45 -53 -45 -67 0 -22 3 -23 85 -23 l85 0
0 35 c0 29 -4 35 -22 35 -20 0 -20 1 -5 18 9 10 20 32 23 49 13 65 -83 110
-143 68z m120 -27 c18 -24 18 -30 7 -58 -7 -17 -22 -37 -34 -45 -20 -14 -19
-15 12 -15 27 0 32 -4 32 -25 0 -24 -2 -25 -75 -25 -66 0 -75 2 -75 18 0 10
18 33 39 50 62 50 65 104 5 81 -19 -6 -26 -4 -34 11 -25 47 89 54 123 8z"/>
<path d="M542 2084 c-30 -21 -29 -59 4 -80 19 -13 28 -14 37 -5 9 10 9 11 -4
6 -9 -3 -23 3 -34 15 -23 25 -11 53 24 58 12 2 19 8 16 13 -8 13 -17 11 -43
-7z"/>
<path d="M633 2089 c-18 -6 -23 -16 -23 -43 0 -19 4 -38 10 -41 23 -14 49 -12
65 5 35 38 -5 98 -52 79z m52 -29 c10 -30 -5 -51 -34 -48 -19 2 -27 10 -29 27
-7 45 50 64 63 21z"/>
<path d="M772 2084 c-33 -23 -24 -85 12 -84 6 0 3 5 -6 11 -10 5 -18 18 -18
29 0 24 29 53 46 46 8 -3 14 -1 14 4 0 15 -23 12 -48 -6z"/>
<path d="M1130 2090 c0 -6 5 -10 10 -10 6 0 10 -7 10 -15 0 -9 -9 -15 -21 -15
-16 0 -20 5 -16 20 3 11 1 20 -4 20 -5 0 -8 -21 -8 -47 1 -27 4 -38 6 -25 6
28 31 29 42 0 6 -16 8 -11 8 24 1 31 -3 48 -13 52 -8 3 -14 1 -14 -4z"/>
<path d="M1547 2076 c27 -34 16 -69 -20 -64 -26 4 -35 41 -15 65 11 14 11 15
-2 11 -9 -3 -16 -20 -18 -41 -4 -47 26 -67 64 -42 32 21 29 61 -6 84 l-25 16
22 -29z"/>
<path d="M1634 2087 c-3 -8 -4 -32 -2 -53 3 -35 6 -39 28 -36 28 3 43 21 30
37 -5 6 -7 21 -3 33 3 12 1 22 -5 22 -6 0 -17 3 -26 6 -9 4 -18 0 -22 -9z m43
-20 c-6 -20 -27 -19 -27 2 0 14 5 19 15 14 9 -3 14 -10 12 -16z m3 -42 c0 -8
-9 -15 -20 -15 -20 0 -26 11 -13 23 12 13 33 7 33 -8z"/>
<path d="M1728 2093 c-14 -3 -17 -14 -15 -49 2 -43 17 -64 17 -24 0 26 14 25
33 -2 14 -22 15 -21 13 21 -2 45 -17 61 -48 54z m35 -28 c1 -5 -6 -11 -15 -13
-11 -2 -18 3 -18 13 0 17 30 18 33 0z"/>
<path d="M1820 2076 c-5 -15 -12 -39 -16 -54 -4 -23 -3 -24 6 -9 14 21 39 22
46 2 4 -8 10 -15 15 -15 9 0 -17 78 -32 94 -5 5 -13 -3 -19 -18z m30 -27 c0
-5 -7 -9 -15 -9 -9 0 -12 6 -9 15 6 15 24 11 24 -6z"/>
<path d="M1904 2085 c-19 -15 -18 -16 9 -38 15 -12 27 -26 27 -30 0 -4 -12 -7
-27 -7 -25 -1 -26 -2 -10 -11 13 -8 22 -7 33 1 20 17 18 37 -6 50 -24 13 -26
30 -5 30 8 0 15 5 15 10 0 14 -13 12 -36 -5z"/>
<path d="M2742 2088 c-17 -17 -15 -63 3 -78 24 -20 47 6 43 49 -3 38 -24 51
-46 29z m33 -38 c0 -18 -5 -35 -12 -37 -14 -5 -28 40 -19 63 10 27 31 9 31
-26z"/>
<path d="M2841 2086 c-7 -8 -11 -30 -9 -48 2 -28 7 -33 28 -33 23 0 25 4 25
45 0 48 -20 65 -44 36z m34 -37 c0 -24 -5 -34 -15 -34 -16 0 -25 37 -16 62 10
26 31 8 31 -28z"/>
<path d="M2942 2088 c-17 -17 -15 -73 4 -89 23 -19 48 1 52 40 5 50 -27 78
-56 49z m42 -14 c10 -27 7 -51 -10 -65 -13 -10 -17 -10 -25 2 -12 20 -11 53 3
67 16 16 25 15 32 -4z"/>
<path d="M3052 2088 c-17 -17 -15 -83 2 -97 11 -9 20 -10 35 -1 36 19 24 110
-14 110 -6 0 -16 -5 -23 -12z m41 -20 c15 -23 0 -70 -21 -66 -19 4 -26 29 -18
65 7 26 23 27 39 1z"/>
<path d="M3162 2088 c-14 -14 -16 -76 -3 -96 14 -23 55 -10 65 21 20 55 -26
111 -62 75z m46 -46 c2 -32 -1 -44 -13 -49 -31 -11 -49 59 -23 85 20 20 33 8
36 -36z"/>
<path d="M3274 2075 c-24 -37 -12 -93 23 -101 32 -8 53 15 53 59 0 64 -45 90
-76 42z m54 -35 c3 -46 -12 -67 -35 -48 -16 13 -17 70 -1 86 21 21 33 8 36
-38z"/>
<path d="M3394 2075 c-24 -37 -12 -93 23 -101 33 -9 53 16 53 66 0 61 -45 82
-76 35z m56 -40 c0 -38 -20 -61 -38 -43 -15 15 -15 53 -1 79 15 29 39 6 39
-36z"/>
<path d="M3516 2078 c-21 -30 -20 -71 2 -98 36 -44 91 5 76 68 -14 56 -51 70
-78 30z m56 -20 c6 -35 -6 -73 -25 -76 -20 -4 -32 36 -23 73 8 32 42 34 48 3z"/>
<path d="M3640 2081 c-14 -27 -13 -94 2 -109 7 -7 21 -12 33 -12 12 0 26 5 33
12 16 16 16 100 0 116 -18 18 -56 14 -68 -7z m58 -52 c2 -36 -1 -48 -13 -53
-26 -10 -35 2 -35 48 0 47 6 58 30 54 10 -2 16 -17 18 -49z"/>
<path d="M240 2046 c0 -48 11 -58 48 -45 24 9 30 35 10 42 -10 3 -10 7 -1 19
12 14 8 28 -8 28 -5 0 -6 -6 -3 -14 7 -19 -16 -32 -26 -15 -5 7 -6 17 -4 21 3
4 0 8 -5 8 -6 0 -11 -20 -11 -44z m50 -21 c0 -8 -7 -15 -15 -15 -8 0 -15 7
-15 15 0 8 7 15 15 15 8 0 15 -7 15 -15z"/>
<path d="M337 2045 c-9 -25 -12 -45 -6 -45 5 0 9 7 9 15 0 8 4 15 10 15 5 0 7
6 4 14 -3 8 -1 17 5 21 6 3 12 1 12 -4 3 -21 5 -26 16 -46 7 -11 13 -14 13 -7
0 21 -28 82 -39 82 -5 0 -16 -20 -24 -45z"/>
<path d="M420 2045 c0 -25 5 -45 11 -45 6 0 8 14 5 38 l-6 37 25 -30 c30 -36
33 -25 4 16 -29 41 -39 36 -39 -16z"/>
<path d="M489 2050 c-6 -45 -4 -58 7 -48 3 3 4 26 2 49 l-3 44 -6 -45z"/>
<path d="M840 2045 c0 -44 0 -45 33 -44 23 1 26 3 10 6 -13 2 -23 11 -23 18 0
7 10 16 23 18 l22 4 -22 2 c-16 1 -23 7 -23 21 0 11 -4 20 -10 20 -5 0 -10
-20 -10 -45z"/>
<path d="M878 2083 c7 -3 16 -2 19 1 4 3 -2 6 -13 5 -11 0 -14 -3 -6 -6z"/>
<path d="M921 2043 l2 -48 6 40 6 40 23 -37 c13 -21 28 -38 33 -38 5 0 9 21 9
48 0 34 -3 43 -10 32 -5 -8 -7 -23 -4 -32 9 -29 -10 -21 -29 12 -26 43 -37 37
-36 -17z"/>
<path d="M1023 2083 c12 -3 17 -15 17 -44 0 -21 4 -39 10 -39 5 0 9 16 8 36
-1 21 4 39 13 45 9 6 1 8 -26 8 -22 -1 -32 -3 -22 -6z"/>
<path d="M1196 2049 c-9 -23 -15 -44 -12 -47 3 -3 8 3 12 12 3 9 14 16 24 16
10 0 21 -7 24 -16 4 -9 9 -15 12 -12 7 7 -26 88 -36 88 -4 0 -15 -19 -24 -41z
m34 6 c0 -8 -4 -15 -10 -15 -5 0 -10 7 -10 15 0 8 5 15 10 15 6 0 10 -7 10
-15z"/>
<path d="M1281 2048 c-1 -27 3 -48 7 -48 4 0 6 17 4 38 -5 58 -10 62 -11 10z"/>
<path d="M1390 2045 c0 -25 3 -45 8 -45 4 0 7 20 7 45 0 25 -3 45 -7 45 -5 0
-8 -20 -8 -45z"/>
<path d="M1438 2080 c26 -11 29 -42 6 -64 -8 -9 -12 -16 -7 -16 16 0 33 24 33
45 0 25 -18 45 -39 44 -10 0 -7 -4 7 -9z"/>
<path d="M1971 2048 c-1 -27 4 -48 9 -48 12 0 12 47 0 75 -6 15 -9 8 -9 -27z"/>
<path d="M2012 2048 c-2 -46 -1 -48 26 -47 22 1 23 2 5 6 -18 3 -23 13 -26 46
l-4 42 -1 -47z"/>
<path d="M2547 2055 c-9 -19 -12 -35 -7 -35 5 0 12 11 16 25 3 14 10 22 15 19
5 -3 7 -9 4 -14 -3 -4 2 -13 10 -20 13 -11 13 -8 4 19 -15 44 -23 45 -42 6z"/>
<path d="M2647 2055 c-21 -45 -21 -48 2 -33 15 9 23 9 35 -1 9 -8 16 -11 16
-7 0 10 -28 76 -33 76 -2 0 -11 -16 -20 -35z m33 -6 c0 -5 -4 -9 -10 -9 -5 0
-10 7 -10 16 0 8 5 12 10 9 6 -3 10 -10 10 -16z"/>
<path d="M350 1902 c-24 -4 -24 -5 -5 -13 15 -7 12 -8 -13 -4 -42 6 -82 -18
-75 -45 3 -11 13 -20 22 -20 10 0 18 -7 18 -15 0 -8 -4 -15 -9 -15 -4 0 -8 5
-8 12 0 6 -2 9 -5 6 -3 -3 -3 -12 0 -21 6 -14 9 -14 35 1 23 13 26 19 17 31
-10 12 -9 12 12 2 13 -7 38 -11 57 -9 26 3 35 -1 45 -19 7 -12 16 -20 22 -16
5 3 6 -4 2 -18 -13 -42 -32 -73 -64 -103 -17 -16 -28 -33 -25 -37 2 -4 -1 -11
-7 -15 -8 -5 -9 -3 -4 7 8 12 6 12 -8 1 -9 -8 -15 -19 -14 -24 1 -6 -5 -12
-15 -13 -9 -2 -32 -17 -51 -35 -28 -25 -35 -39 -34 -66 l1 -34 172 1 172 0 -2
47 -1 47 -77 -1 c-43 -1 -78 1 -78 3 0 3 21 24 47 47 68 60 103 120 103 177 0
45 -1 46 -27 42 l-28 -4 23 14 23 13 -20 25 c-14 16 -19 18 -15 7 4 -12 1 -18
-9 -18 -10 0 -15 7 -12 20 2 12 -4 24 -15 30 -22 12 -70 13 -70 2 0 -4 -10 -8
-21 -9 -21 -2 -21 -1 -3 12 18 14 18 14 -6 13 -14 0 -36 -3 -50 -6z m137 -18
c-3 -3 -12 -4 -19 -1 -8 3 -5 6 6 6 11 1 17 -2 13 -5z m-83 -36 c-3 -4 -13 -8
-22 -7 -11 0 -13 2 -4 6 10 4 10 8 0 21 -12 14 -11 14 9 2 12 -8 19 -18 17
-22z m62 12 c9 0 12 -4 9 -10 -11 -18 -31 -10 -32 13 0 12 1 16 4 10 3 -7 11
-13 19 -13z m-131 -10 c-7 -12 -32 -13 -39 -2 -2 4 7 9 20 10 15 1 22 -2 19
-8z m165 -45 c0 -3 -8 -5 -18 -5 -10 0 -19 7 -19 14 0 11 5 13 19 5 10 -5 18
-12 18 -14z m40 -40 c-5 -6 -7 -16 -3 -21 4 -5 1 -3 -7 3 -22 20 -21 41 1 36
14 -4 17 -9 9 -18z m-42 -43 c2 -7 -2 -10 -12 -6 -9 3 -16 11 -16 16 0 13 23
5 28 -10z m72 4 c0 -2 -9 -6 -20 -9 -11 -3 -18 -1 -14 4 5 9 34 13 34 5z m-99
-39 c-1 -12 -15 -9 -19 4 -3 6 1 10 8 8 6 -3 11 -8 11 -12z m79 4 c0 -5 -7
-11 -15 -15 -15 -5 -20 5 -8 17 9 10 23 9 23 -2z m-30 -54 c0 -2 -15 -16 -32
-33 l-33 -29 29 33 c28 30 36 37 36 29z"/>
<path d="M3310 1710 l0 -40 42 0 42 0 -39 40 c-21 22 -40 40 -42 40 -2 0 -3
-18 -3 -40z"/>
<path d="M1187 1709 c7 -7 15 -10 18 -7 3 3 -2 9 -12 12 -14 6 -15 5 -6 -5z"/>
<path d="M3495 1670 c21 -22 40 -40 42 -40 2 0 3 18 3 40 l0 40 -42 0 -42 0
39 -40z"/>
<path d="M3604 1699 c-10 -17 13 -36 27 -22 12 12 4 33 -11 33 -5 0 -12 -5
-16 -11z"/>
<path d="M1118 1693 c7 -3 16 -2 19 1 4 3 -2 6 -13 5 -11 0 -14 -3 -6 -6z"/>
<path d="M1238 1683 c7 -3 16 -2 19 1 4 3 -2 6 -13 5 -11 0 -14 -3 -6 -6z"/>
<path d="M1450 1671 c0 -10 31 -31 45 -31 11 0 -5 20 -26 30 -12 7 -19 7 -19
1z"/>
<path d="M1220 1650 c0 -5 5 -10 10 -10 6 0 10 5 10 10 0 6 -4 10 -10 10 -5 0
-10 -4 -10 -10z"/>
<path d="M1526 1644 c-19 -18 -20 -30 -5 -39 6 -4 8 -12 6 -19 -3 -6 4 -12 14
-12 25 0 24 8 -2 24 -20 13 -20 14 -4 32 9 10 27 21 39 23 17 4 16 5 -6 6 -15
0 -34 -6 -42 -15z"/>
<path d="M848 1643 c7 -3 16 -2 19 1 4 3 -2 6 -13 5 -11 0 -14 -3 -6 -6z"/>
<path d="M715 1630 c-3 -5 1 -10 10 -10 9 0 13 5 10 10 -3 6 -8 10 -10 10 -2
0 -7 -4 -10 -10z"/>
<path d="M900 1630 c-8 -5 -12 -12 -9 -15 4 -3 12 1 19 10 14 17 11 19 -10 5z"/>
<path d="M980 1620 c-12 -8 -10 -10 8 -10 13 0 20 4 17 10 -7 12 -6 12 -25 0z"/>
<path d="M1465 1620 c3 -5 13 -10 21 -10 8 0 12 5 9 10 -3 6 -13 10 -21 10 -8
0 -12 -4 -9 -10z"/>
<path d="M1183 1613 c-21 -7 -15 -23 7 -20 11 2 22 6 25 9 8 8 -17 16 -32 11z"/>
<path d="M647 1586 c-12 -9 -14 -16 -7 -21 5 -3 7 -11 4 -17 -4 -5 6 -2 20 7
26 17 30 36 10 42 -5 1 -17 -4 -27 -11z"/>
<path d="M3310 1560 c0 -17 7 -20 45 -20 38 0 45 3 45 20 0 17 -7 20 -45 20
-38 0 -45 -3 -45 -20z"/>
<path d="M3944 1544 c3 -9 6 -21 6 -27 0 -6 7 -4 16 5 18 18 11 38 -13 38 -10
0 -13 -6 -9 -16z"/>
<path d="M1930 1536 c0 -2 8 -10 18 -17 15 -13 16 -12 3 4 -13 16 -21 21 -21
13z"/>
<path d="M4062 1533 c-6 -2 -10 -9 -7 -13 3 -5 12 -7 19 -4 8 3 30 -2 51 -10
21 -9 47 -16 59 -16 16 0 12 5 -16 20 -21 11 -44 17 -52 14 -8 -3 -17 -1 -21
5 -7 12 -13 12 -33 4z"/>
<path d="M639 1513 c-13 -16 -12 -17 4 -4 9 7 17 15 17 17 0 8 -8 3 -21 -13z"/>
<path d="M663 1493 c-13 -2 -23 -9 -23 -14 0 -5 -8 -9 -17 -10 -16 0 -16 -1 1
-8 11 -4 21 -18 23 -31 5 -35 15 -40 11 -5 -2 22 4 36 22 52 25 23 24 24 -17
16z"/>
<path d="M3895 1490 c-4 -6 -23 -18 -43 -28 -19 -9 -37 -23 -40 -29 -7 -23 27
-14 61 17 19 17 40 30 46 30 6 0 11 5 11 10 0 13 -27 13 -35 0z"/>
<path d="M2220 1470 c0 -5 5 -10 11 -10 5 0 7 5 4 10 -3 6 -8 10 -11 10 -2 0
-4 -4 -4 -10z"/>
<path d="M1395 1450 c3 -5 12 -7 20 -3 21 7 19 13 -6 13 -11 0 -18 -4 -14 -10z"/>
<path d="M1790 1450 c8 -5 22 -10 30 -10 13 0 13 1 0 10 -8 5 -22 10 -30 10
-13 0 -13 -1 0 -10z"/>
<path d="M1750 1428 c0 -6 3 -8 7 -5 3 4 13 1 22 -6 14 -11 14 -10 2 6 -15 20
-31 22 -31 5z"/>
<path d="M3990 1430 c-8 -5 -12 -12 -9 -15 4 -3 12 1 19 10 14 17 11 19 -10 5z"/>
<path d="M2057 1409 c7 -7 15 -10 18 -7 3 3 -2 9 -12 12 -14 6 -15 5 -6 -5z"/>
<path d="M3930 1407 c0 -17 29 -57 41 -57 5 0 9 7 9 16 0 8 -5 12 -10 9 -6 -3
-14 5 -20 19 -10 28 -20 34 -20 13z"/>
<path d="M2225 1400 c3 -5 8 -10 11 -10 2 0 4 5 4 10 0 6 -5 10 -11 10 -5 0
-7 -4 -4 -10z"/>
<path d="M4000 1390 c-9 -6 -10 -10 -3 -10 6 0 15 5 18 10 8 12 4 12 -15 0z"/>
<path d="M657 1360 c3 -11 7 -20 9 -20 2 0 4 9 4 20 0 11 -4 20 -9 20 -5 0 -7
-9 -4 -20z"/>
<path d="M580 1350 c6 -11 13 -20 16 -20 2 0 0 9 -6 20 -6 11 -13 20 -16 20
-2 0 0 -9 6 -20z"/>
<path d="M2120 1341 c0 -6 4 -13 10 -16 6 -3 7 1 4 9 -7 18 -14 21 -14 7z"/>
<path d="M4090 1340 c20 -13 33 -13 25 0 -3 6 -14 10 -23 10 -15 0 -15 -2 -2
-10z"/>
<path d="M1776 1325 c4 -8 8 -15 10 -15 2 0 4 7 4 15 0 8 -4 15 -10 15 -5 0
-7 -7 -4 -15z"/>
<path d="M3956 1324 c-9 -24 -7 -27 9 -10 17 17 19 26 6 26 -5 0 -12 -7 -15
-16z"/>
<path d="M1791 1284 c0 -11 3 -14 6 -6 3 7 2 16 -1 19 -3 4 -6 -2 -5 -13z"/>
<path d="M2030 1259 c0 -5 5 -7 10 -4 6 3 10 8 10 11 0 2 -4 4 -10 4 -5 0 -10
-5 -10 -11z"/>
<path d="M736 1252 c-3 -6 -1 -14 5 -17 14 -9 20 -2 10 14 -6 8 -11 9 -15 3z"/>
<path d="M3760 1250 c-8 -5 -12 -11 -10 -14 3 -2 14 2 24 10 22 15 10 19 -14
4z"/>
<path d="M777 1223 c-3 -5 -1 -17 4 -28 6 -17 7 -16 6 8 -1 28 -3 32 -10 20z"/>
<path d="M3683 1214 c-17 -17 -16 -24 2 -24 8 0 16 -4 16 -10 1 -5 3 -14 4
-20 1 -5 3 -19 4 -29 0 -11 9 -22 19 -25 9 -3 29 -17 43 -30 15 -14 30 -22 33
-18 4 3 -13 25 -38 47 -27 23 -47 50 -49 65 -1 14 -7 32 -12 41 -8 14 -12 15
-22 3z"/>
<path d="M637 1197 c-3 -8 1 -14 9 -14 16 0 19 13 5 21 -5 3 -11 0 -14 -7z"/>
<path d="M3955 1190 c3 -5 8 -10 11 -10 2 0 4 5 4 10 0 6 -5 10 -11 10 -5 0
-7 -4 -4 -10z"/>
<path d="M2200 1181 c0 -5 5 -13 10 -16 6 -3 10 -2 10 4 0 5 -4 13 -10 16 -5
3 -10 2 -10 -4z"/>
<path d="M384 1173 c10 -11 36 -12 36 -2 0 5 -10 9 -22 9 -12 0 -18 -3 -14 -7z"/>
<path d="M455 1169 c-11 -17 1 -21 15 -4 8 9 8 15 2 15 -6 0 -14 -5 -17 -11z"/>
<path d="M2120 1170 c-8 -5 -10 -10 -5 -10 6 0 17 5 25 10 8 5 11 10 5 10 -5
0 -17 -5 -25 -10z"/>
<path d="M655 1147 c10 -15 20 -25 23 -22 3 3 -5 16 -17 28 l-23 22 17 -28z"/>
<path d="M3843 1156 c14 -14 21 -16 30 -7 8 8 8 11 0 11 -6 0 -20 3 -30 7 -17
7 -17 6 0 -11z"/>
<path d="M609 1158 c-6 -21 -5 -38 2 -38 5 0 9 9 9 20 0 16 -7 28 -11 18z"/>
<path d="M498 1143 c7 -3 16 -2 19 1 4 3 -2 6 -13 5 -11 0 -14 -3 -6 -6z"/>
<path d="M2136 1134 c-9 -8 -14 -20 -11 -25 11 -17 44 -9 56 14 11 20 11 21
-5 8 -14 -12 -16 -12 -10 3 8 20 -10 21 -30 0z"/>
<path d="M2325 1140 c-3 -6 1 -13 10 -16 19 -8 30 0 20 15 -8 14 -22 14 -30 1z"/>
<path d="M2220 1125 c-7 -9 -11 -17 -9 -20 3 -2 10 5 17 15 14 24 10 26 -8 5z"/>
<path d="M845 1120 c3 -5 8 -10 11 -10 2 0 4 5 4 10 0 6 -5 10 -11 10 -5 0 -7
-4 -4 -10z"/>
<path d="M3780 1119 c0 -5 5 -7 10 -4 6 3 10 8 10 11 0 2 -4 4 -10 4 -5 0 -10
-5 -10 -11z"/>
<path d="M2253 1113 c4 -3 1 -13 -6 -22 -11 -14 -10 -14 5 -2 16 12 16 31 1
31 -4 0 -3 -3 0 -7z"/>
<path d="M3820 1111 c0 -17 18 -21 24 -6 3 9 0 15 -9 15 -8 0 -15 -4 -15 -9z"/>
<path d="M860 1091 c0 -5 7 -11 14 -14 10 -4 13 -1 9 9 -6 15 -23 19 -23 5z"/>
<path d="M2380 1079 c0 -5 5 -7 10 -4 6 3 10 8 10 11 0 2 -4 4 -10 4 -5 0 -10
-5 -10 -11z"/>
<path d="M3910 1080 c-12 -8 -11 -10 7 -10 12 0 25 5 28 10 8 13 -15 13 -35 0z"/>
<path d="M2198 1063 c6 -2 18 -2 25 0 6 3 1 5 -13 5 -14 0 -19 -2 -12 -5z"/>
<path d="M2270 1055 c7 -8 20 -15 28 -15 13 0 12 3 -4 15 -25 19 -40 19 -24 0z"/>
<path d="M4137 1053 c-4 -3 -7 -11 -7 -17 0 -6 5 -5 12 2 6 6 9 14 7 17 -3 3
-9 2 -12 -2z"/>
<path d="M2215 1030 c-3 -6 1 -7 9 -4 18 7 21 14 7 14 -6 0 -13 -4 -16 -10z"/>
<path d="M2390 1036 c0 -2 7 -7 16 -10 8 -3 12 -2 9 4 -6 10 -25 14 -25 6z"/>
<path d="M4133 1000 c-1 -11 2 -20 8 -20 5 0 9 9 9 20 0 11 -4 20 -8 20 -4 0
-8 -9 -9 -20z"/>
<path d="M931 981 c-10 -17 -8 -18 13 -8 14 7 22 15 20 19 -9 14 -23 9 -33
-11z"/>
<path d="M1045 940 c3 -5 8 -10 11 -10 2 0 4 5 4 10 0 6 -5 10 -11 10 -5 0 -7
-4 -4 -10z"/>
<path d="M1361 934 c0 -11 3 -14 6 -6 3 7 2 16 -1 19 -3 4 -6 -2 -5 -13z"/>
<path d="M1070 924 c0 -8 5 -12 10 -9 6 4 8 11 5 16 -9 14 -15 11 -15 -7z"/>
<path d="M4136 915 c-3 -8 -1 -15 4 -15 6 0 10 7 10 15 0 8 -2 15 -4 15 -2 0
-6 -7 -10 -15z"/>
<path d="M1600 906 c0 -2 7 -7 16 -10 8 -3 12 -2 9 4 -6 10 -25 14 -25 6z"/>
<path d="M1448 893 c7 -3 16 -2 19 1 4 3 -2 6 -13 5 -11 0 -14 -3 -6 -6z"/>
<path d="M4135 870 c3 -5 8 -10 11 -10 2 0 4 5 4 10 0 6 -5 10 -11 10 -5 0 -7
-4 -4 -10z"/>
<path d="M4135 820 c3 -5 8 -10 11 -10 2 0 4 5 4 10 0 6 -5 10 -11 10 -5 0 -7
-4 -4 -10z"/>
<path d="M4133 775 c0 -8 4 -15 9 -15 4 0 8 7 8 15 0 8 -4 15 -8 15 -5 0 -9
-7 -9 -15z"/>
<path d="M1824 733 c10 -11 37 -12 30 -2 -3 5 -12 9 -21 9 -9 0 -13 -3 -9 -7z"/>
<path d="M4135 730 c3 -5 8 -10 11 -10 2 0 4 5 4 10 0 6 -5 10 -11 10 -5 0 -7
-4 -4 -10z"/>
<path d="M1905 690 c3 -5 8 -10 11 -10 2 0 4 5 4 10 0 6 -5 10 -11 10 -5 0 -7
-4 -4 -10z"/>
<path d="M1858 663 c7 -3 16 -2 19 1 4 3 -2 6 -13 5 -11 0 -14 -3 -6 -6z"/>
<path d="M1770 601 c0 -5 7 -11 14 -14 10 -4 13 -1 9 9 -6 15 -23 19 -23 5z"/>
<path d="M3290 357 c-28 -14 -38 -63 -20 -97 13 -25 81 -28 100 -4 21 25 16
75 -9 96 -27 21 -37 22 -71 5z m55 -57 c0 -31 -3 -35 -25 -35 -19 0 -26 6 -28
23 -5 36 5 54 30 50 19 -2 23 -9 23 -38z"/>
<path d="M3416 363 c-3 -3 -6 -33 -6 -65 0 -45 3 -58 15 -58 12 0 15 13 15 59
0 56 -9 79 -24 64z"/>
<path d="M3493 360 c-33 -13 -29 -46 7 -65 17 -9 30 -20 30 -25 0 -6 -13 -10
-30 -10 -16 0 -30 -4 -30 -10 0 -16 66 -12 80 5 16 20 6 43 -25 57 -32 14 -32
28 0 28 28 0 34 15 9 24 -9 3 -16 6 -17 5 -1 0 -12 -4 -24 -9z"/>
<path d="M3648 362 c-15 -3 -18 -14 -18 -63 0 -46 3 -59 15 -59 9 0 15 9 15
25 0 14 5 25 10 25 6 0 16 -11 22 -25 6 -14 17 -25 25 -25 16 0 16 1 3 36 -7
19 -7 30 1 40 22 26 -26 56 -73 46z m52 -33 c0 -12 -29 -24 -37 -16 -3 4 -3
13 0 21 6 16 37 11 37 -5z"/>
<path d="M3908 358 c-12 -10 -48 -96 -48 -115 0 -10 29 0 34 12 3 8 14 15 25
15 10 0 21 -7 25 -15 3 -8 13 -15 22 -15 9 0 14 6 11 13 -2 6 -13 36 -23 65
-20 56 -22 58 -46 40z m22 -54 c0 -8 -7 -14 -15 -14 -17 0 -18 2 -9 24 7 18
24 12 24 -10z"/>
<path d="M4080 352 c-25 -21 -19 -45 16 -60 33 -16 30 -32 -6 -32 -16 0 -30
-4 -30 -9 0 -12 31 -18 60 -11 32 7 41 57 13 67 -10 3 -24 11 -32 17 -11 9 -9
12 14 16 16 3 29 9 29 14 1 17 -42 16 -64 -2z"/>
<path d="M3120 300 l0 -60 38 0 c51 0 75 19 74 59 -1 46 -18 61 -68 61 l-44 0
0 -60z m79 18 c12 -31 -4 -58 -34 -58 -20 0 -25 5 -25 24 0 13 3 31 6 40 9 24
43 19 53 -6z"/>
<path d="M3760 300 l0 -60 40 0 c22 0 40 5 40 10 0 6 -11 10 -24 10 -27 0 -45
18 -24 24 50 15 54 19 24 25 -41 8 -46 31 -7 31 17 0 31 5 31 10 0 6 -18 10
-40 10 l-40 0 0 -60z"/>
<path d="M4004 300 c-1 -50 2 -60 14 -58 11 2 16 14 15 43 -2 69 -3 75 -16 75
-9 0 -13 -18 -13 -60z"/>
<path d="M261 303 c-13 -47 -14 -63 -2 -63 5 0 11 6 14 13 3 9 9 9 27 -1 12
-7 23 -12 25 -10 2 2 -2 24 -8 51 -13 60 -41 65 -56 10z m39 -14 c0 -5 -4 -9
-10 -9 -5 0 -10 7 -10 16 0 8 5 12 10 9 6 -3 10 -10 10 -16z"/>
<path d="M362 294 c-7 -26 -10 -49 -6 -53 4 -3 9 0 11 7 3 6 13 12 23 12 10 0
20 -6 23 -12 2 -7 7 -10 11 -7 4 4 2 27 -5 53 -16 63 -40 63 -57 0z m38 1 c0
-8 -4 -15 -10 -15 -5 0 -10 7 -10 15 0 8 5 15 10 15 6 0 10 -7 10 -15z"/>
<path d="M464 326 c-11 -29 1 -81 18 -84 22 -4 41 39 32 74 -7 27 -41 34 -50
10z m36 -36 c0 -16 -4 -32 -10 -35 -6 -4 -10 10 -10 35 0 25 4 39 10 35 6 -3
10 -19 10 -35z"/>
<path d="M554 327 c-3 -8 -4 -30 -2 -49 2 -28 7 -33 28 -33 23 0 25 4 25 45 0
39 -3 45 -23 48 -13 2 -24 -3 -28 -11z m36 -38 c0 -24 -4 -38 -10 -34 -17 10
-11 75 7 75 2 0 3 -18 3 -41z"/>
<path d="M657 333 c-14 -13 -7 -84 8 -89 33 -13 56 35 39 80 -6 16 -35 22 -47
9z m33 -44 c0 -16 -4 -29 -10 -29 -5 0 -10 16 -10 36 0 21 4 33 10 29 6 -3 10
-19 10 -36z"/>
<path d="M744 316 c-10 -43 3 -78 29 -74 19 3 22 9 22 48 0 39 -3 45 -22 48
-17 3 -24 -3 -29 -22z m36 -32 c0 -21 -4 -33 -10 -29 -5 3 -10 19 -10 36 0 16
5 29 10 29 6 0 10 -16 10 -36z"/>
<path d="M844 326 c-11 -28 1 -81 18 -84 23 -4 43 38 34 72 -7 28 -43 36 -52
12z m36 -37 c0 -16 -4 -29 -10 -29 -5 0 -10 16 -10 36 0 21 4 33 10 29 6 -3
10 -19 10 -36z"/>
<path d="M934 316 c-10 -43 3 -78 29 -74 19 3 22 9 22 48 0 39 -3 45 -22 48
-17 3 -24 -3 -29 -22z m36 -27 c0 -24 -4 -38 -10 -34 -17 10 -11 75 7 75 2 0
3 -18 3 -41z"/>
<path d="M1034 326 c-3 -8 -4 -29 -2 -48 2 -25 8 -34 25 -36 26 -4 39 31 29
73 -7 28 -43 35 -52 11z m36 -36 c0 -16 -4 -32 -10 -35 -6 -4 -10 10 -10 35 0
25 4 39 10 35 6 -3 10 -19 10 -35z"/>
<path d="M1124 315 c-9 -35 11 -77 34 -73 13 3 17 13 17 48 0 39 -3 45 -22 48
-17 3 -24 -3 -29 -23z m36 -26 c0 -24 -4 -38 -10 -34 -17 10 -11 75 7 75 2 0
3 -18 3 -41z"/>
<path d="M1224 327 c-3 -8 -4 -30 -2 -49 2 -28 7 -33 28 -33 23 0 25 4 25 45
0 39 -3 45 -23 48 -13 2 -24 -3 -28 -11z m36 -38 c0 -16 -4 -29 -10 -29 -5 0
-10 16 -10 36 0 21 4 33 10 29 6 -3 10 -19 10 -36z"/>
</g>
</svg>
