<?xml version="1.0" standalone="no"?>
<!DOCTYPE svg PUBLIC "-//W3C//DTD SVG 20010904//EN"
 "http://www.w3.org/TR/2001/REC-SVG-20010904/DTD/svg10.dtd">
<svg version="1.0" xmlns="http://www.w3.org/2000/svg"
 width="447.000000pt" height="232.000000pt" viewBox="0 0 447.000000 232.000000"
 preserveAspectRatio="xMidYMid meet">

<g transform="translate(0.000000,232.000000) scale(0.100000,-0.100000)"
fill="#000000" stroke="none">
<path d="M180 2095 c0 -47 3 -55 19 -55 25 0 38 19 36 56 -2 40 -12 54 -36 54
-16 0 -19 -7 -19 -55z m35 15 c-5 -8 -11 -8 -17 -2 -6 6 -7 16 -3 22 5 8 11 8
17 2 6 -6 7 -16 3 -22z m3 -37 c-4 -22 -22 -20 -26 1 -2 10 3 16 13 16 10 0
15 -7 13 -17z"/>
<path d="M260 2100 c-7 -28 -9 -54 -6 -57 3 -4 6 1 6 10 0 22 29 22 46 0 17
-23 17 -9 0 46 -7 25 -18 47 -23 48 -6 2 -16 -19 -23 -47z m30 5 c0 -8 -4 -15
-10 -15 -5 0 -7 7 -4 15 4 8 8 15 10 15 2 0 4 -7 4 -15z"/>
<path d="M330 2101 c0 -28 5 -53 10 -56 6 -4 10 9 10 32 l1 38 20 -38 c11 -21
24 -35 29 -32 13 8 13 105 0 105 -5 0 -10 -17 -10 -37 l-1 -38 -20 38 c-11 20
-24 37 -29 37 -6 0 -10 -22 -10 -49z"/>
<path d="M432 2138 c-15 -15 -16 -53 -2 -79 11 -20 60 -27 60 -8 0 6 -6 9 -13
6 -22 -8 -39 9 -39 38 0 29 19 48 40 40 6 -2 12 0 12 5 0 14 -44 12 -58 -2z"/>
<path d="M510 2135 c-28 -33 -7 -95 31 -95 21 0 39 28 39 62 0 44 -44 64 -70
33z m50 -14 c13 -26 13 -33 -4 -56 -12 -16 -16 -17 -30 -6 -19 16 -21 52 -4
69 17 17 26 15 38 -7z"/>
<path d="M632 2138 c-15 -15 -16 -53 -2 -79 11 -20 60 -27 60 -8 0 6 -7 9 -15
5 -16 -6 -45 18 -45 39 0 20 30 47 46 41 8 -3 14 -1 14 4 0 14 -44 12 -58 -2z"/>
<path d="M700 2095 c0 -55 0 -55 31 -55 17 0 28 4 24 10 -3 6 -13 10 -21 10
-8 0 -14 7 -14 15 0 8 7 15 15 15 8 0 15 5 15 10 0 6 -6 9 -12 8 -7 -2 -13 4
-13 12 0 8 5 15 12 15 6 0 15 3 19 8 4 4 -7 7 -24 7 l-32 0 0 -55z"/>
<path d="M770 2093 c0 -38 3 -53 9 -44 5 8 7 28 5 45 -4 30 -3 30 22 -11 14
-24 27 -43 30 -43 2 0 3 26 3 58 -2 54 -2 55 -8 17 l-7 -40 -19 38 c-10 20
-22 37 -27 37 -4 0 -8 -26 -8 -57z"/>
<path d="M850 2140 c0 -5 7 -10 15 -10 11 0 15 -12 15 -47 0 -57 8 -53 11 5 2
27 8 42 16 42 7 0 13 5 13 10 0 6 -16 10 -35 10 -19 0 -35 -4 -35 -10z"/>
<path d="M937 2143 c-4 -3 -7 -29 -6 -57 0 -41 2 -46 9 -28 10 25 30 30 30 8
0 -8 4 -17 9 -20 11 -7 9 74 -2 92 -9 13 -30 16 -40 5z m36 -28 c1 -5 -6 -11
-15 -13 -11 -2 -18 3 -18 13 0 17 30 18 33 0z"/>
<path d="M1015 2100 c-9 -28 -14 -54 -11 -57 3 -3 8 2 12 11 8 20 33 21 40 1
4 -8 10 -15 14 -15 9 0 -16 90 -29 103 -5 5 -16 -13 -26 -43z m29 5 c3 -8 1
-15 -4 -15 -6 0 -10 7 -10 15 0 8 2 15 4 15 2 0 6 -7 10 -15z"/>
<path d="M1092 2098 c-2 -57 -2 -58 26 -57 23 0 24 1 7 8 -15 6 -22 20 -26 57
l-6 49 -1 -57z"/>
<path d="M1187 2144 c-4 -4 -7 -29 -7 -55 0 -52 13 -64 51 -45 25 12 37 59 22
83 -10 14 -56 26 -66 17z m53 -29 c16 -19 -2 -65 -25 -65 -11 0 -15 11 -15 40
0 43 17 53 40 25z"/>
<path d="M1287 2132 c-34 -37 -16 -92 30 -92 42 0 56 57 23 90 -25 25 -32 25
-53 2z m48 -42 c0 -41 -27 -53 -45 -21 -14 27 4 64 28 59 12 -2 17 -13 17 -38z"/>
<path d="M4118 2143 c7 -3 16 -2 19 1 4 3 -2 6 -13 5 -11 0 -14 -3 -6 -6z"/>
<path d="M1402 2088 c3 -56 13 -66 43 -44 17 12 18 18 8 34 -8 14 -8 23 -1 30
15 15 0 32 -28 32 -24 0 -25 -2 -22 -52z m38 27 c0 -8 -7 -15 -15 -15 -8 0
-15 7 -15 15 0 8 7 15 15 15 8 0 15 -7 15 -15z m0 -51 c0 -8 -7 -14 -15 -14
-15 0 -21 21 -9 33 10 9 24 -2 24 -19z"/>
<path d="M1470 2091 c0 -28 5 -51 10 -51 6 0 10 9 10 20 0 27 14 25 28 -2 9
-20 10 -15 9 27 -2 47 -4 50 -29 53 -27 3 -28 2 -28 -47z m45 19 c0 -7 -6 -15
-12 -17 -8 -3 -13 4 -13 17 0 13 5 20 13 18 6 -3 12 -11 12 -18z"/>
<path d="M1555 2088 c-19 -66 -19 -68 5 -38 l20 25 20 -25 c11 -14 20 -22 20
-19 1 19 -32 109 -40 109 -5 0 -16 -23 -25 -52z m35 1 c0 -5 -4 -9 -10 -9 -5
0 -10 7 -10 16 0 8 5 12 10 9 6 -3 10 -10 10 -16z"/>
<path d="M1633 2123 c-4 -10 2 -23 15 -34 28 -22 28 -39 1 -39 -11 0 -17 -4
-14 -10 10 -16 34 -11 45 10 8 15 5 24 -17 44 l-27 25 25 10 c24 10 24 10 1
10 -12 1 -25 -6 -29 -16z"/>
<path d="M1703 2085 c0 -33 2 -45 4 -27 2 18 2 45 0 60 -2 15 -4 0 -4 -33z"/>
<path d="M1730 2085 c0 -52 1 -55 25 -55 14 0 25 5 25 10 0 6 -7 10 -15 10
-11 0 -15 12 -15 45 0 25 -4 45 -10 45 -5 0 -10 -25 -10 -55z"/>
<path d="M2941 2117 c-17 -17 -14 -84 5 -91 25 -10 34 2 34 49 0 44 -17 64
-39 42z m27 -44 c-2 -21 -7 -38 -13 -38 -5 0 -11 17 -13 38 -3 29 0 37 13 37
13 0 16 -8 13 -37z"/>
<path d="M3020 2111 c-15 -29 -12 -67 6 -86 23 -23 44 -2 44 44 0 55 -30 79
-50 42z m35 -41 c0 -18 -5 -35 -12 -37 -14 -5 -28 40 -19 63 10 27 31 9 31
-26z"/>
<path d="M3110 2110 c-17 -33 -9 -94 14 -98 24 -5 36 14 36 59 0 53 -30 77
-50 39z m38 -24 c5 -24 -6 -66 -18 -66 -13 0 -23 38 -16 66 7 28 29 28 34 0z"/>
<path d="M3206 2114 c-29 -28 -14 -114 19 -114 18 0 35 31 35 65 0 30 -16 65
-30 65 -5 0 -16 -7 -24 -16z m35 -26 c3 -66 -14 -95 -32 -55 -14 31 -4 77 16
77 9 0 16 -10 16 -22z"/>
<path d="M3299 2123 c-7 -43 -6 -109 2 -119 5 -7 19 -10 30 -7 17 5 19 12 15
67 -2 33 -5 62 -5 64 -2 6 -41 1 -42 -5z m33 -28 c0 -5 -5 -11 -11 -13 -6 -2
-11 4 -11 13 0 9 5 15 11 13 6 -2 11 -8 11 -13z m5 -51 c8 -21 -13 -42 -28
-27 -13 13 -5 43 11 43 6 0 13 -7 17 -16z"/>
<path d="M3402 2118 c-30 -39 -20 -128 16 -128 28 0 42 21 42 63 0 63 -31 98
-58 65z m38 -56 c0 -54 -7 -67 -27 -51 -13 12 -18 80 -6 92 20 21 33 4 33 -41z"/>
<path d="M3502 2118 c-17 -17 -15 -113 3 -128 28 -23 49 -8 59 42 7 38 6 52
-8 72 -18 28 -35 33 -54 14z m43 -64 c0 -37 -4 -49 -16 -52 -20 -4 -31 51 -18
86 15 39 34 20 34 -34z"/>
<path d="M3612 2117 c-30 -36 -21 -130 14 -144 24 -9 54 31 54 71 0 61 -41
106 -68 73z m42 -23 c9 -23 7 -77 -3 -93 -16 -25 -41 6 -41 48 0 50 30 81 44
45z"/>
<path d="M3742 2107 c-25 -26 -30 -46 -7 -27 13 11 15 5 15 -49 0 -34 4 -61
10 -61 6 0 10 33 10 80 0 44 -1 80 -3 80 -2 0 -13 -10 -25 -23z"/>
<path d="M2722 2087 c-15 -43 -15 -48 2 -41 8 3 12 14 8 27 -3 13 -1 18 4 14
5 -5 10 -13 10 -18 1 -5 2 -13 3 -19 0 -5 5 -10 10 -10 10 0 -5 57 -18 72 -4
5 -12 -7 -19 -25z"/>
<path d="M2843 2093 c-24 -62 -24 -64 -2 -50 16 10 21 9 30 -3 7 -11 8 -5 3
20 -10 56 -19 66 -31 33z m17 -18 c0 -8 -4 -15 -10 -15 -5 0 -7 7 -4 15 4 8 8
15 10 15 2 0 4 -7 4 -15z"/>
<path d="M3988 2103 c7 -3 16 -2 19 1 4 3 -2 6 -13 5 -11 0 -14 -3 -6 -6z"/>
<path d="M4183 2040 c0 -25 2 -35 4 -22 2 12 2 32 0 45 -2 12 -4 2 -4 -23z"/>
<path d="M4010 1995 c-7 -9 -8 -15 -2 -15 5 0 12 7 16 15 3 8 4 15 2 15 -2 0
-9 -7 -16 -15z"/>
<path d="M4149 1953 c-13 -16 -12 -17 4 -4 16 13 21 21 13 21 -2 0 -10 -8 -17
-17z"/>
<path d="M246 1946 c-60 -22 -67 -34 -49 -78 l15 -37 31 20 c41 24 72 24 97
-1 43 -43 17 -106 -90 -223 -61 -65 -73 -84 -75 -116 -2 -30 1 -38 11 -34 9 3
14 -2 14 -12 0 -9 -4 -14 -9 -11 -5 3 -11 -3 -14 -14 -3 -13 -10 -18 -21 -14
-9 3 -16 1 -16 -6 0 -6 4 -8 10 -5 6 3 10 1 10 -4 0 -6 -7 -11 -15 -11 -9 0
-15 -6 -13 -14 2 -8 -6 -22 -17 -31 -14 -11 -16 -18 -7 -21 6 -3 12 -14 12
-24 0 -10 12 -26 27 -35 24 -16 25 -18 8 -28 -14 -7 -21 -6 -31 8 -7 10 -11
22 -8 26 3 5 -5 9 -17 9 -22 0 -22 1 -4 13 11 9 14 16 7 21 -6 3 -14 2 -17 -4
-4 -7 -11 -7 -18 -2 -7 5 -23 12 -37 15 -21 5 -26 2 -27 -14 -1 -15 3 -19 18
-14 11 4 25 0 35 -9 8 -9 23 -20 32 -25 14 -8 15 -12 5 -22 -7 -7 -13 -20 -12
-28 0 -10 4 -7 9 7 13 32 30 27 25 -8 -2 -16 0 -30 3 -30 4 0 16 -7 26 -15 18
-13 18 -16 2 -39 -18 -28 -21 -56 -6 -56 6 0 10 -11 10 -25 0 -17 4 -23 15
-19 9 4 18 -2 24 -17 8 -19 10 -20 10 -6 1 10 6 15 11 12 7 -4 10 8 8 35 -1
27 3 44 12 50 8 5 17 6 20 3 3 -3 -1 -8 -7 -10 -7 -3 -13 -12 -13 -20 0 -10 6
-13 16 -9 9 3 19 6 24 6 5 0 11 8 13 18 3 11 5 7 6 -10 1 -21 -3 -25 -19 -21
-12 3 -20 0 -20 -6 0 -7 -4 -9 -10 -6 -5 3 -10 1 -10 -4 0 -6 5 -11 12 -11 6
0 19 -7 29 -16 16 -14 18 -14 29 5 6 12 7 21 3 21 -4 1 7 9 26 18 19 9 42 31
51 49 13 25 20 29 29 20 10 -9 11 -8 6 6 -4 9 -9 17 -12 17 -9 0 -68 -35 -71
-42 -7 -15 -20 -8 -18 10 1 12 -6 17 -22 16 -16 -1 -22 3 -18 13 3 8 2 11 -4
8 -10 -6 -30 26 -30 49 0 9 7 16 16 16 11 0 15 -6 11 -19 -2 -11 0 -18 7 -16
27 5 46 18 46 31 0 17 -16 18 -24 2 -5 -10 -7 -10 -12 0 -3 6 -17 12 -30 12
-18 0 -24 -6 -25 -22 -1 -17 -2 -19 -6 -5 -2 9 -14 18 -26 18 -18 1 -19 2 -4
6 14 4 15 8 7 18 -8 9 -7 20 1 39 7 14 9 29 6 33 -8 8 -48 -32 -41 -41 2 -3
-2 -2 -8 4 -9 7 -7 13 7 24 19 13 18 15 -15 24 -19 6 -27 11 -17 11 9 1 17 7
17 15 0 8 8 21 18 28 11 7 21 20 24 27 3 12 6 12 11 -2 3 -9 2 -17 -4 -17 -6
0 -7 -4 -4 -10 4 -6 -1 -7 -11 -3 -13 5 -16 2 -12 -9 4 -9 1 -21 -5 -27 -9 -9
-7 -10 8 -5 11 4 29 18 40 31 11 13 26 23 32 23 15 0 23 24 13 40 -20 32 0 40
101 40 l99 0 0 49 0 49 -52 0 c-97 -1 -96 -3 -39 57 64 68 89 121 86 185 -2
52 -22 91 -58 115 -35 22 -106 27 -151 11z m51 -12 c-3 -3 -12 -4 -19 -1 -8 3
-5 6 6 6 11 1 17 -2 13 -5z m101 -29 c-3 -3 -9 2 -12 12 -6 14 -5 15 5 6 7 -7
10 -15 7 -18z m-113 -15 c3 -5 1 -10 -4 -10 -6 0 -11 5 -11 10 0 6 2 10 4 10
3 0 8 -4 11 -10z m81 -31 c3 -6 -5 -3 -20 6 -14 10 -26 19 -26 22 0 7 39 -17
46 -28z m44 -33 c0 -3 -4 -8 -10 -11 -5 -3 -10 -1 -10 4 0 6 5 11 10 11 6 0
10 -2 10 -4z m12 -38 c-7 -7 -12 -8 -12 -2 0 14 12 26 19 19 2 -3 -1 -11 -7
-17z m-172 -316 c0 -4 -9 -8 -20 -8 -11 0 -20 4 -20 8 0 4 9 8 20 8 11 0 20
-4 20 -8z m0 -28 c0 -3 -7 -12 -15 -20 -12 -13 -15 -13 -15 -1 0 7 3 17 7 20
8 8 23 9 23 1z m-20 -306 c0 -19 -2 -20 -10 -8 -13 19 -13 30 0 30 6 0 10 -10
10 -22z m-41 -5 c0 -5 -4 -17 -8 -27 -7 -18 -8 -18 -14 -3 -3 9 -2 17 4 17 6
0 7 5 4 10 -3 6 -1 10 4 10 6 0 11 -3 10 -7z m101 -93 c0 -5 -4 -10 -9 -10 -6
0 -13 5 -16 10 -3 6 1 10 9 10 9 0 16 -4 16 -10z"/>
<path d="M564 1946 c-57 -25 -94 -112 -96 -222 -2 -152 48 -243 135 -246 41
-1 79 11 72 23 -3 5 0 6 8 3 21 -8 64 52 76 106 23 98 4 264 -32 287 -7 4 -8
0 -3 -12 6 -16 4 -16 -10 -4 -10 8 -12 15 -5 17 20 7 12 22 -21 42 -38 23 -80
25 -124 6z m73 -12 c-3 -3 -12 -4 -19 -1 -8 3 -5 6 6 6 11 1 17 -2 13 -5z
m-38 -44 c0 -10 -3 -8 -9 5 -12 27 -12 43 0 25 5 -8 9 -22 9 -30z m-26 -17
c-7 -2 -11 -10 -9 -16 1 -7 1 -9 -1 -4 -3 4 -8 5 -12 3 -4 -3 -8 1 -8 7 0 7
10 13 21 14 12 1 16 -1 9 -4z m84 -30 c25 -38 25 -203 0 -250 -10 -18 -24 -33
-31 -33 -8 0 -20 -2 -28 -3 -7 -2 -10 -2 -6 0 4 3 0 16 -10 31 -24 37 -24 218
1 256 22 34 52 33 74 -1z m-137 -13 c0 -5 -5 -10 -11 -10 -5 0 -7 5 -4 10 3 6
8 10 11 10 2 0 4 -4 4 -10z m220 -5 c-14 -17 -30 -20 -30 -4 0 5 4 8 9 4 5 -3
12 -1 16 5 3 5 9 10 12 10 3 0 0 -7 -7 -15z m-42 -40 c-3 -3 -9 2 -12 12 -6
14 -5 15 5 6 7 -7 10 -15 7 -18z m-187 -2 c13 -16 12 -17 -3 -4 -10 7 -18 15
-18 17 0 8 8 3 21 -13z m239 -7 c0 -3 -4 -8 -10 -11 -5 -3 -10 -1 -10 4 0 6 5
11 10 11 6 0 10 -2 10 -4z m-13 -48 c-3 -8 -6 -5 -6 6 -1 11 2 17 5 13 3 -3 4
-12 1 -19z"/>
<path d="M918 1953 c-10 -2 -18 -11 -18 -19 0 -8 -5 -14 -11 -14 -5 0 -7 6 -3
13 5 7 -2 5 -16 -4 -14 -9 -36 -38 -50 -65 -22 -42 -25 -61 -25 -149 0 -86 4
-107 25 -149 33 -66 69 -91 126 -90 76 2 121 50 143 154 11 52 6 69 -21 70 -5
0 -8 7 -8 16 0 8 -3 13 -8 10 -4 -2 -12 7 -19 20 -7 16 -8 22 0 17 7 -4 8 0 3
13 -7 18 -6 18 12 -1 11 -11 18 -22 16 -24 -2 -2 4 -10 14 -18 9 -8 11 -11 3
-7 -9 4 -12 2 -9 -6 2 -8 10 -16 17 -18 20 -7 3 125 -23 172 -33 62 -95 95
-148 79z m17 -23 c-4 -6 -2 -16 4 -23 7 -9 5 -13 -10 -13 -21 0 -25 16 -7 34
15 15 21 16 13 2z m103 -46 c-3 -14 -5 -12 -10 9 -3 19 -2 25 4 19 6 -6 8 -18
6 -28z m-38 11 c0 -8 -2 -15 -4 -15 -2 0 -6 7 -10 15 -3 8 -1 15 4 15 6 0 10
-7 10 -15z m-100 -9 c0 -9 -30 -14 -35 -6 -4 6 3 10 14 10 12 0 21 -2 21 -4z
m79 -30 c35 -42 30 -257 -6 -283 -27 -20 -42 -15 -64 20 -17 27 -19 46 -17
127 2 71 8 103 21 123 19 30 48 35 66 13z m58 -28 c-3 -7 -5 -2 -5 12 0 14 2
19 5 13 2 -7 2 -19 0 -25z m-14 -33 c-3 -9 -8 -14 -10 -11 -3 3 -2 9 2 15 9
16 15 13 8 -4z m-199 -10 c-4 -8 -8 -15 -10 -15 -2 0 -4 7 -4 15 0 8 4 15 10
15 5 0 7 -7 4 -15z m0 -60 c-4 -8 -11 -15 -16 -15 -6 0 -5 6 2 15 7 8 14 15
16 15 2 0 1 -7 -2 -15z m214 -50 c12 -14 18 -25 13 -25 -5 0 -16 11 -25 25 -9
14 -15 25 -13 25 2 0 13 -11 25 -25z"/>
<path d="M908 1667 c-9 -20 12 -89 28 -94 13 -4 44 23 44 38 0 6 -5 7 -12 3
-7 -5 -9 -2 -6 8 5 11 0 15 -15 14 -16 -1 -23 6 -27 24 -5 21 -7 22 -12 7z"/>
<path d="M4008 1943 c12 -2 30 -2 40 0 9 3 -1 5 -23 4 -22 0 -30 -2 -17 -4z"/>
<path d="M3345 1840 c-14 -16 -16 -23 -7 -32 9 -9 12 -9 13 0 3 25 4 30 9 35
3 3 10 -1 17 -8 10 -10 9 -16 -2 -25 -8 -7 -15 -16 -15 -21 0 -5 10 1 21 12
21 21 21 21 2 40 -19 19 -20 19 -38 -1z"/>
<path d="M3531 1833 c2 -28 2 -28 7 -3 4 23 5 24 13 5 7 -19 8 -19 8 3 1 13
-5 22 -14 22 -10 0 -15 -9 -14 -27z"/>
<path d="M2161 1835 c-28 -16 -45 -41 -36 -55 6 -9 -8 -14 -28 -11 -5 1 -6 -3
-2 -9 3 -5 1 -10 -4 -10 -6 0 -11 -5 -11 -11 0 -5 4 -7 10 -4 6 4 7 -1 3 -11
-4 -11 1 -22 12 -30 17 -13 17 -14 1 -14 -9 0 -15 -4 -12 -8 3 -5 -1 -9 -8 -9
-9 0 -12 7 -8 16 3 9 2 13 -3 9 -4 -4 -9 -21 -11 -37 -3 -23 2 -33 17 -42 16
-8 19 -18 16 -45 -5 -33 6 -47 16 -21 3 7 6 4 6 -7 1 -14 -4 -17 -23 -12 -16
4 -26 1 -30 -9 -3 -8 0 -15 6 -15 6 0 8 -3 5 -7 -11 -10 34 -52 49 -46 11 4
12 8 3 20 -9 10 -9 17 -1 25 15 15 15 53 1 80 -8 15 -8 19 1 13 6 -4 16 -19
22 -33 6 -16 12 -22 15 -14 5 14 -24 94 -37 102 -11 7 15 101 31 111 13 8 5
13 -14 10 -4 -1 0 11 10 26 24 39 26 41 18 14 -5 -17 -4 -21 4 -16 7 4 11 14
9 23 -1 10 1 23 5 30 10 15 -1 14 -32 -3z m-29 -102 c-6 -3 -10 -9 -7 -13 3
-5 1 -11 -4 -14 -11 -7 -9 13 3 32 4 7 11 10 15 6 3 -4 0 -9 -7 -11z"/>
<path d="M1179 1803 c-13 -16 -12 -17 4 -4 9 7 17 15 17 17 0 8 -8 3 -21 -13z"/>
<path d="M4207 1806 c-4 -10 -1 -13 8 -9 8 3 12 9 9 14 -7 12 -11 11 -17 -5z"/>
<path d="M1170 1757 c0 -15 4 -27 9 -27 6 0 8 10 6 21 -6 33 -15 36 -15 6z"/>
<path d="M2027 1760 c-3 -11 -1 -20 5 -20 5 0 7 -4 4 -9 -4 -5 -1 -11 6 -13 6
-2 8 -10 4 -17 -6 -9 -11 -8 -22 6 -13 16 -14 16 -8 1 4 -12 1 -18 -7 -18 -11
0 -11 -3 1 -10 8 -5 11 -10 7 -10 -12 0 12 -40 24 -40 6 0 3 7 -6 16 -15 15
-14 19 14 46 18 18 28 35 24 44 -5 13 -7 13 -14 2 -5 -7 -9 -11 -10 -8 -9 52
-14 59 -22 30z"/>
<path d="M1455 1759 c-8 -12 3 -113 16 -143 6 -14 7 -2 5 39 -2 33 -7 68 -11
77 -4 9 -4 22 0 28 3 5 4 10 1 10 -3 0 -8 -5 -11 -11z"/>
<path d="M3450 1717 c0 -41 4 -54 15 -54 11 0 15 13 15 54 0 40 -4 53 -15 53
-11 0 -15 -13 -15 -53z m17 -24 c-3 -10 -5 -4 -5 12 0 17 2 24 5 18 2 -7 2
-21 0 -30z"/>
<path d="M1404 1748 c-4 -7 -4 -10 1 -6 4 4 15 2 24 -5 14 -11 14 -10 2 6 -16
20 -18 21 -27 5z"/>
<path d="M1476 1741 c-7 -10 -1 -14 15 -13 3 1 6 -5 6 -13 0 -8 -4 -12 -9 -9
-4 3 -8 -3 -7 -13 1 -23 17 -63 18 -44 1 8 4 11 8 8 3 -4 15 0 25 10 14 13 18
13 18 2 0 -8 -7 -22 -14 -32 -11 -14 -15 -15 -19 -5 -3 7 -6 3 -6 -9 -1 -12
-4 -30 -7 -40 -6 -16 -5 -16 9 2 16 19 16 18 7 -12 -5 -18 -6 -33 -2 -33 4 -1
-6 -7 -23 -15 -16 -8 -20 -12 -9 -10 18 5 23 0 28 -26 3 -17 3 -36 -1 -42 -3
-5 -2 -7 3 -4 6 3 16 2 24 -3 11 -7 8 -10 -13 -15 -21 -6 -24 -10 -14 -20 7
-8 16 -10 23 -4 6 5 14 6 18 2 3 -4 5 4 3 17 -2 13 -9 26 -15 28 -19 6 -14 32
6 32 14 0 15 2 2 10 -12 8 -13 10 -1 10 10 0 7 8 -9 25 -13 14 -22 25 -19 26
2 0 19 3 38 6 32 4 33 3 21 -12 -9 -11 -16 -13 -18 -6 -2 6 -8 9 -13 5 -5 -3
-7 -10 -4 -15 8 -11 45 -12 45 0 0 11 49 11 56 0 3 -5 10 -7 15 -3 5 3 17 0
26 -8 12 -10 17 -10 20 -1 2 7 10 10 18 7 7 -3 16 0 21 7 4 7 3 10 -3 6 -5 -3
-23 -2 -39 3 -25 7 -26 8 -6 9 13 1 21 5 17 11 -4 6 -15 6 -31 0 -41 -16 -57
-13 -51 10 3 13 0 20 -10 20 -10 0 -13 -6 -8 -22 5 -18 4 -20 -4 -8 -6 8 -16
15 -23 15 -7 1 -12 6 -10 13 1 7 -5 15 -13 18 -8 4 -15 10 -15 16 0 5 5 6 10
3 6 -3 10 1 10 10 0 9 4 14 8 11 4 -2 8 4 8 15 0 12 -5 18 -13 15 -7 -3 -13
-1 -13 3 0 20 -31 20 -38 0 -7 -19 -9 -19 -22 -4 -11 14 -11 16 1 13 9 -2 13
4 11 17 -5 28 -28 50 -36 36z m81 -163 c-3 -8 -6 -5 -6 6 -1 11 2 17 5 13 3
-3 4 -12 1 -19z"/>
<path d="M1381 1723 c7 -12 17 -19 21 -17 4 3 8 -2 8 -12 0 -11 -6 -15 -20
-11 -23 6 -26 -3 -7 -22 10 -11 8 -11 -10 -2 -14 7 -24 8 -28 1 -6 -9 1 -14
18 -11 4 0 7 -8 7 -19 0 -18 -3 -19 -20 -10 -11 6 -20 8 -20 4 0 -3 -10 1 -23
9 -19 12 -24 13 -24 2 0 -8 4 -12 9 -9 4 3 8 0 8 -5 0 -6 7 -11 15 -11 8 0 15
-8 15 -17 0 -12 3 -14 8 -6 5 8 13 9 22 3 22 -14 30 -12 30 8 1 12 5 9 16 -10
16 -31 34 -37 34 -12 0 8 -4 13 -9 9 -5 -3 -12 4 -16 15 -3 11 -11 20 -16 20
-5 0 -9 5 -9 11 0 5 5 7 12 3 8 -5 9 0 6 14 -4 12 -2 24 2 27 12 8 32 -33 24
-48 -5 -9 -4 -9 6 0 8 7 10 19 5 30 -5 10 -9 20 -10 23 -2 3 -6 15 -10 28 -4
13 -13 21 -20 18 -7 -2 -18 1 -25 7 -9 9 -9 6 1 -10z"/>
<path d="M1527 1733 c-4 -3 -7 -12 -7 -19 0 -13 24 -13 37 0 4 4 1 6 -7 4 -8
-1 -14 3 -12 10 2 13 -1 15 -11 5z"/>
<path d="M1159 1716 c7 -9 8 -17 2 -20 -5 -3 -7 -15 -4 -27 4 -14 9 -17 16
-10 7 7 15 7 24 0 17 -15 43 -4 43 19 0 10 3 22 8 28 4 5 -5 -3 -20 -18 -15
-15 -30 -23 -33 -18 -4 6 -12 7 -18 3 -8 -4 -8 -1 1 9 10 13 10 19 -3 32 -20
20 -32 21 -16 2z"/>
<path d="M4210 1719 c0 -5 5 -7 10 -4 6 3 10 8 10 11 0 2 -4 4 -10 4 -5 0 -10
-5 -10 -11z"/>
<path d="M4290 1720 c0 -5 5 -10 10 -10 6 0 10 5 10 10 0 6 -4 10 -10 10 -5 0
-10 -4 -10 -10z"/>
<path d="M1124 1695 c1 -14 6 -25 11 -25 9 0 10 8 6 40 -3 22 -18 8 -17 -15z"/>
<path d="M3210 1696 c0 -13 7 -29 15 -36 13 -11 15 -7 15 24 0 25 -4 36 -15
36 -9 0 -15 -9 -15 -24z"/>
<path d="M3790 1705 c0 -8 5 -15 10 -15 6 0 10 7 10 15 0 8 -4 15 -10 15 -5 0
-10 -7 -10 -15z"/>
<path d="M1950 1685 c-12 -31 -24 -33 -15 -2 5 19 5 20 -5 4 -8 -13 -9 -22 -1
-31 11 -13 5 -26 -11 -26 -5 0 -6 5 -3 10 8 13 -6 13 -25 -1 -11 -8 -12 -12
-2 -16 6 -2 10 -8 7 -13 -3 -4 2 -11 11 -14 8 -3 12 -2 9 4 -3 5 5 16 19 25
16 10 25 28 28 50 5 41 1 44 -12 10z"/>
<path d="M1603 1665 c0 -8 4 -15 9 -15 4 0 8 4 8 9 0 6 -4 12 -8 15 -5 3 -9
-1 -9 -9z"/>
<path d="M3458 1643 c7 -3 16 -2 19 1 4 3 -2 6 -13 5 -11 0 -14 -3 -6 -6z"/>
<path d="M1113 1633 c-7 -2 -13 -12 -12 -21 0 -10 3 -12 5 -5 3 7 11 10 18 7
7 -3 19 2 26 11 10 13 9 15 -6 14 -11 0 -25 -3 -31 -6z"/>
<path d="M1624 1632 c5 -8 3 -13 -5 -11 -29 3 -38 -2 -36 -20 1 -17 3 -17 22
-5 12 8 24 11 28 8 3 -3 4 1 3 10 -1 8 -6 19 -11 23 -4 4 -5 2 -1 -5z"/>
<path d="M2006 1627 c3 -10 9 -15 12 -12 3 3 0 11 -7 18 -10 9 -11 8 -5 -6z"/>
<path d="M1660 1620 c-12 -8 -10 -10 8 -10 13 0 20 4 17 10 -7 12 -6 12 -25 0z"/>
<path d="M1860 1616 c0 -10 -6 -13 -15 -10 -8 4 -15 1 -15 -5 0 -6 -8 -11 -17
-11 -14 0 -15 -2 -4 -12 11 -10 14 -10 18 0 6 17 23 15 23 -3 0 -8 5 -15 10
-15 6 0 10 5 10 11 0 5 5 7 10 4 6 -3 10 -1 10 4 0 6 -4 11 -10 11 -5 0 -7 6
-4 14 3 8 1 17 -5 21 -6 3 -11 -1 -11 -9z"/>
<path d="M3532 1610 c0 -14 2 -19 5 -12 2 6 2 18 0 25 -3 6 -5 1 -5 -13z"/>
<path d="M3690 1622 c0 -5 7 -9 15 -9 8 0 15 4 15 9 0 4 -7 8 -15 8 -8 0 -15
-4 -15 -8z"/>
<path d="M1176 1607 c12 -7 19 -19 17 -27 -4 -13 -3 -13 6 0 8 11 6 18 -6 28
-9 6 -22 12 -27 12 -6 -1 -2 -6 10 -13z"/>
<path d="M1235 1610 c-3 -6 1 -7 9 -4 18 7 21 14 7 14 -6 0 -13 -4 -16 -10z"/>
<path d="M1143 1586 c15 -7 24 -16 20 -21 -5 -4 -2 -5 5 -1 21 12 9 29 -23 31
l-30 3 28 -12z"/>
<path d="M2071 1584 c0 -11 3 -14 6 -6 3 7 2 16 -1 19 -3 4 -6 -2 -5 -13z"/>
<path d="M3698 1593 c7 -3 16 -2 19 1 4 3 -2 6 -13 5 -11 0 -14 -3 -6 -6z"/>
<path d="M1093 1570 c3 -11 0 -20 -6 -20 -6 0 -2 -6 8 -14 25 -18 38 -11 29
16 -4 15 -3 19 7 14 8 -4 5 0 -5 8 -27 22 -39 20 -33 -4z m27 -30 c0 -5 -2
-10 -4 -10 -3 0 -8 5 -11 10 -3 6 -1 10 4 10 6 0 11 -4 11 -10z"/>
<path d="M1450 1585 c0 -5 5 -17 10 -25 5 -8 10 -10 10 -5 0 6 -5 17 -10 25
-5 8 -10 11 -10 5z"/>
<path d="M1753 1578 c1 -7 -4 -12 -11 -10 -8 1 -11 -2 -7 -7 4 -7 15 -6 31 1
18 8 21 14 12 20 -19 11 -28 10 -25 -4z"/>
<path d="M3313 1563 c14 -15 77 -26 77 -15 0 14 -35 32 -61 32 -32 0 -32 -1
-16 -17z"/>
<path d="M1258 1563 c6 -2 18 -2 25 0 6 3 1 5 -13 5 -14 0 -19 -2 -12 -5z"/>
<path d="M3210 1555 c0 -8 4 -15 10 -15 5 0 7 7 4 15 -4 8 -8 15 -10 15 -2 0
-4 -7 -4 -15z"/>
<path d="M1186 1546 c3 -9 13 -16 22 -16 8 0 13 1 11 3 -2 1 -12 9 -22 16 -15
12 -17 12 -11 -3z"/>
<path d="M1315 1550 c-4 -6 -3 -10 2 -9 26 4 53 -3 53 -14 0 -9 12 -14 35 -14
19 0 32 4 29 9 -3 4 0 8 7 8 7 0 10 2 8 5 -3 2 -20 1 -37 -5 -27 -7 -32 -6
-30 7 3 18 -57 29 -67 13z"/>
<path d="M1884 1545 c-4 -8 -11 -12 -18 -8 -6 3 -7 2 -3 -2 14 -16 33 -13 33
6 0 23 -5 24 -12 4z"/>
<path d="M1150 1540 c-9 -6 -10 -10 -3 -10 6 0 15 5 18 10 8 12 4 12 -15 0z"/>
<path d="M1941 1542 c-1 -7 -18 -20 -38 -29 -77 -33 -83 -37 -83 -55 0 -11 5
-16 10 -13 6 4 7 11 4 17 -4 7 -2 8 4 4 9 -5 9 -13 2 -26 -15 -28 -12 -36 6
-14 8 10 13 14 10 8 -3 -7 1 -15 10 -18 12 -4 15 -2 10 9 -8 23 21 18 34 -5
13 -24 30 -26 30 -4 0 8 4 13 8 10 4 -2 8 4 8 15 0 10 -4 19 -9 19 -4 0 -5 4
-2 10 8 13 54 9 52 -5 -1 -5 5 -10 13 -10 8 0 21 -4 28 -8 7 -5 12 -3 12 3 0
6 4 9 9 5 5 -3 12 -1 16 5 3 5 2 10 -4 10 -6 0 -13 10 -16 23 -5 17 -17 25
-51 33 -31 7 -44 7 -45 0 0 -6 -4 -2 -9 9 -5 11 -9 14 -9 7z"/>
<path d="M1271 1531 c-8 -5 -9 -11 -3 -15 5 -3 12 1 16 9 6 17 6 18 -13 6z"/>
<path d="M1770 1535 c-1 -5 -2 -13 -1 -17 0 -5 -5 -8 -11 -9 -7 -1 -21 -2 -30
-3 -25 -2 -24 -19 2 -32 13 -7 18 -14 11 -18 -19 -12 -12 -26 13 -26 40 0 74
48 46 65 -5 3 -10 1 -10 -4 0 -6 -10 -11 -22 -11 -22 1 -22 1 -5 15 11 8 17
21 14 32 -3 10 -6 14 -7 8z"/>
<path d="M1178 1514 c6 -3 10 -9 8 -12 -2 -4 9 -7 24 -7 35 0 26 10 -15 18
-16 4 -24 4 -17 1z"/>
<path d="M1402 1497 c-8 -10 -6 -13 7 -13 11 0 17 6 14 13 -3 7 -6 13 -8 13
-1 0 -7 -6 -13 -13z"/>
<path d="M2140 1495 c-10 -12 -10 -18 -1 -29 7 -8 8 -17 3 -20 -17 -10 0 -53
28 -69 31 -19 80 -23 80 -7 0 6 5 10 11 10 5 0 7 -5 3 -12 -4 -7 -3 -8 4 -4
19 11 14 26 -8 26 -11 0 -19 4 -17 8 1 5 -19 32 -44 60 -40 44 -49 50 -59 37z"/>
<path d="M1276 1491 c-3 -4 9 -8 25 -9 16 -1 29 1 29 5 0 10 -49 13 -54 4z"/>
<path d="M1340 1496 c0 -2 9 -6 20 -9 11 -3 18 -1 14 4 -5 9 -34 13 -34 5z"/>
<path d="M1004 1474 c-18 -14 -18 -14 6 -3 31 14 36 19 24 19 -6 0 -19 -7 -30
-16z"/>
<path d="M1254 1466 c11 -9 14 -16 7 -16 -7 0 -9 -5 -5 -11 4 -7 9 -7 13 -2 3
6 20 15 36 21 l30 11 -30 -1 c-16 0 -39 3 -50 6 -20 8 -20 7 -1 -8z"/>
<path d="M1350 1466 c0 -8 -6 -17 -12 -19 -8 -3 -6 -6 5 -6 11 -1 17 6 17 19
0 11 -2 20 -5 20 -3 0 -5 -6 -5 -14z"/>
<path d="M877 1456 c-10 -8 -14 -17 -8 -20 5 -3 12 0 15 6 3 7 3 3 0 -9 -7
-29 7 -30 25 -1 13 21 14 21 29 2 11 -15 13 -15 9 -2 -4 11 0 19 11 22 9 3 -2
4 -26 2 -23 -2 -40 0 -36 5 7 12 2 11 -19 -5z"/>
<path d="M1373 1456 c0 -8 9 -11 24 -8 13 2 23 7 23 11 0 4 -10 8 -23 9 -14 1
-24 -4 -24 -12z"/>
<path d="M1225 1449 c-4 -6 -5 -12 -2 -15 2 -3 7 2 10 11 7 17 1 20 -8 4z"/>
<path d="M1436 1449 c2 -4 -1 -9 -8 -11 -7 -3 -8 -7 -3 -10 6 -3 22 2 37 12
l28 17 -30 0 c-16 0 -27 -4 -24 -8z"/>
<path d="M17 1412 c-7 -41 -2 -52 21 -52 14 0 14 2 3 9 -15 10 -8 41 8 41 6 0
8 -7 5 -15 -5 -11 -2 -13 10 -9 18 7 22 24 6 24 -5 0 -18 8 -29 19 -18 18 -19
18 -24 -17z"/>
<path d="M2065 1440 c-3 -6 -14 -10 -24 -10 -10 0 -25 -8 -32 -17 -13 -16 -12
-17 4 -4 9 7 17 10 17 7 0 -4 9 -2 20 4 22 12 38 -1 98 -76 19 -24 21 -25 11
-5 -21 44 -65 106 -76 108 -7 2 -15 -2 -18 -7z"/>
<path d="M1190 1420 c8 -5 20 -10 25 -10 6 0 3 5 -5 10 -8 5 -19 10 -25 10 -5
0 -3 -5 5 -10z"/>
<path d="M1279 1423 c-1 -5 -1 -12 0 -16 1 -5 -9 -6 -21 -2 -18 5 -20 4 -8 -4
23 -17 39 -13 37 9 -1 20 -6 27 -8 13z"/>
<path d="M1366 1416 c3 -8 12 -12 20 -9 17 6 9 23 -11 23 -8 0 -12 -6 -9 -14z"/>
<path d="M287 1413 c-12 -12 -7 -21 16 -26 20 -5 20 -5 5 7 -10 7 -15 16 -11
19 3 4 4 7 1 7 -2 0 -8 -3 -11 -7z"/>
<path d="M845 1410 c-3 -5 -1 -10 4 -10 6 0 11 5 11 10 0 6 -2 10 -4 10 -3 0
-8 -4 -11 -10z"/>
<path d="M1406 1405 c-9 -26 -7 -32 5 -12 6 10 9 21 6 23 -2 3 -7 -2 -11 -11z"/>
<path d="M4446 1405 c4 -8 8 -15 10 -15 2 0 4 7 4 15 0 8 -4 15 -10 15 -5 0
-7 -7 -4 -15z"/>
<path d="M925 1400 c3 -5 8 -10 11 -10 2 0 4 5 4 10 0 6 -5 10 -11 10 -5 0 -7
-4 -4 -10z"/>
<path d="M1330 1399 c0 -5 5 -7 10 -4 6 3 10 8 10 11 0 2 -4 4 -10 4 -5 0 -10
-5 -10 -11z"/>
<path d="M2046 1402 c-5 -8 14 -34 49 -70 46 -46 54 -51 41 -26 -8 17 -22 36
-30 43 -9 7 -13 17 -10 22 3 5 0 8 -8 7 -7 -2 -12 3 -10 10 1 8 -2 11 -7 8 -5
-4 -11 -1 -13 6 -3 9 -6 9 -12 0z"/>
<path d="M721 1387 c-16 -16 -13 -44 5 -51 13 -5 14 -4 6 7 -9 10 -8 14 2 14
8 0 13 -8 11 -18 -5 -22 13 -37 43 -34 28 2 29 -11 1 -18 -12 -3 -18 -10 -15
-16 4 -5 2 -12 -3 -16 -6 -3 -8 4 -6 15 3 13 0 18 -7 14 -7 -5 -8 -2 -3 6 5 9
4 11 -4 6 -8 -5 -9 -12 -3 -19 5 -7 8 -20 7 -29 -2 -11 2 -15 11 -11 8 3 14 1
14 -5 0 -5 7 -13 16 -16 8 -3 13 -2 10 3 -6 10 24 25 32 16 3 -3 0 -5 -6 -5
-7 0 -12 -6 -12 -13 0 -12 -33 -46 -90 -92 -19 -15 -22 -16 -11 -2 11 14 11
17 -2 17 -9 0 -19 4 -22 10 -4 7 2 7 19 0 21 -8 27 -6 35 9 8 14 6 18 -7 18
-9 0 -22 -4 -29 -9 -7 -5 -14 -5 -18 2 -3 6 -12 7 -18 3 -7 -4 -6 1 2 11 13
15 13 19 0 27 -12 7 -12 9 1 10 8 1 18 1 23 0 4 0 7 4 7 10 0 7 -10 9 -25 7
-14 -3 -28 -1 -31 3 -3 5 -15 9 -27 8 -20 -1 -20 -2 3 -9 21 -7 17 -8 -22 -9
-27 -1 -48 -6 -51 -13 -4 -10 -6 -10 -6 0 -1 6 -6 12 -12 12 -5 0 -7 -4 -4
-10 3 -5 -4 -20 -17 -32 -25 -25 -34 -48 -18 -48 6 0 10 4 10 10 0 5 3 9 8 8
4 0 16 3 26 7 19 8 19 9 0 16 -18 7 -18 8 2 8 24 1 40 -25 21 -33 -7 -2 -2 -5
11 -5 15 -1 21 3 16 11 -4 6 -3 8 4 4 6 -3 13 -2 17 4 10 17 25 11 25 -10 0
-11 5 -20 10 -20 6 0 9 10 7 23 -2 12 -2 16 0 10 3 -7 9 -13 14 -13 5 0 13
-10 18 -22 11 -30 -44 -81 -70 -65 -10 6 -15 15 -13 19 7 11 -8 10 -26 -2 -12
-8 -12 -10 -1 -10 8 0 4 -7 -9 -18 -20 -16 -21 -20 -7 -25 9 -3 19 -1 23 5 4
7 3 8 -4 4 -7 -4 -12 -3 -12 3 0 16 40 24 56 10 12 -10 17 -8 28 7 8 10 18 16
22 12 4 -5 -1 -18 -12 -30 -10 -12 -14 -18 -7 -15 6 4 13 1 16 -5 3 -9 13 -5
32 12 l28 25 -14 -25 c-7 -14 -12 -29 -11 -34 2 -4 3 -23 4 -42 1 -18 5 -31
10 -28 5 3 7 12 4 19 -2 7 1 16 9 19 7 2 16 -2 19 -10 3 -8 11 -14 17 -14 8 0
8 4 -1 15 -7 8 -11 15 -9 16 47 9 72 3 48 -12 -11 -7 -12 -10 -1 -21 8 -7 13
-8 12 -3 -2 6 -1 13 0 18 1 4 4 12 5 17 1 6 4 12 5 15 1 3 4 10 5 15 1 6 4 11
5 13 1 1 4 16 6 32 11 92 18 125 25 125 5 0 9 10 9 23 0 15 3 18 9 9 4 -8 19
-11 35 -8 18 3 29 0 33 -10 3 -9 12 -13 22 -9 13 5 14 4 4 -6 -18 -18 -16 -29
6 -29 13 0 19 7 19 25 0 14 -5 25 -11 25 -6 0 -8 2 -5 5 3 3 17 1 30 -4 18 -7
29 -6 37 2 8 8 11 6 12 -9 0 -18 1 -18 9 1 12 28 12 37 -1 29 -8 -4 -8 -1 0
14 9 18 8 23 -9 32 -15 8 -20 8 -18 -1 2 -6 -3 -14 -11 -17 -10 -3 -12 0 -8
12 4 10 3 15 -4 11 -5 -4 -7 -15 -4 -26 9 -26 -10 -24 -30 4 l-16 22 7 -27 c7
-32 -14 -39 -39 -13 -8 8 -17 11 -21 8 -3 -4 -6 7 -6 23 l0 29 21 -25 21 -25
-16 27 c-18 31 -20 42 -7 33 6 -3 8 6 5 22 -6 30 -31 63 -48 63 -6 -1 0 -10
13 -20 13 -11 20 -20 16 -20 -4 0 -2 -6 4 -14 9 -11 5 -15 -21 -19 -23 -4 -37
0 -45 11 -12 14 -13 14 -13 -1 0 -11 -14 -2 -42 28 -42 45 -58 54 -58 35 0 -5
4 -10 9 -10 6 0 22 -11 36 -24 18 -17 22 -26 14 -32 -8 -4 -9 -3 -5 4 4 7 3
12 -2 12 -6 0 -24 13 -40 29 -22 19 -34 25 -41 18z m194 -87 c-3 -5 -11 -10
-16 -10 -6 0 -7 5 -4 10 3 6 11 10 16 10 6 0 7 -4 4 -10z m-68 -16 c-3 -3 -12
-4 -19 -1 -8 3 -5 6 6 6 11 1 17 -2 13 -5z m30 -26 c-2 -13 -13 -45 -25 -72
-12 -27 -22 -58 -23 -70 -1 -19 -2 -18 -8 4 -5 14 -3 31 3 39 9 12 8 13 -4 6
-8 -4 -24 -15 -35 -24 l-20 -16 20 25 c11 14 32 38 46 53 18 19 25 35 21 49
-3 14 -1 19 6 14 7 -4 12 -2 12 3 0 6 2 11 4 11 3 0 4 -10 3 -22z m31 -3 c-3
-3 -9 2 -12 12 -6 14 -5 15 5 6 7 -7 10 -15 7 -18z m32 -37 c0 -5 -9 -4 -20 2
-11 6 -20 12 -20 14 0 2 9 2 20 -1 11 -3 20 -9 20 -15z m115 1 c-10 -15 -25
-10 -19 6 4 8 10 12 15 9 5 -3 7 -10 4 -15z m-404 -12 c-4 -4 -18 -3 -32 2
-23 9 -22 9 8 8 18 -1 28 -6 24 -10z m139 -91 c0 -2 -7 -7 -16 -10 -8 -3 -12
-2 -9 4 6 10 25 14 25 6z m-90 -28 c0 6 4 12 8 12 5 0 9 -7 9 -15 0 -8 -4 -12
-8 -10 -4 3 -10 -7 -13 -20 -4 -15 -11 -23 -17 -19 -8 4 -7 9 1 14 7 5 10 17
5 31 -5 19 -4 21 4 9 7 -10 11 -11 11 -2z m125 -81 c4 5 5 3 1 -4 -8 -15 -32
-7 -41 15 -5 14 -4 14 13 -1 10 -9 22 -14 27 -10z"/>
<path d="M1805 1390 c3 -5 8 -10 11 -10 2 0 4 5 4 10 0 6 -5 10 -11 10 -5 0
-7 -4 -4 -10z"/>
<path d="M1853 1386 c0 -8 6 -12 14 -9 7 3 10 9 7 14 -8 14 -21 11 -21 -5z"/>
<path d="M233 1378 c-11 -19 -12 -37 -2 -44 5 -3 9 1 9 8 0 10 3 9 9 -1 7 -11
3 -20 -11 -33 -19 -16 -17 -23 5 -19 4 0 7 -8 7 -19 0 -15 7 -20 25 -20 16 0
25 6 25 15 0 18 -26 20 -33 3 -3 -7 -6 -1 -6 14 -1 18 6 31 19 38 11 6 20 16
20 23 0 7 -3 8 -8 2 -4 -5 -13 -11 -21 -13 -10 -2 -12 6 -9 28 5 31 -13 42
-29 18z"/>
<path d="M856 1374 c-9 -24 -2 -26 12 -4 7 11 8 20 3 20 -5 0 -12 -7 -15 -16z"/>
<path d="M1546 1382 c-3 -5 1 -9 9 -9 8 0 12 4 9 9 -3 4 -7 8 -9 8 -2 0 -6 -4
-9 -8z"/>
<path d="M1103 1359 c-1 -10 3 -19 8 -19 5 0 3 -13 -6 -30 -20 -38 -19 -40 7
-40 21 0 21 0 2 -16 -12 -10 -13 -14 -4 -11 12 4 15 -7 15 -59 0 -45 -4 -64
-12 -64 -15 0 -17 12 -5 25 5 6 6 21 1 35 -5 18 -7 20 -8 6 -1 -15 -7 -17 -37
-14 -27 3 -38 0 -45 -14 -7 -13 -5 -20 10 -30 10 -6 17 -17 14 -25 -4 -10 3
-11 26 -7 21 5 31 3 31 -6 0 -7 -7 -10 -15 -6 -8 3 -15 1 -15 -3 0 -5 -9 -7
-20 -4 -12 3 -20 0 -20 -6 0 -7 4 -10 10 -6 5 3 3 -7 -5 -22 -11 -21 -12 -29
-2 -36 8 -6 5 -7 -7 -3 -11 4 -24 0 -33 -11 -13 -16 -13 -16 -3 5 8 17 8 22
-2 22 -6 0 -3 7 8 16 10 8 14 13 7 10 -18 -10 -25 10 -8 24 13 11 13 14 -2 26
-15 11 -15 13 -2 14 8 0 20 -5 27 -12 8 -8 12 -8 12 -1 0 25 -54 51 -67 31 -4
-7 -1 -8 8 -3 8 5 10 4 6 0 -13 -15 -39 -15 -33 0 3 8 1 17 -4 20 -9 6 -14 -8
-11 -27 0 -4 -7 -4 -15 -1 -12 4 -15 2 -12 -8 3 -8 11 -13 17 -12 6 2 11 -9
11 -23 0 -24 -2 -25 -17 -13 -15 13 -15 12 0 -12 16 -24 16 -27 -2 -43 -10
-10 -18 -25 -17 -34 3 -18 -16 -42 -33 -42 -6 0 -11 -4 -11 -10 0 -5 -6 -7
-12 -5 -19 6 -69 -38 -69 -61 0 -10 0 -72 1 -137 0 -69 -4 -126 -11 -138 -8
-16 -8 -84 0 -116 2 -5 41 3 48 10 12 13 13 47 2 47 -8 0 -7 5 2 16 10 13 10
17 -2 25 -11 7 -11 9 4 9 9 0 17 5 17 11 0 5 -4 8 -9 5 -5 -3 -11 5 -13 19 -3
14 -2 25 1 25 3 0 7 15 8 33 1 17 5 42 8 54 3 15 0 23 -11 25 -13 2 -11 8 10
31 14 15 26 32 26 38 0 5 10 20 21 32 12 12 19 15 15 7 -7 -13 -6 -13 6 0 29
33 119 62 132 42 8 -13 -11 -35 -23 -28 -6 4 -11 0 -11 -8 0 -23 14 -20 44 10
31 31 38 66 9 43 -16 -13 -17 -12 -5 2 7 9 26 19 42 21 25 4 30 1 30 -16 0
-18 -2 -19 -11 -6 -8 12 -10 10 -5 -9 3 -13 1 -33 -5 -43 -5 -10 -12 -37 -14
-61 -3 -23 -16 -64 -30 -91 -27 -51 -26 -76 4 -110 9 -10 15 -20 14 -22 -6 -9
-2 -35 5 -31 4 2 16 -5 26 -16 16 -16 16 -19 3 -14 -13 5 -15 2 -7 -18 5 -13
13 -32 18 -42 18 -35 42 -94 42 -103 0 -5 11 -21 25 -35 19 -18 36 -25 65 -25
22 0 40 2 40 5 0 2 -9 22 -21 44 -19 37 -19 42 -5 63 9 12 16 30 16 39 0 9 18
43 40 75 22 33 40 62 40 66 0 4 20 49 45 99 25 51 45 97 45 104 0 7 14 31 30
53 17 23 30 50 30 61 0 10 7 22 16 25 8 3 12 11 8 17 -4 8 -9 7 -15 -2 -7 -12
-9 -12 -9 0 0 8 -3 11 -7 8 -3 -4 -12 -2 -20 5 -11 8 -12 7 -7 -5 5 -14 1 -15
-26 -7 -44 13 -47 18 -16 26 14 3 26 10 26 16 0 5 -4 6 -10 3 -5 -3 -10 -1
-10 4 0 6 5 11 11 11 8 0 8 4 0 14 -9 11 -8 15 6 21 10 5 23 9 28 9 12 1 15
45 4 52 -5 3 -9 -4 -9 -15 0 -12 -7 -21 -15 -21 -8 0 -15 -5 -15 -11 0 -5 -5
-7 -11 -3 -8 5 -7 9 1 14 7 5 13 22 12 38 0 24 3 30 15 25 13 -5 13 -3 4 15
-7 12 -17 22 -24 22 -7 0 -8 3 -2 8 6 4 11 17 12 30 3 19 0 21 -16 13 -10 -6
-21 -7 -25 -4 -3 3 -6 2 -6 -4 0 -6 -6 -13 -14 -16 -10 -4 -12 0 -9 14 3 10
12 19 20 19 11 0 11 3 1 14 -7 8 -15 10 -16 5 -2 -5 -8 -7 -13 -3 -5 3 -9 1
-9 -5 0 -6 -7 -8 -16 -4 -16 6 -16 7 0 18 15 11 15 13 1 19 -8 3 -15 0 -15 -7
0 -8 -4 -6 -10 3 -8 12 -10 11 -10 -6 0 -11 5 -25 12 -32 16 -16 -1 -15 -32 3
-15 9 -19 14 -10 15 13 0 13 1 0 10 -8 5 -10 10 -5 10 6 0 2 7 -8 14 -17 13
-14 14 25 10 24 -2 34 -1 23 2 -10 4 -29 13 -42 21 -21 14 -23 14 -33 -11 -6
-16 -17 -26 -29 -26 -28 0 -71 21 -65 31 3 5 -1 9 -8 9 -10 0 -10 2 1 9 11 7
9 11 -8 20 -12 7 -19 16 -16 21 3 5 2 11 -3 14 -4 2 -9 -4 -9 -15z m140 -213
c13 4 17 2 13 -5 -11 -16 -46 -13 -46 4 0 8 -8 15 -17 15 -15 0 -16 2 -3 10
11 7 17 4 24 -10 6 -14 15 -18 29 -14z m-168 -10 c9 4 15 0 15 -10 0 -9 -5
-16 -11 -16 -19 0 -56 35 -51 48 3 10 8 7 18 -7 8 -11 21 -18 29 -15z m339 19
c-4 -8 -7 -15 -9 -15 -2 0 -5 7 -9 15 -3 9 0 15 9 15 9 0 12 -6 9 -15z m-321
-2 c-7 -2 -19 -2 -25 0 -7 3 -2 5 12 5 14 0 19 -2 13 -5z m97 -18 c0 -9 -6
-12 -16 -8 -13 5 -13 7 -2 14 17 11 18 11 18 -6z m98 -43 c-2 -10 7 -21 20
-27 12 -5 22 -15 22 -22 0 -17 -10 -16 -32 4 -11 9 -18 11 -18 5 0 -7 -5 -12
-12 -12 -9 0 -9 3 -1 11 7 7 9 25 6 42 -4 22 -3 28 6 23 6 -4 10 -15 9 -24z
m-298 -12 c0 -5 -4 -10 -10 -10 -5 0 -10 -10 -10 -22 -1 -21 -2 -21 -11 -6 -7
13 -6 22 3 33 15 17 28 19 28 5z m187 -42 c-3 -8 -6 -5 -6 6 -1 11 2 17 5 13
3 -3 4 -12 1 -19z m88 -18 c-4 -6 -3 -34 1 -63 l8 -52 6 45 c6 54 21 55 37 3
l13 -38 -3 37 c-2 20 1 34 5 32 4 -3 8 -11 8 -18 0 -7 7 -21 16 -32 13 -16 15
-16 10 -1 -6 18 18 25 29 7 4 -6 10 -8 14 -5 11 6 46 -33 37 -42 -4 -4 -11 -1
-15 6 -5 7 -13 11 -19 7 -6 -3 -13 0 -16 6 -4 9 -5 8 -5 -2 3 -35 -2 -51 -11
-45 -5 3 -10 1 -10 -4 0 -6 13 -11 30 -11 22 0 28 -4 23 -16 -3 -8 -12 -13
-20 -9 -12 4 -14 -1 -11 -19 7 -33 -37 -88 -52 -66 -8 13 -10 13 -10 -2 0 -10
5 -18 12 -18 6 0 8 -3 4 -7 -4 -5 -13 -8 -19 -8 -13 0 -57 -72 -57 -94 0 -11
3 -11 15 -1 8 7 15 21 15 31 0 11 4 19 10 19 5 0 7 7 4 15 -4 10 0 15 12 15
14 0 16 -2 6 -9 -8 -4 -14 -12 -14 -17 -2 -38 -23 -69 -45 -67 -23 3 -43 -33
-43 -77 0 -28 -38 -110 -51 -110 -4 0 -17 29 -30 65 -12 36 -26 65 -29 65 -3
0 -6 40 -6 90 0 49 3 87 6 85 4 -3 15 24 24 58 20 73 52 119 67 96 5 -7 9 -12
10 -9 0 3 2 13 4 23 3 14 -1 17 -13 13 -13 -5 -12 -2 2 9 11 8 15 15 9 15 -8
0 -8 7 0 25 10 21 13 22 19 7 4 -10 7 -1 7 24 1 22 4 44 8 47 10 11 15 8 8 -3z
m125 -19 c0 -31 -27 -51 -36 -27 -4 11 22 56 33 56 2 0 3 -13 3 -29z m-210 11
c0 -5 -9 -19 -20 -32 -24 -28 -26 -19 -4 15 17 26 24 31 24 17z m-240 -16 c0
-2 -6 -9 -14 -15 -11 -9 -16 -9 -22 0 -4 7 -3 9 4 5 6 -3 13 -2 17 4 6 10 15
14 15 6z m555 -76 c-4 -6 -11 -8 -16 -5 -5 4 -9 1 -9 -5 0 -6 -4 -8 -10 -5
-17 11 -11 21 16 23 15 1 23 -2 19 -8z m-231 -362 c-3 -13 -10 -30 -15 -38 -7
-13 -8 -13 -9 0 0 27 12 60 22 60 5 0 6 -10 2 -22z m-57 -250 c-3 -8 -6 -5 -6
6 -1 11 2 17 5 13 3 -3 4 -12 1 -19z"/>
<path d="M1291 974 c0 -11 3 -14 6 -6 3 7 2 16 -1 19 -3 4 -6 -2 -5 -13z"/>
<path d="M2020 1370 c0 -5 5 -10 10 -10 6 0 10 5 10 10 0 6 -4 10 -10 10 -5 0
-10 -4 -10 -10z"/>
<path d="M1204 1352 c-4 -9 -8 -21 -8 -26 -1 -5 -10 -12 -21 -17 -13 -5 -15
-8 -5 -8 22 -1 44 15 36 27 -3 6 1 15 10 20 10 6 12 12 6 16 -5 3 -13 -2 -18
-12z"/>
<path d="M1240 1355 c0 -8 4 -15 8 -15 5 0 9 7 9 15 0 8 -4 15 -9 15 -4 0 -8
-7 -8 -15z"/>
<path d="M52 1351 c-11 -7 -10 -10 3 -15 23 -9 25 -8 25 9 0 17 -9 19 -28 6z"/>
<path d="M872 1340 c0 -14 2 -19 5 -12 2 6 2 18 0 25 -3 6 -5 1 -5 -13z"/>
<path d="M1314 1345 c1 -8 8 -21 16 -28 12 -10 12 -9 2 4 -6 9 -9 18 -6 21 3
3 1 9 -4 12 -6 3 -9 -1 -8 -9z"/>
<path d="M1786 1353 c-11 -11 -6 -23 9 -23 8 0 15 4 15 9 0 13 -16 22 -24 14z"/>
<path d="M690 1326 c0 -15 -3 -16 -14 -7 -8 7 -17 8 -20 3 -3 -5 6 -14 19 -20
15 -7 25 -8 25 -2 0 6 5 10 10 10 6 0 10 -7 10 -15 0 -13 2 -14 14 -3 12 11
11 14 -7 23 -12 5 -25 14 -29 20 -5 6 -8 2 -8 -9z"/>
<path d="M320 1322 c0 -6 9 -12 20 -15 11 -3 20 -3 20 -1 0 2 -9 8 -20 14 -11
6 -20 7 -20 2z"/>
<path d="M1627 1317 c-3 -8 1 -14 8 -14 7 0 11 6 8 14 -3 7 -6 13 -8 13 -2 0
-5 -6 -8 -13z"/>
<path d="M1881 1312 c-17 -31 -13 -40 5 -14 9 13 14 26 11 29 -3 2 -10 -4 -16
-15z"/>
<path d="M1065 1310 c-3 -5 -1 -10 4 -10 6 0 11 5 11 10 0 6 -2 10 -4 10 -3 0
-8 -4 -11 -10z"/>
<path d="M1670 1310 c0 -5 5 -10 11 -10 5 0 7 5 4 10 -3 6 -8 10 -11 10 -2 0
-4 -4 -4 -10z"/>
<path d="M1836 1305 c4 -8 8 -15 10 -15 2 0 4 7 4 15 0 8 -4 15 -10 15 -5 0
-7 -7 -4 -15z"/>
<path d="M1545 1300 c3 -5 8 -10 11 -10 2 0 4 5 4 10 0 6 -5 10 -11 10 -5 0
-7 -4 -4 -10z"/>
<path d="M630 1292 c0 -5 10 -17 22 -28 22 -19 22 -19 8 0 -8 11 -14 22 -12
25 2 3 -1 7 -7 9 -6 2 -11 -1 -11 -6z"/>
<path d="M338 1266 c-6 -32 3 -33 28 -4 10 12 13 18 5 13 -8 -4 -16 -3 -21 5
-5 8 -9 3 -12 -14z"/>
<path d="M1602 1276 c7 -8 15 -12 17 -11 5 6 -10 25 -20 25 -5 0 -4 -6 3 -14z"/>
<path d="M1638 1283 c7 -3 16 -2 19 1 4 3 -2 6 -13 5 -11 0 -14 -3 -6 -6z"/>
<path d="M4305 1280 c-3 -5 -1 -10 4 -10 6 0 11 5 11 10 0 6 -2 10 -4 10 -3 0
-8 -4 -11 -10z"/>
<path d="M4450 1280 c0 -5 5 -10 11 -10 5 0 7 5 4 10 -3 6 -8 10 -11 10 -2 0
-4 -4 -4 -10z"/>
<path d="M4420 1265 c-1 -11 -2 -37 -1 -57 3 -39 -6 -47 -27 -26 -9 9 -17 7
-34 -9 -13 -11 -31 -23 -40 -26 -10 -4 -18 -14 -18 -23 0 -10 3 -14 7 -11 3 4
12 2 19 -4 9 -7 19 -7 35 1 17 10 19 14 8 21 -12 8 -12 10 1 18 16 11 33 -6
23 -22 -3 -5 4 -4 15 2 23 12 30 47 21 111 -3 25 -7 36 -9 25z m-73 -147 c-3
-8 -6 -5 -6 6 -1 11 2 17 5 13 3 -3 4 -12 1 -19z"/>
<path d="M1542 1250 c11 -16 10 -22 -6 -33 -20 -14 -16 -54 4 -42 6 3 7 -1 4
-10 -5 -12 -1 -15 17 -12 13 2 19 2 12 0 -7 -2 -9 -11 -6 -19 6 -17 -9 -18
-26 -1 -10 10 -15 9 -25 -5 -12 -16 -14 -15 -26 10 -8 15 -13 31 -11 35 1 5
-3 6 -9 2 -10 -6 11 -58 29 -70 5 -3 7 -22 4 -42 -5 -28 -3 -35 8 -31 8 3 13
13 13 22 -1 9 4 16 12 16 23 0 27 -21 7 -42 -16 -20 -17 -21 0 -15 24 9 21 0
-4 -14 -13 -7 -19 -7 -15 -1 3 6 2 13 -3 16 -5 4 -12 2 -15 -3 -4 -5 -1 -13 5
-17 8 -4 4 -12 -12 -21 -22 -13 -11 -12 26 3 9 4 15 3 14 -2 -1 -5 -1 -15 0
-23 1 -18 14 -6 17 17 2 9 7 18 12 20 6 2 8 13 5 25 -4 17 -3 19 6 7 8 -12 12
-9 20 13 6 16 11 33 11 38 0 5 7 9 16 9 8 0 13 4 9 10 -3 5 -13 6 -23 3 -15
-6 -15 -4 1 15 11 11 16 25 13 31 -4 5 2 15 11 21 16 10 15 10 -4 5 -19 -5
-23 -2 -24 17 -1 13 -1 26 -1 29 1 4 -7 5 -17 2 -10 -3 -22 0 -25 6 -4 6 -1 9
7 5 8 -3 18 0 23 7 4 7 3 10 -3 6 -6 -4 -18 2 -28 13 -23 26 -39 26 -23 0z
m52 -66 c3 -9 -2 -14 -14 -14 -11 0 -20 5 -20 10 0 6 -7 10 -16 10 -8 0 -13 4
-10 9 8 12 54 1 60 -15z m2 -59 c-8 -8 -17 -15 -20 -15 -3 0 -3 7 0 15 4 8 13
15 21 15 12 0 12 -2 -1 -15z m-32 -18 c26 -14 25 -27 -1 -27 -8 0 -11 5 -7 11
4 8 0 9 -15 4 -16 -5 -20 -3 -15 9 7 19 6 19 38 3z"/>
<path d="M51 1244 c0 -11 3 -14 6 -6 3 7 2 16 -1 19 -3 4 -6 -2 -5 -13z"/>
<path d="M1780 1236 c6 -17 6 -27 -2 -32 -6 -4 -9 -3 -5 2 3 5 -1 17 -8 27
-12 16 -13 16 -19 1 -10 -26 21 -43 55 -31 15 6 26 14 23 19 -3 4 -11 5 -19 1
-9 -3 -15 1 -15 10 0 9 -4 19 -10 22 -7 4 -7 -2 0 -19z"/>
<path d="M1520 1240 c0 -5 5 -10 11 -10 5 0 7 5 4 10 -3 6 -8 10 -11 10 -2 0
-4 -4 -4 -10z"/>
<path d="M1650 1246 c0 -2 8 -10 18 -17 15 -13 16 -12 3 4 -13 16 -21 21 -21
13z"/>
<path d="M1625 1220 c-3 -6 1 -7 9 -4 18 7 21 14 7 14 -6 0 -13 -4 -16 -10z"/>
<path d="M13 1205 c8 -5 16 -17 20 -25 5 -13 6 -13 6 1 1 12 8 15 28 11 24 -5
26 -3 13 9 -8 8 -30 15 -48 15 -24 -1 -29 -4 -19 -11z"/>
<path d="M1620 1196 c0 -9 30 -14 35 -6 4 6 -3 10 -14 10 -12 0 -21 -2 -21 -4z"/>
<path d="M1871 1183 c-16 -17 -12 -23 11 -14 10 3 14 11 10 17 -5 9 -11 8 -21
-3z"/>
<path d="M7 1184 c-4 -4 -7 -14 -7 -23 0 -11 3 -12 11 -4 6 6 10 16 7 23 -2 6
-7 8 -11 4z"/>
<path d="M1722 1169 c-17 -27 -15 -39 6 -32 14 6 15 4 5 -9 -7 -8 -11 -18 -8
-22 3 -3 -1 -2 -7 4 -20 17 -30 11 -24 -12 3 -13 3 -17 0 -10 -3 6 -11 9 -16
6 -6 -4 -8 -2 -5 3 4 6 -1 17 -11 24 -14 11 -15 11 -5 0 9 -11 8 -20 -4 -40
-11 -17 -12 -22 -3 -13 19 16 35 15 21 -2 -9 -11 -8 -15 4 -20 10 -4 14 -2 9
5 -4 7 -1 10 6 7 7 -2 14 -12 16 -21 2 -13 -2 -15 -16 -7 -9 5 -20 6 -24 3
-10 -11 -37 -12 -30 -2 3 5 11 6 17 3 9 -5 9 -3 0 6 -10 11 -17 9 -39 -13 -15
-15 -24 -33 -21 -41 4 -11 1 -13 -10 -9 -11 4 -14 2 -9 -5 11 -19 49 -15 42 4
-5 12 -1 14 16 8 20 -6 21 -5 9 10 -16 19 -1 22 17 4 10 -10 15 -10 20 -1 4 6
19 10 34 9 36 -4 43 19 17 52 -25 32 -8 43 23 16 20 -19 21 -19 14 4 -6 17 -3
24 16 31 13 6 17 10 11 10 -7 1 -13 6 -13 12 0 5 5 7 11 3 6 -3 15 0 20 7 7
11 9 11 9 1 0 -7 5 -10 10 -7 6 3 10 1 10 -6 0 -7 2 -10 5 -7 3 2 -2 19 -11
36 -16 34 -28 44 -17 15 4 -11 3 -14 -5 -9 -7 4 -12 2 -12 -4 0 -6 -4 -9 -9
-6 -12 8 -34 -21 -26 -34 3 -5 1 -10 -4 -10 -6 0 -11 15 -11 34 0 42 -12 52
-28 25z"/>
<path d="M1496 1171 c-3 -5 1 -11 9 -14 9 -4 12 -1 8 9 -6 16 -10 17 -17 5z"/>
<path d="M1669 1166 c7 -8 10 -20 6 -26 -3 -5 -1 -10 4 -10 17 0 13 37 -5 44
-14 5 -15 4 -5 -8z"/>
<path d="M345 1160 c-3 -6 1 -7 9 -4 18 7 21 14 7 14 -6 0 -13 -4 -16 -10z"/>
<path d="M930 1166 c0 -2 7 -7 16 -10 8 -3 12 -2 9 4 -6 10 -25 14 -25 6z"/>
<path d="M540 1152 c0 -5 -9 -12 -20 -15 -20 -5 -28 -27 -10 -27 6 0 10 -4 10
-9 0 -5 -9 -7 -20 -4 -15 4 -20 0 -20 -16 0 -12 -4 -20 -9 -16 -5 3 -12 -3
-16 -14 -3 -11 -13 -22 -21 -25 -8 -3 -12 -2 -9 4 3 6 1 10 -4 10 -12 0 -15
-23 -5 -33 4 -3 20 1 35 9 22 11 34 12 50 4 18 -10 20 -9 17 8 -3 20 18 52 34
52 6 0 0 -8 -13 -19 l-23 -18 25 -13 c21 -12 23 -12 11 2 -10 12 -9 18 3 28 8
7 13 16 10 20 -3 4 7 16 20 26 14 10 25 25 25 32 0 7 5 10 12 6 7 -5 8 -3 4 5
-6 9 -12 9 -25 -3 -15 -14 -19 -14 -39 0 -12 8 -22 11 -22 6z m20 -26 c0 -2
-7 -6 -15 -10 -8 -3 -15 -1 -15 4 0 6 7 10 15 10 8 0 15 -2 15 -4z m-40 -51
c0 -2 -6 -5 -13 -8 -8 -3 -14 1 -14 8 0 7 6 11 14 8 7 -3 13 -6 13 -8z"/>
<path d="M4450 1136 c0 -8 4 -17 8 -20 4 -2 8 4 8 15 0 10 -4 19 -8 19 -4 0
-8 -6 -8 -14z"/>
<path d="M4196 1117 c3 -10 9 -15 12 -12 3 3 0 11 -7 18 -10 9 -11 8 -5 -6z"/>
<path d="M1853 1110 c-27 -11 -26 -63 2 -68 11 -3 15 0 10 7 -3 6 -11 8 -17 5
-7 -5 -8 -2 -4 5 5 7 14 10 21 7 8 -3 17 4 21 16 4 15 8 17 14 8 5 -9 9 -9 14
-1 7 11 -6 15 -33 12 -7 -2 -10 2 -6 8 7 13 7 13 -22 1z m22 -20 c3 -5 1 -10
-4 -10 -6 0 -11 5 -11 10 0 6 2 10 4 10 3 0 8 -4 11 -10z"/>
<path d="M870 1085 c-18 -33 -10 -39 13 -10 9 13 13 26 9 29 -5 3 -15 -6 -22
-19z"/>
<path d="M405 1091 c-3 -5 -1 -12 5 -16 5 -3 10 1 10 9 0 18 -6 21 -15 7z"/>
<path d="M1800 1086 c0 -17 16 -30 23 -19 3 5 -1 14 -9 21 -12 10 -14 10 -14
-2z"/>
<path d="M380 1077 c0 -9 -6 -17 -12 -17 -9 0 -8 -4 2 -11 11 -8 12 -12 3 -16
-7 -2 -13 -11 -13 -19 0 -8 -4 -14 -10 -14 -5 0 -10 9 -10 19 0 11 -4 23 -10
26 -13 8 -13 -21 1 -46 10 -20 11 -20 30 -3 17 16 19 16 19 1 0 -10 7 -17 15
-17 16 0 20 16 6 24 -5 3 -9 22 -9 42 0 19 -3 38 -6 41 -3 4 -6 -1 -6 -10z"/>
<path d="M4335 1067 l-20 -20 23 6 c12 3 20 1 16 -4 -3 -5 0 -9 5 -9 12 0 15
37 4 43 -5 3 -17 -5 -28 -16z"/>
<path d="M7 1064 c-4 -4 -7 -19 -6 -33 l0 -26 10 24 c10 26 8 47 -4 35z"/>
<path d="M1817 1034 c3 -7 9 -14 14 -14 14 0 10 17 -5 23 -10 4 -13 1 -9 -9z"/>
<path d="M604 1026 c-3 -9 -12 -16 -19 -16 -7 0 -18 -13 -25 -30 -7 -16 -17
-30 -23 -30 -6 0 -7 -3 -3 -7 4 -5 21 8 37 27 15 19 29 29 29 23 0 -7 5 -13
12 -13 9 0 9 3 1 11 -6 6 -9 18 -5 27 5 13 7 12 13 -4 6 -16 8 -16 8 -2 1 23
-18 33 -25 14z"/>
<path d="M1770 1030 c0 -6 7 -10 15 -10 8 0 15 2 15 4 0 2 -7 6 -15 10 -8 3
-15 1 -15 -4z"/>
<path d="M4440 1030 c0 -5 5 -10 10 -10 6 0 10 5 10 10 0 6 -4 10 -10 10 -5 0
-10 -4 -10 -10z"/>
<path d="M21 1011 c-14 -25 -5 -44 9 -21 8 13 10 12 10 -2 0 -12 -8 -18 -21
-18 -19 0 -20 -5 -17 -52 l3 -53 53 -3 c48 -3 52 -1 53 20 1 17 3 18 6 6 5
-19 22 -22 61 -12 20 6 22 12 18 45 -3 29 -1 36 10 32 9 -3 14 1 14 12 0 9 -5
13 -10 10 -5 -3 -10 -1 -10 4 0 6 -5 11 -11 11 -5 0 -7 -4 -4 -10 8 -14 -13
-50 -30 -50 -7 0 -16 -6 -19 -12 -3 -7 -3 -3 0 10 3 13 1 22 -6 22 -7 0 -10 7
-6 15 9 24 -4 48 -19 35 -9 -8 -15 -8 -20 0 -3 6 -11 8 -16 4 -6 -3 -16 2 -23
12 -13 17 -14 16 -25 -5z m69 -46 c0 -8 -9 -15 -20 -15 -25 0 -26 17 -2 23 9
3 18 5 20 6 1 0 2 -6 2 -14z m-7 -45 c4 -16 0 -20 -16 -19 -12 0 -16 3 -9 6 6
2 12 11 12 19 0 20 7 17 13 -6z m80 -15 c-3 -9 -8 -14 -10 -11 -3 3 -2 9 2 15
9 16 15 13 8 -4z"/>
<path d="M255 1000 c-4 -6 1 -17 11 -25 25 -18 30 -11 11 15 -10 14 -17 18
-22 10z"/>
<path d="M4438 1003 c7 -3 16 -2 19 1 4 3 -2 6 -13 5 -11 0 -14 -3 -6 -6z"/>
<path d="M320 965 c8 -21 7 -25 -8 -25 -14 0 -15 -2 -2 -10 22 -14 32 3 21 33
-6 15 -13 27 -16 27 -2 0 0 -11 5 -25z"/>
<path d="M430 981 c0 -5 4 -11 10 -13 20 -7 -7 -27 -40 -31 -20 -2 -45 -9 -56
-15 -12 -6 -24 -8 -28 -5 -3 3 -6 1 -6 -5 0 -8 21 -12 61 -12 52 0 60 2 55 16
-4 10 -2 14 6 11 7 -2 12 -10 11 -16 -2 -6 2 -11 8 -11 15 0 41 28 35 39 -3 5
1 14 9 21 13 11 14 10 9 -5 -5 -13 -4 -16 4 -11 7 4 12 14 12 22 0 19 -30 30
-40 14 -6 -9 -12 -9 -29 -1 -12 7 -21 8 -21 2z"/>
<path d="M1848 972 c4 -10 7 -12 10 -4 2 7 9 9 15 5 7 -3 8 -2 4 2 -14 16 -36
14 -29 -3z"/>
<path d="M4433 983 c-19 -4 -23 -10 -21 -41 l1 -37 4 33 c3 24 9 32 24 32 10
0 19 5 19 10 0 6 -1 9 -2 9 -2 -1 -13 -4 -25 -6z"/>
<path d="M246 958 c-19 -11 -19 -11 -1 -24 17 -13 17 -14 2 -14 -9 0 -17 -7
-17 -15 0 -9 9 -15 24 -15 27 0 45 18 28 29 -5 3 -12 16 -13 28 -3 18 -7 20
-23 11z"/>
<path d="M3941 954 c0 -11 3 -14 6 -6 3 7 2 16 -1 19 -3 4 -6 -2 -5 -13z"/>
<path d="M850 949 c0 -5 5 -7 10 -4 6 3 10 8 10 11 0 2 -4 4 -10 4 -5 0 -10
-5 -10 -11z"/>
<path d="M4020 951 c0 -6 4 -13 10 -16 6 -3 7 1 4 9 -7 18 -14 21 -14 7z"/>
<path d="M4440 950 c-13 -9 -13 -11 0 -20 13 -9 12 -13 -7 -29 -33 -28 -30
-51 6 -51 29 0 30 1 25 43 -3 23 -6 48 -6 55 -1 6 -2 12 -2 12 -1 0 -8 -5 -16
-10z"/>
<path d="M1830 946 c0 -2 8 -10 18 -17 15 -13 16 -12 3 4 -13 16 -21 21 -21
13z"/>
<path d="M4320 939 c0 -5 5 -7 10 -4 6 3 10 8 10 11 0 2 -4 4 -10 4 -5 0 -10
-5 -10 -11z"/>
<path d="M212 910 c0 -19 2 -27 5 -17 2 9 2 25 0 35 -3 9 -5 1 -5 -18z"/>
<path d="M3691 933 c5 -27 -2 -33 -21 -23 -35 19 -60 3 -60 -36 0 -28 -4 -35
-17 -33 -32 3 -44 -1 -38 -11 3 -6 0 -17 -9 -25 -13 -13 -15 -11 -21 16 -9 42
-25 19 -25 -37 0 -39 -2 -41 -25 -36 -28 5 -32 -5 -10 -34 21 -27 19 -32 -11
-26 -25 5 -26 3 -20 -24 4 -16 8 -47 10 -69 2 -21 9 -41 15 -43 6 -2 11 -13
11 -24 0 -15 5 -19 19 -15 13 3 18 -1 17 -14 -1 -11 -4 -19 -8 -19 -5 0 -11 0
-15 0 -5 0 -1 5 7 11 13 9 13 10 -2 6 -9 -3 -19 -1 -21 6 -2 7 -8 8 -13 4 -5
-5 5 -21 23 -36 24 -20 29 -30 23 -41 -30 -47 15 -69 58 -30 17 16 26 18 41
11 10 -6 21 -8 25 -4 3 3 43 6 88 7 46 1 89 5 96 9 7 5 12 3 12 -4 0 -8 6 -7
23 3 34 21 74 12 82 -20 l6 -26 26 33 25 32 12 -23 c8 -16 22 -24 44 -26 29
-3 32 -1 32 25 0 16 -7 39 -16 51 -9 13 -14 26 -11 29 8 8 86 -7 93 -18 3 -5
10 -9 15 -9 20 0 -12 40 -36 46 -32 8 -32 34 0 64 13 12 22 27 19 32 -3 5 -2
8 3 7 15 -2 53 13 53 22 0 12 -5 11 -44 -5 -18 -7 -42 -26 -54 -41 -22 -27
-22 -27 -22 -5 0 13 16 53 36 89 l36 66 -35 -33 c-33 -32 -35 -33 -40 -12 -3
12 -10 19 -16 15 -6 -3 -11 -2 -11 2 0 5 9 14 20 21 27 16 25 32 -2 32 -19 0
-20 -2 -8 -10 9 -6 10 -10 3 -10 -20 0 -23 15 -11 48 15 38 4 53 -20 27 -15
-16 -15 -17 -1 -12 13 4 15 1 12 -13 -3 -11 -10 -24 -17 -29 -9 -7 -12 2 -12
37 0 38 -3 47 -17 46 -10 -1 -17 5 -17 17 0 21 -20 25 -37 8 -8 -8 -11 -7 -10
6 1 10 -8 21 -21 26 -15 6 -21 5 -17 -2 4 -6 -2 -8 -18 -4 -19 5 -26 2 -30
-12 -3 -15 -6 -13 -15 10 -13 31 -38 36 -47 8 -8 -28 -33 -34 -40 -10 -6 18
-47 48 -44 32z m133 -69 c3 -8 2 -12 -4 -9 -6 3 -10 10 -10 16 0 14 7 11 14
-7z m-93 -9 c7 17 8 16 8 -8 1 -16 -3 -26 -9 -22 -14 9 -12 -8 3 -24 8 -10 8
-12 0 -7 -6 3 -14 2 -18 -4 -9 -14 28 -12 45 3 8 6 11 8 7 3 -3 -5 1 -15 11
-23 16 -12 16 -13 -2 -6 -12 4 -23 0 -32 -12 -14 -18 -69 -32 -59 -14 4 5 15
9 26 9 10 0 19 5 19 11 0 5 -4 7 -10 4 -11 -7 -13 5 -10 44 2 25 -20 26 -28 1
-3 -7 0 -10 6 -6 19 12 -1 -38 -25 -62 -13 -13 -21 -28 -18 -33 4 -5 1 -9 -4
-9 -6 0 -11 9 -11 20 0 11 -4 20 -8 20 -15 0 -30 -23 -25 -37 5 -12 1 -11 -15
3 -23 19 -29 30 -12 19 5 -3 25 8 42 24 18 17 36 31 41 31 4 0 7 4 7 10 0 5
-7 7 -15 4 -11 -5 -13 -2 -9 11 4 10 1 21 -7 26 -9 6 -10 9 -2 9 7 0 16 -7 21
-16 9 -17 32 -12 32 7 0 6 -4 7 -10 4 -5 -3 -10 -4 -10 -1 0 3 10 10 21 17 17
9 20 8 15 -3 -4 -7 -1 -5 6 5 12 17 13 17 17 0 3 -16 4 -16 12 2z m62 8 c-7
-2 -19 -2 -25 0 -7 3 -2 5 12 5 14 0 19 -2 13 -5z m-3 -33 c0 -5 -9 -6 -20 -3
-11 3 -20 9 -20 13 0 5 9 6 20 3 11 -3 20 -9 20 -13z m-267 -48 c4 -21 3 -31
-3 -27 -6 3 -10 20 -10 37 0 38 5 34 13 -10z m295 26 c-5 -13 -38 -20 -38 -8
0 8 17 18 33 19 5 1 7 -4 5 -11z m22 -3 c0 -8 -4 -15 -10 -15 -5 0 -7 7 -4 15
4 8 8 15 10 15 2 0 4 -7 4 -15z m30 6 c0 -6 -4 -12 -8 -15 -5 -3 -9 1 -9 9 0
8 4 15 9 15 4 0 8 -4 8 -9z m-300 -20 c0 -5 7 -12 16 -15 12 -5 15 -2 10 10
-6 14 -4 15 9 4 15 -12 15 -14 -2 -23 -10 -6 -20 -14 -23 -18 -3 -5 -11 5 -17
21 -6 17 -7 30 -2 30 5 0 9 -4 9 -9z m280 -52 c0 -4 -4 -10 -9 -13 -5 -3 -11
8 -13 26 -5 28 -4 29 9 13 7 -11 13 -22 13 -26z m80 29 c0 -11 -12 -10 -30 2
-12 7 -10 9 8 7 12 0 22 -5 22 -9z m49 -6 c6 -12 6 -23 -1 -33 -8 -12 -9 -11
-5 3 9 25 -3 29 -26 8 -15 -15 -24 -17 -34 -9 -7 6 -19 9 -28 6 -8 -4 -17 -2
-20 3 -3 5 13 7 35 5 32 -4 43 0 53 15 14 24 14 24 26 2z m-190 -18 c6 4 11 3
11 -3 0 -5 -4 -12 -10 -16 -5 -3 -6 -13 -3 -23 6 -15 5 -15 -10 -3 -14 11 -20
11 -34 0 -15 -13 -15 -12 -3 8 8 12 20 19 29 16 13 -4 13 -2 -1 10 -10 8 -15
17 -11 21 4 3 10 1 14 -5 4 -6 12 -8 18 -5z m28 -14 c-1 -11 -5 -20 -9 -20
-10 0 -10 4 -2 24 8 22 13 20 11 -4z m-311 -12 c10 -12 13 -18 5 -13 -11 6
-13 4 -8 -11 6 -15 3 -14 -13 5 -11 13 -20 27 -20 32 0 16 16 10 36 -13z m402
-2 c-2 -1 -12 -8 -22 -16 -18 -14 -18 -14 -6 7 8 12 18 19 23 16 4 -3 7 -6 5
-7z m-181 -2 c-3 -3 -12 -4 -19 -1 -8 3 -5 6 6 6 11 1 17 -2 13 -5z m132 -54
c0 -10 -2 -11 -6 -2 -2 6 -9 10 -14 6 -5 -3 -9 7 -9 22 0 27 1 27 15 8 8 -10
14 -26 14 -34z m-122 -8 c-1 -16 -4 -18 -14 -10 -16 13 -17 22 -2 12 7 -4 10
-1 7 7 -2 7 -16 14 -31 14 -15 1 -30 5 -34 9 -4 4 5 5 20 2 15 -2 27 0 27 5 0
6 7 4 14 -4 8 -8 14 -24 13 -35z m33 38 c0 -5 -5 -10 -11 -10 -5 0 -7 5 -4 10
3 6 8 10 11 10 2 0 4 -4 4 -10z m137 -12 c-3 -8 -6 -5 -6 6 -1 11 2 17 5 13 3
-3 4 -12 1 -19z m-97 -18 c-6 -10 -16 -22 -23 -26 -7 -5 -6 0 3 11 12 15 13
19 1 23 -11 4 -11 6 0 13 20 12 30 0 19 -21z m94 -9 c3 -5 -3 -11 -15 -14 -16
-4 -18 -3 -8 9 13 16 16 17 23 5z m-58 -43 c-6 -4 -15 -8 -21 -8 -5 0 -4 4 4
9 9 6 10 11 2 15 -6 4 -11 11 -11 17 0 5 8 1 18 -8 12 -12 14 -21 8 -25z m134
23 c0 -29 -15 -33 -16 -5 -1 13 2 24 7 24 5 0 9 -9 9 -19z m-275 -11 c3 -5 1
-10 -4 -10 -6 0 -11 5 -11 10 0 6 2 10 4 10 3 0 8 -4 11 -10z m210 0 c3 -5 1
-10 -4 -10 -6 0 -11 5 -11 10 0 6 2 10 4 10 3 0 8 -4 11 -10z m-205 -35 c0 -2
-6 -5 -13 -8 -8 -3 -14 1 -14 8 0 7 6 11 14 8 7 -3 13 -6 13 -8z m200 5 c0 -5
-4 -10 -10 -10 -5 0 -10 5 -10 10 0 6 5 10 10 10 6 0 10 -4 10 -10z m210 6 c0
-2 -8 -10 -17 -17 -16 -13 -17 -12 -4 4 13 16 21 21 21 13z m-521 -19 c-9 -7
-18 -19 -22 -27 -5 -13 -6 -13 -6 1 -1 17 18 39 34 39 5 0 3 -6 -6 -13z m186
3 c3 -5 1 -10 -4 -10 -6 0 -11 5 -11 10 0 6 2 10 4 10 3 0 8 -4 11 -10z m75 6
c0 -2 -7 -7 -16 -10 -8 -3 -12 -2 -9 4 6 10 25 14 25 6z m-190 -31 c0 -8 -7
-15 -15 -15 -8 0 -15 5 -15 11 0 5 5 7 10 4 6 -3 10 -1 10 4 0 6 2 11 5 11 3
0 5 -7 5 -15z m126 -11 c-7 -7 -15 -9 -22 -3 -6 5 -20 7 -30 3 -13 -4 -15 -3
-6 3 7 5 26 10 41 10 22 0 26 -3 17 -13z m114 12 c0 -2 -7 -7 -16 -10 -8 -3
-12 -2 -9 4 6 10 25 14 25 6z m11 -43 c13 -17 13 -17 -6 -3 -11 8 -22 16 -24
17 -2 2 0 3 6 3 6 0 17 -8 24 -17z m-64 -45 c-3 -8 -6 -5 -6 6 -1 11 2 17 5
13 3 -3 4 -12 1 -19z m98 -10 c-5 -21 -5 -21 9 2 17 28 22 10 5 -21 -5 -11
-15 -16 -21 -13 -6 4 -8 3 -4 -4 3 -6 2 -13 -4 -17 -13 -8 -13 31 0 56 14 26
23 24 15 -3z m95 -7 c15 -29 12 -51 -7 -51 -30 0 -47 16 -38 36 5 11 7 22 7
27 -4 16 28 6 38 -12z m-500 -12 c0 -5 5 -7 10 -4 20 13 9 -14 -12 -29 -43
-30 -65 -12 -31 26 18 20 33 24 33 7z"/>
<path d="M3671 789 c-1 -9 -10 -19 -21 -22 -19 -5 -29 -27 -12 -27 16 0 44 39
39 52 -4 9 -6 8 -6 -3z"/>
<path d="M4022 441 c-10 -6 -10 -10 2 -20 12 -10 15 -9 13 8 -1 12 -1 21 -2
21 0 0 -6 -4 -13 -9z"/>
<path d="M4370 925 c0 -8 4 -15 10 -15 5 0 7 7 4 15 -4 8 -8 15 -10 15 -2 0
-4 -7 -4 -15z"/>
<path d="M500 915 c-7 -9 -8 -15 -2 -15 5 0 12 7 16 15 3 8 4 15 2 15 -2 0 -9
-7 -16 -15z"/>
<path d="M597 923 c-4 -3 -7 -11 -7 -17 0 -6 5 -5 12 2 6 6 9 14 7 17 -3 3 -9
2 -12 -2z"/>
<path d="M540 910 c0 -5 5 -10 11 -10 5 0 7 5 4 10 -3 6 -8 10 -11 10 -2 0 -4
-4 -4 -10z"/>
<path d="M616 903 c-6 -14 -5 -15 5 -6 7 7 10 15 7 18 -3 3 -9 -2 -12 -12z"/>
<path d="M671 904 c0 -11 3 -14 6 -6 3 7 2 16 -1 19 -3 4 -6 -2 -5 -13z"/>
<path d="M4025 911 c-3 -5 -2 -12 3 -15 5 -3 9 1 9 9 0 17 -3 19 -12 6z"/>
<path d="M4345 890 c-13 -5 -14 -9 -5 -9 8 0 24 4 35 9 13 5 14 9 5 9 -8 0
-24 -4 -35 -9z"/>
<path d="M4196 879 c6 -11 44 -12 44 -1 0 4 -11 8 -25 8 -14 1 -22 -2 -19 -7z"/>
<path d="M4370 870 c0 -5 5 -10 10 -10 6 0 10 5 10 10 0 6 -4 10 -10 10 -5 0
-10 -4 -10 -10z"/>
<path d="M4338 863 c7 -3 16 -2 19 1 4 3 -2 6 -13 5 -11 0 -14 -3 -6 -6z"/>
<path d="M1891 824 c0 -11 3 -14 6 -6 3 7 2 16 -1 19 -3 4 -6 -2 -5 -13z"/>
<path d="M1851 783 c-1 -13 -7 -23 -13 -23 -10 0 -10 -2 -1 -8 7 -4 13 -22 15
-39 1 -17 6 -29 12 -26 5 4 7 -3 4 -15 -3 -12 0 -23 7 -26 7 -2 15 -17 18 -33
3 -15 8 -41 11 -58 3 -16 9 -46 12 -65 3 -19 11 -41 17 -49 10 -12 9 -13 -2
-6 -11 6 -13 4 -8 -9 4 -10 7 -20 7 -22 0 -3 5 -2 12 2 6 4 8 3 5 -3 -8 -12
18 -69 36 -80 7 -5 18 -20 26 -34 9 -19 19 -25 32 -22 10 3 19 1 19 -5 0 -6 8
-9 18 -7 9 2 27 4 40 4 21 1 22 3 8 16 -8 9 -13 22 -10 30 4 11 -1 15 -17 15
-30 0 -37 6 -70 50 -45 60 -58 93 -75 183 -3 16 -12 49 -19 75 -8 25 -12 49
-9 53 2 4 0 10 -6 14 -6 4 -8 10 -6 14 3 4 -8 6 -24 5 -23 -2 -28 2 -25 16 2
10 0 31 -5 47 -7 24 -8 25 -9 6z"/>
<path d="M515 559 c-4 -6 -4 -13 -1 -16 3 -4 6 -1 6 6 0 7 5 9 12 5 7 -4 8 -3
4 4 -9 15 -13 15 -21 1z"/>
<path d="M605 560 c3 -5 8 -10 11 -10 2 0 4 5 4 10 0 6 -5 10 -11 10 -5 0 -7
-4 -4 -10z"/>
<path d="M775 450 c-3 -5 -1 -10 4 -10 6 0 11 5 11 10 0 6 -2 10 -4 10 -3 0
-8 -4 -11 -10z"/>
<path d="M1286 443 c-6 -14 -5 -15 5 -6 7 7 10 15 7 18 -3 3 -9 -2 -12 -12z"/>
<path d="M580 421 c0 -6 4 -13 10 -16 6 -3 7 1 4 9 -7 18 -14 21 -14 7z"/>
<path d="M2850 215 l0 -65 34 0 c25 0 39 7 50 22 35 49 7 108 -50 108 l-34 0
0 -65z m65 0 c0 -34 -3 -40 -22 -43 -21 -3 -23 1 -23 43 0 42 2 46 23 43 19
-3 22 -9 22 -43z"/>
<path d="M2972 224 c3 -40 10 -61 23 -70 25 -18 31 -18 55 6 15 15 20 33 20
70 0 48 -19 73 -21 28 -1 -13 -2 -27 -4 -33 -1 -5 -3 -20 -3 -32 -2 -16 -8
-23 -22 -23 -18 0 -20 7 -20 55 0 44 -3 55 -16 55 -14 0 -16 -9 -12 -56z"/>
<path d="M3100 270 c0 -5 9 -10 20 -10 27 0 25 -18 -5 -62 -14 -20 -25 -39
-25 -42 0 -4 20 -6 45 -6 25 0 45 5 45 10 0 6 -11 10 -25 10 -31 0 -31 5 0 55
14 22 25 43 25 48 0 4 -18 7 -40 7 -22 0 -40 -4 -40 -10z"/>
<path d="M3208 224 c-1 -31 -1 -60 2 -64 5 -8 33 -13 58 -11 23 2 12 21 -13
21 -19 0 -25 5 -25 21 0 16 4 19 20 14 14 -5 20 -2 20 10 0 12 -6 15 -20 10
-16 -5 -20 -2 -20 14 0 16 6 21 25 21 14 0 25 5 25 10 0 6 -15 10 -34 10 l-34
0 -4 -56z"/>
<path d="M3302 215 c-1 -46 3 -65 11 -65 9 0 12 11 9 34 -7 58 5 64 27 14 32
-70 51 -64 51 17 0 37 -4 65 -10 65 -5 0 -10 -21 -10 -47 l-1 -48 -25 48 c-35
67 -50 62 -52 -18z"/>
<path d="M3420 270 c0 -5 7 -10 15 -10 12 0 15 -13 15 -55 0 -30 5 -55 10 -55
11 0 14 18 11 73 -2 32 0 37 18 37 12 0 21 5 21 10 0 6 -20 10 -45 10 -25 0
-45 -4 -45 -10z"/>
<path d="M3540 260 c-40 -40 -18 -112 34 -112 37 -1 51 15 51 61 0 66 -44 92
-85 51z m62 -25 c8 -19 8 -31 0 -50 -23 -50 -70 -13 -57 46 8 37 41 39 57 4z"/>
<path d="M3670 270 c-8 -5 -15 -15 -16 -22 0 -17 26 -49 36 -43 4 3 10 -2 13
-9 7 -17 -18 -41 -32 -32 -5 4 -12 2 -15 -3 -9 -14 21 -21 47 -12 33 13 31 47
-4 71 -36 26 -37 40 -4 40 14 0 25 5 25 10 0 13 -30 13 -50 0z"/>
<path d="M3796 249 c-11 -57 -7 -99 9 -99 8 0 14 3 14 7 -8 48 17 57 32 13 14
-38 34 -40 23 -2 -4 15 -7 42 -6 61 2 37 -10 51 -44 51 -16 0 -23 -8 -28 -31z
m54 -4 c10 -12 9 -16 -5 -21 -16 -6 -34 9 -35 29 0 13 27 8 40 -8z"/>
<path d="M3907 229 c-9 -71 -1 -91 37 -87 17 2 30 8 28 13 -2 6 -12 9 -22 7
-15 -2 -20 3 -20 17 0 14 6 21 20 21 11 0 20 5 20 10 0 6 -9 10 -20 10 -13 0
-20 7 -20 20 0 13 7 20 20 20 11 0 20 5 20 10 0 6 -13 9 -29 8 -26 -2 -29 -6
-34 -49z"/>
<path d="M4016 222 c-19 -68 -20 -82 -6 -82 6 0 10 9 10 20 0 14 7 20 21 20
12 0 23 -8 26 -20 3 -11 12 -20 20 -20 9 0 13 6 10 14 -3 8 -11 34 -18 57 -25
86 -41 89 -63 11z m43 -14 c1 -5 -6 -8 -14 -8 -16 0 -19 9 -8 36 6 16 7 16 14
-2 4 -10 8 -22 8 -26z"/>
<path d="M4128 274 c-11 -10 -10 -134 1 -134 5 0 11 12 14 28 6 34 -6 116 -15
106z"/>
<path d="M4185 260 c-20 -22 -14 -50 14 -57 11 -3 22 -11 25 -19 5 -13 1 -16
-34 -18 -22 -1 -14 -20 10 -24 50 -8 66 44 23 76 -26 19 -24 49 3 38 8 -3 14
1 14 9 0 21 -34 18 -55 -5z"/>
<path d="M155 238 c-13 -39 -24 -92 -20 -96 2 -3 12 1 21 9 13 11 18 11 21 2
4 -12 33 -19 33 -8 0 2 -5 27 -11 55 -10 48 -34 68 -44 38z"/>
<path d="M272 199 c-7 -29 -9 -55 -6 -58 4 -3 9 0 11 7 5 14 33 16 33 2 0 -5
7 -10 16 -10 11 0 14 5 10 16 -3 9 -9 33 -12 55 -10 59 -37 53 -52 -12z"/>
<path d="M376 235 c-9 -23 -7 -68 3 -83 5 -8 17 -12 27 -10 16 3 19 12 19 53
0 43 -3 50 -21 53 -13 2 -24 -4 -28 -13z m31 -57 c-2 -13 -4 -5 -4 17 -1 22 1
32 4 23 2 -10 2 -28 0 -40z"/>
<path d="M460 195 c0 -52 1 -55 25 -55 25 0 27 5 27 50 0 55 -2 60 -27 60 -24
0 -25 -3 -25 -55z m27 -17 c-2 -13 -4 -5 -4 17 -1 22 1 32 4 23 2 -10 2 -28 0
-40z"/>
<path d="M544 237 c-3 -8 -4 -32 -2 -53 3 -34 6 -39 28 -39 23 0 25 3 25 50 0
44 -3 50 -23 53 -13 2 -24 -3 -28 -11z m36 -43 c0 -19 -4 -33 -9 -30 -5 4 -8
14 -6 24 2 9 4 23 4 30 2 28 11 9 11 -24z"/>
<path d="M637 243 c-13 -12 -8 -101 6 -106 32 -12 43 14 38 91 -1 21 -29 31
-44 15z m20 -65 c-2 -13 -4 -5 -4 17 -1 22 1 32 4 23 2 -10 2 -28 0 -40z"/>
<path d="M715 238 c-2 -7 -3 -31 -2 -53 2 -35 5 -40 27 -40 23 0 25 3 25 50 0
44 -3 50 -23 53 -12 2 -24 -3 -27 -10z m35 -68 c0 -5 -2 -10 -4 -10 -3 0 -8 5
-11 10 -3 6 -1 10 4 10 6 0 11 -4 11 -10z"/>
<path d="M801 232 c-11 -22 -4 -84 12 -94 25 -15 38 4 35 56 -3 55 -27 75 -47
38z m26 -54 c-2 -13 -4 -5 -4 17 -1 22 1 32 4 23 2 -10 2 -28 0 -40z"/>
<path d="M884 236 c-3 -8 -4 -31 -2 -52 5 -65 57 -58 58 8 0 14 -3 33 -6 42
-8 20 -43 21 -50 2z m31 -38 c-8 -46 -15 -48 -15 -5 0 21 5 37 10 37 6 0 8
-13 5 -32z"/>
<path d="M971 231 c-23 -42 -8 -96 25 -89 26 5 28 101 2 106 -9 2 -21 -6 -27
-17z m26 -53 c-2 -13 -4 -5 -4 17 -1 22 1 32 4 23 2 -10 2 -28 0 -40z"/>
<path d="M1073 238 c-13 -16 -2 -103 12 -103 13 0 19 95 7 107 -5 5 -13 4 -19
-4z"/>
<path d="M1971 210 c6 -4 9 -12 6 -17 -3 -5 10 -9 30 -10 24 0 31 2 22 8 -11
7 -12 11 -1 17 8 6 -2 9 -28 9 -23 0 -36 -3 -29 -7z"/>
<path d="M2110 199 c-9 -16 -9 -20 0 -14 6 4 29 7 50 7 31 -1 38 2 33 14 -4
12 -8 12 -13 4 -6 -9 -9 -9 -14 1 -5 11 -7 11 -12 1 -4 -9 -9 -10 -19 -2 -10
9 -16 6 -25 -11z"/>
<path d="M2085 200 c-4 -6 -11 -7 -17 -4 -7 4 -8 2 -4 -5 6 -9 11 -9 22 0 14
11 18 19 10 19 -3 0 -8 -5 -11 -10z"/>
</g>
</svg>
